<svg width="183" height="179" viewBox="0 0 183 179" fill="none" xmlns="http://www.w3.org/2000/svg">
<g opacity="0.3">
<path opacity="0.0243902" d="M92.8742 176.06C80.2651 157.254 -6.86182 158.155 4.09364 139.687C14.9458 121.332 141.967 71.7837 162.844 78.2025C183.618 84.6212 190.75 99.0352 170.286 117.391C154.68 131.354 97.6285 183.155 92.8742 176.06Z" fill="#FBFBFB"/>
<path opacity="0.0487805" d="M93.9077 174.596C80.6785 156.466 -4.48471 156.804 6.26405 138.561C16.9095 120.318 141.244 71.671 162.121 77.9772C182.998 84.2833 190.336 98.5847 170.389 116.828C155.3 130.791 98.972 181.691 93.9077 174.596Z" fill="#F7F7F7"/>
<path opacity="0.0731707" d="M94.9413 173.245C81.1953 155.903 -2.00417 155.678 8.43452 137.435C18.8732 119.192 140.417 71.5584 161.398 77.7519C182.378 83.9455 190.026 98.0217 170.596 116.264C155.816 130.115 100.419 180.227 94.9413 173.245Z" fill="#F3F3F3"/>
<path opacity="0.097561" d="M95.9748 171.894C81.7121 155.227 0.476257 154.439 10.6049 136.309C20.7335 118.179 139.693 71.5584 160.777 77.5267C181.758 83.495 189.716 97.5712 170.803 115.701C156.437 129.552 101.866 178.763 95.9748 171.894Z" fill="#EFEFEF"/>
<path opacity="0.122" d="M97.0083 170.43C82.3322 154.439 2.85341 153.088 12.7753 135.07C22.6973 117.165 138.97 71.4457 160.054 77.3014C181.241 83.1571 189.406 97.1207 171.009 115.138C156.953 128.989 103.313 177.299 97.0083 170.43Z" fill="#EBEBEB"/>
<path opacity="0.1463" d="M98.0419 169.078C82.9523 153.763 5.33388 151.849 14.9457 134.057C24.661 116.152 138.143 71.3331 159.434 77.0762C180.621 82.7067 189.096 96.6703 171.319 114.688C157.573 128.426 104.76 175.948 98.0419 169.078Z" fill="#E7E7E7"/>
<path opacity="0.1707" d="M99.1788 167.727C83.6758 153.088 7.91776 150.723 17.2196 132.931C26.5214 115.138 137.42 71.3332 158.71 76.8511C180.001 82.369 188.786 96.1074 171.423 114.125C158.09 127.863 106.31 174.484 99.1788 167.727Z" fill="#E4E4E4"/>
<path opacity="0.1951" d="M100.212 166.263C84.3992 152.187 10.2948 149.372 19.3899 131.692C28.485 114.125 136.696 71.2204 157.987 76.6257C179.381 82.031 188.476 95.6568 171.629 113.562C158.71 127.3 107.757 173.02 100.212 166.263Z" fill="#E0E0E0"/>
<path opacity="0.2195" d="M101.246 164.912C85.1227 151.511 12.7753 148.133 21.5604 130.566C30.4488 112.999 135.869 71.108 157.367 76.4007C178.761 81.5807 188.063 95.2065 171.836 112.999C159.227 126.737 109.307 171.556 101.246 164.912Z" fill="#DCDCDC"/>
<path opacity="0.2439" d="M102.279 163.448C85.8462 150.61 15.2558 146.894 23.7308 129.44C32.3091 111.985 135.146 71.1079 156.643 76.1754C178.141 81.2428 187.753 94.756 172.043 112.436C159.847 126.174 110.754 170.092 102.279 163.448Z" fill="#D8D8D8"/>
<path opacity="0.2683" d="M103.313 162.097C86.5697 149.822 17.7363 145.656 26.0046 128.314C34.2729 110.972 134.422 70.9954 156.023 75.9502C177.624 80.7924 187.443 94.3056 172.25 111.873C160.364 125.611 112.305 168.628 103.313 162.097Z" fill="#D4D4D4"/>
<path opacity="0.2927" d="M104.346 160.745C87.2931 149.034 20.1134 144.417 28.175 127.188C36.1332 109.958 133.595 70.8827 155.3 75.7249C177.004 80.4545 187.133 93.8551 172.456 111.31C160.984 125.048 113.855 167.164 104.346 160.745Z" fill="#D0D0D0"/>
<path opacity="0.3171" d="M105.38 159.281C88.1199 148.133 22.5939 143.178 30.3454 125.949C38.0969 108.945 132.872 70.8827 154.576 75.4997C176.384 80.0041 186.822 93.2921 172.663 110.747C161.501 124.485 115.302 165.7 105.38 159.281Z" fill="#CCCCCC"/>
<path opacity="0.3415" d="M106.517 157.93C89.0501 147.345 25.1777 141.939 32.6191 124.935C40.0606 107.931 132.148 70.7701 153.956 75.1619C175.764 79.6663 186.512 92.8416 172.87 110.184C162.121 123.922 116.852 164.236 106.517 157.93Z" fill="#C8C8C8"/>
<path opacity="0.3659" d="M107.55 156.579C89.7736 146.444 27.5549 140.701 34.7896 123.809C42.0243 106.918 131.425 70.7701 153.336 75.0493C175.144 79.3285 186.202 92.3912 173.076 109.62C162.638 123.359 118.403 162.772 107.55 156.579Z" fill="#C4C4C4"/>
<path opacity="0.3902" d="M108.584 155.115C90.6004 145.543 30.0353 139.462 36.96 122.571C43.8847 105.792 130.598 70.6576 152.612 74.7115C174.523 78.8781 185.892 91.9408 173.283 109.057C163.258 122.796 119.953 161.196 108.584 155.115Z" fill="#C0C0C0"/>
<path opacity="0.4146" d="M109.617 153.764C91.4273 144.642 32.5158 138.223 39.1305 121.445C45.8484 104.778 129.875 70.545 151.889 74.4863C174.007 78.5403 185.582 91.4904 173.49 108.494C163.878 122.233 121.503 159.732 109.617 153.764Z" fill="#BCBCBC"/>
<path opacity="0.439" d="M110.651 152.412C92.2541 143.741 34.893 136.985 41.3009 120.431C47.7088 103.765 129.048 70.4323 151.269 74.2611C173.387 78.0898 185.169 91.0399 173.697 107.931C164.395 121.67 123.053 158.268 110.651 152.412Z" fill="#B8B8B8"/>
<path opacity="0.4634" d="M111.685 150.948C93.0809 142.728 37.3735 135.746 43.4713 119.192C49.6725 102.751 128.324 70.4323 150.545 74.0358C172.766 77.752 184.859 90.5895 173.903 107.368C165.015 121.219 124.604 156.691 111.685 150.948Z" fill="#B4B4B4"/>
<path opacity="0.4878" d="M112.718 149.597C93.9077 141.827 39.8539 134.507 45.6417 118.066C51.6362 101.738 127.601 70.3196 149.822 73.8105C172.146 77.3014 184.549 90.1389 174.11 106.805C165.532 120.656 126.154 155.115 112.718 149.597Z" fill="#B0B0B0"/>
<path opacity="0.5122" d="M113.855 148.245C94.8379 140.926 42.3344 133.268 47.9155 116.94C53.4966 100.612 126.774 70.207 149.202 73.5853C171.63 76.9635 184.342 89.6884 174.42 106.242C166.152 120.093 127.704 153.538 113.855 148.245Z" fill="#ADADAD"/>
<path opacity="0.5366" d="M114.889 146.782C95.6648 139.8 44.8149 132.03 50.1893 115.814C55.4603 99.5983 126.051 70.2071 148.478 73.3602C170.906 76.6259 183.929 89.2382 174.523 105.679C166.669 119.53 129.255 151.962 114.889 146.782Z" fill="#A9A9A9"/>
<path opacity="0.561" d="M115.922 145.43C96.4916 138.899 47.2954 130.791 52.3597 114.688C57.3206 98.5847 125.224 70.0944 147.858 73.1349C170.389 76.1753 183.619 88.7876 174.73 105.229C167.289 118.967 130.908 150.385 115.922 145.43Z" fill="#A5A5A5"/>
<path opacity="0.5854" d="M116.956 143.967C97.3184 137.773 49.6725 129.44 54.5301 113.449C59.2844 97.5713 124.5 69.9819 147.135 72.9098C169.769 75.8377 183.308 88.3373 175.04 104.666C167.909 118.404 132.459 148.809 116.956 143.967Z" fill="#A1A1A1"/>
<path opacity="0.6098" d="M117.989 142.615C98.1452 136.872 52.153 128.201 56.7005 112.323C61.2481 96.5577 123.777 69.8692 146.411 72.6845C169.149 75.3871 183.102 87.8868 175.247 104.103C168.426 117.954 134.009 147.232 117.989 142.615Z" fill="#9D9D9D"/>
<path opacity="0.6341" d="M119.023 141.264C98.8687 135.858 54.6335 127.075 58.871 111.31C63.1085 95.5442 122.95 69.8692 145.791 72.4592C168.529 75.0492 182.792 87.4363 175.454 103.539C169.046 117.39 135.559 145.656 119.023 141.264Z" fill="#999999"/>
<path opacity="0.6585" d="M120.056 139.8C99.6955 134.733 57.114 125.724 61.0414 110.071C65.0722 94.4184 122.227 69.7568 145.068 72.2343C167.909 74.5991 182.482 87.0987 175.66 102.977C169.666 116.828 137.109 144.079 120.056 139.8Z" fill="#959595"/>
<path opacity="0.6829" d="M121.193 138.449C100.626 133.832 59.5944 124.485 63.3151 108.945C67.0359 93.4047 121.503 69.644 144.448 72.0088C167.392 74.261 182.172 86.6481 175.867 102.413C170.183 116.264 138.66 142.39 121.193 138.449Z" fill="#919191"/>
<path opacity="0.7073" d="M122.227 137.097C101.453 132.818 62.0749 123.359 65.4855 107.819C68.8962 92.3911 120.78 69.644 143.724 71.7836C166.772 73.9232 181.861 86.1976 176.074 101.85C170.803 115.814 140.21 140.813 122.227 137.097Z" fill="#8D8D8D"/>
<path opacity="0.7317" d="M123.26 135.633C102.176 131.692 64.5554 122.008 67.656 106.693C70.8599 91.3777 119.953 69.5314 143.001 71.5584C166.152 73.4727 181.551 85.7472 176.28 101.287C171.423 115.251 141.76 139.124 123.26 135.633Z" fill="#898989"/>
<path opacity="0.7561" d="M124.294 134.282C103.003 130.678 66.9325 120.769 69.8264 105.566C72.7203 90.3642 119.229 69.4188 142.381 71.3331C165.532 73.1349 181.345 85.2967 176.487 100.724C172.043 114.688 143.311 137.435 124.294 134.282Z" fill="#858585"/>
<path opacity="0.7805" d="M125.327 132.931C103.83 129.665 69.413 119.643 71.9968 104.44C74.684 89.2381 118.403 69.4188 141.657 71.108C164.912 72.6845 181.035 84.959 176.694 100.161C172.663 114.125 144.861 135.859 125.327 132.931Z" fill="#818181"/>
<path opacity="0.8049" d="M126.361 131.467C104.553 128.539 71.8935 118.291 74.2706 103.202C76.6477 88.2247 117.679 69.3063 141.037 70.7702C164.291 72.3467 180.725 84.5086 176.901 99.5983C173.283 113.674 146.411 134.169 126.361 131.467Z" fill="#7D7D7D"/>
<path opacity="0.8293" d="M127.394 130.116C105.38 127.526 74.2706 117.053 76.441 102.188C78.5081 87.3239 116.956 69.3063 140.313 70.6576C163.671 71.8963 180.518 84.0582 177.107 99.0353C173.903 113.111 147.962 132.48 127.394 130.116Z" fill="#797979"/>
<path opacity="0.8537" d="M128.531 128.651C106.207 126.399 76.8544 115.814 78.7148 100.949C80.4718 86.1975 116.129 69.1935 139.59 70.3196C163.155 71.5583 180.208 83.6075 177.314 98.472C174.523 112.548 149.512 130.791 128.531 128.651Z" fill="#767676"/>
<path opacity="0.878" d="M129.565 127.3C107.034 125.386 79.3349 114.575 80.8852 99.8234C82.4355 85.1841 115.405 69.081 138.97 70.0945C162.534 71.2205 180.001 83.1572 177.521 97.909C175.144 112.098 151.062 129.102 129.565 127.3Z" fill="#727272"/>
<path opacity="0.9024" d="M130.598 125.949C107.757 124.372 81.712 113.337 83.0556 98.6973C84.2959 84.1707 114.682 68.9684 138.246 69.8692C161.914 70.7701 179.691 82.7067 177.727 97.346C175.764 111.535 152.612 127.413 130.598 125.949Z" fill="#6E6E6E"/>
<path opacity="0.9268" d="M131.632 124.485C108.481 123.246 84.1926 112.098 85.2261 97.5712C86.2596 83.0445 113.855 68.9683 137.626 69.644C161.294 70.4323 179.484 82.2563 177.934 96.7829C176.384 110.972 154.163 125.724 131.632 124.485Z" fill="#6A6A6A"/>
<path opacity="0.9512" d="M132.665 123.134C109.307 122.233 86.673 110.859 87.3965 96.4452C88.1199 82.0312 113.131 68.8559 136.903 69.4189C160.674 69.982 179.174 81.806 178.141 96.22C177.004 110.409 155.61 124.035 132.665 123.134Z" fill="#666666"/>
<path opacity="0.9756" d="M133.699 121.783C110.031 121.219 89.0501 109.621 89.5669 95.3192C90.0837 81.0178 112.408 68.7433 136.283 69.1938C160.157 69.6442 178.968 81.4682 178.347 95.6571C177.624 109.846 157.16 122.346 133.699 121.783Z" fill="#626262"/>
<path d="M134.732 120.318C110.858 120.093 91.634 108.382 91.8407 94.193C92.0474 80.0042 111.581 68.7432 135.559 68.9684C159.537 69.3062 178.761 81.0176 178.554 95.2065C178.347 109.395 158.71 120.656 134.732 120.318Z" fill="#5E5E5E"/>
</g>
<g clip-path="url(#clip0_1023_363)">
<g opacity="0.7">
<path d="M103.644 128.195C70.1643 127.889 47.1279 111.957 47.2814 97.5562C47.5886 83.1558 74.7716 71.8193 108.251 72.1257C141.731 72.5853 170.91 86.5261 170.603 100.927C170.296 115.327 137.124 128.655 103.644 128.195Z" fill="#5E5E5E"/>
</g>
<g opacity="0.5">
<path d="M112.244 129.421C76.6145 129.114 48.0493 113.182 48.3565 93.7263C48.6636 74.4236 77.8431 59.104 113.319 59.4104C148.949 59.87 177.668 75.8024 177.36 95.105C176.9 114.408 147.874 129.727 112.244 129.421Z" fill="#5E5E5E"/>
</g>
<path d="M43.1349 45.1632C43.1349 45.3164 43.1349 45.4696 43.1349 45.6228C43.1349 45.776 43.1349 45.9292 43.1349 46.0824C43.1349 46.2356 43.1349 46.3888 43.1349 46.542C43.1349 46.6951 43.1349 46.8483 43.1349 47.0015C43.1349 47.1547 43.1349 47.3079 43.1349 47.4611C43.1349 47.6143 43.1349 47.7675 43.1349 47.9207C43.1349 48.0739 43.1349 48.2271 43.2885 48.3803C43.2885 48.5335 43.2885 48.6867 43.442 48.8399C43.442 48.9931 43.5956 49.1463 43.5956 49.2995C43.5956 49.4527 43.5956 49.6059 43.7492 49.7591C43.7492 49.9123 43.9028 50.0655 43.9028 50.2187C43.9028 50.3718 43.9028 50.525 44.0563 50.6782C44.0563 50.8314 44.2099 50.9846 44.2099 51.291C44.2099 51.4442 44.3635 51.5974 44.3635 51.7506C44.5171 51.9038 44.5171 52.2102 44.6706 52.3634C44.6706 52.5166 44.6706 52.5166 44.8242 52.6698C44.9778 52.9762 44.9778 53.2826 45.1314 53.4358V53.589C45.2849 53.8953 45.4385 54.2017 45.5921 54.5081C45.5921 54.6613 45.7457 54.8145 45.7457 54.9677C45.8992 55.1209 45.8992 55.2741 46.0528 55.5805C46.0528 55.7337 46.2064 55.8869 46.2064 56.0401C46.36 56.1933 46.36 56.4997 46.5135 56.6529C46.5135 56.8061 46.6671 56.8061 46.6671 56.9593C46.8207 57.2657 46.9743 57.4189 47.1279 57.5721C47.1279 57.7252 47.2814 57.8784 47.435 57.8784C47.5886 58.0316 47.7422 58.338 47.8957 58.4912C47.7422 58.7976 47.8957 58.7976 48.0493 58.9508C48.2029 59.104 48.3565 59.4104 48.51 59.5636C48.6636 59.7168 48.6636 59.87 48.8172 60.0232C48.9708 60.1764 49.1243 60.4828 49.2779 60.636C49.4315 60.7892 49.4315 60.9424 49.5851 60.9424C49.8922 61.2488 50.1994 61.7083 50.5065 62.0147L50.6601 62.1679C50.9673 62.4743 51.1208 62.7807 51.428 63.0871C51.5816 63.2403 51.5816 63.2403 51.7351 63.3935C52.0423 63.6999 52.1959 63.8531 52.503 64.1595C52.6566 64.3127 52.6566 64.3127 52.8102 64.4659C53.1173 64.7723 53.4245 65.0786 53.8852 65.5382C54.0388 65.6914 54.1924 65.8446 54.3459 65.9978C54.4995 66.151 54.6531 66.3042 54.8067 66.4574C54.9602 66.6106 55.1138 66.7638 55.2674 66.917C55.421 67.0702 55.5745 67.2234 55.7281 67.3766C55.8817 67.5298 56.0353 67.683 56.1889 67.8362C56.3424 67.9894 56.496 68.1426 56.6496 68.2958C56.8032 68.449 56.9567 68.6021 57.2639 68.7553C57.4175 68.9085 57.571 69.0617 57.7246 69.0617C57.8782 69.2149 58.1853 69.3681 58.3389 69.5213C58.4925 69.6745 58.6461 69.6745 58.7996 69.8277C58.9532 69.9809 59.2604 70.1341 59.4139 70.2873C59.5675 70.4405 59.7211 70.4405 59.8747 70.5937C60.1818 70.7469 60.3354 70.9001 60.6426 71.0533C60.7961 71.2065 60.9497 71.2065 61.1033 71.3597C61.4104 71.5129 61.564 71.6661 61.8712 71.8193C62.0247 71.9725 62.1783 71.9725 62.3319 72.1257C62.6391 72.2788 63.0998 72.5852 63.4069 72.7384C64.1748 73.198 64.9427 73.6576 65.7106 73.964C65.8641 74.1172 66.1713 74.1172 66.3249 74.2704C67.0928 74.5768 67.7071 75.0364 68.4749 75.3428C68.4749 75.3428 68.6285 75.3428 68.6285 75.496C69.3964 75.8024 70.3179 76.2619 71.0857 76.5683C71.2393 76.7215 71.5465 76.7215 71.7 76.8747C72.4679 77.1811 73.0822 77.4875 73.8501 77.7939C74.0037 77.7939 74.1573 77.9471 74.3108 77.9471C75.2323 78.2535 76.0002 78.5599 76.9216 78.8663C77.0752 78.8663 77.2288 79.0195 77.3824 79.0195C77.9967 79.1727 78.611 79.479 79.2253 79.6322C79.686 79.7854 80.3003 79.9386 80.761 80.0918C81.2218 80.245 81.6825 80.3982 82.2968 80.5514C82.9111 80.7046 83.3718 80.8578 83.9861 81.011C84.4469 81.1642 84.9076 81.3174 85.5219 81.3174C86.1362 81.4706 86.7505 81.6238 87.2112 81.777C87.672 81.9302 88.1327 81.9302 88.747 82.0834C89.3613 82.2366 89.9756 82.3898 90.5899 82.3898C91.2042 82.543 91.6649 82.543 92.2793 82.6962C92.4328 82.6962 92.74 82.6962 92.8936 82.8494C93.815 83.0026 94.5829 83.1557 95.5043 83.3089C95.6579 83.3089 95.8115 83.3089 95.8115 83.3089C96.733 83.4621 97.6544 83.6153 98.7295 83.6153C99.0366 83.6153 99.3438 83.6153 99.4973 83.7685C100.112 83.7685 100.572 83.9217 101.187 83.9217C101.955 83.9217 102.722 84.0749 103.49 84.0749C103.951 84.0749 104.412 84.0749 104.872 84.2281C105.64 84.2281 106.408 84.3813 107.176 84.3813C107.637 84.3813 108.098 84.3813 108.558 84.3813C109.173 84.3813 109.787 84.3813 110.555 84.3813C111.016 84.3813 111.476 84.3813 112.091 84.3813C112.858 84.3813 113.626 84.3813 114.241 84.3813C114.701 84.3813 115.009 84.3813 115.469 84.3813C116.237 84.3813 116.851 84.3813 117.466 84.2281C117.926 84.2281 118.387 84.2281 118.694 84.2281C119.462 84.2281 120.077 84.0749 120.844 84.0749C121.305 84.0749 121.612 84.0749 122.073 83.9217C122.994 83.7685 123.916 83.7685 124.991 83.6153C125.145 83.6153 125.298 83.6153 125.452 83.6153C126.527 83.4621 127.602 83.3089 128.83 83.1558C128.984 83.1558 128.984 83.1558 129.138 83.1558C130.213 83.0026 131.134 82.8494 132.209 82.6962C132.516 82.6962 132.977 82.543 133.284 82.543C134.052 82.3898 134.82 82.2366 135.434 82.0834C135.741 82.0834 136.202 81.9302 136.509 81.777C137.277 81.6238 138.045 81.4706 138.813 81.3174C139.274 81.1642 139.581 81.1642 140.041 81.011C140.809 80.8578 141.424 80.7046 142.192 80.3982C142.806 80.245 143.42 80.0918 143.881 79.9386C144.188 79.9386 144.342 79.7854 144.649 79.7854C145.57 79.479 146.492 79.1727 147.26 78.8663C147.413 78.8663 147.567 78.7131 147.72 78.7131C148.488 78.4067 149.256 78.2535 149.87 77.9471C150.024 77.7939 150.331 77.7939 150.485 77.6407C151.099 77.4875 151.713 77.1811 152.174 76.8747C152.481 76.7215 152.942 76.5683 153.249 76.4151C153.863 76.1087 154.324 75.9555 154.938 75.6492C155.245 75.496 155.553 75.3428 156.013 75.1896C156.628 74.8832 157.242 74.5768 157.703 74.2704C158.01 74.1172 158.317 73.964 158.471 73.8108C159.238 73.3512 160.16 72.8916 160.928 72.432C174.596 64.4659 181.353 54.2017 181.353 43.9376C181.353 43.9376 181.046 93.8795 180.739 94.7986C180.739 94.7986 180.739 94.7986 180.739 94.9518C180.586 95.5646 180.432 96.1774 180.278 96.7902C180.125 97.403 179.818 98.0157 179.664 98.6285V98.7817C179.203 99.8541 178.743 100.926 178.128 102.152C178.128 102.152 178.128 102.152 178.128 102.305C177.821 102.765 177.514 103.378 177.053 103.99C177.053 104.144 176.9 104.297 176.9 104.297C176.439 104.91 176.132 105.522 175.671 106.135C175.364 106.442 175.057 106.901 174.75 107.361C174.443 107.667 174.135 107.973 173.982 108.433C173.521 108.893 173.06 109.505 172.446 110.118L172.292 110.271C171.985 110.578 171.678 110.884 171.371 111.191C154.017 127.889 121.612 133.251 97.3473 129.574C92.5864 128.961 89.9756 128.349 87.3648 127.736C85.9826 127.429 82.2968 126.51 77.8431 124.978C77.8431 124.978 77.8431 124.978 77.6895 124.978C76.4609 124.519 75.0787 124.059 73.8501 123.446C68.6285 121.301 64.0212 118.85 60.0283 115.94C59.8747 115.786 59.7211 115.786 59.5675 115.633C59.4139 115.48 59.2604 115.327 59.1068 115.327C59.1068 115.327 59.1068 115.327 58.9532 115.174C58.1853 114.561 57.4175 113.948 56.496 113.182C56.3424 113.182 56.3424 113.029 56.3424 113.029L56.1889 112.876C55.421 112.263 54.6531 111.497 53.8852 110.731C52.8102 109.659 51.2744 108.127 50.353 106.748C49.8922 106.135 49.2779 105.216 48.8172 104.603L48.3565 103.837L48.2029 103.684C47.7422 102.918 47.1279 101.999 46.8207 101.233C46.6671 100.926 46.5135 100.773 46.5135 100.467V100.314C46.36 99.8541 46.2064 99.5477 46.0528 99.0881L45.8992 98.7817V98.6285C45.5921 97.8625 45.2849 96.7902 44.9778 96.0242C44.8242 95.4114 44.6706 94.7986 44.5171 94.1858V94.0326C44.5171 94.0326 44.5171 94.0326 44.5171 93.8795C44.5171 93.5731 44.3635 93.2667 44.3635 92.9603V92.8071C44.3635 92.6539 44.0563 56.4997 43.9028 44.0908C43.1349 44.5504 43.1349 44.8568 43.1349 45.1632Z" fill="url(#paint0_linear_1023_363)"/>
<path d="M43.1349 43.478C43.1349 43.6312 43.1349 43.7844 43.1349 43.9376C43.1349 44.0908 43.1349 44.244 43.1349 44.3972C43.1349 44.5504 43.1349 44.7036 43.1349 44.8568C43.1349 45.01 43.1349 45.1632 43.1349 45.3164C43.1349 45.4696 43.1349 45.6227 43.1349 45.7759C43.1349 45.9291 43.1349 46.0823 43.1349 46.2355C43.1349 46.3887 43.1349 46.5419 43.2885 46.8483C43.2885 47.0015 43.2885 47.1547 43.442 47.3079C43.442 47.4611 43.5956 47.6143 43.5956 47.7675C43.5956 47.9207 43.5956 48.0739 43.7492 48.2271C43.7492 48.3803 43.9028 48.5335 43.9028 48.6867C43.9028 48.8399 43.9028 48.9931 44.0563 49.1463C44.0563 49.2994 44.2099 49.4526 44.2099 49.759C44.2099 49.9122 44.3635 50.0654 44.3635 50.2186C44.5171 50.3718 44.5171 50.6782 44.6706 50.8314C44.6706 50.9846 44.6706 50.9846 44.8242 51.1378C44.9778 51.4442 44.9778 51.7506 45.1314 51.9038V52.057C45.2849 52.3634 45.4385 52.6698 45.5921 52.9761C45.5921 53.1293 45.7457 53.2825 45.7457 53.4357C45.8992 53.5889 45.8992 53.7421 46.0528 54.0485C46.0528 54.2017 46.2064 54.3549 46.2064 54.5081C46.36 54.6613 46.36 54.8145 46.5135 55.1209C46.5135 55.2741 46.6671 55.2741 46.6671 55.4273C46.8207 55.5805 46.9743 55.8869 47.1279 56.0401C47.1279 56.1933 47.2814 56.3465 47.435 56.3465C47.5886 56.4997 47.7422 56.806 47.8957 56.9592C48.0493 57.1124 48.0493 57.2656 48.2029 57.4188C48.3565 57.572 48.51 57.8784 48.6636 58.0316C48.8172 58.1848 48.8172 58.338 48.9708 58.338C49.1243 58.4912 49.2779 58.7976 49.4315 58.9508C49.5851 59.104 49.5851 59.2572 49.7386 59.2572C50.0458 59.5636 50.353 60.0232 50.6601 60.3295L50.8137 60.4827C51.1208 60.7891 51.2744 61.0955 51.5816 61.4019C51.7351 61.5551 51.7351 61.5551 51.8887 61.7083C52.1959 62.0147 52.3494 62.1679 52.6566 62.4743C52.8102 62.6275 52.8102 62.6275 52.9637 62.7807C53.2709 63.0871 53.578 63.3935 54.0388 63.853C54.1924 64.0062 54.3459 64.1594 54.4995 64.3126C54.6531 64.4658 54.8067 64.619 54.9602 64.7722C55.1138 64.9254 55.2674 65.0786 55.421 65.2318C55.5745 65.385 55.7281 65.5382 55.8817 65.6914C56.0353 65.8446 56.1889 65.9978 56.3424 66.151C56.496 66.3042 56.6496 66.4574 56.8032 66.6106C56.9567 66.7638 57.1103 66.917 57.4175 67.0702C57.571 67.2234 57.7246 67.3766 57.8782 67.3766C58.0318 67.5297 58.3389 67.6829 58.4925 67.8361C58.6461 67.9893 58.7997 67.9893 58.9532 68.1425C59.1068 68.2957 59.4139 68.4489 59.5675 68.6021C59.7211 68.7553 59.8747 68.7553 60.0283 68.9085C60.3354 69.0617 60.489 69.2149 60.7961 69.3681C60.9497 69.5213 61.1033 69.5213 61.2569 69.6745C61.564 69.8277 61.7176 69.9809 62.0247 70.1341C62.1783 70.2873 62.3319 70.2873 62.4855 70.4405C62.7926 70.5937 63.2534 70.9001 63.5605 71.0533C64.3284 71.5128 65.0963 71.9724 65.8642 72.2788C66.0177 72.432 66.3249 72.432 66.4784 72.5852C67.2463 72.8916 67.8606 73.3512 68.6285 73.6576C68.6285 73.6576 68.7821 73.6576 68.7821 73.8108C69.55 74.2704 70.4714 74.5768 71.2393 74.8831C71.3929 75.0363 71.7 75.0363 71.8536 75.1895C72.6215 75.4959 73.2358 75.8023 74.0037 76.1087C74.1573 76.1087 74.3108 76.2619 74.4644 76.2619C75.3859 76.5683 76.1538 76.8747 77.0752 77.1811C77.2288 77.1811 77.3824 77.3343 77.5359 77.3343C78.1502 77.4875 78.7645 77.7939 79.3789 77.9471C79.8396 78.1003 80.4539 78.2535 80.9146 78.4067C81.3753 78.5598 81.8361 78.713 82.4504 78.8662C83.0647 79.0194 83.5254 79.1726 84.1397 79.3258C84.6004 79.479 85.0612 79.6322 85.6755 79.6322C86.2898 79.7854 86.9041 79.9386 87.3648 80.0918C87.8255 80.245 88.2863 80.245 88.9006 80.3982C89.5149 80.5514 90.1292 80.7046 90.7435 80.7046C91.3578 80.8578 91.8185 80.8578 92.4328 81.011C92.5864 81.011 92.8936 81.011 93.0471 81.1642C93.9686 81.3174 94.7365 81.4706 95.6579 81.6238C95.8115 81.6238 95.9651 81.6238 95.9651 81.6238C96.8865 81.777 97.808 81.9302 98.883 81.9302C99.1902 81.9302 99.4973 81.9302 99.6509 82.0834C100.265 82.0834 100.726 82.2365 101.34 82.2365C102.108 82.2365 102.876 82.3897 103.644 82.3897C104.105 82.3897 104.565 82.3897 105.026 82.5429C105.794 82.5429 106.562 82.6961 107.33 82.6961C107.79 82.6961 108.251 82.6961 108.712 82.6961C109.326 82.6961 109.941 82.6961 110.708 82.6961C111.169 82.6961 111.63 82.6961 112.244 82.6961C113.012 82.6961 113.78 82.6961 114.394 82.6961C114.855 82.6961 115.162 82.6961 115.623 82.6961C116.391 82.6961 117.005 82.6961 117.619 82.5429C118.08 82.5429 118.541 82.5429 118.848 82.5429C119.616 82.5429 120.23 82.3897 120.998 82.3897C121.459 82.3897 121.766 82.3897 122.227 82.2365C123.148 82.0834 124.07 82.0833 125.145 81.9302C125.298 81.9302 125.452 81.9302 125.605 81.9302C126.68 81.777 127.755 81.6238 128.984 81.4706C129.138 81.4706 129.138 81.4706 129.291 81.4706C130.366 81.3174 131.288 81.1642 132.363 81.011C132.67 81.011 133.131 80.8578 133.438 80.8578C134.206 80.7046 134.973 80.5514 135.588 80.3982C135.895 80.3982 136.356 80.245 136.663 80.0918C137.431 79.9386 138.199 79.7854 138.966 79.6322C139.427 79.479 139.734 79.479 140.195 79.3258C140.963 79.1726 141.577 79.0194 142.345 78.713C142.959 78.5598 143.574 78.4067 144.034 78.2535C144.342 78.2535 144.495 78.1003 144.802 78.1003C145.724 77.7939 146.645 77.4875 147.413 77.1811C147.567 77.1811 147.72 77.0279 147.874 77.0279C148.642 76.7215 149.41 76.5683 150.024 76.2619C150.177 76.1087 150.485 76.1087 150.638 75.9555C151.253 75.6491 151.867 75.4959 152.328 75.1895C152.635 75.0363 153.095 74.8832 153.403 74.73C154.017 74.4236 154.478 74.2704 155.092 73.964C155.399 73.8108 155.706 73.6576 156.167 73.5044C156.781 73.198 157.396 72.8916 157.856 72.5852C158.163 72.432 158.471 72.2788 158.624 72.1256C159.392 71.666 160.314 71.2064 161.081 70.7469C174.596 62.7807 181.353 52.5166 181.353 42.2524C181.353 42.2524 181.046 92.1943 180.739 93.1135C180.739 93.1135 180.739 93.1134 180.739 93.2666C180.586 93.8794 180.432 94.4922 180.278 95.105V95.2582C179.971 95.871 179.818 96.4838 179.511 97.0965V97.2497C179.05 98.3221 178.589 99.3945 177.975 100.62C177.668 101.08 177.36 101.692 176.9 102.305C176.9 102.458 176.746 102.612 176.746 102.612C176.285 103.224 175.978 103.837 175.518 104.45C175.21 104.756 174.903 105.216 174.596 105.676C174.289 105.982 173.982 106.288 173.828 106.595C173.367 107.054 172.907 107.667 172.292 108.28L172.139 108.433C171.832 108.739 171.525 109.046 171.217 109.352C153.863 126.051 121.459 131.412 97.1937 127.736C92.4328 127.123 89.822 126.51 87.2112 125.897C85.8291 125.591 82.1432 124.672 77.6895 123.14C77.6895 123.14 77.6895 123.14 77.5359 123.14C76.3073 122.68 74.9251 122.221 73.6965 121.608C68.4749 119.463 63.8677 117.012 59.8747 114.101C59.7211 113.948 59.5675 113.948 59.4139 113.795C59.2604 113.642 59.1068 113.488 58.9532 113.488C58.9532 113.488 58.9532 113.488 58.7996 113.335C58.0318 112.723 57.2639 112.11 56.3424 111.344C56.1889 111.344 56.1889 111.191 56.1889 111.191L56.0353 111.037C55.2674 110.425 54.4995 109.659 53.7316 108.893C52.6566 107.82 51.1208 106.288 50.1994 104.91C49.7386 104.297 49.1243 103.378 48.6636 102.765L48.2029 101.999L48.0493 101.846C47.5886 101.08 46.9743 100.16 46.6671 99.3945C46.5135 99.0881 46.36 98.9349 46.36 98.6285V98.4753C46.2064 98.0157 46.0528 97.7093 45.8992 97.2497L45.7457 96.9433V96.7901C45.4385 96.0242 45.1314 94.9518 44.8242 94.1858C44.0563 94.0326 43.1349 54.9677 43.1349 42.712C43.1349 42.8652 43.1349 43.1716 43.1349 43.478Z" fill="#FAC700"/>
<path d="M43.1349 46.2355C43.1349 46.0823 43.1349 45.7759 43.1349 45.6227C43.1349 45.7759 43.1349 45.9291 43.1349 45.9291C43.1349 45.7759 43.1349 45.6227 43.1349 45.4696V45.3164C43.1349 45.3164 43.1349 45.3164 43.1349 45.4696C43.1349 44.8568 43.1349 44.244 43.2885 43.478C43.2885 43.0184 43.2885 42.712 43.442 42.4056C43.442 42.2524 43.442 42.0992 43.442 41.946C43.442 41.6397 43.442 41.4865 43.5956 41.1801V41.6397C43.9028 40.1077 44.0563 39.4949 44.5171 37.963V37.8098V37.6566C44.5171 37.5034 44.6706 37.3502 44.6706 37.197C44.9778 36.2778 45.4385 35.2054 46.0528 33.9799C46.2064 33.8267 46.2064 33.6735 46.36 33.3671C46.36 33.2139 46.5135 33.0607 46.5135 33.0607C46.6671 32.7543 46.8207 32.4479 46.9743 32.1415C46.9743 31.9883 47.1279 31.8351 47.1279 31.8351V31.6819V31.5287C47.1279 31.3755 47.2814 31.2223 47.2814 31.0691C47.2814 31.0691 47.2814 30.916 47.435 30.916C47.5886 30.6096 47.7422 30.3032 48.0493 29.9968L48.2029 29.8436C48.3565 29.6904 48.3565 29.5372 48.51 29.384L48.6636 29.2308C48.8172 28.9244 49.1243 28.618 49.4315 28.3116L49.5851 28.1584C49.7386 28.0052 49.8922 27.852 50.0458 27.5456C50.6601 26.7797 51.2744 26.0137 51.8887 25.4009L52.0423 25.2477L52.1959 25.0945C52.8102 24.3285 53.578 23.7157 54.1924 23.103C54.1924 23.103 54.1924 23.103 54.3459 22.9498C54.8067 22.4902 55.2674 22.0306 55.7281 21.7242C56.0353 21.4178 56.3424 21.1114 56.8032 20.805C58.0318 19.7327 59.1068 18.9667 61.564 17.2815C61.8712 16.9751 62.3319 16.6687 62.7926 16.5155L62.9462 16.3624L64.482 15.4432L64.6355 15.29C65.0963 14.9836 65.557 14.8304 66.0177 14.524C70.7786 12.0729 76.4609 9.92813 82.4504 8.24298C83.9861 7.78339 85.0612 7.477 87.2112 7.01741C92.5864 5.63865 97.0401 5.17906 97.0401 5.17906C97.3473 5.17906 97.5008 5.17906 97.808 5.02586C99.0366 4.87267 100.265 4.71947 101.647 4.56628C103.49 4.41308 104.872 4.25989 107.33 4.10669C107.944 4.10669 108.558 4.10669 109.326 4.10669C109.173 4.10669 109.019 4.10669 109.019 4.10669C109.48 4.10669 110.094 4.10669 110.401 4.10669C110.708 4.10669 110.862 4.10669 111.169 4.10669C111.476 4.10669 111.783 4.10669 112.091 4.10669C112.244 4.10669 112.551 4.10669 112.705 4.10669C113.012 4.10669 113.473 4.10669 113.78 4.10669C113.933 4.10669 114.241 4.10669 114.394 4.10669C114.548 4.10669 114.548 4.10669 114.701 4.10669C116.698 4.10669 118.694 4.25989 120.691 4.41308C126.834 4.71947 132.363 5.63865 137.431 6.86421C139.274 7.3238 140.963 7.78339 142.652 8.24298C144.342 8.70256 145.417 9.00895 147.567 9.77493C150.177 10.6941 152.174 11.6133 154.017 12.3793C155.86 13.1452 157.549 14.0644 159.238 14.9836C159.546 15.1368 159.699 15.29 160.006 15.4432C160.467 15.7496 161.081 16.056 161.542 16.3624C161.542 16.3624 161.696 16.3624 161.696 16.5155C161.849 16.6687 162.003 16.6687 162.156 16.8219C163.231 17.4347 163.999 18.0475 164.767 18.5071C164.921 18.6603 165.074 18.8135 165.382 18.8135C166.149 19.2731 166.917 20.0391 167.839 20.6518C167.992 20.805 168.146 20.805 168.299 20.9582L169.221 22.0306C169.682 22.4902 170.142 22.9498 170.603 23.2562C173.214 25.5541 176.285 29.0776 178.435 33.6735C178.589 34.1331 178.896 34.5927 179.05 35.0522C179.05 35.0522 180.125 37.5034 180.739 40.2609C180.893 41.3333 181.2 42.712 181.2 43.7844C181.2 44.3972 181.2 45.1632 181.353 45.7759C181.353 56.0401 174.596 66.4574 160.928 74.2704C160.314 74.5768 159.699 74.8831 159.085 75.1895C159.085 75.1895 158.931 75.1895 158.931 75.3427C158.931 75.3427 158.778 75.3427 158.778 75.4959H158.624C158.624 75.4959 158.471 75.4959 158.471 75.6491C158.471 75.6491 158.471 75.6491 158.317 75.6491C158.317 75.6491 158.163 75.6491 158.163 75.8023H158.01C158.01 75.8023 157.856 75.8023 157.856 75.9555C157.703 75.9555 157.703 76.1087 157.549 76.1087C157.396 76.1087 157.396 76.2619 157.242 76.2619C157.088 76.2619 156.935 76.4151 156.935 76.4151C156.781 76.4151 156.781 76.5683 156.628 76.5683C156.474 76.5683 156.474 76.7215 156.321 76.7215C156.167 76.7215 156.167 76.8747 156.013 76.8747C156.013 76.8747 155.86 76.8747 155.86 77.0279C155.86 77.0279 155.706 77.0279 155.706 77.1811H155.553H155.399H155.245C155.092 77.1811 155.092 77.3343 154.938 77.3343C154.785 77.3343 154.631 77.4875 154.478 77.4875C154.324 77.4875 154.17 77.6407 154.17 77.6407C154.017 77.6407 153.863 77.7939 153.71 77.7939C153.71 77.7939 153.71 77.7939 153.556 77.7939C153.403 77.7939 153.403 77.9471 153.249 77.9471C153.095 77.9471 152.942 78.1003 152.788 78.1003C152.635 78.1003 152.635 78.1003 152.481 78.2535C152.481 78.2535 152.481 78.2535 152.328 78.2535C152.328 78.2535 152.328 78.2535 152.174 78.2535H152.02C151.867 78.2535 151.867 78.4066 151.713 78.4066C151.56 78.4066 151.406 78.5598 151.253 78.5598C151.253 78.5598 151.099 78.5598 151.099 78.713C150.945 78.713 150.792 78.8662 150.638 78.8662C150.485 78.8662 150.331 79.0194 150.177 79.0194C150.177 79.0194 150.177 79.0194 150.024 79.0194H149.87C149.717 79.0194 149.717 79.0194 149.563 79.1726C149.41 79.1726 149.41 79.1726 149.256 79.3258C149.102 79.3258 148.949 79.479 148.795 79.479C148.642 79.479 148.642 79.479 148.488 79.6322C148.335 79.6322 148.181 79.7854 148.027 79.7854C147.874 79.7854 147.874 79.7854 147.72 79.9386C147.72 79.9386 147.72 79.9386 147.567 79.9386H147.413H147.26C147.106 79.9386 146.952 80.0918 146.799 80.0918C146.645 80.0918 146.492 80.245 146.338 80.245C146.184 80.245 146.031 80.3982 146.031 80.3982C145.877 80.3982 145.877 80.3982 145.724 80.5514C145.57 80.5514 145.57 80.5514 145.417 80.7046H145.263H145.109C144.956 80.7046 144.802 80.8578 144.649 80.8578C144.495 80.8578 144.342 81.011 144.188 81.011H144.034C143.881 81.011 143.881 81.011 143.727 81.1642C143.574 81.1642 143.42 81.3174 143.267 81.3174C143.113 81.3174 143.113 81.3174 142.959 81.3174H142.806H142.652C142.499 81.3174 142.499 81.3174 142.345 81.3174C142.192 81.3174 141.884 81.4706 141.731 81.4706H141.577H141.424C141.27 81.4706 141.116 81.4706 141.116 81.6238C140.809 81.6238 140.656 81.777 140.349 81.777C140.195 81.777 140.195 81.777 140.041 81.777C139.888 81.777 139.734 81.777 139.581 81.9301C139.427 81.9301 139.427 81.9301 139.274 81.9301H139.12C138.966 81.9301 138.966 81.9301 138.813 81.9301C138.659 81.9301 138.352 82.0833 138.199 82.0833C138.045 82.0833 137.891 82.0833 137.891 82.2365C137.738 82.2365 137.738 82.2365 137.584 82.2365H137.431C137.277 82.2365 137.124 82.2365 137.124 82.3897C136.97 82.3897 136.97 82.3897 136.816 82.3897H136.663C136.509 82.3897 136.356 82.3897 136.202 82.5429C136.048 82.5429 136.048 82.5429 135.895 82.5429H135.741C135.588 82.5429 135.434 82.5429 135.434 82.6961C135.434 82.6961 135.434 82.6961 135.281 82.6961H135.127C135.127 82.6961 134.973 82.6961 134.82 82.6961C134.666 82.6961 134.513 82.6961 134.513 82.6961C134.359 82.6961 134.359 82.6961 134.206 82.6961C134.052 82.6961 133.745 82.6961 133.591 82.8493C133.438 82.8493 133.284 82.8493 133.131 83.0025H132.977H132.823C132.67 83.0025 132.67 83.0025 132.516 83.0025C132.363 83.0025 132.363 83.0025 132.209 83.0025C132.055 83.0025 131.902 83.0025 131.748 83.0025C131.441 83.0025 131.288 83.1557 130.98 83.1557H130.827C130.673 83.1557 130.52 83.1557 130.52 83.1557C130.366 83.1557 130.213 83.1557 129.905 83.3089C129.752 83.3089 129.752 83.3089 129.598 83.3089H129.445C129.291 83.3089 129.138 83.3089 128.984 83.3089C128.83 83.3089 128.83 83.3089 128.677 83.3089C128.523 83.3089 128.216 83.3089 128.063 83.4621C127.909 83.4621 127.909 83.4621 127.755 83.4621C127.602 83.4621 127.448 83.4621 127.141 83.4621C126.987 83.4621 126.68 83.4621 126.527 83.4621C126.373 83.4621 126.22 83.4621 126.22 83.4621H126.066C125.912 83.4621 125.912 83.4621 125.759 83.4621C125.605 83.4621 125.452 83.4621 125.298 83.4621C125.145 83.4621 124.991 83.4621 124.837 83.4621C124.684 83.4621 124.53 83.4621 124.53 83.4621C124.377 83.4621 124.223 83.4621 124.07 83.4621C123.762 83.4621 123.302 83.4621 122.994 83.6153C122.841 83.6153 122.687 83.6153 122.534 83.6153H122.38C122.227 83.6153 122.227 83.6153 122.073 83.6153C121.919 83.6153 121.766 83.6153 121.612 83.6153C121.459 83.6153 121.305 83.6153 121.152 83.6153C120.998 83.6153 120.844 83.6153 120.537 83.6153C120.077 83.6153 119.616 83.6153 119.155 83.7685C119.002 83.7685 119.002 83.7685 118.848 83.7685H118.694C118.541 83.7685 118.234 83.7685 118.08 83.7685C117.773 83.7685 117.312 83.7685 117.005 83.7685C117.005 83.7685 117.005 83.7685 116.851 83.7685C116.698 83.7685 116.544 83.7685 116.391 83.7685C116.237 83.7685 116.084 83.7685 115.93 83.7685C115.776 83.7685 115.776 83.7685 115.623 83.7685H115.469C115.316 83.7685 115.316 83.7685 115.162 83.7685C114.701 83.7685 114.241 83.7685 113.78 83.7685C113.473 83.7685 113.319 83.7685 113.012 83.7685C112.858 83.7685 112.858 83.7685 112.705 83.7685C112.551 83.7685 112.551 83.7685 112.398 83.7685C112.244 83.7685 112.244 83.7685 112.091 83.7685C111.937 83.7685 111.783 83.7685 111.63 83.7685C111.476 83.7685 111.323 83.7685 111.169 83.7685C110.862 83.7685 110.708 83.7685 110.401 83.7685C110.094 83.7685 109.787 83.7685 109.633 83.7685C109.48 83.7685 109.326 83.7685 109.019 83.7685C108.865 83.7685 108.865 83.7685 108.712 83.7685C108.558 83.7685 108.405 83.7685 108.098 83.7685H107.944C107.483 83.7685 107.023 83.7685 106.562 83.7685C106.408 83.7685 106.101 83.7685 105.948 83.7685C105.794 83.7685 105.64 83.7685 105.487 83.7685C105.333 83.7685 105.333 83.7685 105.18 83.7685C105.026 83.7685 104.872 83.7685 104.719 83.7685C104.258 83.7685 103.644 83.7685 103.183 83.6153C103.03 83.6153 102.876 83.6153 102.876 83.6153C102.722 83.6153 102.415 83.6153 102.262 83.6153C101.955 83.6153 101.647 83.6153 101.34 83.4621C101.187 83.4621 100.88 83.4621 100.726 83.4621C100.572 83.4621 100.265 83.4621 100.112 83.4621C99.9581 83.4621 99.8045 83.4621 99.6509 83.4621C99.1902 83.4621 98.7295 83.3089 98.1152 83.3089C97.808 83.3089 97.5008 83.1557 97.1937 83.1557C97.0401 83.1557 96.8865 83.1557 96.733 83.1557C96.5794 83.1557 96.4258 83.1557 96.2722 83.0025C95.9651 83.0025 95.6579 82.8493 95.3508 82.8493C95.1972 82.8493 94.89 82.8493 94.7365 82.6961C94.4293 82.6961 94.1222 82.5429 93.815 82.5429C93.5079 82.5429 93.2007 82.3897 93.0471 82.3897C92.8936 82.3897 92.5864 82.3897 92.4328 82.2365C91.9721 82.0833 91.3578 82.0833 90.8971 81.9301C90.5899 81.9301 90.2828 81.777 89.822 81.777C89.0542 81.6238 88.1327 81.4706 87.3648 81.3174C87.2112 81.3174 87.0577 81.3174 86.9041 81.1642C85.9826 81.011 84.9076 80.7046 83.9861 80.3982C83.8326 80.3982 83.5254 80.245 83.3718 80.245C82.604 80.0918 81.9897 79.7854 81.2218 79.6322C80.9146 79.479 80.6075 79.479 80.3003 79.3258C79.9932 79.1726 79.5324 79.1726 79.2253 79.0194C79.3789 79.0194 79.5324 79.0194 79.5324 79.1726C78.3038 78.713 77.0752 78.4066 75.693 77.9471C66.1713 74.5768 57.8782 69.8277 52.1959 63.3935C52.1959 63.3935 52.1959 63.3935 52.1959 63.2403C52.0423 63.0871 52.0423 63.0871 51.8887 62.9339C51.7351 62.7807 51.7351 62.7807 51.5816 62.6275L51.428 62.4743C51.2744 62.3211 51.1208 62.1679 50.9673 61.8615C50.8137 61.7083 50.8137 61.7083 50.6601 61.5551C50.5065 61.4019 50.353 61.0955 50.0458 60.9423L49.8922 60.7891C49.8922 60.6359 49.7386 60.6359 49.7386 60.4827C49.5851 60.3295 49.5851 60.3295 49.4315 60.1763C49.2779 60.0232 49.2779 59.87 49.1243 59.7168C48.9708 59.5636 48.9708 59.5636 48.8172 59.4104C48.8172 59.4104 48.8172 59.2572 48.6636 59.2572C48.6636 59.2572 48.6636 59.2572 48.51 59.104C48.3565 58.9508 48.3565 58.7976 48.2029 58.7976C48.0493 58.6444 48.0493 58.4912 47.8957 58.338C47.8957 58.338 47.8957 58.1848 47.7422 58.1848C47.7422 58.1848 47.7422 58.1848 47.7422 58.0316L47.5886 57.8784C47.5886 57.7252 47.435 57.7252 47.435 57.572C47.435 57.572 47.435 57.4188 47.2814 57.4188C47.1279 57.2656 47.1279 57.1124 46.9743 56.9592C46.9743 56.806 46.8207 56.6528 46.8207 56.4996C46.8207 56.3465 46.6671 56.1933 46.6671 56.0401C46.6671 56.0401 46.6671 55.8869 46.5135 55.8869V55.7337C46.5135 55.7337 46.5135 55.5805 46.36 55.5805V55.4273C46.36 55.2741 46.2064 55.2741 46.2064 55.1209C46.0528 54.9677 46.0528 54.6613 45.8992 54.5081C45.8992 54.5081 45.8992 54.3549 45.7457 54.3549V54.2017C45.5921 53.8953 45.5921 53.7421 45.4385 53.4357V53.2825C45.4385 53.1293 45.4385 53.1293 45.2849 52.9761C45.2849 52.823 45.2849 52.823 45.1314 52.6698C45.1314 52.6698 45.1314 52.5166 44.9778 52.5166C44.9778 52.3634 44.9778 52.3634 44.8242 52.2102C44.8242 52.057 44.8242 52.057 44.6706 51.9038C44.6706 51.7506 44.6706 51.7506 44.5171 51.5974V51.4442V51.291C44.5171 51.291 44.5171 51.291 44.5171 51.1378C44.5171 50.9846 44.5171 50.8314 44.3635 50.6782V50.525V50.3718C44.3635 50.2186 44.3635 50.2186 44.3635 50.0654C44.3635 49.9122 44.3635 49.9122 44.3635 49.759C44.3635 49.759 44.3635 49.759 44.3635 49.6058V49.4526C44.3635 49.4526 44.3635 49.4526 44.3635 49.6058V49.4526V49.2994V49.1463C44.3635 48.9931 44.3635 48.9931 44.3635 48.8399C44.3635 48.8399 44.3635 48.8399 44.3635 48.6867C44.3635 48.5335 44.3635 48.5335 44.3635 48.3803V48.2271C44.3635 48.2271 44.3635 48.2271 44.3635 48.0739V47.9207V47.7675C44.3635 47.6143 44.3635 47.6143 44.3635 47.4611V47.3079V47.1547V47.0015V46.8483V46.6951V46.5419C44.3635 46.5419 44.3635 46.5419 44.3635 46.3887C44.3635 46.2355 44.3635 45.9291 44.3635 45.7759C44.3635 45.9291 44.3635 45.9291 44.3635 46.0823C43.1349 46.5419 43.1349 46.3887 43.1349 46.2355Z" fill="#E8B100"/>
<path d="M43.1349 42.712C43.1349 42.5588 43.1349 42.2524 43.1349 42.0992C43.1349 43.0184 43.1349 42.0992 43.1349 41.946C43.1349 41.0268 43.2884 39.1885 43.5956 37.8097C43.5956 37.9629 43.5956 38.1161 43.5956 38.2693C45.4385 26.6264 54.4995 18.0475 64.1748 12.226C71.5464 7.78336 79.8396 5.02583 88.1327 3.18748C91.0506 2.5747 94.1222 1.96192 97.0401 1.65552C99.1902 1.34913 101.34 1.19594 103.49 0.889545C104.412 0.889545 105.333 0.73635 106.408 0.73635C106.869 0.73635 109.787 0.583154 108.865 0.583154C122.534 0.276762 136.356 1.96192 149.102 6.86418C159.699 10.8473 170.757 17.2815 176.746 27.086C182.736 36.5842 182.889 48.0739 176.285 57.4188C170.91 64.9254 162.924 70.2872 154.478 73.964C142.499 79.6322 128.216 82.3897 115.009 82.3897C112.705 82.3897 110.248 82.3897 107.944 82.3897C98.4223 82.3897 87.672 80.3982 78.3038 77.3343C79.5324 77.6406 77.0752 76.8747 77.0752 76.8747C76.0002 76.5683 75.0787 76.1087 74.0037 75.8023C72.1608 75.1895 70.3178 74.4235 68.4749 73.5044C65.0962 71.9724 61.7176 70.134 58.646 67.9893C54.4995 65.0786 50.9672 61.5551 48.0493 57.4188C46.0528 54.3549 44.0563 50.525 43.442 47.1547C43.1348 45.9291 42.9813 43.6312 42.9813 43.1716C43.1349 43.0184 43.1349 42.8652 43.1349 42.712C43.1349 42.8652 43.1349 42.4056 43.1349 42.712Z" fill="#FFDA00"/>
</g>
<path d="M76.8342 54.45C75.2842 54.45 73.8842 54.185 72.6342 53.655C71.3942 53.115 70.3692 52.35 69.5592 51.36C68.7592 50.36 68.2392 49.175 67.9992 47.805L71.2692 47.31C71.5992 48.63 72.2892 49.66 73.3392 50.4C74.3892 51.13 75.6142 51.495 77.0142 51.495C77.8842 51.495 78.6842 51.36 79.4142 51.09C80.1442 50.81 80.7292 50.415 81.1692 49.905C81.6192 49.385 81.8442 48.765 81.8442 48.045C81.8442 47.655 81.7742 47.31 81.6342 47.01C81.5042 46.71 81.3192 46.45 81.0792 46.23C80.8492 46 80.5642 45.805 80.2242 45.645C79.8942 45.475 79.5292 45.33 79.1292 45.21L73.5942 43.575C73.0542 43.415 72.5042 43.21 71.9442 42.96C71.3842 42.7 70.8692 42.365 70.3992 41.955C69.9392 41.535 69.5642 41.02 69.2742 40.41C68.9842 39.79 68.8392 39.04 68.8392 38.16C68.8392 36.83 69.1792 35.705 69.8592 34.785C70.5492 33.855 71.4792 33.155 72.6492 32.685C73.8192 32.205 75.1292 31.965 76.5792 31.965C78.0392 31.985 79.3442 32.245 80.4942 32.745C81.6542 33.245 82.6142 33.965 83.3742 34.905C84.1442 35.835 84.6742 36.965 84.9642 38.295L81.6042 38.865C81.4542 38.055 81.1342 37.36 80.6442 36.78C80.1542 36.19 79.5542 35.74 78.8442 35.43C78.1342 35.11 77.3642 34.945 76.5342 34.935C75.7342 34.915 74.9992 35.035 74.3292 35.295C73.6692 35.555 73.1392 35.92 72.7392 36.39C72.3492 36.86 72.1542 37.4 72.1542 38.01C72.1542 38.61 72.3292 39.095 72.6792 39.465C73.0292 39.835 73.4592 40.13 73.9692 40.35C74.4892 40.56 75.0042 40.735 75.5142 40.875L79.5042 42C80.0042 42.14 80.5692 42.33 81.1992 42.57C81.8392 42.8 82.4542 43.125 83.0442 43.545C83.6442 43.965 84.1392 44.525 84.5292 45.225C84.9192 45.915 85.1142 46.785 85.1142 47.835C85.1142 48.925 84.8942 49.885 84.4542 50.715C84.0142 51.535 83.4092 52.225 82.6392 52.785C81.8792 53.335 80.9992 53.75 79.9992 54.03C78.9992 54.31 77.9442 54.45 76.8342 54.45ZM93.3958 54V35.355H86.2108V32.4H103.716V35.355H96.5308V54H93.3958ZM105.816 54V32.4H119.616V35.355H108.951V41.415H117.816V44.37H108.951V51.045H119.616V54H105.816ZM122.919 54V32.4H131.649C131.859 32.4 132.119 32.41 132.429 32.43C132.739 32.44 133.034 32.47 133.314 32.52C134.514 32.71 135.514 33.12 136.314 33.75C137.124 34.38 137.729 35.175 138.129 36.135C138.529 37.095 138.729 38.155 138.729 39.315C138.729 40.485 138.529 41.55 138.129 42.51C137.729 43.47 137.124 44.265 136.314 44.895C135.514 45.525 134.514 45.935 133.314 46.125C133.034 46.165 132.734 46.195 132.414 46.215C132.104 46.235 131.849 46.245 131.649 46.245H126.054V54H122.919ZM126.054 43.275H131.529C131.729 43.275 131.949 43.265 132.189 43.245C132.439 43.225 132.674 43.19 132.894 43.14C133.534 42.99 134.049 42.715 134.439 42.315C134.829 41.905 135.109 41.435 135.279 40.905C135.449 40.375 135.534 39.845 135.534 39.315C135.534 38.785 135.449 38.26 135.279 37.74C135.109 37.21 134.829 36.745 134.439 36.345C134.049 35.935 133.534 35.655 132.894 35.505C132.674 35.445 132.439 35.405 132.189 35.385C131.949 35.365 131.729 35.355 131.529 35.355H126.054V43.275ZM146.533 53.985L146.548 51.195L155.953 42.765C156.713 42.095 157.228 41.455 157.498 40.845C157.778 40.235 157.918 39.625 157.918 39.015C157.918 38.245 157.748 37.555 157.408 36.945C157.068 36.325 156.598 35.835 155.998 35.475C155.398 35.115 154.708 34.935 153.928 34.935C153.128 34.935 152.413 35.125 151.783 35.505C151.163 35.875 150.678 36.37 150.328 36.99C149.978 37.61 149.808 38.28 149.818 39H146.608C146.608 37.6 146.923 36.375 147.553 35.325C148.193 34.265 149.068 33.44 150.178 32.85C151.288 32.25 152.558 31.95 153.988 31.95C155.348 31.95 156.568 32.26 157.648 32.88C158.728 33.49 159.578 34.33 160.198 35.4C160.828 36.47 161.143 37.69 161.143 39.06C161.143 40.05 161.013 40.89 160.753 41.58C160.493 42.27 160.103 42.91 159.583 43.5C159.063 44.09 158.413 44.73 157.633 45.42L150.373 51.9L150.028 51H161.143V53.985H146.533Z" fill="#151515"/>
<defs>
<linearGradient id="paint0_linear_1023_363" x1="181.353" y1="87.4063" x2="43.1347" y2="87.4063" gradientUnits="userSpaceOnUse">
<stop stop-color="#FFD200"/>
<stop offset="1" stop-color="#FFB900"/>
</linearGradient>
<clipPath id="clip0_1023_363">
<rect width="138.219" height="130.216" fill="white" transform="matrix(-1 0 0 1 181.353 0.583252)"/>
</clipPath>
</defs>
</svg>
