<svg width="183" height="178" viewBox="0 0 183 178" fill="none" xmlns="http://www.w3.org/2000/svg">
<g opacity="0.3">
<path opacity="0.0243902" d="M90.5715 175.477C103.181 156.671 190.308 157.572 179.352 139.104C168.5 120.749 41.4786 71.2004 20.6012 77.6192C-0.172791 84.038 -7.30417 98.452 13.1598 116.807C28.7662 130.771 85.8172 182.571 90.5715 175.477Z" fill="#FBFBFB"/>
<path opacity="0.0487805" d="M89.5379 174.013C102.767 155.883 187.93 156.221 177.182 137.978C166.536 119.735 42.2021 71.0878 21.3247 77.3939C0.447308 83.7001 -6.89078 98.0015 13.0564 116.244C28.146 130.208 84.4736 181.107 89.5379 174.013Z" fill="#F7F7F7"/>
<path opacity="0.0731707" d="M88.5044 172.662C102.25 155.32 185.45 155.095 175.011 136.852C164.572 118.609 43.0289 70.9751 22.0482 77.1687C1.06742 83.3622 -6.58073 97.4384 12.8497 115.681C27.6292 129.532 83.0266 179.643 88.5044 172.662Z" fill="#F3F3F3"/>
<path opacity="0.097561" d="M87.4709 171.31C101.734 154.644 182.969 153.856 172.841 135.726C162.712 117.596 43.7524 70.9751 22.6683 76.9434C1.68753 82.9118 -6.27068 96.988 12.643 115.118C27.0091 128.969 81.5797 178.18 87.4709 171.31Z" fill="#EFEFEF"/>
<path opacity="0.122" d="M86.4373 169.846C101.114 153.856 180.592 152.505 170.67 134.487C160.748 116.582 44.4759 70.8625 23.3918 76.7182C2.20432 82.5739 -5.9606 96.5375 12.4363 114.555C26.4924 128.406 80.1328 176.716 86.4373 169.846Z" fill="#EBEBEB"/>
<path opacity="0.1463" d="M85.4038 168.495C100.493 153.18 178.112 151.266 168.5 133.473C158.785 115.569 45.3027 70.7499 24.0119 76.493C2.82444 82.1235 -5.65053 96.0871 12.1263 114.105C25.8723 127.843 78.6858 175.364 85.4038 168.495Z" fill="#E7E7E7"/>
<path opacity="0.1707" d="M84.2669 167.144C99.7699 152.505 175.528 150.14 166.226 132.347C156.924 114.555 46.0261 70.75 24.7353 76.2679C3.44455 81.7857 -5.34049 95.5241 12.0229 113.542C25.3555 127.28 77.1355 173.9 84.2669 167.144Z" fill="#E4E4E4"/>
<path opacity="0.1951" d="M83.2334 165.68C99.0465 151.604 173.151 148.788 164.056 131.109C154.961 113.542 46.7496 70.6372 25.4588 76.0425C4.06468 81.4477 -5.03042 95.0735 11.8162 112.978C24.7354 126.717 75.6886 172.436 83.2334 165.68Z" fill="#E0E0E0"/>
<path opacity="0.2195" d="M82.1999 164.329C98.323 150.928 170.67 147.55 161.885 129.983C152.997 112.416 47.5765 70.5247 26.0789 75.8174C4.68479 80.9975 -4.61701 94.6232 11.6095 112.416C24.2186 126.154 74.1383 170.973 82.1999 164.329Z" fill="#DCDCDC"/>
<path opacity="0.2439" d="M81.1663 162.865C97.5995 150.027 168.19 146.311 159.715 128.857C151.137 111.402 48.2999 70.5247 26.8024 75.5921C5.30493 80.6596 -4.30694 94.1727 11.4028 111.852C23.5985 125.591 72.6913 169.509 81.1663 162.865Z" fill="#D8D8D8"/>
<path opacity="0.2683" d="M80.1328 161.513C96.876 149.239 165.709 145.072 157.441 127.73C149.173 110.388 49.0234 70.412 27.4225 75.3668C5.82167 80.2091 -3.9969 93.7222 11.196 111.289C23.0817 125.028 71.141 168.045 80.1328 161.513Z" fill="#D4D4D4"/>
<path opacity="0.2927" d="M79.0993 160.162C96.1526 148.451 163.332 143.834 155.271 126.604C147.312 109.375 49.8502 70.2995 28.146 75.1417C6.4418 79.8713 -3.68683 93.2718 10.9894 110.726C22.4616 124.465 69.5907 166.581 79.0993 160.162Z" fill="#D0D0D0"/>
<path opacity="0.3171" d="M78.0657 158.698C95.3257 147.55 160.852 142.595 153.1 125.366C145.349 108.362 50.5737 70.2995 28.8695 74.9165C7.06194 79.4209 -3.37675 92.7088 10.7827 110.163C21.9448 123.902 68.1438 165.117 78.0657 158.698Z" fill="#CCCCCC"/>
<path opacity="0.3415" d="M76.9288 157.347C94.3956 146.761 158.268 141.356 150.827 124.352C143.385 107.348 51.2972 70.1869 29.4896 74.5786C7.68205 79.083 -3.06671 92.2584 10.5759 109.6C21.3247 123.339 66.5935 163.653 76.9288 157.347Z" fill="#C8C8C8"/>
<path opacity="0.3659" d="M75.8953 155.995C93.6721 145.861 155.891 140.118 148.656 123.226C141.421 106.335 52.0206 70.1869 30.1097 74.4661C8.30215 78.7452 -2.75666 91.808 10.3692 109.037C20.8079 122.776 65.0432 162.189 75.8953 155.995Z" fill="#C4C4C4"/>
<path opacity="0.3902" d="M74.8618 154.532C92.8453 144.96 153.41 138.879 146.486 121.987C139.561 105.209 52.8475 70.0743 30.8332 74.1283C8.92228 78.2948 -2.44659 91.3576 10.1625 108.474C20.1878 122.213 63.4929 160.613 74.8618 154.532Z" fill="#C0C0C0"/>
<path opacity="0.4146" d="M73.8282 153.18C92.0184 144.059 150.93 137.64 144.315 120.861C137.597 104.195 53.571 69.9617 31.5567 73.9031C9.43908 77.957 -2.1365 90.9071 9.95585 107.911C19.5677 121.65 61.9426 159.149 73.8282 153.18Z" fill="#BCBCBC"/>
<path opacity="0.439" d="M72.7947 151.829C91.1916 143.158 148.553 136.401 142.145 119.848C135.737 103.182 54.3978 69.8491 32.1768 73.6778C10.0592 77.5065 -1.72311 90.4567 9.74912 107.348C19.0509 121.086 60.3923 157.685 72.7947 151.829Z" fill="#B8B8B8"/>
<path opacity="0.4634" d="M71.7612 150.365C90.3648 142.145 146.072 135.163 139.974 118.609C133.773 102.168 55.1213 69.8491 32.9003 73.4526C10.6793 77.1687 -1.41305 90.0062 9.54241 106.785C18.4308 120.636 58.842 156.108 71.7612 150.365Z" fill="#B4B4B4"/>
<path opacity="0.4878" d="M70.7276 149.014C89.5379 141.244 143.592 133.924 137.804 117.483C131.809 101.154 55.8447 69.7364 33.6238 73.2273C11.2994 76.7182 -1.10299 89.5557 9.3357 106.222C17.914 120.073 57.2917 154.531 70.7276 149.014Z" fill="#B0B0B0"/>
<path opacity="0.5122" d="M69.5907 147.662C88.6077 140.343 141.111 132.685 135.53 116.357C129.949 100.028 56.6716 69.6237 34.2439 73.002C11.8162 76.3803 -0.896297 89.1052 9.02563 105.659C17.2939 119.51 55.7414 152.955 69.5907 147.662Z" fill="#ADADAD"/>
<path opacity="0.5366" d="M68.5572 146.198C87.7809 139.217 138.631 131.447 133.256 115.231C127.985 99.015 57.395 69.6239 34.9673 72.777C12.5397 76.0426 -0.482866 88.6549 8.92229 105.096C16.7771 118.947 54.1911 151.379 68.5572 146.198Z" fill="#A9A9A9"/>
<path opacity="0.561" d="M67.5237 144.847C86.9541 138.316 136.15 130.208 131.086 114.105C126.125 98.0014 58.2219 69.5112 35.5875 72.5516C13.0564 75.5921 -0.172822 88.2044 8.71557 104.645C16.157 118.384 52.5374 149.802 67.5237 144.847Z" fill="#A5A5A5"/>
<path opacity="0.5854" d="M66.4901 143.383C86.1273 137.19 133.773 128.857 128.916 112.866C124.161 96.9881 58.9453 69.3987 36.3109 72.3265C13.6765 75.2544 0.137251 87.7541 8.40552 104.082C15.5369 117.821 50.9871 148.225 66.4901 143.383Z" fill="#A1A1A1"/>
<path opacity="0.6098" d="M65.4566 142.032C85.3005 136.289 131.293 127.618 126.745 111.74C122.198 95.9745 59.6688 69.286 37.0344 72.1012C14.2967 74.8039 0.343956 87.3035 8.19881 103.519C15.0201 117.37 49.4368 146.649 65.4566 142.032Z" fill="#9D9D9D"/>
<path opacity="0.6341" d="M64.423 140.68C84.577 135.275 128.812 126.492 124.575 110.726C120.337 94.9609 60.4956 69.2859 37.6545 71.8759C14.9168 74.466 0.654014 86.853 7.9921 102.956C14.4 116.807 47.8865 145.072 64.423 140.68Z" fill="#999999"/>
<path opacity="0.6585" d="M63.3895 139.217C83.7501 134.149 126.332 125.141 122.404 109.488C118.374 93.8351 61.2191 69.1736 38.378 71.651C15.5369 74.0158 0.964071 86.5155 7.7854 102.393C13.7799 116.244 46.3362 143.496 63.3895 139.217Z" fill="#959595"/>
<path opacity="0.6829" d="M62.2526 137.865C82.82 133.248 123.851 123.902 120.131 108.362C116.41 92.8214 61.9426 69.0608 38.9981 71.4256C16.0537 73.6778 1.27413 86.0649 7.57868 101.83C13.2631 115.681 44.7859 141.807 62.2526 137.865Z" fill="#919191"/>
<path opacity="0.7073" d="M61.2191 136.514C81.9932 132.235 121.371 122.776 117.96 107.235C114.549 91.8079 62.6661 69.0607 39.7216 71.2003C16.6738 73.3399 1.5842 85.6144 7.37199 101.267C12.643 115.231 43.2356 140.23 61.2191 136.514Z" fill="#8D8D8D"/>
<path opacity="0.7317" d="M60.1856 135.05C81.2697 131.109 118.89 121.424 115.79 106.109C112.586 90.7944 63.4929 68.9482 40.4451 70.9751C17.2939 72.8895 1.89427 85.164 7.16529 100.704C12.0229 114.668 41.6853 138.541 60.1856 135.05Z" fill="#898989"/>
<path opacity="0.7561" d="M59.152 133.699C80.4428 130.095 116.513 120.186 113.619 104.983C110.725 89.7809 64.2163 68.8355 41.0652 70.7499C17.914 72.5516 2.10094 84.7135 6.95855 100.141C11.4027 114.105 40.135 136.852 59.152 133.699Z" fill="#858585"/>
<path opacity="0.7805" d="M58.1185 132.347C79.616 129.082 114.033 119.059 111.449 103.857C108.762 88.6549 65.0432 68.8356 41.7886 70.5247C18.5341 72.1013 2.411 84.3757 6.75185 99.578C10.7826 113.542 38.5847 135.275 58.1185 132.347Z" fill="#818181"/>
<path opacity="0.8049" d="M57.085 130.884C78.8925 127.956 111.552 117.708 109.175 102.619C106.798 87.6415 65.7667 68.723 42.4088 70.187C19.1543 71.7635 2.72109 83.9253 6.54517 99.015C10.1625 113.091 37.0344 133.586 57.085 130.884Z" fill="#7D7D7D"/>
<path opacity="0.8293" d="M56.0514 129.532C78.0657 126.942 109.175 116.47 107.005 101.605C104.938 86.7406 66.4901 68.7231 43.1323 70.0744C19.7744 71.3131 2.9278 83.4749 6.33846 98.452C9.54241 112.528 35.4841 131.897 56.0514 129.532Z" fill="#797979"/>
<path opacity="0.8537" d="M54.9146 128.068C77.2389 125.816 106.591 115.231 104.731 100.366C102.974 85.6143 67.317 68.6102 43.8558 69.7363C20.2912 70.975 3.23786 83.0243 6.13176 97.8887C8.9223 111.965 33.9338 130.208 54.9146 128.068Z" fill="#767676"/>
<path opacity="0.878" d="M53.881 126.717C76.412 124.803 104.111 113.992 102.56 99.2402C101.01 84.6009 68.0404 68.4977 44.4758 69.5112C20.9113 70.6373 3.44455 82.5739 5.92503 97.3258C8.30216 111.515 32.3835 128.519 53.881 126.717Z" fill="#727272"/>
<path opacity="0.9024" d="M52.8475 125.366C75.6886 123.789 101.734 112.753 100.39 98.1141C99.1498 83.5874 68.7639 68.3851 45.1993 69.286C21.5314 70.1869 3.75461 82.1235 5.71833 96.7627C7.68204 110.952 30.8332 126.83 52.8475 125.366Z" fill="#6E6E6E"/>
<path opacity="0.9268" d="M51.8139 123.902C74.9651 122.663 99.2531 111.515 98.2196 96.9879C97.1861 82.4613 69.5907 68.3851 45.8194 69.0607C22.1515 69.849 3.9613 81.673 5.5116 96.1997C7.0619 110.389 29.2829 125.14 51.8139 123.902Z" fill="#6A6A6A"/>
<path opacity="0.9512" d="M50.7804 122.55C74.1383 121.65 96.7727 110.276 96.0492 95.862C95.3257 81.4479 70.3142 68.2726 46.5429 68.8357C22.7717 69.3987 4.27139 81.2227 5.30492 95.6368C6.44181 109.826 27.836 123.451 50.7804 122.55Z" fill="#666666"/>
<path opacity="0.9756" d="M49.7469 121.199C73.4148 120.636 94.3956 109.037 93.8788 94.736C93.362 80.4345 71.0377 68.1601 47.1631 68.6105C23.2884 69.061 4.47811 80.885 5.09823 95.0738C5.8217 109.263 26.2857 121.762 49.7469 121.199Z" fill="#626262"/>
<path d="M48.7133 119.735C72.588 119.51 91.8117 107.799 91.605 93.6097C91.3983 79.4209 71.8645 68.1599 47.8865 68.3852C23.9085 68.723 4.68479 80.4344 4.8915 94.6232C5.09821 108.812 24.7354 120.073 48.7133 119.735Z" fill="#5E5E5E"/>
</g>
<g clip-path="url(#clip0_1023_362)">
<g opacity="0.7">
<path d="M79.8018 127.612C113.281 127.306 136.318 111.373 136.164 96.9729C135.857 82.5725 108.674 71.2361 75.1945 71.5424C41.7149 72.002 12.5354 85.9428 12.8426 100.343C13.1497 114.744 46.3222 128.072 79.8018 127.612Z" fill="#5E5E5E"/>
</g>
<g opacity="0.5">
<path d="M71.2015 128.838C106.831 128.531 135.396 112.599 135.089 93.143C134.782 73.8403 105.603 58.5208 70.1265 58.8271C34.4968 59.2867 5.77808 75.2191 6.08524 94.5218C6.54596 113.824 35.5719 129.144 71.2015 128.838Z" fill="#5E5E5E"/>
</g>
<path d="M140.311 44.5799C140.311 44.7331 140.311 44.8863 140.311 45.0395C140.311 45.1927 140.311 45.3459 140.311 45.4991C140.311 45.6523 140.311 45.8055 140.311 45.9587C140.311 46.1119 140.311 46.2651 140.311 46.4183C140.311 46.5715 140.311 46.7247 140.311 46.8779C140.311 47.0311 140.311 47.1843 140.311 47.3375C140.311 47.4907 140.311 47.6439 140.157 47.7971C140.157 47.9502 140.157 48.1034 140.004 48.2566C140.004 48.4098 139.85 48.563 139.85 48.7162C139.85 48.8694 139.85 49.0226 139.697 49.1758C139.697 49.329 139.543 49.4822 139.543 49.6354C139.543 49.7886 139.543 49.9418 139.389 50.095C139.389 50.2482 139.236 50.4014 139.236 50.7078C139.236 50.861 139.082 51.0142 139.082 51.1674C138.929 51.3206 138.929 51.6269 138.775 51.7801C138.775 51.9333 138.775 51.9333 138.621 52.0865C138.468 52.3929 138.468 52.6993 138.314 52.8525V53.0057C138.161 53.3121 138.007 53.6185 137.854 53.9249C137.854 54.0781 137.7 54.2313 137.7 54.3845C137.546 54.5377 137.546 54.6909 137.393 54.9973C137.393 55.1504 137.239 55.3036 137.239 55.4568C137.086 55.61 137.086 55.9164 136.932 56.0696C136.932 56.2228 136.779 56.2228 136.779 56.376C136.625 56.6824 136.471 56.8356 136.318 56.9888C136.318 57.142 136.164 57.2952 136.011 57.2952C135.857 57.4484 135.704 57.7548 135.55 57.908C135.704 58.2144 135.55 58.2144 135.396 58.3676C135.243 58.5208 135.089 58.8271 134.936 58.9803C134.782 59.1335 134.782 59.2867 134.629 59.4399C134.475 59.5931 134.321 59.8995 134.168 60.0527C134.014 60.2059 134.014 60.3591 133.861 60.3591C133.553 60.6655 133.246 61.1251 132.939 61.4315L132.786 61.5847C132.478 61.8911 132.325 62.1975 132.018 62.5038C131.864 62.657 131.864 62.657 131.711 62.8102C131.403 63.1166 131.25 63.2698 130.943 63.5762C130.789 63.7294 130.789 63.7294 130.636 63.8826C130.328 64.189 130.021 64.4954 129.56 64.955C129.407 65.1082 129.253 65.2614 129.1 65.4146C128.946 65.5678 128.793 65.721 128.639 65.8742C128.485 66.0273 128.332 66.1805 128.178 66.3337C128.025 66.4869 127.871 66.6401 127.718 66.7933C127.564 66.9465 127.41 67.0997 127.257 67.2529C127.103 67.4061 126.95 67.5593 126.796 67.7125C126.643 67.8657 126.489 68.0189 126.182 68.1721C126.028 68.3253 125.875 68.4785 125.721 68.4785C125.568 68.6317 125.26 68.7849 125.107 68.9381C124.953 69.0913 124.8 69.0913 124.646 69.2445C124.492 69.3977 124.185 69.5509 124.032 69.704C123.878 69.8572 123.725 69.8572 123.571 70.0104C123.264 70.1636 123.11 70.3168 122.803 70.47C122.65 70.6232 122.496 70.6232 122.342 70.7764C122.035 70.9296 121.882 71.0828 121.575 71.236C121.421 71.3892 121.267 71.3892 121.114 71.5424C120.807 71.6956 120.346 72.002 120.039 72.1552C119.271 72.6148 118.503 73.0744 117.735 73.3808C117.582 73.5339 117.274 73.5339 117.121 73.6871C116.353 73.9935 115.739 74.4531 114.971 74.7595C114.971 74.7595 114.817 74.7595 114.817 74.9127C114.049 75.2191 113.128 75.6787 112.36 75.9851C112.206 76.1383 111.899 76.1383 111.746 76.2915C110.978 76.5979 110.363 76.9043 109.596 77.2106C109.442 77.2106 109.288 77.3638 109.135 77.3638C108.213 77.6702 107.446 77.9766 106.524 78.283C106.37 78.283 106.217 78.4362 106.063 78.4362C105.449 78.5894 104.835 78.8958 104.22 79.049C103.76 79.2022 103.145 79.3554 102.685 79.5086C102.224 79.6618 101.763 79.815 101.149 79.9682C100.535 80.1214 100.074 80.2746 99.4596 80.4278C98.9988 80.581 98.5381 80.7341 97.9238 80.7341C97.3095 80.8873 96.6952 81.0405 96.2345 81.1937C95.7737 81.3469 95.313 81.3469 94.6987 81.5001C94.0844 81.6533 93.4701 81.8065 92.8558 81.8065C92.2415 81.9597 91.7807 81.9597 91.1664 82.1129C91.0129 82.1129 90.7057 82.1129 90.5521 82.2661C89.6307 82.4193 88.8628 82.5725 87.9413 82.7257C87.7878 82.7257 87.6342 82.7257 87.6342 82.7257C86.7127 82.8789 85.7913 83.0321 84.7162 83.0321C84.4091 83.0321 84.1019 83.0321 83.9484 83.1853C83.3341 83.1853 82.8733 83.3385 82.259 83.3385C81.4911 83.3385 80.7233 83.4917 79.9554 83.4917C79.4947 83.4917 79.0339 83.4917 78.5732 83.6449C77.8053 83.6449 77.0374 83.7981 76.2695 83.7981C75.8088 83.7981 75.3481 83.7981 74.8874 83.7981C74.2731 83.7981 73.6588 83.7981 72.8909 83.7981C72.4301 83.7981 71.9694 83.7981 71.3551 83.7981C70.5872 83.7981 69.8194 83.7981 69.205 83.7981C68.7443 83.7981 68.4372 83.7981 67.9764 83.7981C67.2086 83.7981 66.5942 83.7981 65.9799 83.6449C65.5192 83.6449 65.0585 83.6449 64.7513 83.6449C63.9835 83.6449 63.3692 83.4917 62.6013 83.4917C62.1405 83.4917 61.8334 83.4917 61.3727 83.3385C60.4512 83.1853 59.5297 83.1853 58.4547 83.0321C58.3011 83.0321 58.1476 83.0321 57.994 83.0321C56.919 82.8789 55.8439 82.7257 54.6153 82.5725C54.4617 82.5725 54.4617 82.5725 54.3082 82.5725C53.2331 82.4193 52.3117 82.2661 51.2366 82.1129C50.9295 82.1129 50.4688 81.9597 50.1616 81.9597C49.3937 81.8065 48.6258 81.6533 48.0115 81.5001C47.7044 81.5001 47.2437 81.3469 46.9365 81.1937C46.1686 81.0405 45.4007 80.8873 44.6329 80.7341C44.1721 80.581 43.865 80.581 43.4042 80.4278C42.6364 80.2746 42.0221 80.1214 41.2542 79.815C40.6399 79.6618 40.0256 79.5086 39.5648 79.3554C39.2577 79.3554 39.1041 79.2022 38.797 79.2022C37.8755 78.8958 36.954 78.5894 36.1862 78.283C36.0326 78.283 35.879 78.1298 35.7254 78.1298C34.9576 77.8234 34.1897 77.6702 33.5754 77.3638C33.4218 77.2106 33.1146 77.2106 32.9611 77.0574C32.3468 76.9043 31.7325 76.5979 31.2717 76.2915C30.9646 76.1383 30.5038 75.9851 30.1967 75.8319C29.5824 75.5255 29.1217 75.3723 28.5074 75.0659C28.2002 74.9127 27.8931 74.7595 27.4323 74.6063C26.818 74.2999 26.2037 73.9935 25.743 73.6871C25.4358 73.5339 25.1287 73.3807 24.9751 73.2276C24.2072 72.768 23.2858 72.3084 22.5179 71.8488C8.84961 63.8826 2.09225 53.6185 2.09225 43.3544C2.09225 43.3544 2.39941 93.2962 2.70656 94.2154C2.70656 94.2154 2.70656 94.2154 2.70656 94.3686C2.86014 94.9814 3.01371 95.5941 3.16729 96.2069C3.32086 96.8197 3.62802 97.4325 3.78159 98.0453V98.1985C4.24232 99.2708 4.70305 100.343 5.31735 101.569C5.31735 101.569 5.31735 101.569 5.31735 101.722C5.62451 102.182 5.93166 102.794 6.39239 103.407C6.39239 103.56 6.54596 103.714 6.54596 103.714C7.00669 104.326 7.31385 104.939 7.77457 105.552C8.08173 105.858 8.38888 106.318 8.69603 106.777C9.00318 107.084 9.31034 107.39 9.46391 107.85C9.92464 108.309 10.3854 108.922 10.9997 109.535L11.1532 109.688C11.4604 109.995 11.7676 110.301 12.0747 110.607C29.4288 127.306 61.8334 132.668 86.0984 128.991C90.8593 128.378 93.4701 127.765 96.0809 127.152C97.4631 126.846 101.149 125.927 105.603 124.395C105.603 124.395 105.603 124.395 105.756 124.395C106.985 123.935 108.367 123.476 109.596 122.863C114.817 120.718 119.424 118.267 123.417 115.356C123.571 115.203 123.725 115.203 123.878 115.05C124.032 114.897 124.185 114.744 124.339 114.744C124.339 114.744 124.339 114.744 124.492 114.59C125.26 113.978 126.028 113.365 126.95 112.599C127.103 112.599 127.103 112.446 127.103 112.446L127.257 112.292C128.025 111.68 128.793 110.914 129.56 110.148C130.636 109.075 132.171 107.543 133.093 106.165C133.553 105.552 134.168 104.633 134.629 104.02L135.089 103.254L135.243 103.101C135.704 102.335 136.318 101.416 136.625 100.65C136.779 100.343 136.932 100.19 136.932 99.8836V99.7304C137.086 99.2708 137.239 98.9645 137.393 98.5049L137.546 98.1985V98.0453C137.854 97.2793 138.161 96.2069 138.468 95.4409C138.621 94.8282 138.775 94.2154 138.929 93.6026V93.4494C138.929 93.4494 138.929 93.4494 138.929 93.2962C138.929 92.9898 139.082 92.6834 139.082 92.377V92.2238C139.082 92.0706 139.389 55.9164 139.543 43.5076C140.311 43.9672 140.311 44.2735 140.311 44.5799Z" fill="url(#paint0_linear_1023_362)"/>
<path d="M140.311 42.8948C140.311 43.048 140.311 43.2011 140.311 43.3543C140.311 43.5075 140.311 43.6607 140.311 43.8139C140.311 43.9671 140.311 44.1203 140.311 44.2735C140.311 44.4267 140.311 44.5799 140.311 44.7331C140.311 44.8863 140.311 45.0395 140.311 45.1927C140.311 45.3459 140.311 45.4991 140.311 45.6523C140.311 45.8055 140.311 45.9587 140.157 46.2651C140.157 46.4183 140.157 46.5715 140.004 46.7246C140.004 46.8778 139.85 47.031 139.85 47.1842C139.85 47.3374 139.85 47.4906 139.697 47.6438C139.697 47.797 139.543 47.9502 139.543 48.1034C139.543 48.2566 139.543 48.4098 139.389 48.563C139.389 48.7162 139.236 48.8694 139.236 49.1758C139.236 49.329 139.082 49.4822 139.082 49.6354C138.929 49.7886 138.929 50.095 138.775 50.2482C138.775 50.4013 138.775 50.4013 138.621 50.5545C138.468 50.8609 138.468 51.1673 138.314 51.3205V51.4737C138.161 51.7801 138.007 52.0865 137.854 52.3929C137.854 52.5461 137.7 52.6993 137.7 52.8525C137.546 53.0057 137.546 53.1589 137.393 53.4653C137.393 53.6185 137.239 53.7717 137.239 53.9249C137.086 54.078 137.086 54.2312 136.932 54.5376C136.932 54.6908 136.779 54.6908 136.779 54.844C136.625 54.9972 136.471 55.3036 136.318 55.4568C136.318 55.61 136.164 55.7632 136.011 55.7632C135.857 55.9164 135.704 56.2228 135.55 56.376C135.396 56.5292 135.396 56.6824 135.243 56.8356C135.089 56.9888 134.936 57.2952 134.782 57.4484C134.629 57.6016 134.628 57.7547 134.475 57.7547C134.321 57.9079 134.168 58.2143 134.014 58.3675C133.861 58.5207 133.861 58.6739 133.707 58.6739C133.4 58.9803 133.093 59.4399 132.786 59.7463L132.632 59.8995C132.325 60.2059 132.171 60.5123 131.864 60.8187C131.711 60.9719 131.711 60.9719 131.557 61.1251C131.25 61.4314 131.096 61.5846 130.789 61.891C130.636 62.0442 130.636 62.0442 130.482 62.1974C130.175 62.5038 129.868 62.8102 129.407 63.2698C129.253 63.423 129.1 63.5762 128.946 63.7294C128.793 63.8826 128.639 64.0358 128.485 64.189C128.332 64.3422 128.178 64.4954 128.025 64.6486C127.871 64.8018 127.718 64.955 127.564 65.1081C127.41 65.2613 127.257 65.4145 127.103 65.5677C126.95 65.7209 126.796 65.8741 126.643 66.0273C126.489 66.1805 126.335 66.3337 126.028 66.4869C125.875 66.6401 125.721 66.7933 125.568 66.7933C125.414 66.9465 125.107 67.0997 124.953 67.2529C124.8 67.4061 124.646 67.4061 124.492 67.5593C124.339 67.7125 124.032 67.8657 123.878 68.0189C123.725 68.1721 123.571 68.1721 123.417 68.3253C123.11 68.4785 122.957 68.6317 122.65 68.7848C122.496 68.938 122.342 68.938 122.189 69.0912C121.882 69.2444 121.728 69.3976 121.421 69.5508C121.267 69.704 121.114 69.704 120.96 69.8572C120.653 70.0104 120.192 70.3168 119.885 70.47C119.117 70.9296 118.349 71.3892 117.582 71.6956C117.428 71.8488 117.121 71.8488 116.967 72.002C116.199 72.3083 115.585 72.7679 114.817 73.0743C114.817 73.0743 114.664 73.0743 114.664 73.2275C113.896 73.6871 112.974 73.9935 112.206 74.2999C112.053 74.4531 111.746 74.4531 111.592 74.6063C110.824 74.9127 110.21 75.2191 109.442 75.5255C109.288 75.5255 109.135 75.6787 108.981 75.6787C108.06 75.9851 107.292 76.2914 106.37 76.5978C106.217 76.5978 106.063 76.751 105.91 76.751C105.295 76.9042 104.681 77.2106 104.067 77.3638C103.606 77.517 102.992 77.6702 102.531 77.8234C102.07 77.9766 101.61 78.1298 100.995 78.283C100.381 78.4362 99.9203 78.5894 99.306 78.7426C98.8452 78.8958 98.3845 79.049 97.7702 79.049C97.1559 79.2022 96.5416 79.3554 96.0809 79.5086C95.6201 79.6618 95.1594 79.6617 94.5451 79.8149C93.9308 79.9681 93.3165 80.1213 92.7022 80.1213C92.0879 80.2745 91.6272 80.2745 91.0129 80.4277C90.8593 80.4277 90.5521 80.4277 90.3986 80.5809C89.4771 80.7341 88.7092 80.8873 87.7878 81.0405C87.6342 81.0405 87.4806 81.0405 87.4806 81.0405C86.5592 81.1937 85.6377 81.3469 84.5627 81.3469C84.2555 81.3469 83.9484 81.3469 83.7948 81.5001C83.1805 81.5001 82.7197 81.6533 82.1054 81.6533C81.3376 81.6533 80.5697 81.8065 79.8018 81.8065C79.3411 81.8065 78.8803 81.8065 78.4196 81.9597C77.6517 81.9597 76.8839 82.1129 76.116 82.1129C75.6553 82.1129 75.1945 82.1129 74.7338 82.1129C74.1195 82.1129 73.5052 82.1129 72.7373 82.1129C72.2766 82.1129 71.8158 82.1129 71.2015 82.1129C70.4337 82.1129 69.6658 82.1129 69.0515 82.1129C68.5907 82.1129 68.2836 82.1129 67.8229 82.1129C67.055 82.1129 66.4407 82.1129 65.8264 81.9597C65.3656 81.9597 64.9049 81.9597 64.5978 81.9597C63.8299 81.9597 63.2156 81.8065 62.4477 81.8065C61.987 81.8065 61.6798 81.8065 61.2191 81.6533C60.2976 81.5001 59.3762 81.5001 58.3011 81.3469C58.1476 81.3469 57.994 81.3469 57.8404 81.3469C56.7654 81.1937 55.6903 81.0405 54.4617 80.8873C54.3082 80.8873 54.3082 80.8873 54.1546 80.8873C53.0796 80.7341 52.1581 80.5809 51.0831 80.4277C50.7759 80.4277 50.3152 80.2745 50.008 80.2745C49.2401 80.1213 48.4723 79.9681 47.858 79.8149C47.5508 79.8149 47.0901 79.6618 46.7829 79.5086C46.015 79.3554 45.2472 79.2022 44.4793 79.049C44.0186 78.8958 43.7114 78.8958 43.2507 78.7426C42.4828 78.5894 41.8685 78.4362 41.1006 78.1298C40.4863 77.9766 39.872 77.8234 39.4113 77.6702C39.1041 77.6702 38.9505 77.517 38.6434 77.517C37.7219 77.2106 36.8005 76.9042 36.0326 76.5978C35.879 76.5978 35.7254 76.4446 35.5719 76.4446C34.804 76.1382 34.0361 75.9851 33.4218 75.6787C33.2682 75.5255 32.9611 75.5255 32.8075 75.3723C32.1932 75.0659 31.5789 74.9127 31.1182 74.6063C30.811 74.4531 30.3503 74.2999 30.0431 74.1467C29.4288 73.8403 28.9681 73.6871 28.3538 73.3807C28.0466 73.2275 27.7395 73.0743 27.2787 72.9211C26.6644 72.6147 26.0501 72.3083 25.5894 72.002C25.2823 71.8488 24.9751 71.6956 24.8215 71.5424C24.0536 71.0828 23.1322 70.6232 22.3643 70.1636C8.84961 62.1974 2.09225 51.9333 2.09225 41.6692C2.09225 41.6692 2.39941 91.611 2.70656 92.5302C2.70656 92.5302 2.70656 92.5302 2.70656 92.6834C2.86014 93.2962 3.01371 93.909 3.16729 94.5217V94.6749C3.47444 95.2877 3.62802 95.9005 3.93517 96.5133V96.6665C4.3959 97.7389 4.85663 98.8112 5.47093 100.037C5.77808 100.496 6.08524 101.109 6.54596 101.722C6.54596 101.875 6.69954 102.028 6.69954 102.028C7.16027 102.641 7.46742 103.254 7.92815 103.867C8.2353 104.173 8.54245 104.633 8.84961 105.092C9.15676 105.399 9.46391 105.705 9.61749 106.011C10.0782 106.471 10.5389 107.084 11.1532 107.697L11.3068 107.85C11.614 108.156 11.9211 108.463 12.2283 108.769C29.5824 125.467 61.987 130.829 86.252 127.152C91.0129 126.54 93.6237 125.927 96.2345 125.314C97.6166 125.008 101.302 124.089 105.756 122.557C105.756 122.557 105.756 122.557 105.91 122.557C107.138 122.097 108.521 121.637 109.749 121.025C114.971 118.88 119.578 116.429 123.571 113.518C123.725 113.365 123.878 113.365 124.032 113.212C124.185 113.058 124.339 112.905 124.492 112.905C124.492 112.905 124.492 112.905 124.646 112.752C125.414 112.139 126.182 111.526 127.103 110.761C127.257 110.761 127.257 110.607 127.257 110.607L127.41 110.454C128.178 109.841 128.946 109.075 129.714 108.309C130.789 107.237 132.325 105.705 133.246 104.326C133.707 103.713 134.321 102.794 134.782 102.182L135.243 101.416L135.396 101.262C135.857 100.496 136.471 99.5772 136.779 98.8112C136.932 98.5048 137.086 98.3516 137.086 98.0452V97.8921C137.239 97.4325 137.393 97.1261 137.546 96.6665L137.7 96.3601V96.2069C138.007 95.4409 138.314 94.3685 138.621 93.6026C139.389 93.4494 140.311 54.3844 140.311 42.1288C140.311 42.282 140.311 42.5884 140.311 42.8948Z" fill="#FAC700"/>
<path d="M140.311 45.6523C140.311 45.4991 140.311 45.1927 140.311 45.0395C140.311 45.1927 140.311 45.3459 140.311 45.3459C140.311 45.1927 140.311 45.0395 140.311 44.8863V44.7331C140.311 44.7331 140.311 44.7331 140.311 44.8863C140.311 44.2735 140.311 43.6607 140.157 42.8948C140.157 42.4352 140.157 42.1288 140.004 41.8224C140.004 41.6692 140.004 41.516 140.004 41.3628C140.004 41.0564 140.004 40.9032 139.85 40.5968V41.0564C139.543 39.5244 139.389 38.9117 138.929 37.3797V37.2265V37.0733C138.929 36.9201 138.775 36.7669 138.775 36.6137C138.468 35.6946 138.007 34.6222 137.393 33.3966C137.239 33.2434 137.239 33.0902 137.086 32.7838C137.086 32.6306 136.932 32.4774 136.932 32.4774C136.779 32.1711 136.625 31.8647 136.471 31.5583C136.471 31.4051 136.318 31.2519 136.318 31.2519V31.0987V30.9455C136.318 30.7923 136.164 30.6391 136.164 30.4859C136.164 30.4859 136.164 30.3327 136.011 30.3327C135.857 30.0263 135.704 29.7199 135.396 29.4135L135.243 29.2603C135.089 29.1071 135.089 28.9539 134.936 28.8007L134.782 28.6475C134.629 28.3412 134.321 28.0348 134.014 27.7284L133.861 27.5752C133.707 27.422 133.553 27.2688 133.4 26.9624C132.786 26.1964 132.171 25.4304 131.557 24.8177L131.403 24.6645L131.25 24.5113C130.636 23.7453 129.868 23.1325 129.253 22.5197C129.253 22.5197 129.253 22.5197 129.1 22.3665C128.639 21.9069 128.178 21.4473 127.718 21.141C127.41 20.8346 127.103 20.5282 126.643 20.2218C125.414 19.1494 124.339 18.3834 121.882 16.6983C121.575 16.3919 121.114 16.0855 120.653 15.9323L120.499 15.7791L118.964 14.8599L118.81 14.7067C118.349 14.4003 117.889 14.2471 117.428 13.9408C112.667 11.4896 106.985 9.34488 100.995 7.65972C99.4596 7.20014 98.3845 6.89374 96.2345 6.43416C90.8593 5.0554 86.4056 4.59581 86.4056 4.59581C86.0984 4.59581 85.9449 4.59581 85.6377 4.44261C84.4091 4.28942 83.1805 4.13622 81.7983 3.98302C79.9554 3.82983 78.5732 3.67663 76.116 3.52344C75.5017 3.52344 74.8874 3.52344 74.1195 3.52344C74.2731 3.52344 74.4266 3.52344 74.4266 3.52344C73.9659 3.52344 73.3516 3.52344 73.0444 3.52344C72.7373 3.52344 72.5837 3.52344 72.2766 3.52344C71.9694 3.52344 71.6623 3.52344 71.3551 3.52344C71.2015 3.52344 70.8944 3.52344 70.7408 3.52344C70.4337 3.52344 69.9729 3.52344 69.6658 3.52344C69.5122 3.52344 69.205 3.52344 69.0515 3.52344C68.8979 3.52344 68.8979 3.52344 68.7443 3.52344C66.7478 3.52344 64.7513 3.67663 62.7548 3.82983C56.6118 4.13622 51.0831 5.0554 46.015 6.28096C44.1721 6.74055 42.4828 7.20014 40.7935 7.65972C39.1041 8.11931 38.0291 8.4257 35.879 9.19168C33.2682 10.1109 31.2717 11.03 29.4288 11.796C27.5859 12.562 25.8966 13.4812 24.2072 14.4003C23.9001 14.5535 23.7465 14.7067 23.4393 14.8599C22.9786 15.1663 22.3643 15.4727 21.9036 15.7791C21.9036 15.7791 21.75 15.7791 21.75 15.9323C21.5964 16.0855 21.4429 16.0855 21.2893 16.2387C20.2142 16.8515 19.4464 17.4643 18.6785 17.9238C18.5249 18.077 18.3713 18.2302 18.0642 18.2302C17.2963 18.6898 16.5284 19.4558 15.607 20.0686C15.4534 20.2218 15.2998 20.2218 15.1462 20.375L14.2248 21.4473C13.764 21.9069 13.3033 22.3665 12.8426 22.6729C10.2318 24.9708 7.16027 28.4944 5.0102 33.0902C4.85663 33.5498 4.54947 34.0094 4.3959 34.469C4.3959 34.469 3.32086 36.9201 2.70656 39.6776C2.55298 40.75 2.24583 42.1288 2.24583 43.2011C2.24583 43.8139 2.24583 44.5799 2.09225 45.1927C2.09225 55.4568 8.84961 65.8741 22.5179 73.6871C23.1322 73.9935 23.7465 74.2999 24.3608 74.6063C24.3608 74.6063 24.5144 74.6063 24.5144 74.7595C24.5144 74.7595 24.668 74.7595 24.668 74.9127H24.8215C24.8215 74.9127 24.9751 74.9127 24.9751 75.0659C24.9751 75.0659 24.9751 75.0659 25.1287 75.0659C25.1287 75.0659 25.2823 75.0659 25.2823 75.2191H25.4358C25.4358 75.2191 25.5894 75.2191 25.5894 75.3723C25.743 75.3723 25.743 75.5255 25.8966 75.5255C26.0501 75.5255 26.0501 75.6787 26.2037 75.6787C26.3573 75.6787 26.5109 75.8318 26.5109 75.8318C26.6644 75.8318 26.6644 75.985 26.818 75.985C26.9716 75.985 26.9716 76.1382 27.1252 76.1382C27.2787 76.1382 27.2787 76.2914 27.4323 76.2914C27.4323 76.2914 27.5859 76.2914 27.5859 76.4446C27.5859 76.4446 27.7395 76.4446 27.7395 76.5978H27.8931H28.0466H28.2002C28.3538 76.5978 28.3538 76.751 28.5074 76.751C28.6609 76.751 28.8145 76.9042 28.9681 76.9042C29.1217 76.9042 29.2752 77.0574 29.2752 77.0574C29.4288 77.0574 29.5824 77.2106 29.736 77.2106C29.736 77.2106 29.736 77.2106 29.8895 77.2106C30.0431 77.2106 30.0431 77.3638 30.1967 77.3638C30.3503 77.3638 30.5038 77.517 30.6574 77.517C30.811 77.517 30.811 77.517 30.9646 77.6702C30.9646 77.6702 30.9646 77.6702 31.1182 77.6702C31.1182 77.6702 31.1182 77.6702 31.2717 77.6702H31.4253C31.5789 77.6702 31.5789 77.8234 31.7325 77.8234C31.886 77.8234 32.0396 77.9766 32.1932 77.9766C32.1932 77.9766 32.3468 77.9766 32.3468 78.1298C32.5003 78.1298 32.6539 78.283 32.8075 78.283C32.9611 78.283 33.1146 78.4362 33.2682 78.4362C33.2682 78.4362 33.2682 78.4362 33.4218 78.4362H33.5754C33.7289 78.4362 33.729 78.4362 33.8825 78.5894C34.0361 78.5894 34.0361 78.5894 34.1897 78.7426C34.3433 78.7426 34.4968 78.8958 34.6504 78.8958C34.804 78.8958 34.804 78.8958 34.9576 79.049C35.1111 79.049 35.2647 79.2022 35.4183 79.2022C35.5719 79.2022 35.5719 79.2022 35.7254 79.3554C35.7254 79.3554 35.7254 79.3554 35.879 79.3554H36.0326H36.1862C36.3397 79.3554 36.4933 79.5086 36.6469 79.5086C36.8005 79.5086 36.954 79.6617 37.1076 79.6617C37.2612 79.6617 37.4148 79.8149 37.4148 79.8149C37.5684 79.8149 37.5684 79.8149 37.7219 79.9681C37.8755 79.9681 37.8755 79.9681 38.0291 80.1213H38.1827H38.3362C38.4898 80.1213 38.6434 80.2745 38.797 80.2745C38.9505 80.2745 39.1041 80.4277 39.2577 80.4277H39.4113C39.5648 80.4277 39.5648 80.4277 39.7184 80.5809C39.872 80.5809 40.0256 80.7341 40.1791 80.7341C40.3327 80.7341 40.3327 80.7341 40.4863 80.7341H40.6399H40.7935C40.947 80.7341 40.947 80.7341 41.1006 80.7341C41.2542 80.7341 41.5613 80.8873 41.7149 80.8873H41.8685H42.0221C42.1756 80.8873 42.3292 80.8873 42.3292 81.0405C42.6364 81.0405 42.7899 81.1937 43.0971 81.1937C43.2507 81.1937 43.2507 81.1937 43.4042 81.1937C43.5578 81.1937 43.7114 81.1937 43.865 81.3469C44.0186 81.3469 44.0186 81.3469 44.1721 81.3469H44.3257C44.4793 81.3469 44.4793 81.3469 44.6329 81.3469C44.7864 81.3469 45.0936 81.5001 45.2472 81.5001C45.4007 81.5001 45.5543 81.5001 45.5543 81.6533C45.7079 81.6533 45.7079 81.6533 45.8615 81.6533H46.015C46.1686 81.6533 46.3222 81.6533 46.3222 81.8065C46.4758 81.8065 46.4758 81.8065 46.6293 81.8065H46.7829C46.9365 81.8065 47.0901 81.8065 47.2437 81.9597C47.3972 81.9597 47.3972 81.9597 47.5508 81.9597H47.7044C47.858 81.9597 48.0115 81.9597 48.0115 82.1129C48.0115 82.1129 48.0115 82.1129 48.1651 82.1129H48.3187C48.3187 82.1129 48.4723 82.1129 48.6258 82.1129C48.7794 82.1129 48.933 82.1129 48.933 82.1129C49.0866 82.1129 49.0866 82.1129 49.2401 82.1129C49.3937 82.1129 49.7009 82.1129 49.8544 82.2661C50.008 82.2661 50.1616 82.2661 50.3152 82.4193H50.4688H50.6223C50.7759 82.4193 50.7759 82.4193 50.9295 82.4193C51.0831 82.4193 51.0831 82.4193 51.2366 82.4193C51.3902 82.4193 51.5438 82.4193 51.6974 82.4193C52.0045 82.4193 52.1581 82.5725 52.4652 82.5725H52.6188C52.7724 82.5725 52.926 82.5725 52.926 82.5725C53.0795 82.5725 53.2331 82.5725 53.5403 82.7257C53.6939 82.7257 53.6939 82.7257 53.8474 82.7257H54.001C54.1546 82.7257 54.3082 82.7257 54.4617 82.7257C54.6153 82.7257 54.6153 82.7257 54.7689 82.7257C54.9225 82.7257 55.2296 82.7257 55.3832 82.8789C55.5368 82.8789 55.5368 82.8789 55.6903 82.8789C55.8439 82.8789 55.9975 82.8789 56.3046 82.8789C56.4582 82.8789 56.7654 82.8789 56.919 82.8789C57.0725 82.8789 57.2261 82.8789 57.2261 82.8789H57.3797C57.5333 82.8789 57.5333 82.8789 57.6868 82.8789C57.8404 82.8789 57.994 82.8789 58.1476 82.8789C58.3011 82.8789 58.4547 82.8789 58.6083 82.8789C58.7619 82.8789 58.9154 82.8789 58.9154 82.8789C59.069 82.8789 59.2226 82.8789 59.3762 82.8789C59.6833 82.8789 60.1441 82.8789 60.4512 83.0321C60.6048 83.0321 60.7584 83.0321 60.9119 83.0321H61.0655C61.2191 83.0321 61.2191 83.0321 61.3727 83.0321C61.5262 83.0321 61.6798 83.0321 61.8334 83.0321C61.987 83.0321 62.1405 83.0321 62.2941 83.0321C62.4477 83.0321 62.6013 83.0321 62.9084 83.0321C63.3691 83.0321 63.8299 83.0321 64.2906 83.1852C64.4442 83.1852 64.4442 83.1852 64.5978 83.1852H64.7513C64.9049 83.1852 65.2121 83.1852 65.3656 83.1852C65.6728 83.1852 66.1335 83.1852 66.4407 83.1852C66.4407 83.1852 66.4407 83.1852 66.5943 83.1852C66.7478 83.1852 66.9014 83.1852 67.055 83.1852C67.2086 83.1852 67.3621 83.1852 67.5157 83.1852C67.6693 83.1852 67.6693 83.1852 67.8229 83.1852H67.9764C68.13 83.1852 68.13 83.1852 68.2836 83.1852C68.7443 83.1852 69.205 83.1852 69.6658 83.1852C69.9729 83.1852 70.1265 83.1852 70.4337 83.1852C70.5872 83.1852 70.5872 83.1852 70.7408 83.1852C70.8944 83.1852 70.8944 83.1852 71.048 83.1852C71.2015 83.1852 71.2015 83.1852 71.3551 83.1852C71.5087 83.1852 71.6623 83.1852 71.8158 83.1852C71.9694 83.1852 72.123 83.1852 72.2766 83.1852C72.5837 83.1852 72.7373 83.1852 73.0444 83.1852C73.3516 83.1852 73.6588 83.1852 73.8123 83.1852C73.9659 83.1852 74.1195 83.1852 74.4266 83.1852C74.5802 83.1852 74.5802 83.1852 74.7338 83.1852C74.8874 83.1852 75.0409 83.1852 75.3481 83.1852H75.5017C75.9624 83.1852 76.4231 83.1852 76.8839 83.1852C77.0374 83.1852 77.3446 83.1852 77.4982 83.1852C77.6517 83.1852 77.8053 83.1852 77.9589 83.1852C78.1125 83.1852 78.1125 83.1852 78.266 83.1852C78.4196 83.1852 78.5732 83.1852 78.7268 83.1852C79.1875 83.1852 79.8018 83.1852 80.2625 83.0321C80.4161 83.0321 80.5697 83.0321 80.5697 83.0321C80.7233 83.0321 81.0304 83.0321 81.184 83.0321C81.4911 83.0321 81.7983 83.0321 82.1054 82.8789C82.259 82.8789 82.5662 82.8789 82.7197 82.8789C82.8733 82.8789 83.1805 82.8789 83.3341 82.8789C83.4876 82.8789 83.6412 82.8789 83.7948 82.8789C84.2555 82.8789 84.7162 82.7257 85.3305 82.7257C85.6377 82.7257 85.9448 82.5725 86.252 82.5725C86.4056 82.5725 86.5592 82.5725 86.7127 82.5725C86.8663 82.5725 87.0199 82.5725 87.1735 82.4193C87.4806 82.4193 87.7878 82.2661 88.0949 82.2661C88.2485 82.2661 88.5556 82.2661 88.7092 82.1129C89.0164 82.1129 89.3235 81.9597 89.6307 81.9597C89.9378 81.9597 90.245 81.8065 90.3986 81.8065C90.5521 81.8065 90.8593 81.8065 91.0129 81.6533C91.4736 81.5001 92.0879 81.5001 92.5486 81.3469C92.8558 81.3469 93.1629 81.1937 93.6237 81.1937C94.3915 81.0405 95.313 80.8873 96.0809 80.7341C96.2345 80.7341 96.388 80.7341 96.5416 80.5809C97.4631 80.4277 98.5381 80.1213 99.4596 79.8149C99.6131 79.8149 99.9203 79.6617 100.074 79.6617C100.842 79.5086 101.456 79.2022 102.224 79.049C102.531 78.8958 102.838 78.8958 103.145 78.7426C103.453 78.5894 103.913 78.5894 104.22 78.4362C104.067 78.4362 103.913 78.4362 103.913 78.5894C105.142 78.1298 106.37 77.8234 107.753 77.3638C117.274 73.9935 125.568 69.2444 131.25 62.8102C131.25 62.8102 131.25 62.8102 131.25 62.657C131.403 62.5038 131.403 62.5038 131.557 62.3506C131.711 62.1974 131.711 62.1974 131.864 62.0442L132.018 61.891C132.171 61.7378 132.325 61.5846 132.478 61.2783C132.632 61.1251 132.632 61.1251 132.786 60.9719C132.939 60.8187 133.093 60.5123 133.4 60.3591L133.553 60.2059C133.553 60.0527 133.707 60.0527 133.707 59.8995C133.861 59.7463 133.861 59.7463 134.014 59.5931C134.168 59.4399 134.168 59.2867 134.321 59.1335C134.475 58.9803 134.475 58.9803 134.629 58.8271C134.629 58.8271 134.629 58.6739 134.782 58.6739C134.782 58.6739 134.782 58.6739 134.936 58.5207C135.089 58.3675 135.089 58.2143 135.243 58.2143C135.396 58.0611 135.396 57.9079 135.55 57.7547C135.55 57.7547 135.55 57.6015 135.704 57.6015C135.704 57.6015 135.704 57.6016 135.704 57.4484L135.857 57.2952C135.857 57.142 136.011 57.142 136.011 56.9888C136.011 56.9888 136.011 56.8356 136.164 56.8356C136.318 56.6824 136.318 56.5292 136.471 56.376C136.471 56.2228 136.625 56.0696 136.625 55.9164C136.625 55.7632 136.779 55.61 136.779 55.4568C136.779 55.4568 136.779 55.3036 136.932 55.3036V55.1504C136.932 55.1504 136.932 54.9972 137.086 54.9972V54.844C137.086 54.6908 137.239 54.6908 137.239 54.5376C137.393 54.3844 137.393 54.078 137.546 53.9249C137.546 53.9249 137.546 53.7717 137.7 53.7717V53.6185C137.854 53.3121 137.854 53.1589 138.007 52.8525V52.6993C138.007 52.5461 138.007 52.5461 138.161 52.3929C138.161 52.2397 138.161 52.2397 138.314 52.0865C138.314 52.0865 138.314 51.9333 138.468 51.9333C138.468 51.7801 138.468 51.7801 138.621 51.6269C138.621 51.4737 138.621 51.4737 138.775 51.3205C138.775 51.1673 138.775 51.1673 138.929 51.0141V50.8609V50.7077C138.929 50.7077 138.929 50.7077 138.929 50.5545C138.929 50.4013 138.929 50.2482 139.082 50.095V49.9418V49.7886C139.082 49.6354 139.082 49.6354 139.082 49.4822C139.082 49.329 139.082 49.329 139.082 49.1758C139.082 49.1758 139.082 49.1758 139.082 49.0226V48.8694C139.082 48.8694 139.082 48.8694 139.082 49.0226V48.8694V48.7162V48.563C139.082 48.4098 139.082 48.4098 139.082 48.2566C139.082 48.2566 139.082 48.2566 139.082 48.1034C139.082 47.9502 139.082 47.9502 139.082 47.797V47.6438C139.082 47.6438 139.082 47.6438 139.082 47.4906V47.3374V47.1842C139.082 47.031 139.082 47.031 139.082 46.8778V46.7247V46.5715V46.4183V46.2651V46.1119V45.9587C139.082 45.9587 139.082 45.9587 139.082 45.8055C139.082 45.6523 139.082 45.3459 139.082 45.1927C139.082 45.3459 139.082 45.3459 139.082 45.4991C140.311 45.9587 140.311 45.8055 140.311 45.6523Z" fill="#E8B100"/>
<path d="M140.311 42.1287C140.311 41.9756 140.311 41.6692 140.311 41.516C140.311 42.4351 140.311 41.516 140.311 41.3628C140.311 40.4436 140.157 38.6052 139.85 37.2265C139.85 37.3797 139.85 37.5329 139.85 37.6861C138.007 26.0432 128.946 17.4642 119.271 11.6428C111.899 7.2001 103.606 4.44258 95.313 2.60423C92.3951 1.99145 89.3235 1.37866 86.4056 1.07227C84.2555 0.765881 82.1055 0.612685 79.9554 0.306293C79.0339 0.306293 78.1125 0.153098 77.0374 0.153098C76.5767 0.153098 73.6588 -9.81465e-05 74.5802 -9.81465e-05C60.9119 -0.30649 47.0901 1.37866 34.3433 6.28093C23.7465 10.264 12.689 16.6982 6.69955 26.5028C0.710076 36.0009 0.556499 47.4906 7.16028 56.8355C12.5354 64.3421 20.5214 69.704 28.9681 73.3807C40.947 79.0489 55.2296 81.8065 68.4372 81.8065C70.7408 81.8065 73.198 81.8065 75.5017 81.8065C85.0234 81.8065 95.7737 79.8149 105.142 76.751C103.913 77.0574 106.371 76.2914 106.371 76.2914C107.446 75.985 108.367 75.5254 109.442 75.219C111.285 74.6063 113.128 73.8403 114.971 72.9211C118.349 71.3891 121.728 69.5508 124.8 67.4061C128.946 64.4953 132.478 60.9718 135.396 56.8355C137.393 53.7716 139.389 49.9417 140.004 46.5714C140.311 45.3459 140.464 43.0479 140.464 42.5883C140.311 42.4351 140.311 42.2819 140.311 42.1287C140.311 42.2819 140.311 41.8224 140.311 42.1287Z" fill="#FFDA00"/>
</g>
<path d="M38.8342 56.45C37.2842 56.45 35.8842 56.185 34.6342 55.655C33.3942 55.115 32.3692 54.35 31.5592 53.36C30.7592 52.36 30.2392 51.175 29.9992 49.805L33.2692 49.31C33.5992 50.63 34.2892 51.66 35.3392 52.4C36.3892 53.13 37.6142 53.495 39.0142 53.495C39.8842 53.495 40.6842 53.36 41.4142 53.09C42.1442 52.81 42.7292 52.415 43.1692 51.905C43.6192 51.385 43.8442 50.765 43.8442 50.045C43.8442 49.655 43.7742 49.31 43.6342 49.01C43.5042 48.71 43.3192 48.45 43.0792 48.23C42.8492 48 42.5642 47.805 42.2242 47.645C41.8942 47.475 41.5292 47.33 41.1292 47.21L35.5942 45.575C35.0542 45.415 34.5042 45.21 33.9442 44.96C33.3842 44.7 32.8692 44.365 32.3992 43.955C31.9392 43.535 31.5642 43.02 31.2742 42.41C30.9842 41.79 30.8392 41.04 30.8392 40.16C30.8392 38.83 31.1792 37.705 31.8592 36.785C32.5492 35.855 33.4792 35.155 34.6492 34.685C35.8192 34.205 37.1292 33.965 38.5792 33.965C40.0392 33.985 41.3442 34.245 42.4942 34.745C43.6542 35.245 44.6142 35.965 45.3742 36.905C46.1442 37.835 46.6742 38.965 46.9642 40.295L43.6042 40.865C43.4542 40.055 43.1342 39.36 42.6442 38.78C42.1542 38.19 41.5542 37.74 40.8442 37.43C40.1342 37.11 39.3642 36.945 38.5342 36.935C37.7342 36.915 36.9992 37.035 36.3292 37.295C35.6692 37.555 35.1392 37.92 34.7392 38.39C34.3492 38.86 34.1542 39.4 34.1542 40.01C34.1542 40.61 34.3292 41.095 34.6792 41.465C35.0292 41.835 35.4592 42.13 35.9692 42.35C36.4892 42.56 37.0042 42.735 37.5142 42.875L41.5042 44C42.0042 44.14 42.5692 44.33 43.1992 44.57C43.8392 44.8 44.4542 45.125 45.0442 45.545C45.6442 45.965 46.1392 46.525 46.5292 47.225C46.9192 47.915 47.1142 48.785 47.1142 49.835C47.1142 50.925 46.8942 51.885 46.4542 52.715C46.0142 53.535 45.4092 54.225 44.6392 54.785C43.8792 55.335 42.9992 55.75 41.9992 56.03C40.9992 56.31 39.9442 56.45 38.8342 56.45ZM55.3958 56V37.355H48.2108V34.4H65.7158V37.355H58.5308V56H55.3958ZM67.8163 56V34.4H81.6163V37.355H70.9513V43.415H79.8163V46.37H70.9513V53.045H81.6163V56H67.8163ZM84.9186 56V34.4H93.6486C93.8586 34.4 94.1186 34.41 94.4286 34.43C94.7386 34.44 95.0336 34.47 95.3136 34.52C96.5136 34.71 97.5136 35.12 98.3136 35.75C99.1236 36.38 99.7286 37.175 100.129 38.135C100.529 39.095 100.729 40.155 100.729 41.315C100.729 42.485 100.529 43.55 100.129 44.51C99.7286 45.47 99.1236 46.265 98.3136 46.895C97.5136 47.525 96.5136 47.935 95.3136 48.125C95.0336 48.165 94.7336 48.195 94.4136 48.215C94.1036 48.235 93.8486 48.245 93.6486 48.245H88.0536V56H84.9186ZM88.0536 45.275H93.5286C93.7286 45.275 93.9486 45.265 94.1886 45.245C94.4386 45.225 94.6736 45.19 94.8936 45.14C95.5336 44.99 96.0486 44.715 96.4386 44.315C96.8286 43.905 97.1086 43.435 97.2786 42.905C97.4486 42.375 97.5336 41.845 97.5336 41.315C97.5336 40.785 97.4486 40.26 97.2786 39.74C97.1086 39.21 96.8286 38.745 96.4386 38.345C96.0486 37.935 95.5336 37.655 94.8936 37.505C94.6736 37.445 94.4386 37.405 94.1886 37.385C93.9486 37.365 93.7286 37.355 93.5286 37.355H88.0536V45.275ZM112.898 56V37.85L108.833 40.325V36.83L112.898 34.4H116.093V56H112.898Z" fill="#151515"/>
<defs>
<linearGradient id="paint0_linear_1023_362" x1="2.09225" y1="86.8231" x2="140.311" y2="86.8231" gradientUnits="userSpaceOnUse">
<stop stop-color="#FFD200"/>
<stop offset="1" stop-color="#FFB900"/>
</linearGradient>
<clipPath id="clip0_1023_362">
<rect width="138.219" height="130.216" fill="white" transform="translate(2.09225)"/>
</clipPath>
</defs>
</svg>
