<svg width="182" height="178" viewBox="0 0 182 178" fill="none" xmlns="http://www.w3.org/2000/svg">
<g opacity="0.3">
<path opacity="0.0243902" d="M89.9342 175.974C102.543 157.169 189.67 158.07 178.715 139.602C167.863 121.246 40.8413 71.6979 19.9639 78.1166C-0.81012 84.5354 -7.9415 98.9494 12.5225 117.305C28.1288 131.268 85.1799 183.069 89.9342 175.974Z" fill="#FBFBFB"/>
<path opacity="0.0487805" d="M88.9006 174.51C102.13 156.38 187.293 156.718 176.544 138.475C165.899 120.233 41.5648 71.5852 20.6874 77.8913C-0.190006 84.1975 -7.5281 98.4989 12.4191 116.742C27.5087 130.705 83.8363 181.605 88.9006 174.51Z" fill="#F7F7F7"/>
<path opacity="0.0731707" d="M87.8671 173.159C101.613 155.817 184.813 155.592 174.374 137.349C163.935 119.107 42.3916 71.4727 21.4108 77.6662C0.430108 83.8598 -7.21804 97.936 12.2124 116.179C26.9919 130.03 82.3893 180.141 87.8671 173.159Z" fill="#F3F3F3"/>
<path opacity="0.097561" d="M86.8335 171.808C101.096 155.142 182.332 154.353 172.203 136.223C162.075 118.093 43.1151 71.4726 22.031 77.4409C1.05022 83.4092 -6.90799 97.4854 12.0057 115.616C26.3718 129.467 80.9424 178.677 86.8335 171.808Z" fill="#EFEFEF"/>
<path opacity="0.122" d="M85.8 170.344C100.476 154.353 179.955 153.002 170.033 134.984C160.111 117.079 43.8385 71.3599 22.7544 77.2156C1.567 83.0713 -6.59791 97.0349 11.799 115.052C25.8551 128.903 79.4955 177.213 85.8 170.344Z" fill="#EBEBEB"/>
<path opacity="0.1463" d="M84.7665 168.993C99.8561 153.678 177.474 151.764 167.863 133.971C158.147 116.066 44.6654 71.2477 23.3746 76.9908C2.18712 82.6213 -6.28786 96.5849 11.4889 114.602C25.2349 128.341 78.0485 175.862 84.7665 168.993Z" fill="#E7E7E7"/>
<path opacity="0.1707" d="M83.6296 167.641C99.1326 153.002 174.891 150.637 165.589 132.845C156.287 115.053 45.3888 71.2475 24.098 76.7654C2.80722 82.2833 -5.97782 96.0217 11.3856 114.039C24.7181 127.778 76.4982 174.398 83.6296 167.641Z" fill="#E4E4E4"/>
<path opacity="0.1951" d="M82.5961 166.177C98.4091 152.101 172.514 149.286 163.418 131.606C154.323 114.039 46.1123 71.1349 24.8215 76.5401C3.42737 81.9454 -5.66773 95.5712 11.1789 113.476C24.098 127.215 75.0513 172.934 82.5961 166.177Z" fill="#E0E0E0"/>
<path opacity="0.2195" d="M81.5625 164.826C97.6857 151.426 170.033 148.047 161.248 130.48C152.36 112.913 46.9391 71.0223 25.4416 76.315C4.04746 81.495 -5.25434 95.1208 10.9721 112.913C23.5813 126.652 73.501 171.47 81.5625 164.826Z" fill="#DCDCDC"/>
<path opacity="0.2439" d="M80.529 163.362C96.9622 150.525 167.553 146.809 159.078 129.354C150.499 111.9 47.6626 71.0224 26.1651 76.0898C4.66761 81.1572 -4.94425 94.6704 10.7655 112.35C22.9612 126.089 72.054 170.006 80.529 163.362Z" fill="#D8D8D8"/>
<path opacity="0.2683" d="M79.4954 162.011C96.2387 149.736 165.072 145.57 156.804 128.228C148.536 110.886 48.3861 70.9094 26.7852 75.8643C5.18436 80.7065 -4.63421 94.2197 10.5587 111.787C22.4444 125.525 70.5037 168.542 79.4954 162.011Z" fill="#D4D4D4"/>
<path opacity="0.2927" d="M78.4619 160.659C95.5153 148.948 162.695 144.331 154.633 127.102C146.675 109.872 49.2129 70.7968 27.5087 75.639C5.80449 80.3686 -4.32414 93.7691 10.352 111.224C21.8243 124.962 68.9534 167.078 78.4619 160.659Z" fill="#D0D0D0"/>
<path opacity="0.3171" d="M77.4284 159.196C94.6884 148.047 160.214 143.092 152.463 125.863C144.711 108.859 49.9364 70.7969 28.2322 75.4139C6.42463 79.9183 -4.01406 93.2062 10.1454 110.661C21.3075 124.399 67.5065 165.614 77.4284 159.196Z" fill="#CCCCCC"/>
<path opacity="0.3415" d="M76.2915 157.844C93.7582 147.259 157.631 141.854 150.189 124.85C142.748 107.846 50.6599 70.6845 28.8523 75.0763C7.04473 79.5807 -3.70402 92.756 9.93863 110.098C20.6874 123.836 65.9562 164.151 76.2915 157.844Z" fill="#C8C8C8"/>
<path opacity="0.3659" d="M75.258 156.493C93.0348 146.358 155.254 140.615 148.019 123.724C140.784 106.832 51.3833 70.6847 29.4724 74.9639C7.66484 79.243 -3.39397 92.3058 9.73191 109.535C20.1706 123.273 64.4059 162.687 75.258 156.493Z" fill="#C4C4C4"/>
<path opacity="0.3902" d="M74.2244 155.029C92.2079 145.457 152.773 139.376 145.848 122.485C138.924 105.706 52.2102 70.5718 30.1959 74.6257C8.28497 78.7923 -3.0839 91.855 9.52521 108.972C19.5505 122.71 62.8556 161.11 74.2244 155.029Z" fill="#C0C0C0"/>
<path opacity="0.4146" d="M73.1909 153.678C91.3811 144.557 150.293 138.138 143.678 121.359C136.96 104.693 52.9336 70.4594 30.9194 74.4007C8.80173 78.4547 -2.77385 91.4048 9.3185 108.409C18.9304 122.147 61.3053 159.646 73.1909 153.678Z" fill="#BCBCBC"/>
<path opacity="0.439" d="M72.1574 152.326C90.5543 143.655 147.915 136.899 141.507 120.345C135.1 103.679 53.7604 70.3465 31.5395 74.1752C9.42185 78.004 -2.36044 90.9541 9.11179 107.846C18.4136 121.584 59.7549 158.182 72.1574 152.326Z" fill="#B8B8B8"/>
<path opacity="0.4634" d="M71.1238 150.863C89.7275 142.642 145.435 135.66 139.337 119.107C133.136 102.666 54.4839 70.3466 32.263 73.9501C10.042 77.6663 -2.05036 90.5038 8.9051 107.283C17.7935 121.134 58.2047 156.606 71.1238 150.863Z" fill="#B4B4B4"/>
<path opacity="0.4878" d="M70.0903 149.511C88.9006 141.741 142.954 134.421 137.167 117.98C131.172 101.652 55.2074 70.2338 32.9864 73.7247C10.6621 77.2156 -1.7403 90.0531 8.69839 106.719C17.2767 120.57 56.6544 155.029 70.0903 149.511Z" fill="#B0B0B0"/>
<path opacity="0.5122" d="M68.9534 148.16C87.9704 140.84 140.474 133.183 134.893 116.854C129.312 100.526 56.0342 70.1214 33.6065 73.4997C11.1789 76.878 -1.53361 89.6029 8.38832 106.157C16.6566 120.007 55.1041 153.453 68.9534 148.16Z" fill="#ADADAD"/>
<path opacity="0.5366" d="M67.9199 146.696C87.1436 139.714 137.993 131.944 132.619 115.728C127.348 99.5125 56.7577 70.1213 34.33 73.2744C11.9023 76.5401 -1.12018 89.1524 8.28498 105.593C16.1398 119.444 53.5538 151.876 67.9199 146.696Z" fill="#A9A9A9"/>
<path opacity="0.561" d="M66.8863 145.345C86.3168 138.813 135.513 130.705 130.449 114.602C125.488 98.4991 57.5845 70.0088 34.9501 73.0493C12.4191 76.0898 -0.810135 88.702 8.07826 105.143C15.5197 118.881 51.9001 150.3 66.8863 145.345Z" fill="#A5A5A5"/>
<path opacity="0.5854" d="M65.8528 143.881C85.49 137.687 133.136 129.354 128.278 113.363C123.524 97.4855 58.308 69.8961 35.6736 72.824C13.0392 75.7518 -0.500062 88.2515 7.76821 104.58C14.8996 118.318 50.3498 148.723 65.8528 143.881Z" fill="#A1A1A1"/>
<path opacity="0.6098" d="M64.8193 142.529C84.6631 136.786 130.655 128.115 126.108 112.237C121.56 96.4719 59.0315 69.7834 36.3971 72.5987C13.6593 75.3013 -0.293373 87.801 7.56149 104.017C14.3828 117.868 48.7995 147.146 64.8193 142.529Z" fill="#9D9D9D"/>
<path opacity="0.6341" d="M63.7857 141.178C83.9396 135.773 128.175 126.989 123.937 111.224C119.7 95.4585 59.8583 69.7835 37.0172 72.3735C14.2795 74.9635 0.016685 87.3506 7.35477 103.454C13.7627 117.305 47.2492 145.57 63.7857 141.178Z" fill="#999999"/>
<path opacity="0.6585" d="M62.7522 139.714C83.1128 134.647 125.694 125.638 121.767 109.985C117.736 94.3327 60.5818 69.6711 37.7407 72.1486C14.8996 74.5134 0.326742 87.013 7.14807 102.891C13.1426 116.742 45.6989 143.994 62.7522 139.714Z" fill="#959595"/>
<path opacity="0.6829" d="M61.6153 138.363C82.1826 133.746 123.214 124.4 119.493 108.859C115.772 93.3192 61.3053 69.5586 38.3608 71.9234C15.4163 74.1756 0.636813 86.5627 6.94137 102.328C12.6258 116.179 44.1486 142.304 61.6153 138.363Z" fill="#919191"/>
<path opacity="0.7073" d="M60.5818 137.012C81.3558 132.732 120.733 123.273 117.323 107.733C113.912 92.3056 62.0287 69.5584 39.0843 71.698C16.0365 73.8376 0.946874 86.112 6.73467 101.765C12.0057 115.728 42.5983 140.728 60.5818 137.012Z" fill="#8D8D8D"/>
<path opacity="0.7317" d="M59.5483 135.547C80.6323 131.606 118.253 121.922 115.152 106.607C111.948 91.2919 62.8556 69.4456 39.8078 71.4726C16.6566 73.3869 1.25694 85.6614 6.52796 101.202C11.3856 115.165 41.048 139.038 59.5483 135.547Z" fill="#898989"/>
<path opacity="0.7561" d="M58.5147 134.196C79.8055 130.593 115.876 120.683 112.982 105.481C110.088 90.2785 63.579 69.3331 40.4279 71.2474C17.2767 73.0492 1.46363 85.211 6.32124 100.639C10.7654 114.602 39.4977 137.349 58.5147 134.196Z" fill="#858585"/>
<path opacity="0.7805" d="M57.4812 132.845C78.9787 129.579 113.395 119.557 110.812 104.355C108.124 89.1524 64.4058 69.3331 41.1513 71.0223C17.8968 72.5988 1.77369 84.8733 6.11453 100.076C10.1453 114.039 37.9474 135.773 57.4812 132.845Z" fill="#818181"/>
<path opacity="0.8049" d="M56.4477 131.381C78.2552 128.453 110.915 118.206 108.538 103.116C106.161 88.1388 65.1293 69.2203 41.7715 70.6843C18.517 72.2608 2.08378 84.4227 5.90785 99.5124C9.52522 113.589 36.3971 134.084 56.4477 131.381Z" fill="#7D7D7D"/>
<path opacity="0.8293" d="M55.4141 130.03C77.4284 127.44 108.538 116.967 106.367 102.103C104.3 87.2382 65.8528 69.2206 42.4949 70.5719C19.1371 71.8106 2.29048 83.9725 5.70114 98.9496C8.9051 113.026 34.8468 132.395 55.4141 130.03Z" fill="#797979"/>
<path opacity="0.8537" d="M54.2773 128.566C76.6016 126.313 105.954 115.728 104.094 100.864C102.337 86.1117 66.6797 69.1077 43.2184 70.2337C19.6539 71.4725 2.60055 83.5217 5.49445 98.3862C8.28499 112.462 33.2965 130.705 54.2773 128.566Z" fill="#767676"/>
<path opacity="0.878" d="M53.2437 127.214C75.7747 125.3 103.473 114.489 101.923 99.7376C100.373 85.0983 67.4031 68.9951 43.8385 70.0086C20.2739 71.1347 2.80722 83.0714 5.2877 97.8232C7.66483 112.012 31.7462 129.016 53.2437 127.214Z" fill="#727272"/>
<path opacity="0.9024" d="M52.2102 125.863C75.0513 124.287 101.096 113.251 99.7527 98.6116C98.5125 84.085 68.1266 68.8827 44.562 69.7835C20.8941 70.6844 3.1173 82.621 5.08101 97.2603C7.04473 111.449 30.1959 127.327 52.2102 125.863Z" fill="#6E6E6E"/>
<path opacity="0.9268" d="M51.1766 124.399C74.3278 123.161 98.6158 112.012 97.5823 97.4855C96.5487 82.9589 68.9534 68.8826 45.1821 69.5583C21.5142 70.3466 3.32398 82.1706 4.87429 96.6972C6.42459 110.886 28.6456 125.638 51.1766 124.399Z" fill="#6A6A6A"/>
<path opacity="0.9512" d="M50.1431 123.048C73.501 122.147 96.1354 110.773 95.4119 96.3594C94.6884 81.9454 69.6769 68.77 45.9056 69.3331C22.1343 69.8961 3.63407 81.7202 4.66761 96.1342C5.8045 110.323 27.1987 123.949 50.1431 123.048Z" fill="#666666"/>
<path opacity="0.9756" d="M49.1096 121.696C72.7775 121.133 93.7582 109.535 93.2415 95.2332C92.7247 80.9317 70.4004 68.6573 46.5257 69.1077C22.6511 69.5582 3.84078 81.3822 4.4609 95.571C5.18438 109.76 25.6483 122.26 49.1096 121.696Z" fill="#626262"/>
<path d="M48.076 120.233C71.9507 120.008 91.1744 108.296 90.9677 94.1073C90.761 79.9185 71.2272 68.6575 47.2492 68.8827C23.2712 69.2205 4.04748 80.932 4.25418 95.1208C4.46089 109.31 24.098 120.571 48.076 120.233Z" fill="#5E5E5E"/>
</g>
<g opacity="0.7">
<path d="M79.1645 128.11C112.644 127.804 135.681 111.871 135.527 97.4707C135.22 83.0703 108.037 71.7339 74.5572 72.0402C41.0776 72.4998 11.8981 86.4406 12.2053 100.841C12.5124 115.241 45.6849 128.569 79.1645 128.11Z" fill="#5E5E5E"/>
</g>
<g opacity="0.5">
<path d="M70.5642 129.336C106.194 129.029 134.759 113.097 134.452 93.6409C134.145 74.3383 104.965 59.0187 69.4892 59.3251C33.8595 59.7847 5.14078 75.717 5.44794 95.0197C5.90867 114.322 34.9346 129.642 70.5642 129.336Z" fill="#5E5E5E"/>
</g>
<path d="M139.674 45.0779C139.674 45.2311 139.674 45.3843 139.674 45.5374C139.674 45.6906 139.674 45.8438 139.674 45.997C139.674 46.1502 139.674 46.3034 139.674 46.4566C139.674 46.6098 139.674 46.763 139.674 46.9162C139.674 47.0694 139.674 47.2226 139.674 47.3758C139.674 47.529 139.674 47.6822 139.674 47.8354C139.674 47.9886 139.674 48.1418 139.52 48.295C139.52 48.4482 139.52 48.6014 139.366 48.7546C139.366 48.9078 139.213 49.061 139.213 49.2141C139.213 49.3673 139.213 49.5205 139.059 49.6737C139.059 49.8269 138.906 49.9801 138.906 50.1333C138.906 50.2865 138.906 50.4397 138.752 50.5929C138.752 50.7461 138.598 50.8993 138.598 51.2057C138.598 51.3589 138.445 51.5121 138.445 51.6653C138.291 51.8185 138.291 52.1249 138.138 52.2781C138.138 52.4313 138.138 52.4313 137.984 52.5845C137.831 52.8908 137.831 53.1972 137.677 53.3504V53.5036C137.523 53.81 137.37 54.1164 137.216 54.4228C137.216 54.576 137.063 54.7292 137.063 54.8824C136.909 55.0356 136.909 55.1888 136.756 55.4952C136.756 55.6484 136.602 55.8016 136.602 55.9548C136.448 56.108 136.448 56.4143 136.295 56.5675C136.295 56.7207 136.141 56.7207 136.141 56.8739C135.988 57.1803 135.834 57.3335 135.681 57.4867C135.681 57.6399 135.527 57.7931 135.373 57.7931C135.22 57.9463 135.066 58.2527 134.913 58.4059C135.066 58.7123 134.913 58.7123 134.759 58.8655C134.606 59.0187 134.452 59.3251 134.298 59.4783C134.145 59.6315 134.145 59.7847 133.991 59.9379C133.838 60.091 133.684 60.3974 133.53 60.5506C133.377 60.7038 133.377 60.857 133.223 60.857C132.916 61.1634 132.609 61.623 132.302 61.9294L132.148 62.0826C131.841 62.389 131.688 62.6954 131.38 63.0018C131.227 63.155 131.227 63.155 131.073 63.3082C130.766 63.6146 130.613 63.7677 130.305 64.0741C130.152 64.2273 130.152 64.2273 129.998 64.3805C129.691 64.6869 129.384 64.9933 128.923 65.4529C128.77 65.6061 128.616 65.7593 128.462 65.9125C128.309 66.0657 128.155 66.2189 128.002 66.3721C127.848 66.5253 127.695 66.6785 127.541 66.8317C127.387 66.9849 127.234 67.1381 127.08 67.2913C126.927 67.4444 126.773 67.5976 126.62 67.7508C126.466 67.904 126.312 68.0572 126.159 68.2104C126.005 68.3636 125.852 68.5168 125.545 68.67C125.391 68.8232 125.237 68.9764 125.084 68.9764C124.93 69.1296 124.623 69.2828 124.469 69.436C124.316 69.5892 124.162 69.5892 124.009 69.7424C123.855 69.8956 123.548 70.0488 123.394 70.202C123.241 70.3552 123.087 70.3552 122.934 70.5084C122.627 70.6616 122.473 70.8148 122.166 70.968C122.012 71.1211 121.859 71.1211 121.705 71.2743C121.398 71.4275 121.244 71.5807 120.937 71.7339C120.784 71.8871 120.63 71.8871 120.477 72.0403C120.169 72.1935 119.709 72.4999 119.401 72.6531C118.634 73.1127 117.866 73.5723 117.098 73.8787C116.944 74.0319 116.637 74.0319 116.484 74.1851C115.716 74.4915 115.101 74.951 114.333 75.2574C114.333 75.2574 114.18 75.2574 114.18 75.4106C113.412 75.717 112.491 76.1766 111.723 76.483C111.569 76.6362 111.262 76.6362 111.108 76.7894C110.34 77.0958 109.726 77.4022 108.958 77.7086C108.805 77.7086 108.651 77.8618 108.498 77.8618C107.576 78.1682 106.808 78.4745 105.887 78.7809C105.733 78.7809 105.58 78.9341 105.426 78.9341C104.812 79.0873 104.197 79.3937 103.583 79.5469C103.122 79.7001 102.508 79.8533 102.047 80.0065C101.587 80.1597 101.126 80.3129 100.512 80.4661C99.8973 80.6193 99.4366 80.7725 98.8223 80.9257C98.3615 81.0789 97.9008 81.2321 97.2865 81.2321C96.6722 81.3853 96.0579 81.5385 95.5972 81.6917C95.1364 81.8449 94.6757 81.8449 94.0614 81.9981C93.4471 82.1512 92.8328 82.3044 92.2185 82.3044C91.6042 82.4576 91.1434 82.4576 90.5291 82.6108C90.3756 82.6108 90.0684 82.6108 89.9148 82.764C88.9934 82.9172 88.2255 83.0704 87.304 83.2236C87.1505 83.2236 86.9969 83.2236 86.9969 83.2236C86.0754 83.3768 85.154 83.53 84.0789 83.53C83.7718 83.53 83.4646 83.53 83.3111 83.6832C82.6968 83.6832 82.236 83.8364 81.6217 83.8364C80.8538 83.8364 80.086 83.9896 79.3181 83.9896C78.8574 83.9896 78.3966 83.9896 77.9359 84.1428C77.168 84.1428 76.4001 84.296 75.6322 84.296C75.1715 84.296 74.7108 84.296 74.2501 84.296C73.6358 84.296 73.0215 84.296 72.2536 84.296C71.7928 84.296 71.3321 84.296 70.7178 84.296C69.9499 84.296 69.1821 84.296 68.5677 84.296C68.107 84.296 67.7999 84.296 67.3391 84.296C66.5713 84.296 65.9569 84.296 65.3426 84.1428C64.8819 84.1428 64.4212 84.1428 64.114 84.1428C63.3462 84.1428 62.7319 83.9896 61.964 83.9896C61.5032 83.9896 61.1961 83.9896 60.7354 83.8364C59.8139 83.6832 58.8924 83.6832 57.8174 83.53C57.6638 83.53 57.5103 83.53 57.3567 83.53C56.2817 83.3768 55.2066 83.2236 53.978 83.0704C53.8244 83.0704 53.8244 83.0704 53.6709 83.0704C52.5958 82.9172 51.6744 82.764 50.5993 82.6108C50.2922 82.6108 49.8315 82.4576 49.5243 82.4576C48.7564 82.3044 47.9885 82.1512 47.3742 81.9981C47.0671 81.9981 46.6064 81.8449 46.2992 81.6917C45.5313 81.5385 44.7634 81.3853 43.9956 81.2321C43.5348 81.0789 43.2277 81.0789 42.7669 80.9257C41.9991 80.7725 41.3848 80.6193 40.6169 80.3129C40.0026 80.1597 39.3883 80.0065 38.9275 79.8533C38.6204 79.8533 38.4668 79.7001 38.1597 79.7001C37.2382 79.3937 36.3167 79.0873 35.5489 78.7809C35.3953 78.7809 35.2417 78.6277 35.0881 78.6277C34.3203 78.3214 33.5524 78.1682 32.9381 77.8618C32.7845 77.7086 32.4773 77.7086 32.3238 77.5554C31.7095 77.4022 31.0952 77.0958 30.6344 76.7894C30.3273 76.6362 29.8665 76.483 29.5594 76.3298C28.9451 76.0234 28.4844 75.8702 27.8701 75.5638C27.5629 75.4106 27.2558 75.2574 26.795 75.1042C26.1807 74.7978 25.5664 74.4915 25.1057 74.1851C24.7985 74.0319 24.4914 73.8787 24.3378 73.7255C23.5699 73.2659 22.6485 72.8063 21.8806 72.3467C8.21231 64.3805 1.45496 54.1164 1.45496 43.8523C1.45496 43.8523 1.76211 93.7941 2.06926 94.7133C2.06926 94.7133 2.06926 94.7133 2.06926 94.8665C2.22284 95.4793 2.37641 96.0921 2.52999 96.7048C2.68357 97.3176 2.99072 97.9304 3.14429 98.5432V98.6964C3.60502 99.7688 4.06575 100.841 4.68006 102.067C4.68006 102.067 4.68006 102.067 4.68006 102.22C4.98721 102.679 5.29436 103.292 5.75509 103.905C5.75509 104.058 5.90867 104.211 5.90867 104.211C6.36939 104.824 6.67655 105.437 7.13727 106.05C7.44443 106.356 7.75158 106.816 8.05873 107.275C8.36588 107.582 8.67304 107.888 8.82661 108.348C9.28734 108.807 9.74807 109.42 10.3624 110.033L10.516 110.186C10.8231 110.492 11.1303 110.799 11.4374 111.105C28.7915 127.804 61.1961 133.165 85.4611 129.489C90.222 128.876 92.8328 128.263 95.4436 127.65C96.8258 127.344 100.512 126.425 104.965 124.893C104.965 124.893 104.965 124.893 105.119 124.893C106.347 124.433 107.73 123.974 108.958 123.361C114.18 121.216 118.787 118.765 122.78 115.854C122.934 115.701 123.087 115.701 123.241 115.548C123.394 115.395 123.548 115.242 123.702 115.242C123.702 115.242 123.702 115.242 123.855 115.088C124.623 114.476 125.391 113.863 126.312 113.097C126.466 113.097 126.466 112.944 126.466 112.944L126.62 112.79C127.387 112.178 128.155 111.412 128.923 110.646C129.998 109.573 131.534 108.041 132.455 106.663C132.916 106.05 133.53 105.131 133.991 104.518L134.452 103.752L134.605 103.599C135.066 102.833 135.681 101.913 135.988 101.148C136.141 100.841 136.295 100.688 136.295 100.382V100.228C136.448 99.7688 136.602 99.4624 136.756 99.0028L136.909 98.6964V98.5432C137.216 97.7772 137.523 96.7048 137.831 95.9389C137.984 95.3261 138.138 94.7133 138.291 94.1005V93.9473C138.291 93.9473 138.291 93.9473 138.291 93.7941C138.291 93.4877 138.445 93.1813 138.445 92.875V92.7218C138.445 92.5686 138.752 56.4144 138.906 44.0055C139.674 44.4651 139.674 44.7715 139.674 45.0779Z" fill="url(#paint0_linear_1023_365)"/>
<path d="M139.674 43.3927C139.674 43.5459 139.674 43.6991 139.674 43.8523C139.674 44.0055 139.674 44.1587 139.674 44.3119C139.674 44.4651 139.674 44.6182 139.674 44.7714C139.674 44.9246 139.674 45.0778 139.674 45.231C139.674 45.3842 139.674 45.5374 139.674 45.6906C139.674 45.8438 139.674 45.997 139.674 46.1502C139.674 46.3034 139.674 46.4566 139.52 46.763C139.52 46.9162 139.52 47.0694 139.366 47.2226C139.366 47.3758 139.213 47.529 139.213 47.6822C139.213 47.8354 139.213 47.9886 139.059 48.1418C139.059 48.2949 138.906 48.4481 138.906 48.6013C138.906 48.7545 138.906 48.9077 138.752 49.0609C138.752 49.2141 138.598 49.3673 138.598 49.6737C138.598 49.8269 138.445 49.9801 138.445 50.1333C138.291 50.2865 138.291 50.5929 138.138 50.7461C138.138 50.8993 138.138 50.8993 137.984 51.0525C137.831 51.3589 137.831 51.6653 137.677 51.8184V51.9716C137.523 52.278 137.37 52.5844 137.216 52.8908C137.216 53.044 137.063 53.1972 137.063 53.3504C136.909 53.5036 136.909 53.6568 136.756 53.9632C136.756 54.1164 136.602 54.2696 136.602 54.4228C136.448 54.576 136.448 54.7292 136.295 55.0356C136.295 55.1888 136.141 55.1888 136.141 55.342C135.988 55.4951 135.834 55.8015 135.681 55.9547C135.681 56.1079 135.527 56.2611 135.373 56.2611C135.22 56.4143 135.066 56.7207 134.913 56.8739C134.759 57.0271 134.759 57.1803 134.605 57.3335C134.452 57.4867 134.298 57.7931 134.145 57.9463C133.991 58.0995 133.991 58.2527 133.838 58.2527C133.684 58.4059 133.53 58.7123 133.377 58.8655C133.223 59.0187 133.223 59.1718 133.07 59.1718C132.763 59.4782 132.455 59.9378 132.148 60.2442L131.995 60.3974C131.688 60.7038 131.534 61.0102 131.227 61.3166C131.073 61.4698 131.073 61.4698 130.92 61.623C130.613 61.9294 130.459 62.0826 130.152 62.389C129.998 62.5422 129.998 62.5422 129.845 62.6953C129.537 63.0017 129.23 63.3081 128.77 63.7677C128.616 63.9209 128.462 64.0741 128.309 64.2273C128.155 64.3805 128.002 64.5337 127.848 64.6869C127.695 64.8401 127.541 64.9933 127.387 65.1465C127.234 65.2997 127.08 65.4529 126.927 65.6061C126.773 65.7593 126.62 65.9125 126.466 66.0657C126.312 66.2189 126.159 66.372 126.005 66.5252C125.852 66.6784 125.698 66.8316 125.391 66.9848C125.237 67.138 125.084 67.2912 124.93 67.2912C124.777 67.4444 124.469 67.5976 124.316 67.7508C124.162 67.904 124.009 67.904 123.855 68.0572C123.702 68.2104 123.394 68.3636 123.241 68.5168C123.087 68.67 122.934 68.67 122.78 68.8232C122.473 68.9764 122.319 69.1296 122.012 69.2828C121.859 69.436 121.705 69.436 121.552 69.5892C121.244 69.7424 121.091 69.8956 120.784 70.0488C120.63 70.2019 120.477 70.2019 120.323 70.3551C120.016 70.5083 119.555 70.8147 119.248 70.9679C118.48 71.4275 117.712 71.8871 116.944 72.1935C116.791 72.3467 116.484 72.3467 116.33 72.4999C115.562 72.8063 114.948 73.2659 114.18 73.5723C114.18 73.5723 114.026 73.5723 114.026 73.7254C113.258 74.185 112.337 74.4914 111.569 74.7978C111.415 74.951 111.108 74.951 110.955 75.1042C110.187 75.4106 109.573 75.717 108.805 76.0234C108.651 76.0234 108.498 76.1766 108.344 76.1766C107.423 76.483 106.655 76.7894 105.733 77.0958C105.58 77.0958 105.426 77.249 105.272 77.249C104.658 77.4021 104.044 77.7085 103.43 77.8617C102.969 78.0149 102.355 78.1681 101.894 78.3213C101.433 78.4745 100.972 78.6277 100.358 78.7809C99.7437 78.9341 99.283 79.0873 98.6687 79.2405C98.2079 79.3937 97.7472 79.5469 97.1329 79.5469C96.5186 79.7001 95.9043 79.8533 95.4436 80.0065C94.9828 80.1597 94.5221 80.1597 93.9078 80.3129C93.2935 80.4661 92.6792 80.6193 92.0649 80.6193C91.4506 80.7725 90.9899 80.7725 90.3756 80.9257C90.222 80.9257 89.9148 80.9257 89.7613 81.0788C88.8398 81.232 88.0719 81.3852 87.1505 81.5384C86.9969 81.5384 86.8433 81.5384 86.8433 81.5384C85.9219 81.6916 85.0004 81.8448 83.9254 81.8448C83.6182 81.8448 83.3111 81.8448 83.1575 81.998C82.5432 81.998 82.0825 82.1512 81.4681 82.1512C80.7003 82.1512 79.9324 82.3044 79.1645 82.3044C78.7038 82.3044 78.243 82.3044 77.7823 82.4576C77.0144 82.4576 76.2466 82.6108 75.4787 82.6108C75.018 82.6108 74.5572 82.6108 74.0965 82.6108C73.4822 82.6108 72.8679 82.6108 72.1 82.6108C71.6393 82.6108 71.1785 82.6108 70.5642 82.6108C69.7964 82.6108 69.0285 82.6108 68.4142 82.6108C67.9534 82.6108 67.6463 82.6108 67.1856 82.6108C66.4177 82.6108 65.8034 82.6108 65.1891 82.4576C64.7283 82.4576 64.2676 82.4576 63.9605 82.4576C63.1926 82.4576 62.5783 82.3044 61.8104 82.3044C61.3497 82.3044 61.0425 82.3044 60.5818 82.1512C59.6603 81.998 58.7389 81.998 57.6638 81.8448C57.5103 81.8448 57.3567 81.8448 57.2031 81.8448C56.1281 81.6916 55.053 81.5384 53.8244 81.3852C53.6709 81.3852 53.6709 81.3852 53.5173 81.3852C52.4423 81.232 51.5208 81.0788 50.4458 80.9257C50.1386 80.9257 49.6779 80.7725 49.3707 80.7725C48.6028 80.6193 47.835 80.4661 47.2207 80.3129C46.9135 80.3129 46.4528 80.1597 46.1456 80.0065C45.3777 79.8533 44.6099 79.7001 43.842 79.5469C43.3813 79.3937 43.0741 79.3937 42.6134 79.2405C41.8455 79.0873 41.2312 78.9341 40.4633 78.6277C39.849 78.4745 39.2347 78.3213 38.774 78.1681C38.4668 78.1681 38.3132 78.0149 38.0061 78.0149C37.0846 77.7085 36.1632 77.4021 35.3953 77.0958C35.2417 77.0958 35.0881 76.9426 34.9346 76.9426C34.1667 76.6362 33.3988 76.483 32.7845 76.1766C32.6309 76.0234 32.3238 76.0234 32.1702 75.8702C31.5559 75.5638 30.9416 75.4106 30.4809 75.1042C30.1737 74.951 29.713 74.7978 29.4058 74.6446C28.7915 74.3382 28.3308 74.185 27.7165 73.8786C27.4093 73.7255 27.1022 73.5723 26.6414 73.4191C26.0271 73.1127 25.4128 72.8063 24.9521 72.4999C24.645 72.3467 24.3378 72.1935 24.1842 72.0403C23.4164 71.5807 22.4949 71.1211 21.727 70.6615C8.21231 62.6954 1.45496 52.4312 1.45496 42.1671C1.45496 42.1671 1.76211 92.1089 2.06926 93.0281C2.06926 93.0281 2.06926 93.0281 2.06926 93.1813C2.22284 93.7941 2.37641 94.4069 2.52999 95.0197V95.1729C2.83714 95.7856 2.99072 96.3984 3.29787 97.0112V97.1644C3.7586 98.2368 4.21933 99.3092 4.83363 100.535C5.14078 100.994 5.44794 101.607 5.90867 102.22C5.90867 102.373 6.06224 102.526 6.06224 102.526C6.52297 103.139 6.83012 103.752 7.29085 104.365C7.598 104.671 7.90516 105.131 8.21231 105.59C8.51946 105.897 8.82661 106.203 8.98019 106.509C9.44092 106.969 9.90165 107.582 10.516 108.195L10.6695 108.348C10.9767 108.654 11.2838 108.96 11.591 109.267C28.9451 125.965 61.3497 131.327 85.6147 127.65C90.3756 127.038 92.9864 126.425 95.5972 125.812C96.9793 125.506 100.665 124.586 105.119 123.055C105.119 123.055 105.119 123.055 105.272 123.055C106.501 122.595 107.883 122.135 109.112 121.523C114.333 119.378 118.941 116.927 122.934 114.016C123.087 113.863 123.241 113.863 123.394 113.71C123.548 113.556 123.702 113.403 123.855 113.403C123.855 113.403 123.855 113.403 124.009 113.25C124.777 112.637 125.545 112.024 126.466 111.258C126.62 111.258 126.62 111.105 126.62 111.105L126.773 110.952C127.541 110.339 128.309 109.573 129.077 108.807C130.152 107.735 131.688 106.203 132.609 104.824C133.07 104.211 133.684 103.292 134.145 102.679L134.605 101.913L134.759 101.76C135.22 100.994 135.834 100.075 136.141 99.3092C136.295 99.0028 136.448 98.8496 136.448 98.5432V98.39C136.602 97.9304 136.756 97.624 136.909 97.1644L137.063 96.858V96.7048C137.37 95.9388 137.677 94.8665 137.984 94.1005C138.752 93.9473 139.674 54.8824 139.674 42.6267C139.674 42.7799 139.674 43.0863 139.674 43.3927Z" fill="#FAC700"/>
<path d="M139.674 46.1502C139.674 45.997 139.674 45.6906 139.674 45.5374C139.674 45.6906 139.674 45.8438 139.674 45.8438C139.674 45.6906 139.674 45.5374 139.674 45.3842V45.231C139.674 45.231 139.674 45.231 139.674 45.3842C139.674 44.7714 139.674 44.1587 139.52 43.3927C139.52 42.9331 139.52 42.6267 139.366 42.3203C139.366 42.1671 139.366 42.0139 139.366 41.8607C139.366 41.5543 139.366 41.4011 139.213 41.0947V41.5543C138.906 40.0224 138.752 39.4096 138.291 37.8776V37.7244V37.5712C138.291 37.418 138.138 37.2648 138.138 37.1117C137.831 36.1925 137.37 35.1201 136.756 33.8945C136.602 33.7413 136.602 33.5882 136.448 33.2818C136.448 33.1286 136.295 32.9754 136.295 32.9754C136.141 32.669 135.988 32.3626 135.834 32.0562C135.834 31.903 135.681 31.7498 135.681 31.7498V31.5966V31.4434C135.681 31.2902 135.527 31.137 135.527 30.9838C135.527 30.9838 135.527 30.8306 135.373 30.8306C135.22 30.5242 135.066 30.2178 134.759 29.9115L134.605 29.7583C134.452 29.6051 134.452 29.4519 134.298 29.2987L134.145 29.1455C133.991 28.8391 133.684 28.5327 133.377 28.2263L133.223 28.0731C133.07 27.9199 132.916 27.7667 132.763 27.4603C132.148 26.6943 131.534 25.9284 130.92 25.3156L130.766 25.1624L130.613 25.0092C129.998 24.2432 129.23 23.6304 128.616 23.0176C128.616 23.0176 128.616 23.0176 128.462 22.8644C128.002 22.4049 127.541 21.9453 127.08 21.6389C126.773 21.3325 126.466 21.0261 126.005 20.7197C124.777 19.6473 123.702 18.8814 121.244 17.1962C120.937 16.8898 120.476 16.5834 120.016 16.4302L119.862 16.277L118.326 15.3579L118.173 15.2047C117.712 14.8983 117.251 14.7451 116.791 14.4387C112.03 11.9875 106.347 9.8428 100.358 8.15765C98.8223 7.69806 97.7472 7.39167 95.5972 6.93208C90.222 5.55332 85.7683 5.09373 85.7683 5.09373C85.4611 5.09373 85.3076 5.09373 85.0004 4.94054C83.7718 4.78734 82.5432 4.63415 81.161 4.48095C79.3181 4.32775 77.9359 4.17456 75.4787 4.02136C74.8644 4.02136 74.2501 4.02136 73.4822 4.02136C73.6358 4.02136 73.7893 4.02136 73.7893 4.02136C73.3286 4.02136 72.7143 4.02136 72.4072 4.02136C72.1 4.02136 71.9464 4.02136 71.6393 4.02136C71.3321 4.02136 71.025 4.02136 70.7178 4.02136C70.5642 4.02136 70.2571 4.02136 70.1035 4.02136C69.7964 4.02136 69.3356 4.02136 69.0285 4.02136C68.8749 4.02136 68.5677 4.02136 68.4142 4.02136C68.2606 4.02136 68.2606 4.02136 68.107 4.02136C66.1105 4.02136 64.114 4.17456 62.1175 4.32775C55.9745 4.63415 50.4458 5.55332 45.3777 6.77889C43.5348 7.23847 41.8455 7.69806 40.1562 8.15765C38.4668 8.61724 37.3918 8.92363 35.2417 9.68961C32.6309 10.6088 30.6344 11.528 28.7915 12.2939C26.9486 13.0599 25.2593 13.9791 23.5699 14.8983C23.2628 15.0515 23.1092 15.2047 22.802 15.3579C22.3413 15.6642 21.727 15.9706 21.2663 16.277C21.2663 16.277 21.1127 16.277 21.1127 16.4302C20.9591 16.5834 20.8056 16.5834 20.652 16.7366C19.5769 17.3494 18.8091 17.9622 18.0412 18.4218C17.8876 18.575 17.734 18.7282 17.4269 18.7282C16.659 19.1877 15.8911 19.9537 14.9697 20.5665C14.8161 20.7197 14.6625 20.7197 14.5089 20.8729L13.5875 21.9453C13.1267 22.4049 12.666 22.8644 12.2053 23.1708C9.59449 25.4688 6.52297 28.9923 4.3729 33.5882C4.21933 34.0477 3.91217 34.5073 3.7586 34.9669C3.7586 34.9669 2.68357 37.418 2.06926 40.1756C1.91568 41.2479 1.60853 42.6267 1.60853 43.6991C1.60853 44.3119 1.60853 45.0778 1.45496 45.6906C1.45496 55.9547 8.21231 66.372 21.8806 74.185C22.4949 74.4914 23.1092 74.7978 23.7235 75.1042C23.7235 75.1042 23.8771 75.1042 23.8771 75.2574C23.8771 75.2574 24.0307 75.2574 24.0307 75.4106H24.1842C24.1842 75.4106 24.3378 75.4106 24.3378 75.5638C24.3378 75.5638 24.3378 75.5638 24.4914 75.5638C24.4914 75.5638 24.645 75.5638 24.645 75.717H24.7985C24.7985 75.717 24.9521 75.717 24.9521 75.8702C25.1057 75.8702 25.1057 76.0234 25.2593 76.0234C25.4128 76.0234 25.4128 76.1766 25.5664 76.1766C25.72 76.1766 25.8736 76.3298 25.8736 76.3298C26.0271 76.3298 26.0271 76.483 26.1807 76.483C26.3343 76.483 26.3343 76.6362 26.4879 76.6362C26.6414 76.6362 26.6415 76.7894 26.795 76.7894C26.795 76.7894 26.9486 76.7894 26.9486 76.9426C26.9486 76.9426 27.1022 76.9426 27.1022 77.0958H27.2558H27.4093H27.5629C27.7165 77.0958 27.7165 77.2489 27.8701 77.2489C28.0236 77.2489 28.1772 77.4021 28.3308 77.4021C28.4844 77.4021 28.6379 77.5553 28.6379 77.5553C28.7915 77.5553 28.9451 77.7085 29.0987 77.7085C29.0987 77.7085 29.0987 77.7085 29.2522 77.7085C29.4058 77.7085 29.4058 77.8617 29.5594 77.8617C29.713 77.8617 29.8666 78.0149 30.0201 78.0149C30.1737 78.0149 30.1737 78.0149 30.3273 78.1681C30.3273 78.1681 30.3273 78.1681 30.4809 78.1681C30.4809 78.1681 30.4809 78.1681 30.6344 78.1681H30.788C30.9416 78.1681 30.9416 78.3213 31.0952 78.3213C31.2487 78.3213 31.4023 78.4745 31.5559 78.4745C31.5559 78.4745 31.7095 78.4745 31.7095 78.6277C31.863 78.6277 32.0166 78.7809 32.1702 78.7809C32.3238 78.7809 32.4773 78.9341 32.6309 78.9341C32.6309 78.9341 32.6309 78.9341 32.7845 78.9341H32.9381C33.0917 78.9341 33.0917 78.9341 33.2452 79.0873C33.3988 79.0873 33.3988 79.0873 33.5524 79.2405C33.706 79.2405 33.8595 79.3937 34.0131 79.3937C34.1667 79.3937 34.1667 79.3937 34.3203 79.5469C34.4738 79.5469 34.6274 79.7001 34.781 79.7001C34.9346 79.7001 34.9346 79.7001 35.0881 79.8533C35.0881 79.8533 35.0881 79.8533 35.2417 79.8533H35.3953H35.5489C35.7024 79.8533 35.856 80.0065 36.0096 80.0065C36.1632 80.0065 36.3167 80.1597 36.4703 80.1597C36.6239 80.1597 36.7775 80.3129 36.7775 80.3129C36.9311 80.3129 36.9311 80.3129 37.0846 80.4661C37.2382 80.4661 37.2382 80.4661 37.3918 80.6193H37.5454H37.6989C37.8525 80.6193 38.0061 80.7725 38.1597 80.7725C38.3132 80.7725 38.4668 80.9257 38.6204 80.9257H38.774C38.9275 80.9257 38.9275 80.9256 39.0811 81.0788C39.2347 81.0788 39.3883 81.232 39.5418 81.232C39.6954 81.232 39.6954 81.232 39.849 81.232H40.0026H40.1562C40.3097 81.232 40.3097 81.232 40.4633 81.232C40.6169 81.232 40.924 81.3852 41.0776 81.3852H41.2312H41.3848C41.5383 81.3852 41.6919 81.3852 41.6919 81.5384C41.9991 81.5384 42.1526 81.6916 42.4598 81.6916C42.6134 81.6916 42.6134 81.6916 42.7669 81.6916C42.9205 81.6916 43.0741 81.6916 43.2277 81.8448C43.3813 81.8448 43.3813 81.8448 43.5348 81.8448H43.6884C43.842 81.8448 43.842 81.8448 43.9956 81.8448C44.1491 81.8448 44.4563 81.998 44.6099 81.998C44.7634 81.998 44.917 81.998 44.917 82.1512C45.0706 82.1512 45.0706 82.1512 45.2242 82.1512H45.3777C45.5313 82.1512 45.6849 82.1512 45.6849 82.3044C45.8385 82.3044 45.8385 82.3044 45.9921 82.3044H46.1456C46.2992 82.3044 46.4528 82.3044 46.6064 82.4576C46.7599 82.4576 46.7599 82.4576 46.9135 82.4576H47.0671C47.2207 82.4576 47.3742 82.4576 47.3742 82.6108C47.3742 82.6108 47.3742 82.6108 47.5278 82.6108H47.6814C47.6814 82.6108 47.835 82.6108 47.9885 82.6108C48.1421 82.6108 48.2957 82.6108 48.2957 82.6108C48.4493 82.6108 48.4493 82.6108 48.6028 82.6108C48.7564 82.6108 49.0636 82.6108 49.2171 82.764C49.3707 82.764 49.5243 82.764 49.6779 82.9172H49.8315H49.985C50.1386 82.9172 50.1386 82.9172 50.2922 82.9172C50.4458 82.9172 50.4458 82.9172 50.5993 82.9172C50.7529 82.9172 50.9065 82.9172 51.0601 82.9172C51.3672 82.9172 51.5208 83.0704 51.8279 83.0704H51.9815C52.1351 83.0704 52.2887 83.0704 52.2887 83.0704C52.4422 83.0704 52.5958 83.0704 52.903 83.2236C53.0566 83.2236 53.0566 83.2236 53.2101 83.2236H53.3637C53.5173 83.2236 53.6709 83.2236 53.8244 83.2236C53.978 83.2236 53.978 83.2236 54.1316 83.2236C54.2852 83.2236 54.5923 83.2236 54.7459 83.3768C54.8995 83.3768 54.8995 83.3768 55.053 83.3768C55.2066 83.3768 55.3602 83.3768 55.6673 83.3768C55.8209 83.3768 56.1281 83.3768 56.2817 83.3768C56.4352 83.3768 56.5888 83.3768 56.5888 83.3768H56.7424C56.896 83.3768 56.896 83.3768 57.0495 83.3768C57.2031 83.3768 57.3567 83.3768 57.5103 83.3768C57.6638 83.3768 57.8174 83.3768 57.971 83.3768C58.1246 83.3768 58.2781 83.3768 58.2781 83.3768C58.4317 83.3768 58.5853 83.3768 58.7389 83.3768C59.046 83.3768 59.5068 83.3768 59.8139 83.53C59.9675 83.53 60.1211 83.53 60.2746 83.53H60.4282C60.5818 83.53 60.5818 83.53 60.7354 83.53C60.8889 83.53 61.0425 83.53 61.1961 83.53C61.3497 83.53 61.5032 83.53 61.6568 83.53C61.8104 83.53 61.964 83.53 62.2711 83.53C62.7318 83.53 63.1926 83.53 63.6533 83.6832C63.8069 83.6832 63.8069 83.6832 63.9605 83.6832H64.114C64.2676 83.6832 64.5748 83.6832 64.7283 83.6832C65.0355 83.6832 65.4962 83.6832 65.8034 83.6832C65.8034 83.6832 65.8034 83.6832 65.957 83.6832C66.1105 83.6832 66.2641 83.6832 66.4177 83.6832C66.5713 83.6832 66.7248 83.6832 66.8784 83.6832C67.032 83.6832 67.032 83.6832 67.1856 83.6832H67.3391C67.4927 83.6832 67.4927 83.6832 67.6463 83.6832C68.107 83.6832 68.5677 83.6832 69.0285 83.6832C69.3356 83.6832 69.4892 83.6832 69.7964 83.6832C69.9499 83.6832 69.9499 83.6832 70.1035 83.6832C70.2571 83.6832 70.2571 83.6832 70.4107 83.6832C70.5642 83.6832 70.5642 83.6832 70.7178 83.6832C70.8714 83.6832 71.025 83.6832 71.1785 83.6832C71.3321 83.6832 71.4857 83.6832 71.6393 83.6832C71.9464 83.6832 72.1 83.6832 72.4072 83.6832C72.7143 83.6832 73.0215 83.6832 73.175 83.6832C73.3286 83.6832 73.4822 83.6832 73.7893 83.6832C73.9429 83.6832 73.9429 83.6832 74.0965 83.6832C74.2501 83.6832 74.4036 83.6832 74.7108 83.6832H74.8644C75.3251 83.6832 75.7858 83.6832 76.2466 83.6832C76.4001 83.6832 76.7073 83.6832 76.8609 83.6832C77.0144 83.6832 77.168 83.6832 77.3216 83.6832C77.4752 83.6832 77.4752 83.6832 77.6287 83.6832C77.7823 83.6832 77.9359 83.6832 78.0895 83.6832C78.5502 83.6832 79.1645 83.6832 79.6252 83.53C79.7788 83.53 79.9324 83.53 79.9324 83.53C80.086 83.53 80.3931 83.53 80.5467 83.53C80.8538 83.53 81.161 83.53 81.4681 83.3768C81.6217 83.3768 81.9289 83.3768 82.0825 83.3768C82.236 83.3768 82.5432 83.3768 82.6968 83.3768C82.8503 83.3768 83.0039 83.3768 83.1575 83.3768C83.6182 83.3768 84.0789 83.2236 84.6932 83.2236C85.0004 83.2236 85.3075 83.0704 85.6147 83.0704C85.7683 83.0704 85.9219 83.0704 86.0754 83.0704C86.229 83.0704 86.3826 83.0704 86.5362 82.9172C86.8433 82.9172 87.1505 82.764 87.4576 82.764C87.6112 82.764 87.9184 82.764 88.0719 82.6108C88.3791 82.6108 88.6862 82.4576 88.9934 82.4576C89.3005 82.4576 89.6077 82.3044 89.7613 82.3044C89.9148 82.3044 90.222 82.3044 90.3756 82.1512C90.8363 81.998 91.4506 81.998 91.9113 81.8448C92.2185 81.8448 92.5256 81.6916 92.9864 81.6916C93.7542 81.5384 94.6757 81.3852 95.4436 81.232C95.5972 81.232 95.7507 81.232 95.9043 81.0788C96.8258 80.9256 97.9008 80.6193 98.8223 80.3129C98.9758 80.3129 99.283 80.1597 99.4366 80.1597C100.204 80.0065 100.819 79.7001 101.587 79.5469C101.894 79.3937 102.201 79.3937 102.508 79.2405C102.815 79.0873 103.276 79.0873 103.583 78.9341C103.43 78.9341 103.276 78.9341 103.276 79.0873C104.505 78.6277 105.733 78.3213 107.115 77.8617C116.637 74.4914 124.93 69.7424 130.613 63.3081C130.613 63.3081 130.613 63.3081 130.613 63.1549C130.766 63.0017 130.766 63.0017 130.92 62.8485C131.073 62.6954 131.073 62.6954 131.227 62.5422L131.38 62.389C131.534 62.2358 131.688 62.0826 131.841 61.7762C131.995 61.623 131.995 61.623 132.148 61.4698C132.302 61.3166 132.455 61.0102 132.763 60.857L132.916 60.7038C132.916 60.5506 133.07 60.5506 133.07 60.3974C133.223 60.2442 133.223 60.2442 133.377 60.091C133.53 59.9378 133.53 59.7846 133.684 59.6314C133.838 59.4782 133.838 59.4782 133.991 59.325C133.991 59.325 133.991 59.1718 134.145 59.1718C134.145 59.1718 134.145 59.1718 134.298 59.0187C134.452 58.8655 134.452 58.7123 134.605 58.7123C134.759 58.5591 134.759 58.4059 134.913 58.2527C134.913 58.2527 134.913 58.0995 135.066 58.0995C135.066 58.0995 135.066 58.0995 135.066 57.9463L135.22 57.7931C135.22 57.6399 135.373 57.6399 135.373 57.4867C135.373 57.4867 135.373 57.3335 135.527 57.3335C135.681 57.1803 135.681 57.0271 135.834 56.8739C135.834 56.7207 135.988 56.5675 135.988 56.4143C135.988 56.2611 136.141 56.1079 136.141 55.9547C136.141 55.9547 136.141 55.8015 136.295 55.8015V55.6483C136.295 55.6483 136.295 55.4952 136.448 55.4952V55.3419C136.448 55.1888 136.602 55.1888 136.602 55.0356C136.756 54.8824 136.756 54.576 136.909 54.4228C136.909 54.4228 136.909 54.2696 137.063 54.2696V54.1164C137.216 53.81 137.216 53.6568 137.37 53.3504V53.1972C137.37 53.044 137.37 53.044 137.523 52.8908C137.523 52.7376 137.523 52.7376 137.677 52.5844C137.677 52.5844 137.677 52.4312 137.831 52.4312C137.831 52.278 137.831 52.278 137.984 52.1248C137.984 51.9716 137.984 51.9716 138.138 51.8184C138.138 51.6653 138.138 51.6653 138.291 51.5121V51.3589V51.2057C138.291 51.2057 138.291 51.2057 138.291 51.0525C138.291 50.8993 138.291 50.7461 138.445 50.5929V50.4397V50.2865C138.445 50.1333 138.445 50.1333 138.445 49.9801C138.445 49.8269 138.445 49.8269 138.445 49.6737C138.445 49.6737 138.445 49.6737 138.445 49.5205V49.3673C138.445 49.3673 138.445 49.3673 138.445 49.5205V49.3673V49.2141V49.0609C138.445 48.9077 138.445 48.9077 138.445 48.7545C138.445 48.7545 138.445 48.7545 138.445 48.6013C138.445 48.4481 138.445 48.4481 138.445 48.2949V48.1418C138.445 48.1418 138.445 48.1418 138.445 47.9886V47.8354V47.6822C138.445 47.529 138.445 47.529 138.445 47.3758V47.2226V47.0694V46.9162V46.763V46.6098V46.4566C138.445 46.4566 138.445 46.4566 138.445 46.3034C138.445 46.1502 138.445 45.8438 138.445 45.6906C138.445 45.8438 138.445 45.8438 138.445 45.997C139.674 46.4566 139.674 46.3034 139.674 46.1502Z" fill="#E8B100"/>
<path d="M139.674 42.6267C139.674 42.4735 139.674 42.1671 139.674 42.0139C139.674 42.9331 139.674 42.0139 139.674 41.8607C139.674 40.9415 139.52 39.1032 139.213 37.7244C139.213 37.8776 139.213 38.0308 139.213 38.184C137.37 26.5411 128.309 17.9621 118.634 12.1407C111.262 7.69803 102.969 4.94051 94.6757 3.10216C91.7578 2.48937 88.6862 1.87659 85.7683 1.5702C83.6182 1.26381 81.4682 1.11061 79.3181 0.804218C78.3966 0.804218 77.4752 0.651022 76.4001 0.651022C75.9394 0.651022 73.0215 0.497827 73.9429 0.497827C60.2746 0.191435 46.4528 1.87659 33.706 6.77885C23.1092 10.7619 12.0517 17.1962 6.06225 27.0007C0.0727773 36.4988 -0.0807991 47.9885 6.52298 57.3335C11.8981 64.8401 19.8841 70.2019 28.3308 73.8786C40.3097 79.5469 54.5923 82.3044 67.7999 82.3044C70.1035 82.3044 72.5607 82.3044 74.8644 82.3044C84.3861 82.3044 95.1364 80.3128 104.505 77.2489C103.276 77.5553 105.733 76.7893 105.733 76.7893C106.808 76.4829 107.73 76.0234 108.805 75.717C110.648 75.1042 112.491 74.3382 114.333 73.419C117.712 71.8871 121.091 70.0487 124.162 67.904C128.309 64.9933 131.841 61.4698 134.759 57.3335C136.756 54.2696 138.752 50.4397 139.366 47.0694C139.674 45.8438 139.827 43.5458 139.827 43.0863C139.674 42.9331 139.674 42.7799 139.674 42.6267C139.674 42.7799 139.674 42.3203 139.674 42.6267Z" fill="#FFDA00"/>
<path d="M34.93 56.45C33.38 56.45 31.98 56.185 30.73 55.655C29.49 55.115 28.465 54.35 27.655 53.36C26.855 52.36 26.335 51.175 26.095 49.805L29.365 49.31C29.695 50.63 30.385 51.66 31.435 52.4C32.485 53.13 33.71 53.495 35.11 53.495C35.98 53.495 36.78 53.36 37.51 53.09C38.24 52.81 38.825 52.415 39.265 51.905C39.715 51.385 39.94 50.765 39.94 50.045C39.94 49.655 39.87 49.31 39.73 49.01C39.6 48.71 39.415 48.45 39.175 48.23C38.945 48 38.66 47.805 38.32 47.645C37.99 47.475 37.625 47.33 37.225 47.21L31.69 45.575C31.15 45.415 30.6 45.21 30.04 44.96C29.48 44.7 28.965 44.365 28.495 43.955C28.035 43.535 27.66 43.02 27.37 42.41C27.08 41.79 26.935 41.04 26.935 40.16C26.935 38.83 27.275 37.705 27.955 36.785C28.645 35.855 29.575 35.155 30.745 34.685C31.915 34.205 33.225 33.965 34.675 33.965C36.135 33.985 37.44 34.245 38.59 34.745C39.75 35.245 40.71 35.965 41.47 36.905C42.24 37.835 42.77 38.965 43.06 40.295L39.7 40.865C39.55 40.055 39.23 39.36 38.74 38.78C38.25 38.19 37.65 37.74 36.94 37.43C36.23 37.11 35.46 36.945 34.63 36.935C33.83 36.915 33.095 37.035 32.425 37.295C31.765 37.555 31.235 37.92 30.835 38.39C30.445 38.86 30.25 39.4 30.25 40.01C30.25 40.61 30.425 41.095 30.775 41.465C31.125 41.835 31.555 42.13 32.065 42.35C32.585 42.56 33.1 42.735 33.61 42.875L37.6 44C38.1 44.14 38.665 44.33 39.295 44.57C39.935 44.8 40.55 45.125 41.14 45.545C41.74 45.965 42.235 46.525 42.625 47.225C43.015 47.915 43.21 48.785 43.21 49.835C43.21 50.925 42.99 51.885 42.55 52.715C42.11 53.535 41.505 54.225 40.735 54.785C39.975 55.335 39.095 55.75 38.095 56.03C37.095 56.31 36.04 56.45 34.93 56.45ZM51.4916 56V37.355H44.3066V34.4H61.8116V37.355H54.6266V56H51.4916ZM63.9121 56V34.4H77.7121V37.355H67.0471V43.415H75.9121V46.37H67.0471V53.045H77.7121V56H63.9121ZM81.0145 56V34.4H89.7445C89.9545 34.4 90.2145 34.41 90.5245 34.43C90.8345 34.44 91.1295 34.47 91.4095 34.52C92.6095 34.71 93.6095 35.12 94.4095 35.75C95.2195 36.38 95.8245 37.175 96.2245 38.135C96.6245 39.095 96.8245 40.155 96.8245 41.315C96.8245 42.485 96.6245 43.55 96.2245 44.51C95.8245 45.47 95.2195 46.265 94.4095 46.895C93.6095 47.525 92.6095 47.935 91.4095 48.125C91.1295 48.165 90.8295 48.195 90.5095 48.215C90.1995 48.235 89.9445 48.245 89.7445 48.245H84.1495V56H81.0145ZM84.1495 45.275H89.6245C89.8245 45.275 90.0445 45.265 90.2845 45.245C90.5345 45.225 90.7695 45.19 90.9895 45.14C91.6295 44.99 92.1445 44.715 92.5345 44.315C92.9245 43.905 93.2045 43.435 93.3745 42.905C93.5445 42.375 93.6295 41.845 93.6295 41.315C93.6295 40.785 93.5445 40.26 93.3745 39.74C93.2045 39.21 92.9245 38.745 92.5345 38.345C92.1445 37.935 91.6295 37.655 90.9895 37.505C90.7695 37.445 90.5345 37.405 90.2845 37.385C90.0445 37.365 89.8245 37.355 89.6245 37.355H84.1495V45.275ZM106.354 56L113.944 37.385H104.329V34.4H117.319V37.385L109.744 56H106.354Z" fill="#151515"/>
<defs>
<linearGradient id="paint0_linear_1023_365" x1="1.45496" y1="87.321" x2="139.674" y2="87.321" gradientUnits="userSpaceOnUse">
<stop stop-color="#FFD200"/>
<stop offset="1" stop-color="#FFB900"/>
</linearGradient>
</defs>
</svg>
