<svg width="182" height="179" viewBox="0 0 182 179" fill="none" xmlns="http://www.w3.org/2000/svg">
<g opacity="0.3">
<path opacity="0.0243902" d="M90.0264 176.279C102.636 157.473 189.762 158.374 178.807 139.906C167.955 121.551 40.9336 72.0026 20.0562 78.4213C-0.717835 84.8401 -7.84922 99.2541 12.6148 117.609C28.2211 131.573 85.2722 183.374 90.0264 176.279Z" fill="#FBFBFB"/>
<path opacity="0.0487805" d="M88.9929 174.815C102.222 156.685 187.385 157.023 176.637 138.78C165.991 120.537 41.6571 71.8898 20.7797 78.1959C-0.0977206 84.5021 -7.43581 98.8035 12.5114 117.046C27.601 131.01 83.9286 181.909 88.9929 174.815Z" fill="#F7F7F7"/>
<path opacity="0.0731707" d="M87.9593 173.464C101.705 156.122 184.905 155.897 174.466 137.654C164.027 119.411 42.4838 71.7773 21.5031 77.9708C0.522378 84.1643 -7.12577 98.2405 12.3047 116.483C27.0842 130.334 82.4816 180.446 87.9593 173.464Z" fill="#F3F3F3"/>
<path opacity="0.097561" d="M86.9258 172.112C101.189 155.446 182.424 154.658 172.296 136.528C162.167 118.398 43.2073 71.7773 22.1232 77.7456C1.1425 83.7139 -6.81571 97.7901 12.098 115.92C26.4641 129.771 81.0347 178.982 86.9258 172.112Z" fill="#EFEFEF"/>
<path opacity="0.122" d="M85.8923 170.648C100.568 154.658 180.047 153.307 170.125 135.289C160.203 117.384 43.9308 71.6645 22.8467 77.5202C1.65927 83.3759 -6.50564 97.3395 11.8913 115.357C25.9473 129.208 79.5877 177.518 85.8923 170.648Z" fill="#EBEBEB"/>
<path opacity="0.1463" d="M84.8588 169.297C99.9484 153.982 177.567 152.068 167.955 134.276C158.24 116.371 44.7577 71.552 23.4668 77.2951C2.2794 82.9256 -6.19558 96.8892 11.5812 114.907C25.3272 128.645 78.1408 176.166 84.8588 169.297Z" fill="#E7E7E7"/>
<path opacity="0.1707" d="M83.7219 167.946C99.2249 153.307 174.983 150.942 165.681 133.149C156.379 115.357 45.4811 71.552 24.1903 77.0699C2.8995 82.5877 -5.88553 96.3261 11.4778 114.344C24.8104 128.082 76.5905 174.702 83.7219 167.946Z" fill="#E4E4E4"/>
<path opacity="0.1951" d="M82.6883 166.482C98.5014 152.406 172.606 149.59 163.511 131.911C154.416 114.344 46.2046 71.4393 24.9138 76.8446C3.51964 82.2499 -5.57546 95.8756 11.2711 113.781C24.1903 127.519 75.1435 173.239 82.6883 166.482Z" fill="#E0E0E0"/>
<path opacity="0.2195" d="M81.6548 165.131C97.778 151.73 170.125 148.352 161.34 130.785C152.452 113.218 47.0314 71.3269 25.5339 76.6195C4.13976 81.7996 -5.16204 95.4253 11.0644 113.218C23.6736 126.956 73.5933 171.775 81.6548 165.131Z" fill="#DCDCDC"/>
<path opacity="0.2439" d="M80.6213 163.667C97.0545 150.829 167.645 147.113 159.17 129.659C150.592 112.204 47.7549 71.3268 26.2574 76.3943C4.75988 81.4617 -4.85198 94.9749 10.8577 112.655C23.0534 126.393 72.1463 170.311 80.6213 163.667Z" fill="#D8D8D8"/>
<path opacity="0.2683" d="M79.5877 162.315C96.331 150.041 165.164 145.874 156.896 128.532C148.628 111.191 48.4783 71.2141 26.8775 76.169C5.27663 81.0112 -4.54194 94.5243 10.651 112.091C22.5366 125.83 70.596 168.847 79.5877 162.315Z" fill="#D4D4D4"/>
<path opacity="0.2927" d="M78.5542 160.964C95.6075 149.253 162.787 144.636 154.726 127.406C146.767 110.177 49.3052 71.1016 27.601 75.9438C5.89676 80.6734 -4.23187 94.0739 10.4443 111.528C21.9165 125.267 69.0457 167.383 78.5542 160.964Z" fill="#D0D0D0"/>
<path opacity="0.3171" d="M77.5207 159.5C94.7807 148.352 160.307 143.397 152.555 126.168C144.804 109.164 50.0287 71.1015 28.3245 75.7185C6.5169 80.2229 -3.92179 93.5108 10.2376 110.965C21.3998 124.704 67.5988 165.919 77.5207 159.5Z" fill="#CCCCCC"/>
<path opacity="0.3415" d="M76.3838 158.149C93.8505 147.563 157.723 142.158 150.281 125.154C142.84 108.15 50.7521 70.9889 28.9446 75.3806C7.137 79.885 -3.61175 93.0604 10.0309 110.402C20.7797 124.141 66.0485 164.455 76.3838 158.149Z" fill="#C8C8C8"/>
<path opacity="0.3659" d="M75.3503 156.798C93.127 146.663 155.346 140.92 148.111 124.028C140.876 107.137 51.4756 70.989 29.5647 75.2682C7.75712 79.5474 -3.30169 92.6101 9.82419 109.839C20.2629 123.578 64.4981 162.991 75.3503 156.798Z" fill="#C4C4C4"/>
<path opacity="0.3902" d="M74.3167 155.334C92.3002 145.762 152.865 139.681 145.941 122.789C139.016 106.011 52.3024 70.8763 30.2882 74.9303C8.37724 79.0968 -2.99163 92.1596 9.61748 109.276C19.6428 123.015 62.9478 161.415 74.3167 155.334Z" fill="#C0C0C0"/>
<path opacity="0.4146" d="M73.2832 153.982C91.4734 144.861 150.385 138.442 143.77 121.663C137.052 104.997 53.0259 70.7638 31.0117 74.7052C8.89403 78.7591 -2.68155 91.7092 9.4108 108.713C19.0227 122.452 61.3976 159.951 73.2832 153.982Z" fill="#BCBCBC"/>
<path opacity="0.439" d="M72.2497 152.631C90.6466 143.96 148.008 137.204 141.6 120.65C135.192 103.984 53.8527 70.6512 31.6318 74.4799C9.51415 78.3087 -2.26814 91.2588 9.20409 108.15C18.5059 121.889 59.8472 158.487 72.2497 152.631Z" fill="#B8B8B8"/>
<path opacity="0.4634" d="M71.2161 151.167C89.8197 142.947 145.527 135.965 139.429 119.411C133.228 102.97 54.5762 70.6511 32.3552 74.2546C10.1343 77.9707 -1.95809 90.8082 8.99737 107.587C17.8858 121.438 58.2969 156.91 71.2161 151.167Z" fill="#B4B4B4"/>
<path opacity="0.4878" d="M70.1826 149.816C88.9929 142.046 143.047 134.726 137.259 118.285C131.264 101.957 55.2997 70.5385 33.0787 74.0294C10.7544 77.5203 -1.64804 90.3578 8.79066 107.024C17.369 120.875 56.7466 155.334 70.1826 149.816Z" fill="#B0B0B0"/>
<path opacity="0.5122" d="M69.0457 148.464C88.0627 141.145 140.566 133.487 134.985 117.159C129.404 100.83 56.1265 70.4258 33.6988 73.8041C11.2711 77.1824 -1.44134 89.9073 8.48059 106.461C16.7489 120.312 55.1963 153.757 69.0457 148.464Z" fill="#ADADAD"/>
<path opacity="0.5366" d="M68.0121 147C87.2359 140.019 138.086 132.249 132.711 116.033C127.44 99.817 56.85 70.4259 34.4223 73.579C11.9946 76.8446 -1.02791 89.4569 8.37725 105.898C16.2321 119.749 53.646 152.181 68.0121 147Z" fill="#A9A9A9"/>
<path opacity="0.561" d="M66.9786 145.649C86.409 139.118 135.605 131.01 130.541 114.907C125.58 98.8034 57.6768 70.3132 35.0424 73.3536C12.5114 76.3941 -0.717865 89.0064 8.17053 105.447C15.612 119.186 51.9924 150.604 66.9786 145.649Z" fill="#A5A5A5"/>
<path opacity="0.5854" d="M65.9451 144.185C85.5822 137.992 133.228 129.659 128.371 113.668C123.616 97.7901 58.4003 70.2007 35.7659 73.1285C13.1315 76.0564 -0.407793 88.5561 7.86048 104.884C14.9919 118.623 50.4421 149.027 65.9451 144.185Z" fill="#A1A1A1"/>
<path opacity="0.6098" d="M64.9116 142.834C84.7554 137.091 130.748 128.42 126.2 112.542C121.653 96.7766 59.1238 70.0881 36.4894 72.9034C13.7516 75.606 -0.201088 88.1057 7.65377 104.321C14.4751 118.172 48.8918 147.451 64.9116 142.834Z" fill="#9D9D9D"/>
<path opacity="0.6341" d="M63.878 141.482C84.0319 136.077 128.267 127.294 124.03 111.528C119.792 95.7629 59.9506 70.0879 37.1095 72.6779C14.3717 75.268 0.10897 87.655 7.44706 103.758C13.855 117.609 47.3415 145.874 63.878 141.482Z" fill="#999999"/>
<path opacity="0.6585" d="M62.8445 140.019C83.2051 134.951 125.787 125.943 121.859 110.29C117.828 94.6371 60.6741 69.9756 37.833 72.453C14.9919 74.8178 0.419027 87.3175 7.24035 103.195C13.2348 117.046 45.7912 144.298 62.8445 140.019Z" fill="#959595"/>
<path opacity="0.6829" d="M61.7076 138.667C82.2749 134.05 123.306 124.704 119.585 109.164C115.865 93.6236 61.3975 69.8629 38.4531 72.2277C15.5086 74.4799 0.729083 86.867 7.03364 102.632C12.7181 116.483 44.2409 142.609 61.7076 138.667Z" fill="#919191"/>
<path opacity="0.7073" d="M60.6741 137.316C81.4481 133.037 120.826 123.578 117.415 108.038C114.004 92.61 62.121 69.8629 39.1766 72.0024C16.1288 74.142 1.03916 86.4165 6.82695 102.069C12.098 116.033 42.6906 141.032 60.6741 137.316Z" fill="#8D8D8D"/>
<path opacity="0.7317" d="M59.6405 135.852C80.7246 131.911 118.345 122.226 115.245 106.911C112.041 91.5964 62.9478 69.7502 39.9 71.7771C16.7489 73.6915 1.34923 85.966 6.62025 101.506C11.4779 115.47 41.1403 139.343 59.6405 135.852Z" fill="#898989"/>
<path opacity="0.7561" d="M58.607 134.501C79.8978 130.897 115.968 120.988 113.074 105.785C110.18 90.583 63.6713 69.6376 40.5201 71.552C17.369 73.3537 1.5559 85.5156 6.41351 100.943C10.8577 114.907 39.5899 137.654 58.607 134.501Z" fill="#858585"/>
<path opacity="0.7805" d="M57.5734 133.149C79.0709 129.884 113.488 119.861 110.904 104.659C108.217 89.4569 64.4981 69.6376 41.2436 71.3267C17.9891 72.9033 1.86596 85.1777 6.2068 100.38C10.2376 114.344 38.0396 136.077 57.5734 133.149Z" fill="#818181"/>
<path opacity="0.8049" d="M56.5399 131.686C78.3475 128.758 111.007 118.51 108.63 103.421C106.253 88.4435 65.2216 69.525 41.8638 70.989C18.6093 72.5655 2.17606 84.7273 6.00014 99.817C9.61751 113.893 36.4894 134.388 56.5399 131.686Z" fill="#7D7D7D"/>
<path opacity="0.8293" d="M55.5064 130.334C77.5207 127.744 108.63 117.272 106.46 102.407C104.393 87.5427 65.9451 69.5252 42.5872 70.8765C19.2294 72.1152 2.38275 84.2771 5.79341 99.2542C8.99737 113.33 34.9391 132.699 55.5064 130.334Z" fill="#797979"/>
<path opacity="0.8537" d="M54.3695 128.87C76.6939 126.618 106.046 116.033 104.186 101.168C102.429 86.4163 66.7719 69.4122 43.3107 70.5383C19.7461 71.777 2.69282 83.8263 5.58672 98.6907C8.37726 112.767 33.3888 131.01 54.3695 128.87Z" fill="#767676"/>
<path opacity="0.878" d="M53.336 127.519C75.867 125.605 103.566 114.794 102.015 100.042C100.465 85.4029 67.4954 69.2997 43.9308 70.3132C20.3662 71.4393 2.8995 83.3759 5.37998 98.1278C7.75711 112.317 31.8385 129.321 53.336 127.519Z" fill="#727272"/>
<path opacity="0.9024" d="M52.3024 126.168C75.1435 124.591 101.189 113.555 99.845 98.9161C98.6048 84.3894 68.2189 69.1871 44.6543 70.088C20.9864 70.9889 3.20957 82.9255 5.17328 97.5647C7.137 111.754 30.2882 127.632 52.3024 126.168Z" fill="#6E6E6E"/>
<path opacity="0.9268" d="M51.2689 124.704C74.42 123.465 98.7081 112.317 97.6746 97.7901C96.641 83.2634 69.0457 69.1872 45.2744 69.8629C21.6065 70.6511 3.41625 82.4751 4.96656 97.0018C6.51686 111.191 28.7378 125.942 51.2689 124.704Z" fill="#6A6A6A"/>
<path opacity="0.9512" d="M50.2354 123.352C73.5933 122.452 96.2277 111.078 95.5042 96.664C94.7807 82.2499 69.7692 69.0746 45.9979 69.6377C22.2266 70.2007 3.72636 82.0247 4.75989 96.4388C5.89678 110.628 27.2909 124.253 50.2354 123.352Z" fill="#666666"/>
<path opacity="0.9756" d="M49.2019 122.001C72.8698 121.438 93.8505 109.839 93.3338 95.538C92.817 81.2366 70.4927 68.9621 46.618 69.4125C22.7434 69.863 3.93307 81.687 4.55319 95.8758C5.27666 110.065 25.7406 122.564 49.2019 122.001Z" fill="#626262"/>
<path d="M48.1683 120.537C72.0429 120.312 91.2667 108.601 91.06 94.4117C90.8532 80.2229 71.3195 68.9619 47.3415 69.1872C23.3635 69.525 4.13975 81.2364 4.34645 95.4252C4.55316 109.614 24.1903 120.875 48.1683 120.537Z" fill="#5E5E5E"/>
</g>
<g clip-path="url(#clip0_248_3602)">
<g opacity="0.7">
<path d="M79.2568 128.414C112.736 128.108 135.773 112.175 135.619 97.7749C135.312 83.3745 108.129 72.0381 74.6495 72.3444C41.1699 72.804 11.9904 86.7448 12.2975 101.145C12.6047 115.546 45.7771 128.874 79.2568 128.414Z" fill="#5E5E5E"/>
</g>
<g opacity="0.5">
<path d="M70.6565 129.64C106.286 129.333 134.851 113.401 134.544 93.945C134.237 74.6423 105.058 59.3228 69.5815 59.6292C33.9518 60.0887 5.23304 76.0211 5.54019 95.3238C6.00092 114.626 35.0268 129.946 70.6565 129.64Z" fill="#5E5E5E"/>
</g>
<path d="M139.766 45.3819C139.766 45.5351 139.766 45.6883 139.766 45.8415C139.766 45.9947 139.766 46.1479 139.766 46.3011C139.766 46.4543 139.766 46.6075 139.766 46.7607C139.766 46.9139 139.766 47.0671 139.766 47.2203C139.766 47.3735 139.766 47.5267 139.766 47.6799C139.766 47.8331 139.766 47.9863 139.766 48.1395C139.766 48.2927 139.766 48.4459 139.612 48.5991C139.612 48.7522 139.612 48.9054 139.459 49.0586C139.459 49.2118 139.305 49.365 139.305 49.5182C139.305 49.6714 139.305 49.8246 139.151 49.9778C139.151 50.131 138.998 50.2842 138.998 50.4374C138.998 50.5906 138.998 50.7438 138.844 50.897C138.844 51.0502 138.691 51.2034 138.691 51.5098C138.691 51.663 138.537 51.8162 138.537 51.9694C138.384 52.1226 138.384 52.4289 138.23 52.5821C138.23 52.7353 138.23 52.7353 138.076 52.8885C137.923 53.1949 137.923 53.5013 137.769 53.6545V53.8077C137.616 54.1141 137.462 54.4205 137.309 54.7269C137.309 54.8801 137.155 55.0333 137.155 55.1865C137.001 55.3397 137.001 55.4929 136.848 55.7993C136.848 55.9525 136.694 56.1056 136.694 56.2588C136.541 56.412 136.541 56.7184 136.387 56.8716C136.387 57.0248 136.234 57.0248 136.234 57.178C136.08 57.4844 135.926 57.6376 135.773 57.7908C135.773 57.944 135.619 58.0972 135.466 58.0972C135.312 58.2504 135.158 58.5568 135.005 58.71C135.158 59.0164 135.005 59.0164 134.851 59.1696C134.698 59.3228 134.544 59.6291 134.391 59.7823C134.237 59.9355 134.237 60.0887 134.083 60.2419C133.93 60.3951 133.776 60.7015 133.623 60.8547C133.469 61.0079 133.469 61.1611 133.316 61.1611C133.008 61.4675 132.701 61.9271 132.394 62.2335L132.241 62.3867C131.933 62.6931 131.78 62.9995 131.473 63.3058C131.319 63.459 131.319 63.459 131.166 63.6122C130.858 63.9186 130.705 64.0718 130.398 64.3782C130.244 64.5314 130.244 64.5314 130.09 64.6846C129.783 64.991 129.476 65.2974 129.015 65.757C128.862 65.9102 128.708 66.0634 128.555 66.2166C128.401 66.3698 128.248 66.523 128.094 66.6762C127.94 66.8294 127.787 66.9825 127.633 67.1357C127.48 67.2889 127.326 67.4421 127.173 67.5953C127.019 67.7485 126.865 67.9017 126.712 68.0549C126.558 68.2081 126.405 68.3613 126.251 68.5145C126.097 68.6677 125.944 68.8209 125.637 68.9741C125.483 69.1273 125.33 69.2805 125.176 69.2805C125.022 69.4337 124.715 69.5869 124.562 69.7401C124.408 69.8933 124.255 69.8933 124.101 70.0465C123.947 70.1997 123.64 70.3529 123.487 70.5061C123.333 70.6592 123.18 70.6592 123.026 70.8124C122.719 70.9656 122.565 71.1188 122.258 71.272C122.105 71.4252 121.951 71.4252 121.797 71.5784C121.49 71.7316 121.337 71.8848 121.029 72.038C120.876 72.1912 120.722 72.1912 120.569 72.3444C120.262 72.4976 119.801 72.804 119.494 72.9572C118.726 73.4168 117.958 73.8764 117.19 74.1828C117.037 74.3359 116.729 74.3359 116.576 74.4891C115.808 74.7955 115.194 75.2551 114.426 75.5615C114.426 75.5615 114.272 75.5615 114.272 75.7147C113.504 76.0211 112.583 76.4807 111.815 76.7871C111.661 76.9403 111.354 76.9403 111.201 77.0935C110.433 77.3999 109.818 77.7063 109.051 78.0126C108.897 78.0126 108.743 78.1658 108.59 78.1658C107.668 78.4722 106.9 78.7786 105.979 79.085C105.825 79.085 105.672 79.2382 105.518 79.2382C104.904 79.3914 104.29 79.6978 103.675 79.851C103.215 80.0042 102.6 80.1574 102.14 80.3106C101.679 80.4638 101.218 80.617 100.604 80.7702C99.9895 80.9234 99.5288 81.0766 98.9145 81.2298C98.4538 81.383 97.9931 81.5361 97.3788 81.5361C96.7645 81.6893 96.1501 81.8425 95.6894 81.9957C95.2287 82.1489 94.768 82.1489 94.1536 82.3021C93.5393 82.4553 92.925 82.6085 92.3107 82.6085C91.6964 82.7617 91.2357 82.7617 90.6214 82.9149C90.4678 82.9149 90.1607 82.9149 90.0071 83.0681C89.0856 83.2213 88.3178 83.3745 87.3963 83.5277C87.2427 83.5277 87.0891 83.5277 87.0891 83.5277C86.1677 83.6809 85.2462 83.8341 84.1712 83.8341C83.864 83.8341 83.5569 83.8341 83.4033 83.9873C82.789 83.9873 82.3283 84.1405 81.714 84.1405C80.9461 84.1405 80.1782 84.2937 79.4103 84.2937C78.9496 84.2937 78.4889 84.2937 78.0282 84.4469C77.2603 84.4469 76.4924 84.6001 75.7245 84.6001C75.2638 84.6001 74.8031 84.6001 74.3423 84.6001C73.728 84.6001 73.1137 84.6001 72.3458 84.6001C71.8851 84.6001 71.4244 84.6001 70.8101 84.6001C70.0422 84.6001 69.2743 84.6001 68.66 84.6001C68.1993 84.6001 67.8921 84.6001 67.4314 84.6001C66.6635 84.6001 66.0492 84.6001 65.4349 84.4469C64.9742 84.4469 64.5134 84.4469 64.2063 84.4469C63.4384 84.4469 62.8241 84.2937 62.0562 84.2937C61.5955 84.2937 61.2883 84.2937 60.8276 84.1405C59.9062 83.9873 58.9847 83.9873 57.9097 83.8341C57.7561 83.8341 57.6025 83.8341 57.4489 83.8341C56.3739 83.6809 55.2989 83.5277 54.0703 83.3745C53.9167 83.3745 53.9167 83.3745 53.7631 83.3745C52.6881 83.2213 51.7666 83.0681 50.6916 82.9149C50.3844 82.9149 49.9237 82.7617 49.6166 82.7617C48.8487 82.6085 48.0808 82.4553 47.4665 82.3021C47.1593 82.3021 46.6986 82.1489 46.3915 81.9957C45.6236 81.8425 44.8557 81.6893 44.0878 81.5361C43.6271 81.383 43.3199 81.383 42.8592 81.2298C42.0913 81.0766 41.477 80.9234 40.7091 80.617C40.0948 80.4638 39.4805 80.3106 39.0198 80.1574C38.7126 80.1574 38.5591 80.0042 38.2519 80.0042C37.3305 79.6978 36.409 79.3914 35.6411 79.085C35.4875 79.085 35.334 78.9318 35.1804 78.9318C34.4125 78.6254 33.6446 78.4722 33.0303 78.1658C32.8768 78.0126 32.5696 78.0126 32.416 77.8594C31.8017 77.7063 31.1874 77.3999 30.7267 77.0935C30.4195 76.9403 29.9588 76.7871 29.6517 76.6339C29.0373 76.3275 28.5766 76.1743 27.9623 75.8679C27.6552 75.7147 27.348 75.5615 26.8873 75.4083C26.273 75.1019 25.6587 74.7955 25.1979 74.4891C24.8908 74.3359 24.5836 74.1827 24.4301 74.0296C23.6622 73.57 22.7407 73.1104 21.9728 72.6508C8.30456 64.6846 1.54721 54.4205 1.54721 44.1564C1.54721 44.1564 1.85436 94.0982 2.16152 95.0174C2.16152 95.0174 2.16152 95.0174 2.16152 95.1706C2.31509 95.7834 2.46867 96.3961 2.62224 97.0089C2.77582 97.6217 3.08297 98.2345 3.23655 98.8473V99.0005C3.69728 100.073 4.15801 101.145 4.77231 102.371C4.77231 102.371 4.77231 102.371 4.77231 102.524C5.07946 102.984 5.38662 103.596 5.84734 104.209C5.84734 104.362 6.00092 104.516 6.00092 104.516C6.46165 105.128 6.7688 105.741 7.22953 106.354C7.53668 106.66 7.84383 107.12 8.15099 107.579C8.45814 107.886 8.76529 108.192 8.91887 108.652C9.3796 109.111 9.84032 109.724 10.4546 110.337L10.6082 110.49C10.9154 110.797 11.2225 111.103 11.5297 111.409C28.8838 128.108 61.2883 133.47 85.5534 129.793C90.3142 129.18 92.925 128.567 95.5358 127.954C96.918 127.648 100.604 126.729 105.058 125.197C105.058 125.197 105.058 125.197 105.211 125.197C106.44 124.737 107.822 124.278 109.051 123.665C114.272 121.52 118.879 119.069 122.872 116.158C123.026 116.005 123.18 116.005 123.333 115.852C123.487 115.699 123.64 115.546 123.794 115.546C123.794 115.546 123.794 115.546 123.947 115.392C124.715 114.78 125.483 114.167 126.405 113.401C126.558 113.401 126.558 113.248 126.558 113.248L126.712 113.094C127.48 112.482 128.248 111.716 129.015 110.95C130.09 109.877 131.626 108.345 132.548 106.967C133.008 106.354 133.623 105.435 134.083 104.822L134.544 104.056L134.698 103.903C135.158 103.137 135.773 102.218 136.08 101.452C136.234 101.145 136.387 100.992 136.387 100.686V100.532C136.541 100.073 136.694 99.7665 136.848 99.3069L137.001 99.0005V98.8473C137.309 98.0813 137.616 97.0089 137.923 96.2429C138.076 95.6302 138.23 95.0174 138.384 94.4046V94.2514C138.384 94.2514 138.384 94.2514 138.384 94.0982C138.384 93.7918 138.537 93.4854 138.537 93.179V93.0258C138.537 92.8726 138.844 56.7184 138.998 44.3096C139.766 44.7692 139.766 45.0755 139.766 45.3819Z" fill="url(#paint0_linear_248_3602)"/>
<path d="M139.766 43.6968C139.766 43.85 139.766 44.0031 139.766 44.1563C139.766 44.3095 139.766 44.4627 139.766 44.6159C139.766 44.7691 139.766 44.9223 139.766 45.0755C139.766 45.2287 139.766 45.3819 139.766 45.5351C139.766 45.6883 139.766 45.8415 139.766 45.9947C139.766 46.1479 139.766 46.3011 139.766 46.4543C139.766 46.6075 139.766 46.7607 139.612 47.0671C139.612 47.2203 139.612 47.3735 139.459 47.5267C139.459 47.6798 139.305 47.833 139.305 47.9862C139.305 48.1394 139.305 48.2926 139.151 48.4458C139.151 48.599 138.998 48.7522 138.998 48.9054C138.998 49.0586 138.998 49.2118 138.844 49.365C138.844 49.5182 138.691 49.6714 138.691 49.9778C138.691 50.131 138.537 50.2842 138.537 50.4374C138.384 50.5906 138.384 50.897 138.23 51.0502C138.23 51.2034 138.23 51.2034 138.076 51.3565C137.923 51.6629 137.923 51.9693 137.769 52.1225V52.2757C137.616 52.5821 137.462 52.8885 137.309 53.1949C137.309 53.3481 137.155 53.5013 137.155 53.6545C137.001 53.8077 137.001 53.9609 136.848 54.2673C136.848 54.4205 136.694 54.5737 136.694 54.7269C136.541 54.8801 136.541 55.0332 136.387 55.3396C136.387 55.4928 136.234 55.4928 136.234 55.646C136.08 55.7992 135.926 56.1056 135.773 56.2588C135.773 56.412 135.619 56.5652 135.466 56.5652C135.312 56.7184 135.158 57.0248 135.005 57.178C134.851 57.3312 134.851 57.4844 134.698 57.6376C134.544 57.7908 134.391 58.0972 134.237 58.2504C134.083 58.4036 134.083 58.5568 133.93 58.5568C133.776 58.7099 133.623 59.0163 133.469 59.1695C133.316 59.3227 133.316 59.4759 133.162 59.4759C132.855 59.7823 132.548 60.2419 132.241 60.5483L132.087 60.7015C131.78 61.0079 131.626 61.3143 131.319 61.6207C131.166 61.7739 131.166 61.7739 131.012 61.9271C130.705 62.2335 130.551 62.3866 130.244 62.693C130.09 62.8462 130.09 62.8462 129.937 62.9994C129.63 63.3058 129.323 63.6122 128.862 64.0718C128.708 64.225 128.555 64.3782 128.401 64.5314C128.248 64.6846 128.094 64.8378 127.94 64.991C127.787 65.1442 127.633 65.2974 127.48 65.4506C127.326 65.6038 127.173 65.757 127.019 65.9101C126.865 66.0633 126.712 66.2165 126.558 66.3697C126.405 66.5229 126.251 66.6761 126.097 66.8293C125.944 66.9825 125.79 67.1357 125.483 67.2889C125.33 67.4421 125.176 67.5953 125.022 67.5953C124.869 67.7485 124.562 67.9017 124.408 68.0549C124.255 68.2081 124.101 68.2081 123.947 68.3613C123.794 68.5145 123.487 68.6677 123.333 68.8209C123.18 68.9741 123.026 68.9741 122.872 69.1273C122.565 69.2805 122.412 69.4337 122.105 69.5869C121.951 69.74 121.797 69.74 121.644 69.8932C121.337 70.0464 121.183 70.1996 120.876 70.3528C120.722 70.506 120.569 70.506 120.415 70.6592C120.108 70.8124 119.647 71.1188 119.34 71.272C118.572 71.7316 117.804 72.1912 117.036 72.4976C116.883 72.6508 116.576 72.6508 116.422 72.804C115.654 73.1104 115.04 73.5699 114.272 73.8763C114.272 73.8763 114.119 73.8763 114.119 74.0295C113.351 74.4891 112.429 74.7955 111.661 75.1019C111.508 75.2551 111.201 75.2551 111.047 75.4083C110.279 75.7147 109.665 76.0211 108.897 76.3275C108.743 76.3275 108.59 76.4807 108.436 76.4807C107.515 76.7871 106.747 77.0934 105.825 77.3998C105.672 77.3998 105.518 77.553 105.365 77.553C104.75 77.7062 104.136 78.0126 103.522 78.1658C103.061 78.319 102.447 78.4722 101.986 78.6254C101.525 78.7786 101.065 78.9318 100.45 79.085C99.836 79.2382 99.3752 79.3914 98.7609 79.5446C98.3002 79.6978 97.8395 79.851 97.2252 79.851C96.6109 80.0042 95.9966 80.1574 95.5358 80.3106C95.0751 80.4638 94.6144 80.4637 94.0001 80.6169C93.3858 80.7701 92.7715 80.9233 92.1572 80.9233C91.5429 81.0765 91.0821 81.0765 90.4678 81.2297C90.3142 81.2297 90.0071 81.2297 89.8535 81.3829C88.9321 81.5361 88.1642 81.6893 87.2427 81.8425C87.0891 81.8425 86.9356 81.8425 86.9356 81.8425C86.0141 81.9957 85.0927 82.1489 84.0176 82.1489C83.7105 82.1489 83.4033 82.1489 83.2497 82.3021C82.6354 82.3021 82.1747 82.4553 81.5604 82.4553C80.7925 82.4553 80.0246 82.6085 79.2568 82.6085C78.796 82.6085 78.3353 82.6085 77.8746 82.7617C77.1067 82.7617 76.3388 82.9149 75.5709 82.9149C75.1102 82.9149 74.6495 82.9149 74.1887 82.9149C73.5744 82.9149 72.9601 82.9149 72.1923 82.9149C71.7315 82.9149 71.2708 82.9149 70.6565 82.9149C69.8886 82.9149 69.1207 82.9149 68.5064 82.9149C68.0457 82.9149 67.7385 82.9149 67.2778 82.9149C66.5099 82.9149 65.8956 82.9149 65.2813 82.7617C64.8206 82.7617 64.3599 82.7617 64.0527 82.7617C63.2848 82.7617 62.6705 82.6085 61.9026 82.6085C61.4419 82.6085 61.1348 82.6085 60.674 82.4553C59.7526 82.3021 58.8311 82.3021 57.7561 82.1489C57.6025 82.1489 57.4489 82.1489 57.2954 82.1489C56.2203 81.9957 55.1453 81.8425 53.9167 81.6893C53.7631 81.6893 53.7631 81.6893 53.6095 81.6893C52.5345 81.5361 51.613 81.3829 50.538 81.2297C50.2309 81.2297 49.7701 81.0765 49.463 81.0765C48.6951 80.9233 47.9272 80.7701 47.3129 80.6169C47.0058 80.6169 46.545 80.4638 46.2379 80.3106C45.47 80.1574 44.7021 80.0042 43.9342 79.851C43.4735 79.6978 43.1664 79.6978 42.7056 79.5446C41.9377 79.3914 41.3234 79.2382 40.5556 78.9318C39.9413 78.7786 39.327 78.6254 38.8662 78.4722C38.5591 78.4722 38.4055 78.319 38.0983 78.319C37.1769 78.0126 36.2554 77.7062 35.4875 77.3998C35.334 77.3998 35.1804 77.2466 35.0268 77.2466C34.2589 76.9403 33.4911 76.7871 32.8768 76.4807C32.7232 76.3275 32.416 76.3275 32.2624 76.1743C31.6481 75.8679 31.0338 75.7147 30.5731 75.4083C30.266 75.2551 29.8052 75.1019 29.4981 74.9487C28.8838 74.6423 28.423 74.4891 27.8087 74.1827C27.5016 74.0295 27.1944 73.8763 26.7337 73.7231C26.1194 73.4167 25.5051 73.1104 25.0444 72.804C24.7372 72.6508 24.4301 72.4976 24.2765 72.3444C23.5086 71.8848 22.5871 71.4252 21.8193 70.9656C8.30456 62.9994 1.54721 52.7353 1.54721 42.4712C1.54721 42.4712 1.85436 92.413 2.16152 93.3322C2.16152 93.3322 2.16152 93.3322 2.16152 93.4854C2.31509 94.0982 2.46867 94.711 2.62224 95.3237V95.4769C2.9294 96.0897 3.08297 96.7025 3.39012 97.3153V97.4685C3.85085 98.5409 4.31158 99.6132 4.92589 100.839C5.23304 101.298 5.54019 101.911 6.00092 102.524C6.00092 102.677 6.1545 102.83 6.1545 102.83C6.61522 103.443 6.92238 104.056 7.38311 104.669C7.69026 104.975 7.99741 105.435 8.30456 105.894C8.61172 106.201 8.91887 106.507 9.07244 106.813C9.53317 107.273 9.9939 107.886 10.6082 108.499L10.7618 108.652C11.0689 108.958 11.3761 109.265 11.6832 109.571C29.0373 126.269 61.4419 131.631 85.707 127.954C90.4678 127.342 93.0786 126.729 95.6894 126.116C97.0716 125.81 100.757 124.891 105.211 123.359C105.211 123.359 105.211 123.359 105.365 123.359C106.593 122.899 107.976 122.439 109.204 121.827C114.426 119.682 119.033 117.231 123.026 114.32C123.18 114.167 123.333 114.167 123.487 114.014C123.64 113.86 123.794 113.707 123.947 113.707C123.947 113.707 123.947 113.707 124.101 113.554C124.869 112.941 125.637 112.328 126.558 111.563C126.712 111.563 126.712 111.409 126.712 111.409L126.865 111.256C127.633 110.643 128.401 109.877 129.169 109.111C130.244 108.039 131.78 106.507 132.701 105.128C133.162 104.515 133.776 103.596 134.237 102.984L134.698 102.218L134.851 102.064C135.312 101.298 135.926 100.379 136.234 99.6132C136.387 99.3068 136.541 99.1536 136.541 98.8472V98.6941C136.694 98.2345 136.848 97.9281 137.001 97.4685L137.155 97.1621V97.0089C137.462 96.2429 137.769 95.1705 138.076 94.4046C138.844 94.2514 139.766 55.1864 139.766 42.9308C139.766 43.084 139.766 43.3904 139.766 43.6968Z" fill="#FAC700"/>
<path d="M139.766 46.4543C139.766 46.3011 139.766 45.9947 139.766 45.8415C139.766 45.9947 139.766 46.1479 139.766 46.1479C139.766 45.9947 139.766 45.8415 139.766 45.6883V45.5351C139.766 45.5351 139.766 45.5351 139.766 45.6883C139.766 45.0755 139.766 44.4627 139.612 43.6968C139.612 43.2372 139.612 42.9308 139.459 42.6244C139.459 42.4712 139.459 42.318 139.459 42.1648C139.459 41.8584 139.459 41.7052 139.305 41.3988V41.8584C138.998 40.3265 138.844 39.7137 138.384 38.1817V38.0285V37.8753C138.384 37.7221 138.23 37.5689 138.23 37.4157C137.923 36.4966 137.462 35.4242 136.848 34.1986C136.694 34.0454 136.694 33.8922 136.541 33.5858C136.541 33.4326 136.387 33.2794 136.387 33.2794C136.234 32.9731 136.08 32.6667 135.926 32.3603C135.926 32.2071 135.773 32.0539 135.773 32.0539V31.9007V31.7475C135.773 31.5943 135.619 31.4411 135.619 31.2879C135.619 31.2879 135.619 31.1347 135.466 31.1347C135.312 30.8283 135.158 30.5219 134.851 30.2155L134.698 30.0623C134.544 29.9091 134.544 29.7559 134.391 29.6027L134.237 29.4496C134.083 29.1432 133.776 28.8368 133.469 28.5304L133.316 28.3772C133.162 28.224 133.008 28.0708 132.855 27.7644C132.241 26.9984 131.626 26.2324 131.012 25.6197L130.858 25.4665L130.705 25.3133C130.09 24.5473 129.323 23.9345 128.708 23.3217C128.708 23.3217 128.708 23.3217 128.555 23.1685C128.094 22.7089 127.633 22.2493 127.173 21.943C126.865 21.6366 126.558 21.3302 126.097 21.0238C124.869 19.9514 123.794 19.1854 121.337 17.5003C121.029 17.1939 120.569 16.8875 120.108 16.7343L119.954 16.5811L118.419 15.6619L118.265 15.5087C117.804 15.2023 117.344 15.0491 116.883 14.7428C112.122 12.2916 106.44 10.1469 100.45 8.46173C98.9145 8.00214 97.8395 7.69575 95.6894 7.23616C90.3142 5.8574 85.8605 5.39781 85.8605 5.39781C85.5534 5.39781 85.3998 5.39781 85.0927 5.24461C83.864 5.09142 82.6354 4.93822 81.2533 4.78503C79.4103 4.63183 78.0282 4.47864 75.5709 4.32544C74.9566 4.32544 74.3423 4.32544 73.5744 4.32544C73.728 4.32544 73.8816 4.32544 73.8816 4.32544C73.4209 4.32544 72.8066 4.32544 72.4994 4.32544C72.1923 4.32544 72.0387 4.32544 71.7315 4.32544C71.4244 4.32544 71.1172 4.32544 70.8101 4.32544C70.6565 4.32544 70.3493 4.32544 70.1958 4.32544C69.8886 4.32544 69.4279 4.32544 69.1207 4.32544C68.9672 4.32544 68.66 4.32544 68.5064 4.32544C68.3529 4.32544 68.3529 4.32544 68.1993 4.32544C66.2028 4.32544 64.2063 4.47864 62.2098 4.63183C56.0668 4.93822 50.538 5.8574 45.47 7.08296C43.6271 7.54255 41.9377 8.00214 40.2484 8.46173C38.5591 8.92131 37.484 9.2277 35.334 9.99368C32.7232 10.9129 30.7267 11.832 28.8838 12.598C27.0409 13.364 25.3515 14.2832 23.6622 15.2023C23.355 15.3555 23.2015 15.5087 22.8943 15.6619C22.4336 15.9683 21.8193 16.2747 21.3585 16.5811C21.3585 16.5811 21.205 16.5811 21.205 16.7343C21.0514 16.8875 20.8978 16.8875 20.7442 17.0407C19.6692 17.6535 18.9013 18.2663 18.1334 18.7258C17.9799 18.879 17.8263 19.0322 17.5191 19.0322C16.7513 19.4918 15.9834 20.2578 15.0619 20.8706C14.9083 21.0238 14.7548 21.0238 14.6012 21.177L13.6797 22.2493C13.219 22.7089 12.7583 23.1685 12.2975 23.4749C9.68675 25.7729 6.61522 29.2964 4.46516 33.8922C4.31158 34.3518 4.00443 34.8114 3.85085 35.271C3.85085 35.271 2.77582 37.7221 2.16152 40.4796C2.00794 41.552 1.70079 42.9308 1.70079 44.0032C1.70079 44.6159 1.70079 45.3819 1.54721 45.9947C1.54721 56.2588 8.30456 66.6761 21.9728 74.4891C22.5871 74.7955 23.2015 75.1019 23.8158 75.4083C23.8158 75.4083 23.9693 75.4083 23.9693 75.5615C23.9693 75.5615 24.1229 75.5615 24.1229 75.7147H24.2765C24.2765 75.7147 24.4301 75.7147 24.4301 75.8679C24.4301 75.8679 24.4301 75.8679 24.5836 75.8679C24.5836 75.8679 24.7372 75.8679 24.7372 76.0211H24.8908C24.8908 76.0211 25.0444 76.0211 25.0444 76.1743C25.1979 76.1743 25.1979 76.3275 25.3515 76.3275C25.5051 76.3275 25.5051 76.4807 25.6587 76.4807C25.8122 76.4807 25.9658 76.6339 25.9658 76.6339C26.1194 76.6339 26.1194 76.787 26.273 76.787C26.4266 76.787 26.4266 76.9402 26.5801 76.9402C26.7337 76.9402 26.7337 77.0934 26.8873 77.0934C26.8873 77.0934 27.0409 77.0934 27.0409 77.2466C27.0409 77.2466 27.1944 77.2466 27.1944 77.3998H27.348H27.5016H27.6552C27.8087 77.3998 27.8087 77.553 27.9623 77.553C28.1159 77.553 28.2695 77.7062 28.423 77.7062C28.5766 77.7062 28.7302 77.8594 28.7302 77.8594C28.8838 77.8594 29.0373 78.0126 29.1909 78.0126C29.1909 78.0126 29.1909 78.0126 29.3445 78.0126C29.4981 78.0126 29.4981 78.1658 29.6517 78.1658C29.8052 78.1658 29.9588 78.319 30.1124 78.319C30.266 78.319 30.266 78.319 30.4195 78.4722C30.4195 78.4722 30.4195 78.4722 30.5731 78.4722C30.5731 78.4722 30.5731 78.4722 30.7267 78.4722H30.8803C31.0338 78.4722 31.0338 78.6254 31.1874 78.6254C31.341 78.6254 31.4946 78.7786 31.6481 78.7786C31.6481 78.7786 31.8017 78.7786 31.8017 78.9318C31.9553 78.9318 32.1089 79.085 32.2624 79.085C32.416 79.085 32.5696 79.2382 32.7232 79.2382C32.7232 79.2382 32.7232 79.2382 32.8768 79.2382H33.0303C33.1839 79.2382 33.1839 79.2382 33.3375 79.3914C33.4911 79.3914 33.4911 79.3914 33.6446 79.5446C33.7982 79.5446 33.9518 79.6978 34.1054 79.6978C34.2589 79.6978 34.2589 79.6978 34.4125 79.851C34.5661 79.851 34.7197 80.0042 34.8732 80.0042C35.0268 80.0042 35.0268 80.0042 35.1804 80.1574C35.1804 80.1574 35.1804 80.1574 35.334 80.1574H35.4875H35.6411C35.7947 80.1574 35.9483 80.3106 36.1019 80.3106C36.2554 80.3106 36.409 80.4637 36.5626 80.4637C36.7162 80.4637 36.8697 80.6169 36.8697 80.6169C37.0233 80.6169 37.0233 80.6169 37.1769 80.7701C37.3305 80.7701 37.3305 80.7701 37.484 80.9233H37.6376H37.7912C37.9448 80.9233 38.0983 81.0765 38.2519 81.0765C38.4055 81.0765 38.5591 81.2297 38.7126 81.2297H38.8662C39.0198 81.2297 39.0198 81.2297 39.1734 81.3829C39.327 81.3829 39.4805 81.5361 39.6341 81.5361C39.7877 81.5361 39.7877 81.5361 39.9413 81.5361H40.0948H40.2484C40.402 81.5361 40.402 81.5361 40.5556 81.5361C40.7091 81.5361 41.0163 81.6893 41.1699 81.6893H41.3234H41.477C41.6306 81.6893 41.7842 81.6893 41.7842 81.8425C42.0913 81.8425 42.2449 81.9957 42.5521 81.9957C42.7056 81.9957 42.7056 81.9957 42.8592 81.9957C43.0128 81.9957 43.1664 81.9957 43.3199 82.1489C43.4735 82.1489 43.4735 82.1489 43.6271 82.1489H43.7807C43.9342 82.1489 43.9342 82.1489 44.0878 82.1489C44.2414 82.1489 44.5485 82.3021 44.7021 82.3021C44.8557 82.3021 45.0093 82.3021 45.0093 82.4553C45.1628 82.4553 45.1628 82.4553 45.3164 82.4553H45.47C45.6236 82.4553 45.7771 82.4553 45.7771 82.6085C45.9307 82.6085 45.9307 82.6085 46.0843 82.6085H46.2379C46.3915 82.6085 46.545 82.6085 46.6986 82.7617C46.8522 82.7617 46.8522 82.7617 47.0058 82.7617H47.1593C47.3129 82.7617 47.4665 82.7617 47.4665 82.9149C47.4665 82.9149 47.4665 82.9149 47.6201 82.9149H47.7736C47.7736 82.9149 47.9272 82.9149 48.0808 82.9149C48.2344 82.9149 48.3879 82.9149 48.3879 82.9149C48.5415 82.9149 48.5415 82.9149 48.6951 82.9149C48.8487 82.9149 49.1558 82.9149 49.3094 83.0681C49.463 83.0681 49.6166 83.0681 49.7701 83.2213H49.9237H50.0773C50.2309 83.2213 50.2309 83.2213 50.3844 83.2213C50.538 83.2213 50.538 83.2213 50.6916 83.2213C50.8452 83.2213 50.9987 83.2213 51.1523 83.2213C51.4595 83.2213 51.613 83.3745 51.9202 83.3745H52.0738C52.2274 83.3745 52.3809 83.3745 52.3809 83.3745C52.5345 83.3745 52.6881 83.3745 52.9952 83.5277C53.1488 83.5277 53.1488 83.5277 53.3024 83.5277H53.456C53.6095 83.5277 53.7631 83.5277 53.9167 83.5277C54.0703 83.5277 54.0703 83.5277 54.2238 83.5277C54.3774 83.5277 54.6846 83.5277 54.8381 83.6809C54.9917 83.6809 54.9917 83.6809 55.1453 83.6809C55.2989 83.6809 55.4524 83.6809 55.7596 83.6809C55.9132 83.6809 56.2203 83.6809 56.3739 83.6809C56.5275 83.6809 56.6811 83.6809 56.6811 83.6809H56.8346C56.9882 83.6809 56.9882 83.6809 57.1418 83.6809C57.2954 83.6809 57.4489 83.6809 57.6025 83.6809C57.7561 83.6809 57.9097 83.6809 58.0632 83.6809C58.2168 83.6809 58.3704 83.6809 58.3704 83.6809C58.524 83.6809 58.6776 83.6809 58.8311 83.6809C59.1383 83.6809 59.599 83.6809 59.9062 83.8341C60.0597 83.8341 60.2133 83.8341 60.3669 83.8341H60.5205C60.674 83.8341 60.674 83.8341 60.8276 83.8341C60.9812 83.8341 61.1348 83.8341 61.2883 83.8341C61.4419 83.8341 61.5955 83.8341 61.7491 83.8341C61.9027 83.8341 62.0562 83.8341 62.3634 83.8341C62.8241 83.8341 63.2848 83.8341 63.7456 83.9873C63.8991 83.9873 63.8991 83.9873 64.0527 83.9873H64.2063C64.3599 83.9873 64.667 83.9873 64.8206 83.9873C65.1278 83.9873 65.5885 83.9873 65.8956 83.9873C65.8956 83.9873 65.8956 83.9873 66.0492 83.9873C66.2028 83.9873 66.3564 83.9873 66.5099 83.9873C66.6635 83.9873 66.8171 83.9873 66.9707 83.9873C67.1242 83.9873 67.1242 83.9873 67.2778 83.9873H67.4314C67.585 83.9873 67.585 83.9873 67.7385 83.9873C68.1993 83.9873 68.66 83.9873 69.1207 83.9873C69.4279 83.9873 69.5815 83.9873 69.8886 83.9873C70.0422 83.9873 70.0422 83.9873 70.1958 83.9873C70.3493 83.9873 70.3493 83.9873 70.5029 83.9873C70.6565 83.9873 70.6565 83.9873 70.8101 83.9873C70.9636 83.9873 71.1172 83.9873 71.2708 83.9873C71.4244 83.9873 71.5779 83.9873 71.7315 83.9873C72.0387 83.9873 72.1923 83.9873 72.4994 83.9873C72.8066 83.9873 73.1137 83.9873 73.2673 83.9873C73.4209 83.9873 73.5744 83.9873 73.8816 83.9873C74.0352 83.9873 74.0352 83.9873 74.1887 83.9873C74.3423 83.9873 74.4959 83.9873 74.8031 83.9873H74.9566C75.4174 83.9873 75.8781 83.9873 76.3388 83.9873C76.4924 83.9873 76.7995 83.9873 76.9531 83.9873C77.1067 83.9873 77.2603 83.9873 77.4138 83.9873C77.5674 83.9873 77.5674 83.9873 77.721 83.9873C77.8746 83.9873 78.0282 83.9873 78.1817 83.9873C78.6425 83.9873 79.2568 83.9873 79.7175 83.8341C79.8711 83.8341 80.0246 83.8341 80.0246 83.8341C80.1782 83.8341 80.4854 83.8341 80.6389 83.8341C80.9461 83.8341 81.2533 83.8341 81.5604 83.6809C81.714 83.6809 82.0211 83.6809 82.1747 83.6809C82.3283 83.6809 82.6354 83.6809 82.789 83.6809C82.9426 83.6809 83.0962 83.6809 83.2497 83.6809C83.7105 83.6809 84.1712 83.5277 84.7855 83.5277C85.0927 83.5277 85.3998 83.3745 85.707 83.3745C85.8605 83.3745 86.0141 83.3745 86.1677 83.3745C86.3213 83.3745 86.4748 83.3745 86.6284 83.2213C86.9356 83.2213 87.2427 83.0681 87.5499 83.0681C87.7035 83.0681 88.0106 83.0681 88.1642 82.9149C88.4713 82.9149 88.7785 82.7617 89.0856 82.7617C89.3928 82.7617 89.6999 82.6085 89.8535 82.6085C90.0071 82.6085 90.3142 82.6085 90.4678 82.4553C90.9286 82.3021 91.5429 82.3021 92.0036 82.1489C92.3107 82.1489 92.6179 81.9957 93.0786 81.9957C93.8465 81.8425 94.768 81.6893 95.5358 81.5361C95.6894 81.5361 95.843 81.5361 95.9966 81.3829C96.918 81.2297 97.9931 80.9233 98.9145 80.6169C99.0681 80.6169 99.3752 80.4637 99.5288 80.4637C100.297 80.3106 100.911 80.0042 101.679 79.851C101.986 79.6978 102.293 79.6978 102.6 79.5446C102.907 79.3914 103.368 79.3914 103.675 79.2382C103.522 79.2382 103.368 79.2382 103.368 79.3914C104.597 78.9318 105.825 78.6254 107.208 78.1658C116.729 74.7955 125.022 70.0464 130.705 63.6122C130.705 63.6122 130.705 63.6122 130.705 63.459C130.858 63.3058 130.858 63.3058 131.012 63.1526C131.166 62.9994 131.166 62.9994 131.319 62.8462L131.473 62.693C131.626 62.5398 131.78 62.3866 131.933 62.0803C132.087 61.9271 132.087 61.9271 132.241 61.7739C132.394 61.6207 132.548 61.3143 132.855 61.1611L133.008 61.0079C133.008 60.8547 133.162 60.8547 133.162 60.7015C133.316 60.5483 133.316 60.5483 133.469 60.3951C133.623 60.2419 133.623 60.0887 133.776 59.9355C133.93 59.7823 133.93 59.7823 134.083 59.6291C134.083 59.6291 134.083 59.4759 134.237 59.4759C134.237 59.4759 134.237 59.4759 134.391 59.3227C134.544 59.1695 134.544 59.0163 134.698 59.0163C134.851 58.8631 134.851 58.7099 135.005 58.5568C135.005 58.5568 135.005 58.4035 135.158 58.4035C135.158 58.4035 135.158 58.4036 135.158 58.2504L135.312 58.0972C135.312 57.944 135.466 57.944 135.466 57.7908C135.466 57.7908 135.466 57.6376 135.619 57.6376C135.773 57.4844 135.773 57.3312 135.926 57.178C135.926 57.0248 136.08 56.8716 136.08 56.7184C136.08 56.5652 136.234 56.412 136.234 56.2588C136.234 56.2588 136.234 56.1056 136.387 56.1056V55.9524C136.387 55.9524 136.387 55.7992 136.541 55.7992V55.646C136.541 55.4928 136.694 55.4928 136.694 55.3396C136.848 55.1864 136.848 54.8801 137.001 54.7269C137.001 54.7269 137.001 54.5737 137.155 54.5737V54.4205C137.309 54.1141 137.309 53.9609 137.462 53.6545V53.5013C137.462 53.3481 137.462 53.3481 137.616 53.1949C137.616 53.0417 137.616 53.0417 137.769 52.8885C137.769 52.8885 137.769 52.7353 137.923 52.7353C137.923 52.5821 137.923 52.5821 138.076 52.4289C138.076 52.2757 138.076 52.2757 138.23 52.1225C138.23 51.9693 138.23 51.9693 138.384 51.8161V51.6629V51.5097C138.384 51.5097 138.384 51.5097 138.384 51.3565C138.384 51.2034 138.384 51.0502 138.537 50.897V50.7438V50.5906C138.537 50.4374 138.537 50.4374 138.537 50.2842C138.537 50.131 138.537 50.131 138.537 49.9778C138.537 49.9778 138.537 49.9778 138.537 49.8246V49.6714C138.537 49.6714 138.537 49.6714 138.537 49.8246V49.6714V49.5182V49.365C138.537 49.2118 138.537 49.2118 138.537 49.0586C138.537 49.0586 138.537 49.0586 138.537 48.9054C138.537 48.7522 138.537 48.7522 138.537 48.599V48.4458C138.537 48.4458 138.537 48.4458 138.537 48.2926V48.1394V47.9862C138.537 47.833 138.537 47.833 138.537 47.6798V47.5267V47.3735V47.2203V47.0671V46.9139V46.7607C138.537 46.7607 138.537 46.7607 138.537 46.6075C138.537 46.4543 138.537 46.1479 138.537 45.9947C138.537 46.1479 138.537 46.1479 138.537 46.3011C139.766 46.7607 139.766 46.6075 139.766 46.4543Z" fill="#E8B100"/>
<path d="M139.766 42.9308C139.766 42.7776 139.766 42.4712 139.766 42.318C139.766 43.2371 139.766 42.318 139.766 42.1648C139.766 41.2456 139.612 39.4072 139.305 38.0285C139.305 38.1817 139.305 38.3349 139.305 38.4881C137.462 26.8452 128.401 18.2662 118.726 12.4448C111.354 8.00211 103.061 5.24458 94.768 3.40623C91.85 2.79345 88.7785 2.18067 85.8605 1.87427C83.7105 1.56788 81.5604 1.41469 79.4103 1.1083C78.4889 1.1083 77.5674 0.9551 76.4924 0.9551C76.0317 0.9551 73.1137 0.801904 74.0352 0.801904C60.3669 0.495512 46.545 2.18067 33.7982 7.08293C23.2015 11.066 12.144 17.5002 6.1545 27.3048C0.165032 36.8029 0.0114555 48.2926 6.61523 57.6375C11.9904 65.1441 19.9764 70.506 28.4231 74.1827C40.402 79.8509 54.6846 82.6085 67.8921 82.6085C70.1958 82.6085 72.653 82.6085 74.9566 82.6085C84.4784 82.6085 95.2287 80.6169 104.597 77.553C103.368 77.8594 105.825 77.0934 105.825 77.0934C106.9 76.787 107.822 76.3274 108.897 76.021C110.74 75.4083 112.583 74.6423 114.426 73.7231C117.804 72.1911 121.183 70.3528 124.255 68.2081C128.401 65.2973 131.933 61.7738 134.851 57.6375C136.848 54.5736 138.844 50.7437 139.459 47.3734C139.766 46.1479 139.919 43.8499 139.919 43.3903C139.766 43.2371 139.766 43.084 139.766 42.9308C139.766 43.084 139.766 42.6244 139.766 42.9308Z" fill="#FFDA00"/>
<path d="M33.8342 56.45C32.2842 56.45 30.8842 56.185 29.6342 55.655C28.3942 55.115 27.3692 54.35 26.5592 53.36C25.7592 52.36 25.2392 51.175 24.9992 49.805L28.2692 49.31C28.5992 50.63 29.2892 51.66 30.3392 52.4C31.3892 53.13 32.6142 53.495 34.0142 53.495C34.8842 53.495 35.6842 53.36 36.4142 53.09C37.1442 52.81 37.7292 52.415 38.1692 51.905C38.6192 51.385 38.8442 50.765 38.8442 50.045C38.8442 49.655 38.7742 49.31 38.6342 49.01C38.5042 48.71 38.3192 48.45 38.0792 48.23C37.8492 48 37.5642 47.805 37.2242 47.645C36.8942 47.475 36.5292 47.33 36.1292 47.21L30.5942 45.575C30.0542 45.415 29.5042 45.21 28.9442 44.96C28.3842 44.7 27.8692 44.365 27.3992 43.955C26.9392 43.535 26.5642 43.02 26.2742 42.41C25.9842 41.79 25.8392 41.04 25.8392 40.16C25.8392 38.83 26.1792 37.705 26.8592 36.785C27.5492 35.855 28.4792 35.155 29.6492 34.685C30.8192 34.205 32.1292 33.965 33.5792 33.965C35.0392 33.985 36.3442 34.245 37.4942 34.745C38.6542 35.245 39.6142 35.965 40.3742 36.905C41.1442 37.835 41.6742 38.965 41.9642 40.295L38.6042 40.865C38.4542 40.055 38.1342 39.36 37.6442 38.78C37.1542 38.19 36.5542 37.74 35.8442 37.43C35.1342 37.11 34.3642 36.945 33.5342 36.935C32.7342 36.915 31.9992 37.035 31.3292 37.295C30.6692 37.555 30.1392 37.92 29.7392 38.39C29.3492 38.86 29.1542 39.4 29.1542 40.01C29.1542 40.61 29.3292 41.095 29.6792 41.465C30.0292 41.835 30.4592 42.13 30.9692 42.35C31.4892 42.56 32.0042 42.735 32.5142 42.875L36.5042 44C37.0042 44.14 37.5692 44.33 38.1992 44.57C38.8392 44.8 39.4542 45.125 40.0442 45.545C40.6442 45.965 41.1392 46.525 41.5292 47.225C41.9192 47.915 42.1142 48.785 42.1142 49.835C42.1142 50.925 41.8942 51.885 41.4542 52.715C41.0142 53.535 40.4092 54.225 39.6392 54.785C38.8792 55.335 37.9992 55.75 36.9992 56.03C35.9992 56.31 34.9442 56.45 33.8342 56.45ZM50.3958 56V37.355H43.2108V34.4H60.7158V37.355H53.5308V56H50.3958ZM62.8163 56V34.4H76.6163V37.355H65.9513V43.415H74.8163V46.37H65.9513V53.045H76.6163V56H62.8163ZM79.9186 56V34.4H88.6486C88.8586 34.4 89.1186 34.41 89.4286 34.43C89.7386 34.44 90.0336 34.47 90.3136 34.52C91.5136 34.71 92.5136 35.12 93.3136 35.75C94.1236 36.38 94.7286 37.175 95.1286 38.135C95.5286 39.095 95.7286 40.155 95.7286 41.315C95.7286 42.485 95.5286 43.55 95.1286 44.51C94.7286 45.47 94.1236 46.265 93.3136 46.895C92.5136 47.525 91.5136 47.935 90.3136 48.125C90.0336 48.165 89.7336 48.195 89.4136 48.215C89.1036 48.235 88.8486 48.245 88.6486 48.245H83.0536V56H79.9186ZM83.0536 45.275H88.5286C88.7286 45.275 88.9486 45.265 89.1886 45.245C89.4386 45.225 89.6736 45.19 89.8936 45.14C90.5336 44.99 91.0486 44.715 91.4386 44.315C91.8286 43.905 92.1086 43.435 92.2786 42.905C92.4486 42.375 92.5336 41.845 92.5336 41.315C92.5336 40.785 92.4486 40.26 92.2786 39.74C92.1086 39.21 91.8286 38.745 91.4386 38.345C91.0486 37.935 90.5336 37.655 89.8936 37.505C89.6736 37.445 89.4386 37.405 89.1886 37.385C88.9486 37.365 88.7286 37.355 88.5286 37.355H83.0536V45.275ZM110.178 56.405C109.108 56.405 108.103 56.205 107.163 55.805C106.223 55.395 105.408 54.815 104.718 54.065C104.038 53.315 103.543 52.43 103.233 51.41L106.263 50.57C106.553 51.5 107.058 52.215 107.778 52.715C108.498 53.205 109.298 53.445 110.178 53.435C110.968 53.425 111.663 53.24 112.263 52.88C112.863 52.52 113.333 52.035 113.673 51.425C114.013 50.805 114.183 50.095 114.183 49.295C114.183 48.095 113.808 47.105 113.058 46.325C112.318 45.545 111.348 45.155 110.148 45.155C109.808 45.155 109.458 45.205 109.098 45.305C108.748 45.405 108.418 45.535 108.108 45.695L106.638 43.22L114.258 36.485L114.588 37.385H104.088V34.4H117.078V37.385L110.748 43.475L110.718 42.455C112.078 42.455 113.258 42.76 114.258 43.37C115.258 43.97 116.028 44.79 116.568 45.83C117.118 46.86 117.393 48.015 117.393 49.295C117.393 50.675 117.068 51.9 116.418 52.97C115.778 54.04 114.913 54.88 113.823 55.49C112.743 56.1 111.528 56.405 110.178 56.405Z" fill="#151515"/>
</g>
<defs>
<linearGradient id="paint0_linear_248_3602" x1="1.54721" y1="87.6251" x2="139.766" y2="87.6251" gradientUnits="userSpaceOnUse">
<stop stop-color="#FFD200"/>
<stop offset="1" stop-color="#FFB900"/>
</linearGradient>
<clipPath id="clip0_248_3602">
<rect width="138.219" height="130.216" fill="white" transform="translate(1.54721 0.802002)"/>
</clipPath>
</defs>
</svg>
