<svg width="183" height="178" viewBox="0 0 183 178" fill="none" xmlns="http://www.w3.org/2000/svg">
<g opacity="0.3">
<path opacity="0.0243902" d="M92.1467 175.498C79.5376 156.692 -7.58931 157.593 3.36615 139.125C14.2183 120.769 141.24 71.2211 162.117 77.6398C182.891 84.0586 190.022 98.4726 169.558 116.828C153.952 130.792 96.901 182.592 92.1467 175.498Z" fill="#FBFBFB"/>
<path opacity="0.0487805" d="M93.1802 174.034C79.951 155.903 -5.2122 156.241 5.53656 137.998C16.182 119.756 140.516 71.1083 161.393 77.4144C182.271 83.7206 189.609 98.022 169.662 116.265C154.572 130.228 98.2446 181.128 93.1802 174.034Z" fill="#F7F7F7"/>
<path opacity="0.0731707" d="M94.2138 172.682C80.4678 155.34 -2.73164 155.115 7.70705 136.872C18.1457 118.63 139.689 70.9958 160.67 77.1893C181.651 83.3828 189.299 97.4591 169.868 115.702C155.089 129.553 99.6916 179.664 94.2138 172.682Z" fill="#F3F3F3"/>
<path opacity="0.097561" d="M95.2473 171.331C80.9846 154.665 -0.251236 153.876 9.8774 135.746C20.006 117.616 138.966 70.9958 160.05 76.9641C181.031 82.9324 188.989 97.0086 170.075 115.139C155.709 128.99 101.138 178.2 95.2473 171.331Z" fill="#EFEFEF"/>
<path opacity="0.122" d="M96.2809 169.867C81.6047 153.876 2.12593 152.525 12.0479 134.508C21.9698 116.603 138.242 70.8831 159.326 76.7388C180.514 82.5945 188.679 96.5581 170.282 114.576C156.226 128.427 102.585 176.736 96.2809 169.867Z" fill="#EBEBEB"/>
<path opacity="0.1463" d="M97.3144 168.516C82.2248 153.201 4.60638 151.287 14.2182 133.494C23.9335 115.589 137.416 70.7706 158.706 76.5137C179.894 82.1442 188.369 96.1078 170.592 114.125C156.846 127.864 104.032 175.385 97.3144 168.516Z" fill="#E7E7E7"/>
<path opacity="0.1707" d="M98.4513 167.164C82.9483 152.525 7.19026 150.16 16.4921 132.368C25.7939 114.576 136.692 70.7705 157.983 76.2884C179.274 81.8062 188.059 95.5446 170.695 113.562C157.363 127.301 105.583 173.921 98.4513 167.164Z" fill="#E4E4E4"/>
<path opacity="0.1951" d="M99.4848 165.701C83.6717 151.624 9.56737 148.809 18.6625 131.129C27.7576 113.562 135.969 70.6579 157.259 76.0632C178.654 81.4685 187.749 95.0943 170.902 112.999C157.983 126.738 107.03 172.457 99.4848 165.701Z" fill="#E0E0E0"/>
<path opacity="0.2195" d="M100.518 164.349C84.3952 150.949 12.0478 147.571 20.8329 130.003C29.7213 112.436 135.142 70.5455 156.639 75.8382C178.033 81.0182 187.335 94.644 171.109 112.436C158.5 126.175 108.58 170.993 100.518 164.349Z" fill="#DCDCDC"/>
<path opacity="0.2439" d="M101.552 162.885C85.1187 150.048 14.5283 146.332 23.0033 128.877C31.5816 111.423 134.418 70.5453 155.916 75.6128C177.413 80.6802 187.025 94.1934 171.315 111.873C159.12 125.611 110.027 169.529 101.552 162.885Z" fill="#D8D8D8"/>
<path opacity="0.2683" d="M102.585 161.534C85.8422 149.259 17.0088 145.093 25.2771 127.751C33.5454 110.409 133.695 70.4326 155.296 75.3875C176.897 80.2297 186.715 93.7428 171.522 111.31C159.637 125.048 111.577 168.065 102.585 161.534Z" fill="#D4D4D4"/>
<path opacity="0.2927" d="M103.619 160.183C86.5656 148.471 19.3859 143.854 27.4475 126.625C35.4057 109.396 132.868 70.3201 154.572 75.1623C176.276 79.8919 186.405 93.2925 171.729 110.747C160.257 124.485 113.127 166.601 103.619 160.183Z" fill="#D0D0D0"/>
<path opacity="0.3171" d="M104.652 158.719C87.3925 147.57 21.8664 142.615 29.6179 125.386C37.3694 108.382 132.144 70.32 153.849 74.937C175.656 79.4414 186.095 92.7293 171.936 110.184C160.773 123.922 114.574 165.137 104.652 158.719Z" fill="#CCCCCC"/>
<path opacity="0.3415" d="M105.789 157.367C88.3226 146.782 24.4502 141.377 31.8917 124.373C39.3331 107.369 131.421 70.2074 153.229 74.5992C175.036 79.1035 185.785 92.2789 172.142 109.621C161.394 123.359 116.125 163.673 105.789 157.367Z" fill="#C8C8C8"/>
<path opacity="0.3659" d="M106.823 156.016C89.0461 145.881 26.8274 140.138 34.0621 123.247C41.2968 106.355 130.698 70.2076 152.608 74.4868C174.416 78.766 185.475 91.8287 172.349 109.058C161.91 122.796 117.675 162.21 106.823 156.016Z" fill="#C4C4C4"/>
<path opacity="0.3902" d="M107.856 154.552C89.8729 144.98 29.3078 138.899 36.2325 122.008C43.1572 105.229 129.871 70.095 151.885 74.1489C173.796 78.3155 185.165 91.3782 172.556 108.495C162.53 122.233 119.225 160.633 107.856 154.552Z" fill="#C0C0C0"/>
<path opacity="0.4146" d="M108.89 153.201C90.6998 144.08 31.7883 137.661 38.403 120.882C45.1209 104.216 129.147 69.9823 151.161 73.9237C173.279 77.9776 184.855 90.9277 172.762 107.932C163.15 121.67 120.776 159.169 108.89 153.201Z" fill="#BCBCBC"/>
<path opacity="0.439" d="M109.924 151.85C91.5266 143.179 34.1655 136.422 40.5734 119.868C46.9813 103.202 128.32 69.8697 150.541 73.6984C172.659 77.5272 184.441 90.4773 172.969 107.369C163.667 121.107 122.326 157.705 109.924 151.85Z" fill="#B8B8B8"/>
<path opacity="0.4634" d="M110.957 150.386C92.3534 142.165 36.646 135.183 42.7438 118.63C48.945 102.189 127.597 69.8696 149.818 73.4731C172.039 77.1892 184.131 90.0267 173.176 106.806C164.287 120.657 123.876 156.129 110.957 150.386Z" fill="#B4B4B4"/>
<path opacity="0.4878" d="M111.991 149.034C93.1803 141.264 39.1264 133.945 44.9142 117.504C50.9087 101.175 126.873 69.7571 149.094 73.248C171.419 76.7389 183.821 89.5764 173.382 106.243C164.804 120.094 125.427 154.552 111.991 149.034Z" fill="#B0B0B0"/>
<path opacity="0.5122" d="M113.127 147.683C94.1105 140.363 41.6069 132.706 47.188 116.377C52.7691 100.049 126.047 69.6443 148.474 73.0226C170.902 76.4009 183.614 89.1258 173.693 105.679C165.424 119.53 126.977 152.976 113.127 147.683Z" fill="#ADADAD"/>
<path opacity="0.5366" d="M114.161 146.219C94.9373 139.237 44.0874 131.467 49.4618 115.251C54.7328 99.0355 125.323 69.6444 147.751 72.7975C170.179 76.0631 183.201 88.6754 173.796 105.116C165.941 118.967 128.527 151.399 114.161 146.219Z" fill="#A9A9A9"/>
<path opacity="0.561" d="M115.195 144.868C95.7641 138.336 46.5679 130.228 51.6322 114.125C56.5932 98.0219 124.496 69.5317 147.131 72.5721C169.662 75.6126 182.891 88.2249 174.003 104.666C166.561 118.404 130.181 149.822 115.195 144.868Z" fill="#A5A5A5"/>
<path opacity="0.5854" d="M116.228 143.404C96.5909 137.21 48.945 128.877 53.8026 112.887C58.5569 97.0087 123.773 69.4193 146.407 72.3472C169.042 75.275 182.581 87.7747 174.313 104.103C167.181 117.841 131.731 148.246 116.228 143.404Z" fill="#A1A1A1"/>
<path opacity="0.6098" d="M117.262 142.052C97.4177 136.309 51.4255 127.638 55.973 111.76C60.5206 95.9951 123.049 69.3066 145.684 72.1219C168.422 74.8245 182.374 87.3242 174.519 103.54C167.698 117.391 133.281 146.669 117.262 142.052Z" fill="#9D9D9D"/>
<path opacity="0.6341" d="M118.295 140.701C98.1412 135.296 53.906 126.512 58.1435 110.747C62.381 94.9814 122.223 69.3064 145.064 71.8965C167.801 74.4865 182.064 86.8735 174.726 102.977C168.318 116.828 134.832 145.093 118.295 140.701Z" fill="#999999"/>
<path opacity="0.6585" d="M119.329 139.237C98.9681 134.17 56.3865 125.161 60.3139 109.508C64.3447 93.8556 121.499 69.1941 144.34 71.6715C167.181 74.0363 181.754 86.536 174.933 102.414C168.938 116.265 136.382 143.516 119.329 139.237Z" fill="#959595"/>
<path opacity="0.6829" d="M120.466 137.886C99.8982 133.269 58.8669 123.922 62.5877 108.382C66.3084 92.8421 120.776 69.0814 143.72 71.4462C166.665 73.6984 181.444 86.0855 175.14 101.851C169.455 115.702 137.932 141.827 120.466 137.886Z" fill="#919191"/>
<path opacity="0.7073" d="M121.499 136.535C100.725 132.255 61.3474 122.796 64.7581 107.256C68.1687 91.8285 120.052 69.0814 142.997 71.221C166.044 73.3605 181.134 85.635 175.346 101.288C170.075 115.251 139.483 140.251 121.499 136.535Z" fill="#8D8D8D"/>
<path opacity="0.7317" d="M122.533 135.071C101.449 131.129 63.8279 121.445 66.9285 106.13C70.1325 90.8149 119.225 68.9687 142.273 70.9956C165.424 72.91 180.824 85.1845 175.553 100.725C170.695 114.688 141.033 138.561 122.533 135.071Z" fill="#898989"/>
<path opacity="0.7561" d="M123.566 133.719C102.275 130.116 66.2051 120.206 69.0989 105.004C71.9928 89.8015 118.502 68.8561 141.653 70.7705C164.804 72.5723 180.617 84.7341 175.76 100.162C171.315 114.125 142.583 136.872 123.566 133.719Z" fill="#858585"/>
<path opacity="0.7805" d="M124.6 132.368C103.102 129.102 68.6855 119.08 71.2694 103.878C73.9566 88.6754 117.675 68.8561 140.93 70.5452C164.184 72.1218 180.307 84.3962 175.966 99.5985C171.936 113.562 144.134 135.296 124.6 132.368Z" fill="#818181"/>
<path opacity="0.8049" d="M125.633 130.904C103.826 127.976 71.166 117.729 73.5431 102.639C75.9202 87.662 116.952 68.7435 140.309 70.2075C163.564 71.784 179.997 83.9458 176.173 99.0355C172.556 113.112 145.684 133.607 125.633 130.904Z" fill="#7D7D7D"/>
<path opacity="0.8293" d="M126.667 129.553C104.652 126.963 73.5431 116.49 75.7135 101.626C77.7806 86.7612 116.228 68.7437 139.586 70.095C162.944 71.3337 179.79 83.4956 176.38 98.4727C173.176 112.549 147.234 131.918 126.667 129.553Z" fill="#797979"/>
<path opacity="0.8537" d="M127.804 128.089C105.479 125.837 76.1269 115.251 77.9873 100.387C79.7443 85.6349 115.401 68.6308 138.862 69.7569C162.427 70.9956 179.48 83.0449 176.586 97.9094C173.796 111.986 148.784 130.228 127.804 128.089Z" fill="#767676"/>
<path opacity="0.878" d="M128.837 126.737C106.306 124.823 78.6074 114.013 80.1577 99.2607C81.708 84.6214 114.678 68.5182 138.242 69.5317C161.807 70.6578 179.274 82.5944 176.793 97.3463C174.416 111.535 150.335 128.539 128.837 126.737Z" fill="#727272"/>
<path opacity="0.9024" d="M129.871 125.386C107.03 123.81 80.9846 112.774 82.3282 98.1347C83.5684 83.608 113.954 68.4057 137.519 69.3066C161.187 70.2075 178.964 82.1441 177 96.7834C175.036 110.972 151.885 126.85 129.871 125.386Z" fill="#6E6E6E"/>
<path opacity="0.9268" d="M130.904 123.922C107.753 122.684 83.4651 111.535 84.4986 97.0086C85.5321 82.4819 113.127 68.4057 136.899 69.0814C160.567 69.8696 178.757 81.6937 177.207 96.2203C175.656 110.409 153.435 125.161 130.904 123.922Z" fill="#6A6A6A"/>
<path opacity="0.9512" d="M131.938 122.571C108.58 121.67 85.9455 110.297 86.669 95.8825C87.3924 81.4684 112.404 68.2931 136.175 68.8562C159.947 69.4192 178.447 81.2432 177.413 95.6573C176.276 109.846 154.882 123.472 131.938 122.571Z" fill="#666666"/>
<path opacity="0.9756" d="M132.971 121.22C109.303 120.657 88.3226 109.058 88.8394 94.7565C89.3562 80.4551 111.68 68.1806 135.555 68.631C159.43 69.0815 178.24 80.9055 177.62 95.0943C176.896 109.283 156.433 121.783 132.971 121.22Z" fill="#626262"/>
<path d="M134.005 119.756C110.13 119.53 90.9065 107.819 91.1132 93.6302C91.3199 79.4414 110.854 68.1804 134.832 68.4057C158.81 68.7435 178.033 80.4549 177.827 94.6437C177.62 108.833 157.983 120.094 134.005 119.756Z" fill="#5E5E5E"/>
</g>
<g clip-path="url(#clip0_248_3718)">
<g opacity="0.7">
<path d="M102.916 127.633C69.4368 127.326 46.4004 111.394 46.5539 96.9935C46.8611 82.593 74.0441 71.2566 107.524 71.563C141.003 72.0225 170.183 85.9634 169.876 100.364C169.568 114.764 136.396 128.092 102.916 127.633Z" fill="#5E5E5E"/>
</g>
<g opacity="0.5">
<path d="M111.517 128.858C75.887 128.552 47.3218 112.619 47.629 93.1635C47.9361 73.8608 77.1156 58.5413 112.592 58.8477C148.221 59.3072 176.94 75.2396 176.633 94.5423C176.172 113.845 147.146 129.165 111.517 128.858Z" fill="#5E5E5E"/>
</g>
<path d="M42.4074 44.6004C42.4074 44.7536 42.4074 44.9068 42.4074 45.06C42.4074 45.2132 42.4074 45.3664 42.4074 45.5196C42.4074 45.6728 42.4074 45.826 42.4074 45.9792C42.4074 46.1324 42.4074 46.2856 42.4074 46.4388C42.4074 46.592 42.4074 46.7452 42.4074 46.8984C42.4074 47.0516 42.4074 47.2048 42.4074 47.358C42.4074 47.5112 42.4074 47.6644 42.561 47.8176C42.561 47.9708 42.561 48.1239 42.7145 48.2771C42.7145 48.4303 42.8681 48.5835 42.8681 48.7367C42.8681 48.8899 42.8681 49.0431 43.0217 49.1963C43.0217 49.3495 43.1753 49.5027 43.1753 49.6559C43.1753 49.8091 43.1753 49.9623 43.3288 50.1155C43.3288 50.2687 43.4824 50.4219 43.4824 50.7283C43.4824 50.8815 43.636 51.0347 43.636 51.1879C43.7896 51.3411 43.7896 51.6475 43.9431 51.8006C43.9431 51.9538 43.9431 51.9538 44.0967 52.107C44.2503 52.4134 44.2503 52.7198 44.4039 52.873V53.0262C44.5574 53.3326 44.711 53.639 44.8646 53.9454C44.8646 54.0986 45.0182 54.2518 45.0182 54.405C45.1718 54.5582 45.1718 54.7114 45.3253 55.0178C45.3253 55.171 45.4789 55.3242 45.4789 55.4773C45.6325 55.6305 45.6325 55.9369 45.7861 56.0901C45.7861 56.2433 45.9396 56.2433 45.9396 56.3965C46.0932 56.7029 46.2468 56.8561 46.4004 57.0093C46.4004 57.1625 46.5539 57.3157 46.7075 57.3157C46.8611 57.4689 47.0147 57.7753 47.1682 57.9285C47.0147 58.2349 47.1682 58.2349 47.3218 58.3881C47.4754 58.5413 47.629 58.8477 47.7825 59.0009C47.9361 59.154 47.9361 59.3072 48.0897 59.4604C48.2433 59.6136 48.3969 59.92 48.5504 60.0732C48.704 60.2264 48.704 60.3796 48.8576 60.3796C49.1647 60.686 49.4719 61.1456 49.779 61.452L49.9326 61.6052C50.2398 61.9116 50.3933 62.218 50.7005 62.5244C50.8541 62.6775 50.8541 62.6775 51.0076 62.8307C51.3148 63.1371 51.4684 63.2903 51.7755 63.5967C51.9291 63.7499 51.9291 63.7499 52.0827 63.9031C52.3898 64.2095 52.697 64.5159 53.1577 64.9755C53.3113 65.1287 53.4649 65.2819 53.6184 65.4351C53.772 65.5883 53.9256 65.7415 54.0792 65.8947C54.2327 66.0479 54.3863 66.2011 54.5399 66.3542C54.6935 66.5074 54.847 66.6606 55.0006 66.8138C55.1542 66.967 55.3078 67.1202 55.4614 67.2734C55.6149 67.4266 55.7685 67.5798 55.9221 67.733C56.0757 67.8862 56.2292 68.0394 56.5364 68.1926C56.69 68.3458 56.8435 68.499 56.9971 68.499C57.1507 68.6522 57.4578 68.8054 57.6114 68.9586C57.765 69.1118 57.9186 69.1118 58.0721 69.265C58.2257 69.4182 58.5329 69.5714 58.6865 69.7246C58.84 69.8778 58.9936 69.8778 59.1472 70.0309C59.4543 70.1841 59.6079 70.3373 59.9151 70.4905C60.0686 70.6437 60.2222 70.6437 60.3758 70.7969C60.6829 70.9501 60.8365 71.1033 61.1437 71.2565C61.2972 71.4097 61.4508 71.4097 61.6044 71.5629C61.9116 71.7161 62.3723 72.0225 62.6794 72.1757C63.4473 72.6353 64.2152 73.0949 64.9831 73.4013C65.1367 73.5545 65.4438 73.5544 65.5974 73.7076C66.3653 74.014 66.9796 74.4736 67.7475 74.78C67.7475 74.78 67.901 74.78 67.901 74.9332C68.6689 75.2396 69.5904 75.6992 70.3582 76.0056C70.5118 76.1588 70.819 76.1588 70.9725 76.312C71.7404 76.6184 72.3547 76.9248 73.1226 77.2312C73.2762 77.2312 73.4298 77.3843 73.5834 77.3843C74.5048 77.6907 75.2727 77.9971 76.1941 78.3035C76.3477 78.3035 76.5013 78.4567 76.6549 78.4567C77.2692 78.6099 77.8835 78.9163 78.4978 79.0695C78.9585 79.2227 79.5728 79.3759 80.0335 79.5291C80.4943 79.6823 80.955 79.8355 81.5693 79.9887C82.1836 80.1419 82.6443 80.2951 83.2586 80.4483C83.7194 80.6015 84.1801 80.7547 84.7944 80.7547C85.4087 80.9079 86.023 81.061 86.4837 81.2142C86.9445 81.3674 87.4052 81.3674 88.0195 81.5206C88.6338 81.6738 89.2481 81.827 89.8624 81.827C90.4767 81.9802 90.9375 81.9802 91.5518 82.1334C91.7053 82.1334 92.0125 82.1334 92.1661 82.2866C93.0875 82.4398 93.8554 82.593 94.7769 82.7462C94.9304 82.7462 95.084 82.7462 95.084 82.7462C96.0055 82.8994 96.9269 83.0526 98.002 83.0526C98.3091 83.0526 98.6163 83.0526 98.7698 83.2058C99.3841 83.2058 99.8449 83.359 100.459 83.359C101.227 83.359 101.995 83.5122 102.763 83.5122C103.224 83.5122 103.684 83.5122 104.145 83.6654C104.913 83.6654 105.681 83.8186 106.449 83.8186C106.909 83.8186 107.37 83.8186 107.831 83.8186C108.445 83.8186 109.059 83.8186 109.827 83.8186C110.288 83.8186 110.749 83.8186 111.363 83.8186C112.131 83.8186 112.899 83.8186 113.513 83.8186C113.974 83.8186 114.281 83.8186 114.742 83.8186C115.51 83.8186 116.124 83.8186 116.738 83.6654C117.199 83.6654 117.66 83.6654 117.967 83.6654C118.735 83.6654 119.349 83.5122 120.117 83.5122C120.578 83.5122 120.885 83.5122 121.346 83.359C122.267 83.2058 123.188 83.2058 124.263 83.0526C124.417 83.0526 124.571 83.0526 124.724 83.0526C125.799 82.8994 126.874 82.7462 128.103 82.593C128.256 82.593 128.256 82.593 128.41 82.593C129.485 82.4398 130.407 82.2866 131.482 82.1334C131.789 82.1334 132.249 81.9802 132.557 81.9802C133.324 81.827 134.092 81.6738 134.707 81.5206C135.014 81.5206 135.475 81.3674 135.782 81.2142C136.55 81.061 137.317 80.9079 138.085 80.7547C138.546 80.6015 138.853 80.6015 139.314 80.4483C140.082 80.2951 140.696 80.1419 141.464 79.8355C142.078 79.6823 142.693 79.5291 143.153 79.3759C143.461 79.3759 143.614 79.2227 143.921 79.2227C144.843 78.9163 145.764 78.6099 146.532 78.3035C146.686 78.3035 146.839 78.1503 146.993 78.1503C147.761 77.8439 148.529 77.6907 149.143 77.3843C149.296 77.2312 149.604 77.2311 149.757 77.078C150.371 76.9248 150.986 76.6184 151.446 76.312C151.754 76.1588 152.214 76.0056 152.522 75.8524C153.136 75.546 153.597 75.3928 154.211 75.0864C154.518 74.9332 154.825 74.78 155.286 74.6268C155.9 74.3204 156.514 74.014 156.975 73.7076C157.282 73.5544 157.59 73.4013 157.743 73.2481C158.511 72.7885 159.432 72.3289 160.2 71.8693C173.869 63.9031 180.626 53.639 180.626 43.3749C180.626 43.3749 180.319 93.3167 180.012 94.2359C180.012 94.2359 180.012 94.2359 180.012 94.3891C179.858 95.0019 179.704 95.6146 179.551 96.2274C179.397 96.8402 179.09 97.453 178.937 98.0658V98.219C178.476 99.2913 178.015 100.364 177.401 101.589C177.401 101.589 177.401 101.589 177.401 101.742C177.094 102.202 176.787 102.815 176.326 103.428C176.326 103.581 176.172 103.734 176.172 103.734C175.712 104.347 175.404 104.96 174.944 105.572C174.636 105.879 174.329 106.338 174.022 106.798C173.715 107.104 173.408 107.411 173.254 107.87C172.794 108.33 172.333 108.943 171.719 109.555L171.565 109.709C171.258 110.015 170.951 110.321 170.643 110.628C153.289 127.326 120.885 132.688 96.6198 129.011C91.8589 128.399 89.2481 127.786 86.6373 127.173C85.2551 126.867 81.5693 125.947 77.1156 124.415C77.1156 124.415 77.1156 124.415 76.962 124.415C75.7334 123.956 74.3512 123.496 73.1226 122.883C67.901 120.739 63.2937 118.288 59.3008 115.377C59.1472 115.224 58.9936 115.224 58.84 115.071C58.6865 114.917 58.5329 114.764 58.3793 114.764C58.3793 114.764 58.3793 114.764 58.2257 114.611C57.4579 113.998 56.69 113.385 55.7685 112.619C55.6149 112.619 55.6149 112.466 55.6149 112.466L55.4614 112.313C54.6935 111.7 53.9256 110.934 53.1577 110.168C52.0827 109.096 50.5469 107.564 49.6255 106.185C49.1647 105.572 48.5504 104.653 48.0897 104.04L47.629 103.274L47.4754 103.121C47.0147 102.355 46.4004 101.436 46.0932 100.67C45.9396 100.364 45.7861 100.211 45.7861 99.9041V99.7509C45.6325 99.2913 45.4789 98.985 45.3253 98.5254L45.1718 98.219V98.0658C44.8646 97.2998 44.5574 96.2274 44.2503 95.4614C44.0967 94.8487 43.9431 94.2359 43.7896 93.6231V93.4699C43.7896 93.4699 43.7896 93.4699 43.7896 93.3167C43.7896 93.0103 43.636 92.7039 43.636 92.3975V92.2443C43.636 92.0911 43.3288 55.9369 43.1753 43.5281C42.4074 43.9877 42.4074 44.2941 42.4074 44.6004Z" fill="url(#paint0_linear_248_3718)"/>
<path d="M42.4074 42.9153C42.4074 43.0685 42.4074 43.2217 42.4074 43.3748C42.4074 43.528 42.4074 43.6812 42.4074 43.8344C42.4074 43.9876 42.4074 44.1408 42.4074 44.294C42.4074 44.4472 42.4074 44.6004 42.4074 44.7536C42.4074 44.9068 42.4074 45.06 42.4074 45.2132C42.4074 45.3664 42.4074 45.5196 42.4074 45.6728C42.4074 45.826 42.4074 45.9792 42.561 46.2856C42.561 46.4388 42.561 46.592 42.7145 46.7452C42.7145 46.8984 42.8681 47.0515 42.8681 47.2047C42.8681 47.3579 42.8681 47.5111 43.0217 47.6643C43.0217 47.8175 43.1753 47.9707 43.1753 48.1239C43.1753 48.2771 43.1753 48.4303 43.3288 48.5835C43.3288 48.7367 43.4824 48.8899 43.4824 49.1963C43.4824 49.3495 43.636 49.5027 43.636 49.6559C43.7896 49.8091 43.7896 50.1155 43.9431 50.2687C43.9431 50.4219 43.9431 50.4219 44.0967 50.5751C44.2503 50.8814 44.2503 51.1878 44.4039 51.341V51.4942C44.5574 51.8006 44.711 52.107 44.8646 52.4134C44.8646 52.5666 45.0182 52.7198 45.0182 52.873C45.1718 53.0262 45.1718 53.1794 45.3253 53.4858C45.3253 53.639 45.4789 53.7922 45.4789 53.9454C45.6325 54.0986 45.6325 54.2517 45.7861 54.5581C45.7861 54.7113 45.9396 54.7113 45.9396 54.8645C46.0932 55.0177 46.2468 55.3241 46.4004 55.4773C46.4004 55.6305 46.5539 55.7837 46.7075 55.7837C46.8611 55.9369 47.0147 56.2433 47.1682 56.3965C47.3218 56.5497 47.3218 56.7029 47.4754 56.8561C47.629 57.0093 47.7825 57.3157 47.9361 57.4689C48.0897 57.6221 48.0897 57.7753 48.2433 57.7753C48.3969 57.9285 48.5504 58.2348 48.704 58.388C48.8576 58.5412 48.8576 58.6944 49.0112 58.6944C49.3183 59.0008 49.6255 59.4604 49.9326 59.7668L50.0862 59.92C50.3933 60.2264 50.5469 60.5328 50.8541 60.8392C51.0076 60.9924 51.0076 60.9924 51.1612 61.1456C51.4684 61.452 51.6219 61.6052 51.9291 61.9115C52.0827 62.0647 52.0827 62.0647 52.2363 62.2179C52.5434 62.5243 52.8506 62.8307 53.3113 63.2903C53.4649 63.4435 53.6184 63.5967 53.772 63.7499C53.9256 63.9031 54.0792 64.0563 54.2327 64.2095C54.3863 64.3627 54.5399 64.5159 54.6935 64.6691C54.8471 64.8223 55.0006 64.9755 55.1542 65.1287C55.3078 65.2819 55.4614 65.435 55.6149 65.5882C55.7685 65.7414 55.9221 65.8946 56.0757 66.0478C56.2292 66.201 56.3828 66.3542 56.69 66.5074C56.8435 66.6606 56.9971 66.8138 57.1507 66.8138C57.3043 66.967 57.6114 67.1202 57.765 67.2734C57.9186 67.4266 58.0722 67.4266 58.2257 67.5798C58.3793 67.733 58.6865 67.8862 58.84 68.0394C58.9936 68.1926 59.1472 68.1926 59.3008 68.3458C59.6079 68.499 59.7615 68.6522 60.0686 68.8054C60.2222 68.9586 60.3758 68.9585 60.5294 69.1117C60.8365 69.2649 60.9901 69.4181 61.2973 69.5713C61.4508 69.7245 61.6044 69.7245 61.758 69.8777C62.0651 70.0309 62.5259 70.3373 62.833 70.4905C63.6009 70.9501 64.3688 71.4097 65.1367 71.7161C65.2902 71.8693 65.5974 71.8693 65.751 72.0225C66.5188 72.3289 67.1331 72.7884 67.901 73.0948C67.901 73.0948 68.0546 73.0948 68.0546 73.248C68.8225 73.7076 69.7439 74.014 70.5118 74.3204C70.6654 74.4736 70.9725 74.4736 71.1261 74.6268C71.894 74.9332 72.5083 75.2396 73.2762 75.546C73.4298 75.546 73.5834 75.6992 73.7369 75.6992C74.6584 76.0056 75.4263 76.312 76.3477 76.6183C76.5013 76.6183 76.6549 76.7715 76.8084 76.7715C77.4228 76.9247 78.0371 77.2311 78.6514 77.3843C79.1121 77.5375 79.7264 77.6907 80.1871 77.8439C80.6479 77.9971 81.1086 78.1503 81.7229 78.3035C82.3372 78.4567 82.7979 78.6099 83.4122 78.7631C83.873 78.9163 84.3337 79.0695 84.948 79.0695C85.5623 79.2227 86.1766 79.3759 86.6373 79.5291C87.0981 79.6823 87.5588 79.6823 88.1731 79.8354C88.7874 79.9886 89.4017 80.1418 90.016 80.1418C90.6303 80.295 91.091 80.295 91.7053 80.4482C91.8589 80.4482 92.1661 80.4482 92.3196 80.6014C93.2411 80.7546 94.009 80.9078 94.9304 81.061C95.084 81.061 95.2376 81.061 95.2376 81.061C96.159 81.2142 97.0805 81.3674 98.1555 81.3674C98.4627 81.3674 98.7698 81.3674 98.9234 81.5206C99.5377 81.5206 99.9985 81.6738 100.613 81.6738C101.381 81.6738 102.149 81.827 102.916 81.827C103.377 81.827 103.838 81.827 104.299 81.9802C105.066 81.9802 105.834 82.1334 106.602 82.1334C107.063 82.1334 107.524 82.1334 107.984 82.1334C108.599 82.1334 109.213 82.1334 109.981 82.1334C110.442 82.1334 110.902 82.1334 111.517 82.1334C112.285 82.1334 113.052 82.1334 113.667 82.1334C114.127 82.1334 114.435 82.1334 114.895 82.1334C115.663 82.1334 116.278 82.1334 116.892 81.9802C117.353 81.9802 117.813 81.9802 118.12 81.9802C118.888 81.9802 119.503 81.827 120.271 81.827C120.731 81.827 121.038 81.827 121.499 81.6738C122.421 81.5206 123.342 81.5206 124.417 81.3674C124.571 81.3674 124.724 81.3674 124.878 81.3674C125.953 81.2142 127.028 81.061 128.256 80.9078C128.41 80.9078 128.41 80.9078 128.564 80.9078C129.639 80.7546 130.56 80.6014 131.635 80.4482C131.942 80.4482 132.403 80.295 132.71 80.295C133.478 80.1418 134.246 79.9886 134.86 79.8354C135.167 79.8354 135.628 79.6823 135.935 79.5291C136.703 79.3759 137.471 79.2227 138.239 79.0695C138.7 78.9163 139.007 78.9163 139.468 78.7631C140.235 78.6099 140.85 78.4567 141.618 78.1503C142.232 77.9971 142.846 77.8439 143.307 77.6907C143.614 77.6907 143.768 77.5375 144.075 77.5375C144.996 77.2311 145.918 76.9247 146.686 76.6183C146.839 76.6183 146.993 76.4651 147.146 76.4651C147.914 76.1588 148.682 76.0056 149.296 75.6992C149.45 75.546 149.757 75.546 149.911 75.3928C150.525 75.0864 151.139 74.9332 151.6 74.6268C151.907 74.4736 152.368 74.3204 152.675 74.1672C153.289 73.8608 153.75 73.7076 154.364 73.4012C154.672 73.248 154.979 73.0948 155.439 72.9416C156.054 72.6352 156.668 72.3289 157.129 72.0225C157.436 71.8693 157.743 71.7161 157.897 71.5629C158.665 71.1033 159.586 70.6437 160.354 70.1841C173.869 62.2179 180.626 51.9538 180.626 41.6897C180.626 41.6897 180.319 91.6315 180.012 92.5507C180.012 92.5507 180.012 92.5507 180.012 92.7039C179.858 93.3167 179.704 93.9295 179.551 94.5423V94.6954C179.244 95.3082 179.09 95.921 178.783 96.5338V96.687C178.322 97.7594 177.862 98.8317 177.247 100.057C176.94 100.517 176.633 101.13 176.172 101.742C176.172 101.896 176.019 102.049 176.019 102.049C175.558 102.662 175.251 103.274 174.79 103.887C174.483 104.194 174.176 104.653 173.869 105.113C173.561 105.419 173.254 105.726 173.101 106.032C172.64 106.492 172.179 107.104 171.565 107.717L171.411 107.87C171.104 108.177 170.797 108.483 170.49 108.789C153.136 125.488 120.731 130.85 96.4662 127.173C91.7053 126.56 89.0945 125.947 86.4837 125.335C85.1016 125.028 81.4157 124.109 76.962 122.577C76.962 122.577 76.962 122.577 76.8084 122.577C75.5798 122.118 74.1977 121.658 72.969 121.045C67.7475 118.9 63.1402 116.449 59.1472 113.539C58.9936 113.385 58.84 113.385 58.6865 113.232C58.5329 113.079 58.3793 112.926 58.2257 112.926C58.2257 112.926 58.2257 112.926 58.0721 112.773C57.3043 112.16 56.5364 111.547 55.6149 110.781C55.4614 110.781 55.4614 110.628 55.4614 110.628L55.3078 110.475C54.5399 109.862 53.772 109.096 53.0041 108.33C51.9291 107.257 50.3933 105.726 49.4719 104.347C49.0112 103.734 48.3969 102.815 47.9361 102.202L47.4754 101.436L47.3218 101.283C46.8611 100.517 46.2468 99.5977 45.9396 98.8317C45.7861 98.5253 45.6325 98.3721 45.6325 98.0658V97.9126C45.4789 97.453 45.3253 97.1466 45.1718 96.687L45.0182 96.3806V96.2274C44.711 95.4614 44.4039 94.3891 44.0967 93.6231C43.3288 93.4699 42.4074 54.4049 42.4074 42.1493C42.4074 42.3025 42.4074 42.6089 42.4074 42.9153Z" fill="#FAC700"/>
<path d="M42.4074 45.6728C42.4074 45.5196 42.4074 45.2132 42.4074 45.06C42.4074 45.2132 42.4074 45.3664 42.4074 45.3664C42.4074 45.2132 42.4074 45.06 42.4074 44.9068V44.7536C42.4074 44.7536 42.4074 44.7536 42.4074 44.9068C42.4074 44.294 42.4074 43.6812 42.561 42.9153C42.561 42.4557 42.561 42.1493 42.7145 41.8429C42.7145 41.6897 42.7145 41.5365 42.7145 41.3833C42.7145 41.0769 42.7145 40.9237 42.8681 40.6173V41.0769C43.1753 39.545 43.3288 38.9322 43.7896 37.4002V37.247V37.0938C43.7896 36.9406 43.9431 36.7874 43.9431 36.6342C44.2503 35.7151 44.711 34.6427 45.3253 33.4171C45.4789 33.2639 45.4789 33.1107 45.6325 32.8043C45.6325 32.6511 45.7861 32.498 45.7861 32.498C45.9396 32.1916 46.0932 31.8852 46.2468 31.5788C46.2468 31.4256 46.4004 31.2724 46.4004 31.2724V31.1192V30.966C46.4004 30.8128 46.5539 30.6596 46.5539 30.5064C46.5539 30.5064 46.5539 30.3532 46.7075 30.3532C46.8611 30.0468 47.0147 29.7404 47.3218 29.434L47.4754 29.2808C47.629 29.1276 47.629 28.9744 47.7825 28.8213L47.9361 28.6681C48.0897 28.3617 48.3969 28.0553 48.704 27.7489L48.8576 27.5957C49.0112 27.4425 49.1647 27.2893 49.3183 26.9829C49.9326 26.2169 50.5469 25.4509 51.1612 24.8382L51.3148 24.685L51.4684 24.5318C52.0827 23.7658 52.8506 23.153 53.4649 22.5402C53.4649 22.5402 53.4649 22.5402 53.6184 22.387C54.0792 21.9274 54.5399 21.4679 55.0006 21.1615C55.3078 20.8551 55.6149 20.5487 56.0757 20.2423C57.3043 19.1699 58.3793 18.4039 60.8365 16.7188C61.1437 16.4124 61.6044 16.106 62.0651 15.9528L62.2187 15.7996L63.7545 14.8804L63.9081 14.7272C64.3688 14.4208 64.8295 14.2677 65.2902 13.9613C70.0511 11.5101 75.7334 9.36539 81.7229 7.68023C83.2586 7.22064 84.3337 6.91425 86.4837 6.45466C91.8589 5.0759 96.3126 4.61632 96.3126 4.61632C96.6198 4.61632 96.7733 4.61632 97.0805 4.46312C98.3091 4.30992 99.5377 4.15673 100.92 4.00353C102.763 3.85034 104.145 3.69714 106.602 3.54395C107.217 3.54395 107.831 3.54395 108.599 3.54395C108.445 3.54395 108.292 3.54395 108.292 3.54395C108.752 3.54395 109.367 3.54395 109.674 3.54395C109.981 3.54395 110.134 3.54395 110.442 3.54395C110.749 3.54395 111.056 3.54395 111.363 3.54395C111.517 3.54395 111.824 3.54395 111.977 3.54395C112.285 3.54395 112.745 3.54395 113.052 3.54395C113.206 3.54395 113.513 3.54395 113.667 3.54395C113.82 3.54395 113.82 3.54395 113.974 3.54395C115.97 3.54395 117.967 3.69714 119.963 3.85034C126.106 4.15673 131.635 5.0759 136.703 6.30147C138.546 6.76106 140.235 7.22064 141.925 7.68023C143.614 8.13982 144.689 8.44621 146.839 9.21219C149.45 10.1314 151.446 11.0505 153.289 11.8165C155.132 12.5825 156.822 13.5017 158.511 14.4208C158.818 14.574 158.972 14.7272 159.279 14.8804C159.74 15.1868 160.354 15.4932 160.815 15.7996C160.815 15.7996 160.968 15.7996 160.968 15.9528C161.122 16.106 161.275 16.106 161.429 16.2592C162.504 16.872 163.272 17.4848 164.04 17.9443C164.193 18.0975 164.347 18.2507 164.654 18.2507C165.422 18.7103 166.19 19.4763 167.111 20.0891C167.265 20.2423 167.418 20.2423 167.572 20.3955L168.493 21.4679C168.954 21.9274 169.415 22.387 169.876 22.6934C172.486 24.9914 175.558 28.5149 177.708 33.1107C177.862 33.5703 178.169 34.0299 178.322 34.4895C178.322 34.4895 179.397 36.9406 180.012 39.6982C180.165 40.7705 180.472 42.1493 180.472 43.2217C180.472 43.8344 180.472 44.6004 180.626 45.2132C180.626 55.4773 173.869 65.8946 160.2 73.7076C159.586 74.014 158.972 74.3204 158.357 74.6268C158.357 74.6268 158.204 74.6268 158.204 74.78C158.204 74.78 158.05 74.78 158.05 74.9332H157.897C157.897 74.9332 157.743 74.9332 157.743 75.0864C157.743 75.0864 157.743 75.0864 157.59 75.0864C157.59 75.0864 157.436 75.0864 157.436 75.2396H157.282C157.282 75.2396 157.129 75.2396 157.129 75.3928C156.975 75.3928 156.975 75.546 156.822 75.546C156.668 75.546 156.668 75.6992 156.514 75.6992C156.361 75.6992 156.207 75.8524 156.207 75.8524C156.054 75.8524 156.054 76.0056 155.9 76.0056C155.747 76.0056 155.747 76.1588 155.593 76.1588C155.439 76.1588 155.439 76.3119 155.286 76.3119C155.286 76.3119 155.132 76.312 155.132 76.4651C155.132 76.4651 154.979 76.4651 154.979 76.6183H154.825H154.672H154.518C154.364 76.6183 154.364 76.7715 154.211 76.7715C154.057 76.7715 153.904 76.9247 153.75 76.9247C153.597 76.9247 153.443 77.0779 153.443 77.0779C153.289 77.0779 153.136 77.2311 152.982 77.2311C152.982 77.2311 152.982 77.2311 152.829 77.2311C152.675 77.2311 152.675 77.3843 152.522 77.3843C152.368 77.3843 152.214 77.5375 152.061 77.5375C151.907 77.5375 151.907 77.5375 151.754 77.6907C151.754 77.6907 151.754 77.6907 151.6 77.6907C151.6 77.6907 151.6 77.6907 151.446 77.6907H151.293C151.139 77.6907 151.139 77.8439 150.986 77.8439C150.832 77.8439 150.679 77.9971 150.525 77.9971C150.525 77.9971 150.371 77.9971 150.371 78.1503C150.218 78.1503 150.064 78.3035 149.911 78.3035C149.757 78.3035 149.604 78.4567 149.45 78.4567C149.45 78.4567 149.45 78.4567 149.296 78.4567H149.143C148.989 78.4567 148.989 78.4567 148.836 78.6099C148.682 78.6099 148.682 78.6099 148.529 78.7631C148.375 78.7631 148.221 78.9163 148.068 78.9163C147.914 78.9163 147.914 78.9163 147.761 79.0695C147.607 79.0695 147.453 79.2227 147.3 79.2227C147.146 79.2227 147.146 79.2227 146.993 79.3759C146.993 79.3759 146.993 79.3759 146.839 79.3759H146.686H146.532C146.378 79.3759 146.225 79.5291 146.071 79.5291C145.918 79.5291 145.764 79.6823 145.611 79.6823C145.457 79.6823 145.303 79.8354 145.303 79.8354C145.15 79.8354 145.15 79.8354 144.996 79.9886C144.843 79.9886 144.843 79.9886 144.689 80.1418H144.536H144.382C144.228 80.1418 144.075 80.295 143.921 80.295C143.768 80.295 143.614 80.4482 143.461 80.4482H143.307C143.153 80.4482 143.153 80.4482 143 80.6014C142.846 80.6014 142.693 80.7546 142.539 80.7546C142.385 80.7546 142.385 80.7546 142.232 80.7546H142.078H141.925C141.771 80.7546 141.771 80.7546 141.618 80.7546C141.464 80.7546 141.157 80.9078 141.003 80.9078H140.85H140.696C140.543 80.9078 140.389 80.9078 140.389 81.061C140.082 81.061 139.928 81.2142 139.621 81.2142C139.468 81.2142 139.468 81.2142 139.314 81.2142C139.16 81.2142 139.007 81.2142 138.853 81.3674C138.7 81.3674 138.7 81.3674 138.546 81.3674H138.392C138.239 81.3674 138.239 81.3674 138.085 81.3674C137.932 81.3674 137.625 81.5206 137.471 81.5206C137.317 81.5206 137.164 81.5206 137.164 81.6738C137.01 81.6738 137.01 81.6738 136.857 81.6738H136.703C136.55 81.6738 136.396 81.6738 136.396 81.827C136.242 81.827 136.242 81.827 136.089 81.827H135.935C135.782 81.827 135.628 81.827 135.475 81.9802C135.321 81.9802 135.321 81.9802 135.167 81.9802H135.014C134.86 81.9802 134.707 81.9802 134.707 82.1334C134.707 82.1334 134.707 82.1334 134.553 82.1334H134.4C134.4 82.1334 134.246 82.1334 134.092 82.1334C133.939 82.1334 133.785 82.1334 133.785 82.1334C133.632 82.1334 133.632 82.1334 133.478 82.1334C133.324 82.1334 133.017 82.1334 132.864 82.2866C132.71 82.2866 132.557 82.2866 132.403 82.4398H132.249H132.096C131.942 82.4398 131.942 82.4398 131.789 82.4398C131.635 82.4398 131.635 82.4398 131.482 82.4398C131.328 82.4398 131.174 82.4398 131.021 82.4398C130.714 82.4398 130.56 82.593 130.253 82.593H130.099C129.946 82.593 129.792 82.593 129.792 82.593C129.639 82.593 129.485 82.593 129.178 82.7462C129.024 82.7462 129.024 82.7462 128.871 82.7462H128.717C128.564 82.7462 128.41 82.7462 128.256 82.7462C128.103 82.7462 128.103 82.7462 127.949 82.7462C127.796 82.7462 127.489 82.7462 127.335 82.8994C127.181 82.8994 127.181 82.8994 127.028 82.8994C126.874 82.8994 126.721 82.8994 126.414 82.8994C126.26 82.8994 125.953 82.8994 125.799 82.8994C125.646 82.8994 125.492 82.8994 125.492 82.8994H125.339C125.185 82.8994 125.185 82.8994 125.031 82.8994C124.878 82.8994 124.724 82.8994 124.571 82.8994C124.417 82.8994 124.263 82.8994 124.11 82.8994C123.956 82.8994 123.803 82.8994 123.803 82.8994C123.649 82.8994 123.496 82.8994 123.342 82.8994C123.035 82.8994 122.574 82.8994 122.267 83.0526C122.113 83.0526 121.96 83.0526 121.806 83.0526H121.653C121.499 83.0526 121.499 83.0526 121.346 83.0526C121.192 83.0526 121.038 83.0526 120.885 83.0526C120.731 83.0526 120.578 83.0526 120.424 83.0526C120.271 83.0526 120.117 83.0526 119.81 83.0526C119.349 83.0526 118.888 83.0526 118.428 83.2058C118.274 83.2058 118.274 83.2058 118.12 83.2058H117.967C117.813 83.2058 117.506 83.2058 117.353 83.2058C117.045 83.2058 116.585 83.2058 116.278 83.2058C116.278 83.2058 116.278 83.2058 116.124 83.2058C115.97 83.2058 115.817 83.2058 115.663 83.2058C115.51 83.2058 115.356 83.2058 115.202 83.2058C115.049 83.2058 115.049 83.2058 114.895 83.2058H114.742C114.588 83.2058 114.588 83.2058 114.435 83.2058C113.974 83.2058 113.513 83.2058 113.052 83.2058C112.745 83.2058 112.592 83.2058 112.285 83.2058C112.131 83.2058 112.131 83.2058 111.977 83.2058C111.824 83.2058 111.824 83.2058 111.67 83.2058C111.517 83.2058 111.517 83.2058 111.363 83.2058C111.21 83.2058 111.056 83.2058 110.902 83.2058C110.749 83.2058 110.595 83.2058 110.442 83.2058C110.134 83.2058 109.981 83.2058 109.674 83.2058C109.367 83.2058 109.059 83.2058 108.906 83.2058C108.752 83.2058 108.599 83.2058 108.292 83.2058C108.138 83.2058 108.138 83.2058 107.984 83.2058C107.831 83.2058 107.677 83.2058 107.37 83.2058H107.217C106.756 83.2058 106.295 83.2058 105.834 83.2058C105.681 83.2058 105.374 83.2058 105.22 83.2058C105.066 83.2058 104.913 83.2058 104.759 83.2058C104.606 83.2058 104.606 83.2058 104.452 83.2058C104.299 83.2058 104.145 83.2058 103.991 83.2058C103.531 83.2058 102.916 83.2058 102.456 83.0526C102.302 83.0526 102.149 83.0526 102.149 83.0526C101.995 83.0526 101.688 83.0526 101.534 83.0526C101.227 83.0526 100.92 83.0526 100.613 82.8994C100.459 82.8994 100.152 82.8994 99.9985 82.8994C99.8449 82.8994 99.5377 82.8994 99.3841 82.8994C99.2306 82.8994 99.077 82.8994 98.9234 82.8994C98.4627 82.8994 98.002 82.7462 97.3877 82.7462C97.0805 82.7462 96.7734 82.593 96.4662 82.593C96.3126 82.593 96.159 82.593 96.0055 82.593C95.8519 82.593 95.6983 82.593 95.5447 82.4398C95.2376 82.4398 94.9304 82.2866 94.6233 82.2866C94.4697 82.2866 94.1626 82.2866 94.009 82.1334C93.7018 82.1334 93.3947 81.9802 93.0875 81.9802C92.7804 81.9802 92.4732 81.827 92.3196 81.827C92.1661 81.827 91.8589 81.827 91.7053 81.6738C91.2446 81.5206 90.6303 81.5206 90.1696 81.3674C89.8624 81.3674 89.5553 81.2142 89.0945 81.2142C88.3267 81.061 87.4052 80.9078 86.6373 80.7546C86.4837 80.7546 86.3302 80.7546 86.1766 80.6014C85.2551 80.4482 84.1801 80.1418 83.2586 79.8354C83.1051 79.8354 82.7979 79.6823 82.6443 79.6823C81.8765 79.5291 81.2622 79.2227 80.4943 79.0695C80.1871 78.9163 79.88 78.9163 79.5728 78.7631C79.2657 78.6099 78.8049 78.6099 78.4978 78.4567C78.6514 78.4567 78.8049 78.4567 78.8049 78.6099C77.5763 78.1503 76.3477 77.8439 74.9655 77.3843C65.4438 74.014 57.1507 69.2649 51.4684 62.8307C51.4684 62.8307 51.4684 62.8307 51.4684 62.6775C51.3148 62.5243 51.3148 62.5243 51.1612 62.3711C51.0076 62.2179 51.0076 62.2179 50.8541 62.0647L50.7005 61.9115C50.5469 61.7583 50.3933 61.6051 50.2398 61.2988C50.0862 61.1456 50.0862 61.1456 49.9326 60.9924C49.779 60.8392 49.6255 60.5328 49.3183 60.3796L49.1647 60.2264C49.1647 60.0732 49.0112 60.0732 49.0112 59.92C48.8576 59.7668 48.8576 59.7668 48.704 59.6136C48.5504 59.4604 48.5504 59.3072 48.3969 59.154C48.2433 59.0008 48.2433 59.0008 48.0897 58.8476C48.0897 58.8476 48.0897 58.6944 47.9361 58.6944C47.9361 58.6944 47.9361 58.6944 47.7825 58.5412C47.629 58.388 47.629 58.2348 47.4754 58.2348C47.3218 58.0816 47.3218 57.9285 47.1682 57.7753C47.1682 57.7753 47.1682 57.6221 47.0147 57.6221C47.0147 57.6221 47.0147 57.6221 47.0147 57.4689L46.8611 57.3157C46.8611 57.1625 46.7075 57.1625 46.7075 57.0093C46.7075 57.0093 46.7075 56.8561 46.5539 56.8561C46.4004 56.7029 46.4004 56.5497 46.2468 56.3965C46.2468 56.2433 46.0932 56.0901 46.0932 55.9369C46.0932 55.7837 45.9396 55.6305 45.9396 55.4773C45.9396 55.4773 45.9396 55.3241 45.7861 55.3241V55.1709C45.7861 55.1709 45.7861 55.0177 45.6325 55.0177V54.8645C45.6325 54.7113 45.4789 54.7113 45.4789 54.5581C45.3253 54.4049 45.3253 54.0986 45.1718 53.9454C45.1718 53.9454 45.1718 53.7922 45.0182 53.7922V53.639C44.8646 53.3326 44.8646 53.1794 44.711 52.873V52.7198C44.711 52.5666 44.711 52.5666 44.5574 52.4134C44.5574 52.2602 44.5574 52.2602 44.4039 52.107C44.4039 52.107 44.4039 51.9538 44.2503 51.9538C44.2503 51.8006 44.2503 51.8006 44.0967 51.6474C44.0967 51.4942 44.0967 51.4942 43.9431 51.341C43.9431 51.1878 43.9431 51.1878 43.7896 51.0346V50.8814V50.7282C43.7896 50.7282 43.7896 50.7282 43.7896 50.5751C43.7896 50.4219 43.7896 50.2687 43.636 50.1155V49.9623V49.8091C43.636 49.6559 43.636 49.6559 43.636 49.5027C43.636 49.3495 43.636 49.3495 43.636 49.1963C43.636 49.1963 43.636 49.1963 43.636 49.0431V48.8899C43.636 48.8899 43.636 48.8899 43.636 49.0431V48.8899V48.7367V48.5835C43.636 48.4303 43.636 48.4303 43.636 48.2771C43.636 48.2771 43.636 48.2771 43.636 48.1239C43.636 47.9707 43.636 47.9707 43.636 47.8175V47.6643C43.636 47.6643 43.636 47.6643 43.636 47.5111V47.3579V47.2047C43.636 47.0515 43.636 47.0516 43.636 46.8984V46.7452V46.592V46.4388V46.2856V46.1324V45.9792C43.636 45.9792 43.636 45.9792 43.636 45.826C43.636 45.6728 43.636 45.3664 43.636 45.2132C43.636 45.3664 43.636 45.3664 43.636 45.5196C42.4074 45.9792 42.4074 45.826 42.4074 45.6728Z" fill="#E8B100"/>
<path d="M42.4074 42.1493C42.4074 41.9961 42.4074 41.6897 42.4074 41.5365C42.4074 42.4557 42.4074 41.5365 42.4074 41.3833C42.4074 40.4641 42.5609 38.6258 42.8681 37.247C42.8681 37.4002 42.8681 37.5534 42.8681 37.7066C44.711 26.0637 53.772 17.4847 63.4473 11.6633C70.8189 7.22061 79.1121 4.46309 87.4052 2.62474C90.3231 2.01196 93.3947 1.39917 96.3126 1.09278C98.4627 0.786389 100.613 0.633193 102.763 0.326801C103.684 0.326801 104.606 0.173605 105.681 0.173605C106.141 0.173605 109.059 0.0204097 108.138 0.0204097C121.806 -0.285982 135.628 1.39917 148.375 6.30144C158.972 10.2845 170.029 16.7188 176.019 26.5233C182.008 36.0214 182.162 47.5111 175.558 56.8561C170.183 64.3626 162.197 69.7245 153.75 73.4012C141.771 79.0695 127.489 81.827 114.281 81.827C111.977 81.827 109.52 81.827 107.217 81.827C97.6948 81.827 86.9445 79.8354 77.5763 76.7715C78.8049 77.0779 76.3477 76.3119 76.3477 76.3119C75.2727 76.0055 74.3512 75.5459 73.2762 75.2395C71.4333 74.6268 69.5903 73.8608 67.7474 72.9416C64.3688 71.4097 60.9901 69.5713 57.9185 67.4266C53.772 64.5158 50.2397 60.9923 47.3218 56.8561C45.3253 53.7921 43.3288 49.9622 42.7145 46.5919C42.4073 45.3664 42.2538 43.0684 42.2538 42.6088C42.4074 42.4557 42.4074 42.3025 42.4074 42.1493C42.4074 42.3025 42.4074 41.8429 42.4074 42.1493Z" fill="#FFDA00"/>
<path d="M73.8342 54.45C72.2842 54.45 70.8842 54.185 69.6342 53.655C68.3942 53.115 67.3692 52.35 66.5592 51.36C65.7592 50.36 65.2392 49.175 64.9992 47.805L68.2692 47.31C68.5992 48.63 69.2892 49.66 70.3392 50.4C71.3892 51.13 72.6142 51.495 74.0142 51.495C74.8842 51.495 75.6842 51.36 76.4142 51.09C77.1442 50.81 77.7292 50.415 78.1692 49.905C78.6192 49.385 78.8442 48.765 78.8442 48.045C78.8442 47.655 78.7742 47.31 78.6342 47.01C78.5042 46.71 78.3192 46.45 78.0792 46.23C77.8492 46 77.5642 45.805 77.2242 45.645C76.8942 45.475 76.5292 45.33 76.1292 45.21L70.5942 43.575C70.0542 43.415 69.5042 43.21 68.9442 42.96C68.3842 42.7 67.8692 42.365 67.3992 41.955C66.9392 41.535 66.5642 41.02 66.2742 40.41C65.9842 39.79 65.8392 39.04 65.8392 38.16C65.8392 36.83 66.1792 35.705 66.8592 34.785C67.5492 33.855 68.4792 33.155 69.6492 32.685C70.8192 32.205 72.1292 31.965 73.5792 31.965C75.0392 31.985 76.3442 32.245 77.4942 32.745C78.6542 33.245 79.6142 33.965 80.3742 34.905C81.1442 35.835 81.6742 36.965 81.9642 38.295L78.6042 38.865C78.4542 38.055 78.1342 37.36 77.6442 36.78C77.1542 36.19 76.5542 35.74 75.8442 35.43C75.1342 35.11 74.3642 34.945 73.5342 34.935C72.7342 34.915 71.9992 35.035 71.3292 35.295C70.6692 35.555 70.1392 35.92 69.7392 36.39C69.3492 36.86 69.1542 37.4 69.1542 38.01C69.1542 38.61 69.3292 39.095 69.6792 39.465C70.0292 39.835 70.4592 40.13 70.9692 40.35C71.4892 40.56 72.0042 40.735 72.5142 40.875L76.5042 42C77.0042 42.14 77.5692 42.33 78.1992 42.57C78.8392 42.8 79.4542 43.125 80.0442 43.545C80.6442 43.965 81.1392 44.525 81.5292 45.225C81.9192 45.915 82.1142 46.785 82.1142 47.835C82.1142 48.925 81.8942 49.885 81.4542 50.715C81.0142 51.535 80.4092 52.225 79.6392 52.785C78.8792 53.335 77.9992 53.75 76.9992 54.03C75.9992 54.31 74.9442 54.45 73.8342 54.45ZM90.3958 54V35.355H83.2108V32.4H100.716V35.355H93.5308V54H90.3958ZM102.816 54V32.4H116.616V35.355H105.951V41.415H114.816V44.37H105.951V51.045H116.616V54H102.816ZM119.919 54V32.4H128.649C128.859 32.4 129.119 32.41 129.429 32.43C129.739 32.44 130.034 32.47 130.314 32.52C131.514 32.71 132.514 33.12 133.314 33.75C134.124 34.38 134.729 35.175 135.129 36.135C135.529 37.095 135.729 38.155 135.729 39.315C135.729 40.485 135.529 41.55 135.129 42.51C134.729 43.47 134.124 44.265 133.314 44.895C132.514 45.525 131.514 45.935 130.314 46.125C130.034 46.165 129.734 46.195 129.414 46.215C129.104 46.235 128.849 46.245 128.649 46.245H123.054V54H119.919ZM123.054 43.275H128.529C128.729 43.275 128.949 43.265 129.189 43.245C129.439 43.225 129.674 43.19 129.894 43.14C130.534 42.99 131.049 42.715 131.439 42.315C131.829 41.905 132.109 41.435 132.279 40.905C132.449 40.375 132.534 39.845 132.534 39.315C132.534 38.785 132.449 38.26 132.279 37.74C132.109 37.21 131.829 36.745 131.439 36.345C131.049 35.935 130.534 35.655 129.894 35.505C129.674 35.445 129.439 35.405 129.189 35.385C128.949 35.365 128.729 35.355 128.529 35.355H123.054V43.275ZM153.283 54V50.235H143.533V47.265L150.553 32.4H154.138L147.118 47.265H153.283V41.415H156.463V47.265H158.608V50.235H156.463V54H153.283Z" fill="#151515"/>
</g>
<defs>
<linearGradient id="paint0_linear_248_3718" x1="180.626" y1="86.8436" x2="42.4072" y2="86.8436" gradientUnits="userSpaceOnUse">
<stop stop-color="#FFD200"/>
<stop offset="1" stop-color="#FFB900"/>
</linearGradient>
<clipPath id="clip0_248_3718">
<rect width="138.219" height="130.216" fill="white" transform="matrix(-1 0 0 1 180.626 0.0205078)"/>
</clipPath>
</defs>
</svg>
