<svg width="183" height="179" viewBox="0 0 183 179" fill="none" xmlns="http://www.w3.org/2000/svg">
<g opacity="0.3">
<path opacity="0.0243902" d="M90.844 175.991C103.453 157.185 190.58 158.086 179.625 139.618C168.772 121.262 41.7511 71.714 20.8737 78.1328C0.0997154 84.5515 -7.03167 98.9655 13.4323 117.321C29.0387 131.285 86.0897 183.085 90.844 175.991Z" fill="#FBFBFB"/>
<path opacity="0.0487805" d="M89.8105 174.527C103.04 156.396 188.203 156.734 177.454 138.491C166.809 120.249 42.4746 71.6013 21.5972 77.9075C0.71983 84.2136 -6.61826 98.515 13.3289 116.758C28.4185 130.721 84.7462 181.621 89.8105 174.527Z" fill="#F7F7F7"/>
<path opacity="0.0731707" d="M88.7769 173.175C102.523 155.833 185.722 155.608 175.284 137.365C164.845 119.123 43.3014 71.4888 22.3207 77.6824C1.33994 83.8759 -6.30821 97.9521 13.1222 116.195C27.9018 130.046 83.2992 180.157 88.7769 173.175Z" fill="#F3F3F3"/>
<path opacity="0.097561" d="M87.7434 171.824C102.006 155.158 183.242 154.369 173.113 136.239C162.985 118.109 44.0249 71.4887 22.9408 77.457C1.96005 83.4253 -5.99816 97.5015 12.9155 115.632C27.2816 129.483 81.8522 178.693 87.7434 171.824Z" fill="#EFEFEF"/>
<path opacity="0.122" d="M86.7099 170.36C101.386 154.369 180.865 153.018 170.943 135C161.021 117.096 44.7484 71.376 23.6643 77.2317C2.47684 83.0874 -5.68808 97.051 12.7088 115.069C26.7649 128.92 80.4053 177.229 86.7099 170.36Z" fill="#EBEBEB"/>
<path opacity="0.1463" d="M85.6763 169.009C100.766 153.694 178.384 151.779 168.772 133.987C159.057 116.082 45.5752 71.2636 24.2844 77.0067C3.09695 82.6371 -5.37803 96.6007 12.3988 114.618C26.1448 128.357 78.9584 175.878 85.6763 169.009Z" fill="#E7E7E7"/>
<path opacity="0.1707" d="M84.5394 167.658C100.042 153.018 175.8 150.653 166.499 132.861C157.197 115.069 46.2987 71.2637 25.0079 76.7815C3.71705 82.2994 -5.06798 96.0378 12.2954 114.055C25.628 127.794 77.408 174.414 84.5394 167.658Z" fill="#E4E4E4"/>
<path opacity="0.1951" d="M83.5059 166.193C99.319 152.117 173.423 149.302 164.328 131.622C155.233 114.055 47.0222 71.1509 25.7314 76.5561C4.3372 81.9614 -4.75789 95.5872 12.0887 113.492C25.0079 127.231 75.9611 172.95 83.5059 166.193Z" fill="#E0E0E0"/>
<path opacity="0.2195" d="M82.4724 164.842C98.5955 151.442 170.943 148.063 162.158 130.496C153.269 112.929 47.849 71.0384 26.3515 76.3311C4.9573 81.5111 -4.34451 95.1369 11.882 112.929C24.4911 126.668 74.4108 171.486 82.4724 164.842Z" fill="#DCDCDC"/>
<path opacity="0.2439" d="M81.4388 163.378C97.872 150.541 168.462 146.825 159.987 129.37C151.409 111.916 48.5725 71.0382 27.075 76.1057C5.57745 81.1731 -4.03442 94.6863 11.6753 112.366C23.871 126.104 72.9639 170.022 81.4388 163.378Z" fill="#D8D8D8"/>
<path opacity="0.2683" d="M80.4053 162.027C97.1485 149.752 165.982 145.586 157.714 128.244C149.445 110.902 49.2959 70.9257 27.6951 75.8805C6.09419 80.7227 -3.72438 94.2359 11.4686 111.803C23.3542 125.541 71.4135 168.558 80.4053 162.027Z" fill="#D4D4D4"/>
<path opacity="0.2927" d="M79.3718 160.676C96.4251 148.964 163.605 144.347 155.543 127.118C147.585 109.889 50.1228 70.813 28.4185 75.6552C6.71433 80.3848 -3.41431 93.7854 11.2619 111.24C22.7341 124.978 69.8633 167.094 79.3718 160.676Z" fill="#D0D0D0"/>
<path opacity="0.3171" d="M78.3382 159.212C95.5982 148.063 161.124 143.108 153.373 125.879C145.621 108.875 50.8462 70.813 29.142 75.43C7.33445 79.9344 -3.10424 93.2224 11.0552 110.677C22.2173 124.415 68.4163 165.63 78.3382 159.212Z" fill="#CCCCCC"/>
<path opacity="0.3415" d="M77.2013 157.86C94.6681 147.275 158.54 141.87 151.099 124.866C143.658 107.862 51.5697 70.7005 29.7621 75.0923C7.95455 79.5967 -2.7942 92.772 10.8484 110.114C21.5972 123.852 66.866 164.167 77.2013 157.86Z" fill="#C8C8C8"/>
<path opacity="0.3659" d="M76.1678 156.509C93.9446 146.374 156.163 140.631 148.929 123.74C141.694 106.848 52.2932 70.7006 30.3822 74.9797C8.57468 79.2589 -2.48414 92.3216 10.6417 109.551C21.0804 123.289 65.3157 162.703 76.1678 156.509Z" fill="#C4C4C4"/>
<path opacity="0.3902" d="M75.1343 155.045C93.1178 145.473 153.683 139.393 146.758 122.501C139.834 105.722 53.12 70.588 31.1057 74.642C9.19481 78.8085 -2.17407 91.8712 10.435 108.988C20.4603 122.726 63.7654 161.126 75.1343 155.045Z" fill="#C0C0C0"/>
<path opacity="0.4146" d="M74.1008 153.694C92.291 144.573 151.202 138.154 144.588 121.375C137.87 104.709 53.8435 70.4754 31.8292 74.4167C9.71158 78.4707 -1.86399 91.4208 10.2284 108.425C19.8402 122.163 62.2151 159.662 74.1008 153.694Z" fill="#BCBCBC"/>
<path opacity="0.439" d="M73.0672 152.343C91.4641 143.672 148.825 136.915 142.417 120.361C136.009 103.695 54.6703 70.3627 32.4493 74.1915C10.3317 78.0202 -1.4506 90.9703 10.0216 107.862C19.3234 121.6 60.6648 158.198 73.0672 152.343Z" fill="#B8B8B8"/>
<path opacity="0.4634" d="M72.0337 150.879C90.6373 142.658 146.345 135.676 140.247 119.123C134.046 102.682 55.3938 70.3628 33.1728 73.9663C10.9518 77.6824 -1.14054 90.5199 9.81492 107.299C18.7033 121.15 59.1145 156.622 72.0337 150.879Z" fill="#B4B4B4"/>
<path opacity="0.4878" d="M71.0002 149.527C89.8105 141.757 143.864 134.438 138.077 117.997C132.082 101.668 56.1173 70.2501 33.8963 73.741C11.5719 77.2319 -0.830469 90.0694 9.60822 106.736C18.1866 120.587 57.5642 155.045 71.0002 149.527Z" fill="#B0B0B0"/>
<path opacity="0.5122" d="M69.8632 148.176C88.8803 140.856 141.384 133.199 135.803 116.87C130.222 100.542 56.9441 70.1374 34.5164 73.5157C12.0887 76.894 -0.623775 89.6189 9.29815 106.172C17.5664 120.023 56.0139 153.469 69.8632 148.176Z" fill="#ADADAD"/>
<path opacity="0.5366" d="M68.8297 146.712C88.0534 139.73 138.903 131.96 133.529 115.744C128.258 99.5286 57.6675 70.1374 35.2399 73.2905C12.8122 76.5562 -0.21036 89.1685 9.1948 105.609C17.0497 119.46 54.4636 151.892 68.8297 146.712Z" fill="#A9A9A9"/>
<path opacity="0.561" d="M67.7962 145.361C87.2266 138.829 136.423 130.721 131.359 114.618C126.398 98.5149 58.4944 70.0247 35.86 73.0652C13.3289 76.1056 0.0997005 88.7179 8.98809 105.159C16.4295 118.897 52.8099 150.315 67.7962 145.361Z" fill="#A5A5A5"/>
<path opacity="0.5854" d="M66.7627 143.897C86.3998 137.703 134.046 129.37 129.188 113.38C124.434 97.5017 59.2179 69.9124 36.5835 72.8402C13.9491 75.7681 0.409773 88.2677 8.67804 104.596C15.8094 118.335 51.2596 148.739 66.7627 143.897Z" fill="#A1A1A1"/>
<path opacity="0.6098" d="M65.7291 142.546C85.573 136.802 131.565 128.131 127.018 112.254C122.47 96.4882 59.9413 69.7997 37.3069 72.6149C14.5692 75.3175 0.616463 87.8172 8.47132 104.033C15.2926 117.884 49.7093 147.163 65.7291 142.546Z" fill="#9D9D9D"/>
<path opacity="0.6341" d="M64.6956 141.194C84.8495 135.789 129.085 127.005 124.847 111.24C120.61 95.4746 60.7681 69.7996 37.927 72.3896C15.1893 74.9796 0.926521 87.3667 8.26461 103.47C14.6725 117.321 48.159 145.586 64.6956 141.194Z" fill="#999999"/>
<path opacity="0.6585" d="M63.662 139.73C84.0227 134.663 126.604 125.654 122.677 110.001C118.646 94.3487 61.4916 69.6871 38.6505 72.1646C15.8094 74.5294 1.23658 87.029 8.0579 102.907C14.0524 116.758 46.6087 144.01 63.662 139.73Z" fill="#959595"/>
<path opacity="0.6829" d="M62.5252 138.379C83.0925 133.762 124.124 124.415 120.403 108.875C116.682 93.3351 62.2151 69.5745 39.2706 71.9393C16.3262 74.1915 1.54665 86.5785 7.85121 102.344C13.5356 116.195 45.0584 142.32 62.5252 138.379Z" fill="#919191"/>
<path opacity="0.7073" d="M61.4916 137.028C82.2657 132.748 121.643 123.289 118.233 107.749C114.822 92.3216 62.9386 69.5744 39.9941 71.714C16.9463 73.8536 1.85671 86.128 7.6445 101.781C12.9155 115.744 43.5081 140.744 61.4916 137.028Z" fill="#8D8D8D"/>
<path opacity="0.7317" d="M60.4581 135.564C81.5422 131.622 119.163 121.938 116.062 106.623C112.858 91.308 63.7654 69.4617 40.7176 71.4887C17.5664 73.403 2.16679 85.6775 7.43782 101.218C12.2954 115.181 41.9578 139.054 60.4581 135.564Z" fill="#898989"/>
<path opacity="0.7561" d="M59.4245 134.212C80.7153 130.609 116.786 120.699 113.892 105.497C110.998 90.2945 64.4889 69.3491 41.3377 71.2634C18.1865 73.0652 2.37346 85.227 7.23107 100.655C11.6753 114.618 40.4075 137.365 59.4245 134.212Z" fill="#858585"/>
<path opacity="0.7805" d="M58.391 132.861C79.8885 129.595 114.305 119.573 111.721 104.371C109.034 89.1685 65.3157 69.3492 42.0612 71.0384C18.8067 72.6149 2.68353 84.8894 7.02437 100.092C11.0552 114.055 38.8572 135.789 58.391 132.861Z" fill="#818181"/>
<path opacity="0.8049" d="M57.3575 131.397C79.1651 128.469 111.825 118.222 109.448 103.132C107.07 88.155 66.0392 69.2366 42.6813 70.7005C19.4268 72.277 2.99361 84.4389 6.81769 99.5286C10.4351 113.605 37.3069 134.1 57.3575 131.397Z" fill="#7D7D7D"/>
<path opacity="0.8293" d="M56.324 130.046C78.3382 127.456 109.448 116.983 107.277 102.119C105.21 87.2543 66.7626 69.2367 43.4048 70.5881C20.0469 71.8268 3.20032 83.9886 6.61098 98.9657C9.81493 113.042 35.7566 132.411 56.324 130.046Z" fill="#797979"/>
<path opacity="0.8537" d="M55.1871 128.582C77.5114 126.33 106.864 115.744 105.003 100.88C103.246 86.128 67.5895 69.1239 44.1283 70.25C20.5637 71.4887 3.51037 83.5379 6.40427 98.4024C9.19481 112.479 34.2063 130.721 55.1871 128.582Z" fill="#767676"/>
<path opacity="0.878" d="M54.1535 127.23C76.6845 125.316 104.383 114.506 102.833 99.7537C101.283 85.1144 68.3129 69.0113 44.7484 70.0247C21.1838 71.1508 3.71705 83.0875 6.19754 97.8393C8.57466 112.028 32.656 129.032 54.1535 127.23Z" fill="#727272"/>
<path opacity="0.9024" d="M53.12 125.879C75.9611 124.303 102.006 113.267 100.663 98.6277C99.4223 84.1011 69.0364 68.8988 45.4718 69.7996C21.8039 70.7005 4.02713 82.6372 5.99085 97.2764C7.95456 111.465 31.1057 127.343 53.12 125.879Z" fill="#6E6E6E"/>
<path opacity="0.9268" d="M52.0864 124.415C75.2376 123.177 99.5257 112.028 98.4921 97.5015C97.4586 82.9748 69.8632 68.8986 46.0919 69.5743C22.424 70.3626 4.23382 82.1866 5.78412 96.7132C7.33442 110.902 29.5554 125.654 52.0864 124.415Z" fill="#6A6A6A"/>
<path opacity="0.9512" d="M51.0529 123.064C74.4108 122.163 97.0452 110.79 96.3217 96.3755C95.5983 81.9615 70.5867 68.7862 46.8155 69.3492C23.0442 69.9123 4.54391 81.7363 5.57744 96.1503C6.71433 110.339 28.1085 123.965 51.0529 123.064Z" fill="#666666"/>
<path opacity="0.9756" d="M50.0194 121.713C73.6873 121.15 94.6681 109.551 94.1513 95.2494C93.6345 80.948 71.3102 68.6735 47.4356 69.124C23.5609 69.5744 4.75062 81.3984 5.37074 95.5872C6.09421 109.776 26.5582 122.276 50.0194 121.713Z" fill="#626262"/>
<path d="M48.9859 120.249C72.8605 120.024 92.0842 108.312 91.8775 94.1234C91.6708 79.9346 72.137 68.6736 48.159 68.8988C24.181 69.2367 4.95731 80.9481 5.16402 95.1369C5.37073 109.326 25.0079 120.587 48.9859 120.249Z" fill="#5E5E5E"/>
</g>
<g clip-path="url(#clip0_1023_364)">
<g opacity="0.7">
<path d="M80.0743 128.126C113.554 127.819 136.59 111.887 136.437 97.4866C136.13 83.0862 108.947 71.7497 75.467 72.0561C41.9874 72.5157 12.808 86.4565 13.1151 100.857C13.4223 115.257 46.5947 128.585 80.0743 128.126Z" fill="#5E5E5E"/>
</g>
<g opacity="0.5">
<path d="M71.4741 129.351C107.104 129.045 135.669 113.113 135.362 93.6567C135.055 74.354 105.875 59.0344 70.399 59.3408C34.7693 59.8004 6.0506 75.7328 6.35776 95.0354C6.81849 114.338 35.8444 129.658 71.4741 129.351Z" fill="#5E5E5E"/>
</g>
<path d="M140.583 45.0936C140.583 45.2468 140.583 45.4 140.583 45.5532C140.583 45.7064 140.583 45.8596 140.583 46.0128C140.583 46.166 140.583 46.3192 140.583 46.4724C140.583 46.6256 140.583 46.7788 140.583 46.932C140.583 47.0852 140.583 47.2384 140.583 47.3915C140.583 47.5447 140.583 47.6979 140.583 47.8511C140.583 48.0043 140.583 48.1575 140.43 48.3107C140.43 48.4639 140.43 48.6171 140.276 48.7703C140.276 48.9235 140.123 49.0767 140.123 49.2299C140.123 49.3831 140.123 49.5363 139.969 49.6895C139.969 49.8427 139.815 49.9959 139.815 50.1491C139.815 50.3023 139.815 50.4555 139.662 50.6087C139.662 50.7619 139.508 50.915 139.508 51.2214C139.508 51.3746 139.355 51.5278 139.355 51.681C139.201 51.8342 139.201 52.1406 139.048 52.2938C139.048 52.447 139.048 52.447 138.894 52.6002C138.74 52.9066 138.74 53.213 138.587 53.3662V53.5194C138.433 53.8258 138.28 54.1322 138.126 54.4386C138.126 54.5918 137.973 54.7449 137.973 54.8981C137.819 55.0513 137.819 55.2045 137.665 55.5109C137.665 55.6641 137.512 55.8173 137.512 55.9705C137.358 56.1237 137.358 56.4301 137.205 56.5833C137.205 56.7365 137.051 56.7365 137.051 56.8897C136.898 57.1961 136.744 57.3493 136.59 57.5025C136.59 57.6557 136.437 57.8089 136.283 57.8089C136.13 57.9621 135.976 58.2684 135.822 58.4216C135.976 58.728 135.822 58.728 135.669 58.8812C135.515 59.0344 135.362 59.3408 135.208 59.494C135.055 59.6472 135.055 59.8004 134.901 59.9536C134.747 60.1068 134.594 60.4132 134.44 60.5664C134.287 60.7196 134.287 60.8728 134.133 60.8728C133.826 61.1792 133.519 61.6388 133.212 61.9451L133.058 62.0983C132.751 62.4047 132.597 62.7111 132.29 63.0175C132.137 63.1707 132.137 63.1707 131.983 63.3239C131.676 63.6303 131.522 63.7835 131.215 64.0899C131.062 64.2431 131.062 64.2431 130.908 64.3963C130.601 64.7027 130.294 65.0091 129.833 65.4687C129.679 65.6218 129.526 65.775 129.372 65.9282C129.219 66.0814 129.065 66.2346 128.912 66.3878C128.758 66.541 128.604 66.6942 128.451 66.8474C128.297 67.0006 128.144 67.1538 127.99 67.307C127.837 67.4602 127.683 67.6134 127.529 67.7666C127.376 67.9198 127.222 68.073 127.069 68.2262C126.915 68.3794 126.761 68.5326 126.454 68.6858C126.301 68.839 126.147 68.9922 125.994 68.9922C125.84 69.1454 125.533 69.2985 125.379 69.4517C125.226 69.6049 125.072 69.6049 124.919 69.7581C124.765 69.9113 124.458 70.0645 124.304 70.2177C124.151 70.3709 123.997 70.3709 123.844 70.5241C123.536 70.6773 123.383 70.8305 123.076 70.9837C122.922 71.1369 122.769 71.1369 122.615 71.2901C122.308 71.4433 122.154 71.5965 121.847 71.7497C121.693 71.9029 121.54 71.9029 121.386 72.0561C121.079 72.2093 120.618 72.5157 120.311 72.6689C119.543 73.1284 118.776 73.588 118.008 73.8944C117.854 74.0476 117.547 74.0476 117.393 74.2008C116.625 74.5072 116.011 74.9668 115.243 75.2732C115.243 75.2732 115.09 75.2732 115.09 75.4264C114.322 75.7328 113.4 76.1924 112.632 76.4987C112.479 76.6519 112.172 76.6519 112.018 76.8051C111.25 77.1115 110.636 77.4179 109.868 77.7243C109.715 77.7243 109.561 77.8775 109.407 77.8775C108.486 78.1839 107.718 78.4903 106.797 78.7967C106.643 78.7967 106.489 78.9499 106.336 78.9499C105.722 79.1031 105.107 79.4095 104.493 79.5627C104.032 79.7159 103.418 79.8691 102.957 80.0223C102.496 80.1754 102.036 80.3286 101.421 80.4818C100.807 80.635 100.346 80.7882 99.7321 80.9414C99.2713 81.0946 98.8106 81.2478 98.1963 81.2478C97.582 81.401 96.9677 81.5542 96.507 81.7074C96.0462 81.8606 95.5855 81.8606 94.9712 82.0138C94.3569 82.167 93.7426 82.3202 93.1283 82.3202C92.514 82.4734 92.0533 82.4734 91.439 82.6266C91.2854 82.6266 90.9782 82.6266 90.8247 82.7798C89.9032 82.933 89.1353 83.0862 88.2139 83.2394C88.0603 83.2394 87.9067 83.2394 87.9067 83.2394C86.9853 83.3926 86.0638 83.5458 84.9888 83.5458C84.6816 83.5458 84.3745 83.5458 84.2209 83.6989C83.6066 83.6989 83.1459 83.8521 82.5315 83.8521C81.7637 83.8521 80.9958 84.0053 80.2279 84.0053C79.7672 84.0053 79.3064 84.0053 78.8457 84.1585C78.0778 84.1585 77.31 84.3117 76.5421 84.3117C76.0813 84.3117 75.6206 84.3117 75.1599 84.3117C74.5456 84.3117 73.9313 84.3117 73.1634 84.3117C72.7027 84.3117 72.2419 84.3117 71.6276 84.3117C70.8597 84.3117 70.0919 84.3117 69.4776 84.3117C69.0168 84.3117 68.7097 84.3117 68.249 84.3117C67.4811 84.3117 66.8668 84.3117 66.2525 84.1585C65.7917 84.1585 65.331 84.1585 65.0239 84.1585C64.256 84.1585 63.6417 84.0053 62.8738 84.0053C62.4131 84.0053 62.1059 84.0053 61.6452 83.8521C60.7237 83.699 59.8023 83.699 58.7272 83.5458C58.5737 83.5458 58.4201 83.5458 58.2665 83.5458C57.1915 83.3926 56.1164 83.2394 54.8878 83.0862C54.7343 83.0862 54.7343 83.0862 54.5807 83.0862C53.5056 82.933 52.5842 82.7798 51.5092 82.6266C51.202 82.6266 50.7413 82.4734 50.4341 82.4734C49.6662 82.3202 48.8984 82.167 48.2841 82.0138C47.9769 82.0138 47.5162 81.8606 47.209 81.7074C46.4411 81.5542 45.6733 81.401 44.9054 81.2478C44.4447 81.0946 44.1375 81.0946 43.6768 80.9414C42.9089 80.7882 42.2946 80.635 41.5267 80.3286C40.9124 80.1754 40.2981 80.0223 39.8374 79.8691C39.5302 79.8691 39.3766 79.7159 39.0695 79.7159C38.148 79.4095 37.2266 79.1031 36.4587 78.7967C36.3051 78.7967 36.1515 78.6435 35.998 78.6435C35.2301 78.3371 34.4622 78.1839 33.8479 77.8775C33.6943 77.7243 33.3872 77.7243 33.2336 77.5711C32.6193 77.4179 32.005 77.1115 31.5443 76.8051C31.2371 76.6519 30.7764 76.4987 30.4692 76.3456C29.8549 76.0392 29.3942 75.886 28.7799 75.5796C28.4727 75.4264 28.1656 75.2732 27.7048 75.12C27.0905 74.8136 26.4762 74.5072 26.0155 74.2008C25.7084 74.0476 25.4012 73.8944 25.2476 73.7412C24.4797 73.2816 23.5583 72.8221 22.7904 72.3625C9.12213 64.3963 2.36478 54.1322 2.36478 43.868C2.36478 43.868 2.67193 93.8099 2.97908 94.729C2.97908 94.729 2.97908 94.729 2.97908 94.8822C3.13266 95.495 3.28623 96.1078 3.43981 96.7206C3.59339 97.3334 3.90054 97.9462 4.05411 98.5589V98.7121C4.51484 99.7845 4.97557 100.857 5.58988 102.082C5.58988 102.082 5.58988 102.082 5.58988 102.236C5.89703 102.695 6.20418 103.308 6.66491 103.921C6.66491 104.074 6.81849 104.227 6.81849 104.227C7.27921 104.84 7.58637 105.453 8.0471 106.066C8.35425 106.372 8.6614 106.832 8.96855 107.291C9.27571 107.597 9.58286 107.904 9.73643 108.363C10.1972 108.823 10.6579 109.436 11.2722 110.049L11.4258 110.202C11.7329 110.508 12.0401 110.815 12.3472 111.121C29.7013 127.819 62.1059 133.181 86.3709 129.504C91.1318 128.892 93.7426 128.279 96.3534 127.666C97.7356 127.36 101.421 126.441 105.875 124.909C105.875 124.909 105.875 124.909 106.029 124.909C107.257 124.449 108.639 123.989 109.868 123.377C115.09 121.232 119.697 118.781 123.69 115.87C123.844 115.717 123.997 115.717 124.151 115.564C124.304 115.41 124.458 115.257 124.611 115.257C124.611 115.257 124.611 115.257 124.765 115.104C125.533 114.491 126.301 113.879 127.222 113.113C127.376 113.113 127.376 112.959 127.376 112.959L127.529 112.806C128.297 112.193 129.065 111.427 129.833 110.661C130.908 109.589 132.444 108.057 133.365 106.678C133.826 106.066 134.44 105.146 134.901 104.534L135.362 103.768L135.515 103.614C135.976 102.848 136.59 101.929 136.898 101.163C137.051 100.857 137.205 100.704 137.205 100.397V100.244C137.358 99.7845 137.512 99.4781 137.665 99.0185L137.819 98.7121V98.5589C138.126 97.793 138.433 96.7206 138.74 95.9546C138.894 95.3418 139.048 94.729 139.201 94.1163V93.9631C139.201 93.9631 139.201 93.9631 139.201 93.8099C139.201 93.5035 139.355 93.1971 139.355 92.8907V92.7375C139.355 92.5843 139.662 56.4301 139.815 44.0212C140.583 44.4808 140.583 44.7872 140.583 45.0936Z" fill="url(#paint0_linear_1023_364)"/>
<path d="M140.583 43.4084C140.583 43.5616 140.583 43.7148 140.583 43.868C140.583 44.0212 140.583 44.1744 140.583 44.3276C140.583 44.4808 140.583 44.634 140.583 44.7872C140.583 44.9404 140.583 45.0936 140.583 45.2468C140.583 45.4 140.583 45.5532 140.583 45.7064C140.583 45.8596 140.583 46.0128 140.583 46.166C140.583 46.3191 140.583 46.4723 140.43 46.7787C140.43 46.9319 140.43 47.0851 140.276 47.2383C140.276 47.3915 140.123 47.5447 140.123 47.6979C140.123 47.8511 140.123 48.0043 139.969 48.1575C139.969 48.3107 139.815 48.4639 139.815 48.6171C139.815 48.7703 139.815 48.9235 139.662 49.0767C139.662 49.2299 139.508 49.3831 139.508 49.6895C139.508 49.8426 139.355 49.9958 139.355 50.149C139.201 50.3022 139.201 50.6086 139.048 50.7618C139.048 50.915 139.048 50.915 138.894 51.0682C138.74 51.3746 138.74 51.681 138.587 51.8342V51.9874C138.433 52.2938 138.28 52.6002 138.126 52.9066C138.126 53.0598 137.973 53.213 137.973 53.3662C137.819 53.5194 137.819 53.6725 137.665 53.9789C137.665 54.1321 137.512 54.2853 137.512 54.4385C137.358 54.5917 137.358 54.7449 137.205 55.0513C137.205 55.2045 137.051 55.2045 137.051 55.3577C136.898 55.5109 136.744 55.8173 136.59 55.9705C136.59 56.1237 136.437 56.2769 136.283 56.2769C136.13 56.4301 135.976 56.7365 135.822 56.8897C135.669 57.0429 135.669 57.196 135.515 57.3492C135.362 57.5024 135.208 57.8088 135.055 57.962C134.901 58.1152 134.901 58.2684 134.747 58.2684C134.594 58.4216 134.44 58.728 134.287 58.8812C134.133 59.0344 134.133 59.1876 133.98 59.1876C133.672 59.494 133.365 59.9536 133.058 60.26L132.905 60.4132C132.597 60.7196 132.444 61.0259 132.137 61.3323C131.983 61.4855 131.983 61.4855 131.829 61.6387C131.522 61.9451 131.369 62.0983 131.062 62.4047C130.908 62.5579 130.908 62.5579 130.754 62.7111C130.447 63.0175 130.14 63.3239 129.679 63.7835C129.526 63.9367 129.372 64.0899 129.219 64.2431C129.065 64.3962 128.912 64.5494 128.758 64.7026C128.604 64.8558 128.451 65.009 128.297 65.1622C128.144 65.3154 127.99 65.4686 127.837 65.6218C127.683 65.775 127.529 65.9282 127.376 66.0814C127.222 66.2346 127.069 66.3878 126.915 66.541C126.761 66.6942 126.608 66.8474 126.301 67.0006C126.147 67.1538 125.994 67.307 125.84 67.307C125.686 67.4602 125.379 67.6134 125.226 67.7666C125.072 67.9198 124.919 67.9198 124.765 68.073C124.611 68.2261 124.304 68.3793 124.151 68.5325C123.997 68.6857 123.844 68.6857 123.69 68.8389C123.383 68.9921 123.229 69.1453 122.922 69.2985C122.769 69.4517 122.615 69.4517 122.461 69.6049C122.154 69.7581 122.001 69.9113 121.693 70.0645C121.54 70.2177 121.386 70.2177 121.233 70.3709C120.926 70.5241 120.465 70.8305 120.158 70.9837C119.39 71.4433 118.622 71.9028 117.854 72.2092C117.7 72.3624 117.393 72.3624 117.24 72.5156C116.472 72.822 115.858 73.2816 115.09 73.588C115.09 73.588 114.936 73.588 114.936 73.7412C114.168 74.2008 113.247 74.5072 112.479 74.8136C112.325 74.9668 112.018 74.9668 111.865 75.12C111.097 75.4264 110.482 75.7327 109.715 76.0391C109.561 76.0391 109.407 76.1923 109.254 76.1923C108.332 76.4987 107.564 76.8051 106.643 77.1115C106.489 77.1115 106.336 77.2647 106.182 77.2647C105.568 77.4179 104.954 77.7243 104.339 77.8775C103.879 78.0307 103.264 78.1839 102.804 78.3371C102.343 78.4903 101.882 78.6435 101.268 78.7967C100.654 78.9499 100.193 79.1031 99.5785 79.2562C99.1178 79.4094 98.657 79.5626 98.0427 79.5626C97.4284 79.7158 96.8141 79.869 96.3534 80.0222C95.8927 80.1754 95.4319 80.1754 94.8176 80.3286C94.2033 80.4818 93.589 80.635 92.9747 80.635C92.3604 80.7882 91.8997 80.7882 91.2854 80.9414C91.1318 80.9414 90.8247 80.9414 90.6711 81.0946C89.7496 81.2478 88.9817 81.401 88.0603 81.5542C87.9067 81.5542 87.7531 81.5542 87.7531 81.5542C86.8317 81.7074 85.9102 81.8606 84.8352 81.8606C84.528 81.8606 84.2209 81.8606 84.0673 82.0138C83.453 82.0138 82.9923 82.167 82.378 82.167C81.6101 82.167 80.8422 82.3202 80.0743 82.3202C79.6136 82.3202 79.1529 82.3202 78.6921 82.4734C77.9243 82.4734 77.1564 82.6266 76.3885 82.6266C75.9278 82.6266 75.467 82.6266 75.0063 82.6266C74.392 82.6266 73.7777 82.6266 73.0098 82.6266C72.5491 82.6266 72.0884 82.6266 71.4741 82.6266C70.7062 82.6266 69.9383 82.6266 69.324 82.6266C68.8633 82.6266 68.5561 82.6266 68.0954 82.6266C67.3275 82.6266 66.7132 82.6266 66.0989 82.4734C65.6382 82.4734 65.1774 82.4734 64.8703 82.4734C64.1024 82.4734 63.4881 82.3202 62.7202 82.3202C62.2595 82.3202 61.9523 82.3202 61.4916 82.167C60.5701 82.0138 59.6487 82.0138 58.5737 81.8606C58.4201 81.8606 58.2665 81.8606 58.1129 81.8606C57.0379 81.7074 55.9629 81.5542 54.7343 81.401C54.5807 81.401 54.5807 81.401 54.4271 81.401C53.3521 81.2478 52.4306 81.0946 51.3556 80.9414C51.0484 80.9414 50.5877 80.7882 50.2805 80.7882C49.5127 80.635 48.7448 80.4818 48.1305 80.3286C47.8233 80.3286 47.3626 80.1754 47.0554 80.0222C46.2876 79.869 45.5197 79.7158 44.7518 79.5626C44.2911 79.4094 43.9839 79.4094 43.5232 79.2562C42.7553 79.1031 42.141 78.9499 41.3731 78.6435C40.7588 78.4903 40.1445 78.3371 39.6838 78.1839C39.3766 78.1839 39.2231 78.0307 38.9159 78.0307C37.9944 77.7243 37.073 77.4179 36.3051 77.1115C36.1515 77.1115 35.998 76.9583 35.8444 76.9583C35.0765 76.6519 34.3086 76.4987 33.6943 76.1923C33.5407 76.0391 33.2336 76.0391 33.08 75.8859C32.4657 75.5795 31.8514 75.4264 31.3907 75.12C31.0835 74.9668 30.6228 74.8136 30.3156 74.6604C29.7013 74.354 29.2406 74.2008 28.6263 73.8944C28.3192 73.7412 28.012 73.588 27.5513 73.4348C26.937 73.1284 26.3227 72.822 25.8619 72.5156C25.5548 72.3624 25.2476 72.2092 25.0941 72.056C24.3262 71.5965 23.4047 71.1369 22.6368 70.6773C9.12213 62.7111 2.36478 52.447 2.36478 42.1829C2.36478 42.1829 2.67193 92.1247 2.97908 93.0439C2.97908 93.0439 2.97908 93.0439 2.97908 93.1971C3.13266 93.8098 3.28623 94.4226 3.43981 95.0354V95.1886C3.74696 95.8014 3.90054 96.4142 4.20769 97.027V97.1802C4.66842 98.2525 5.12915 99.3249 5.74345 100.55C6.05061 101.01 6.35776 101.623 6.81849 102.236C6.81849 102.389 6.97206 102.542 6.97206 102.542C7.43279 103.155 7.73994 103.768 8.20067 104.38C8.50782 104.687 8.81498 105.146 9.12213 105.606C9.42928 105.912 9.73643 106.219 9.89001 106.525C10.3507 106.985 10.8115 107.597 11.4258 108.21L11.5793 108.363C11.8865 108.67 12.1937 108.976 12.5008 109.283C29.8549 125.981 62.2595 131.343 86.5245 127.666C91.2854 127.053 93.8962 126.441 96.507 125.828C97.8892 125.521 101.575 124.602 106.029 123.07C106.029 123.07 106.029 123.07 106.182 123.07C107.411 122.611 108.793 122.151 110.022 121.538C115.243 119.394 119.851 116.942 123.844 114.032C123.997 113.878 124.151 113.879 124.304 113.725C124.458 113.572 124.611 113.419 124.765 113.419C124.765 113.419 124.765 113.419 124.919 113.266C125.686 112.653 126.454 112.04 127.376 111.274C127.529 111.274 127.529 111.121 127.529 111.121L127.683 110.968C128.451 110.355 129.219 109.589 129.987 108.823C131.062 107.751 132.597 106.219 133.519 104.84C133.98 104.227 134.594 103.308 135.055 102.695L135.515 101.929L135.669 101.776C136.13 101.01 136.744 100.091 137.051 99.3249C137.205 99.0185 137.358 98.8653 137.358 98.5589V98.4057C137.512 97.9461 137.665 97.6397 137.819 97.1802L137.973 96.8738V96.7206C138.28 95.9546 138.587 94.8822 138.894 94.1162C139.662 93.963 140.583 54.8981 140.583 42.6424C140.583 42.7956 140.583 43.102 140.583 43.4084Z" fill="#FAC700"/>
<path d="M140.583 46.166C140.583 46.0128 140.583 45.7064 140.583 45.5532C140.583 45.7064 140.583 45.8596 140.583 45.8596C140.583 45.7064 140.583 45.5532 140.583 45.4V45.2468C140.583 45.2468 140.583 45.2468 140.583 45.4C140.583 44.7872 140.583 44.1744 140.43 43.4084C140.43 42.9488 140.43 42.6424 140.276 42.3361C140.276 42.1829 140.276 42.0297 140.276 41.8765C140.276 41.5701 140.276 41.4169 140.123 41.1105V41.5701C139.815 40.0381 139.662 39.4253 139.201 37.8934V37.7402V37.587C139.201 37.4338 139.048 37.2806 139.048 37.1274C138.74 36.2082 138.28 35.1359 137.665 33.9103C137.512 33.7571 137.512 33.6039 137.358 33.2975C137.358 33.1443 137.205 32.9911 137.205 32.9911C137.051 32.6847 136.898 32.3783 136.744 32.0719C136.744 31.9187 136.59 31.7655 136.59 31.7655V31.6124V31.4592C136.59 31.306 136.437 31.1528 136.437 30.9996C136.437 30.9996 136.437 30.8464 136.283 30.8464C136.13 30.54 135.976 30.2336 135.669 29.9272L135.515 29.774C135.362 29.6208 135.362 29.4676 135.208 29.3144L135.055 29.1612C134.901 28.8548 134.594 28.5484 134.287 28.242L134.133 28.0888C133.98 27.9357 133.826 27.7825 133.672 27.4761C133.058 26.7101 132.444 25.9441 131.829 25.3313L131.676 25.1781L131.522 25.0249C130.908 24.259 130.14 23.6462 129.526 23.0334C129.526 23.0334 129.526 23.0334 129.372 22.8802C128.912 22.4206 128.451 21.961 127.99 21.6546C127.683 21.3482 127.376 21.0418 126.915 20.7354C125.686 19.6631 124.611 18.8971 122.154 17.2119C121.847 16.9056 121.386 16.5992 120.926 16.446L120.772 16.2928L119.236 15.3736L119.083 15.2204C118.622 14.914 118.161 14.7608 117.7 14.4544C112.94 12.0033 107.257 9.85855 101.268 8.1734C99.7321 7.71381 98.657 7.40742 96.507 6.94783C91.1318 5.56907 86.6781 5.10948 86.6781 5.10948C86.3709 5.10948 86.2174 5.10948 85.9102 4.95628C84.6816 4.80309 83.453 4.64989 82.0708 4.4967C80.2279 4.3435 78.8457 4.19031 76.3885 4.03711C75.7742 4.03711 75.1599 4.03711 74.392 4.03711C74.5456 4.03711 74.6992 4.03711 74.6992 4.03711C74.2384 4.03711 73.6241 4.03711 73.317 4.03711C73.0098 4.03711 72.8562 4.03711 72.5491 4.03711C72.2419 4.03711 71.9348 4.03711 71.6276 4.03711C71.4741 4.03711 71.1669 4.03711 71.0133 4.03711C70.7062 4.03711 70.2455 4.03711 69.9383 4.03711C69.7847 4.03711 69.4776 4.03711 69.324 4.03711C69.1704 4.03711 69.1704 4.03711 69.0168 4.03711C67.0204 4.03711 65.0239 4.19031 63.0274 4.3435C56.8843 4.64989 51.3556 5.56907 46.2876 6.79463C44.4447 7.25422 42.7553 7.71381 41.066 8.1734C39.3766 8.63298 38.3016 8.93937 36.1515 9.70535C33.5407 10.6245 31.5443 11.5437 29.7013 12.3097C27.8584 13.0757 26.1691 13.9948 24.4797 14.914C24.1726 15.0672 24.019 15.2204 23.7119 15.3736C23.2511 15.68 22.6368 15.9864 22.1761 16.2928C22.1761 16.2928 22.0225 16.2928 22.0225 16.446C21.869 16.5992 21.7154 16.5992 21.5618 16.7524C20.4868 17.3651 19.7189 17.9779 18.951 18.4375C18.7974 18.5907 18.6439 18.7439 18.3367 18.7439C17.5688 19.2035 16.8009 19.9695 15.8795 20.5823C15.7259 20.7355 15.5723 20.7355 15.4188 20.8886L14.4973 21.961C14.0366 22.4206 13.5758 22.8802 13.1151 23.1866C10.5043 25.4845 7.43279 29.008 5.28272 33.6039C5.12915 34.0635 4.822 34.5231 4.66842 34.9827C4.66842 34.9827 3.59339 37.4338 2.97908 40.1913C2.82551 41.2637 2.51835 42.6424 2.51835 43.7148C2.51835 44.3276 2.51835 45.0936 2.36478 45.7064C2.36478 55.9705 9.12213 66.3878 22.7904 74.2008C23.4047 74.5072 24.019 74.8136 24.6333 75.12C24.6333 75.12 24.7869 75.12 24.7869 75.2731C24.7869 75.2731 24.9405 75.2732 24.9405 75.4263H25.0941C25.0941 75.4263 25.2476 75.4263 25.2476 75.5795C25.2476 75.5795 25.2476 75.5795 25.4012 75.5795C25.4012 75.5795 25.5548 75.5795 25.5548 75.7327H25.7084C25.7084 75.7327 25.8619 75.7327 25.8619 75.8859C26.0155 75.8859 26.0155 76.0391 26.1691 76.0391C26.3227 76.0391 26.3227 76.1923 26.4762 76.1923C26.6298 76.1923 26.7834 76.3455 26.7834 76.3455C26.937 76.3455 26.937 76.4987 27.0905 76.4987C27.2441 76.4987 27.2441 76.6519 27.3977 76.6519C27.5513 76.6519 27.5513 76.8051 27.7048 76.8051C27.7048 76.8051 27.8584 76.8051 27.8584 76.9583C27.8584 76.9583 28.012 76.9583 28.012 77.1115H28.1656H28.3192H28.4727C28.6263 77.1115 28.6263 77.2647 28.7799 77.2647C28.9335 77.2647 29.087 77.4179 29.2406 77.4179C29.3942 77.4179 29.5478 77.5711 29.5478 77.5711C29.7013 77.5711 29.8549 77.7243 30.0085 77.7243C30.0085 77.7243 30.0085 77.7243 30.1621 77.7243C30.3156 77.7243 30.3156 77.8775 30.4692 77.8775C30.6228 77.8775 30.7764 78.0307 30.9299 78.0307C31.0835 78.0307 31.0835 78.0307 31.2371 78.1839C31.2371 78.1839 31.2371 78.1839 31.3907 78.1839C31.3907 78.1839 31.3907 78.1839 31.5443 78.1839H31.6978C31.8514 78.1839 31.8514 78.3371 32.005 78.3371C32.1586 78.3371 32.3121 78.4903 32.4657 78.4903C32.4657 78.4903 32.6193 78.4903 32.6193 78.6435C32.7729 78.6435 32.9264 78.7967 33.08 78.7967C33.2336 78.7967 33.3872 78.9499 33.5407 78.9499C33.5407 78.9499 33.5407 78.9499 33.6943 78.9499H33.8479C34.0015 78.9499 34.0015 78.9499 34.155 79.103C34.3086 79.103 34.3086 79.1031 34.4622 79.2562C34.6158 79.2562 34.7694 79.4094 34.9229 79.4094C35.0765 79.4094 35.0765 79.4094 35.2301 79.5626C35.3837 79.5626 35.5372 79.7158 35.6908 79.7158C35.8444 79.7158 35.8444 79.7158 35.998 79.869C35.998 79.869 35.998 79.869 36.1515 79.869H36.3051H36.4587C36.6123 79.869 36.7658 80.0222 36.9194 80.0222C37.073 80.0222 37.2266 80.1754 37.3801 80.1754C37.5337 80.1754 37.6873 80.3286 37.6873 80.3286C37.8409 80.3286 37.8409 80.3286 37.9945 80.4818C38.148 80.4818 38.148 80.4818 38.3016 80.635H38.4552H38.6088C38.7623 80.635 38.9159 80.7882 39.0695 80.7882C39.2231 80.7882 39.3766 80.9414 39.5302 80.9414H39.6838C39.8374 80.9414 39.8374 80.9414 39.9909 81.0946C40.1445 81.0946 40.2981 81.2478 40.4517 81.2478C40.6052 81.2478 40.6052 81.2478 40.7588 81.2478H40.9124H41.066C41.2196 81.2478 41.2196 81.2478 41.3731 81.2478C41.5267 81.2478 41.8339 81.401 41.9874 81.401H42.141H42.2946C42.4482 81.401 42.6017 81.401 42.6017 81.5542C42.9089 81.5542 43.0625 81.7074 43.3696 81.7074C43.5232 81.7074 43.5232 81.7074 43.6768 81.7074C43.8303 81.7074 43.9839 81.7074 44.1375 81.8606C44.2911 81.8606 44.2911 81.8606 44.4446 81.8606H44.5982C44.7518 81.8606 44.7518 81.8606 44.9054 81.8606C45.059 81.8606 45.3661 82.0138 45.5197 82.0138C45.6733 82.0138 45.8268 82.0138 45.8268 82.167C45.9804 82.167 45.9804 82.167 46.134 82.167H46.2876C46.4411 82.167 46.5947 82.167 46.5947 82.3202C46.7483 82.3202 46.7483 82.3202 46.9019 82.3202H47.0554C47.209 82.3202 47.3626 82.3202 47.5162 82.4734C47.6698 82.4734 47.6698 82.4734 47.8233 82.4734H47.9769C48.1305 82.4734 48.2841 82.4734 48.2841 82.6265C48.2841 82.6265 48.2841 82.6265 48.4376 82.6265H48.5912C48.5912 82.6265 48.7448 82.6265 48.8984 82.6265C49.0519 82.6265 49.2055 82.6265 49.2055 82.6265C49.3591 82.6265 49.3591 82.6265 49.5127 82.6265C49.6662 82.6265 49.9734 82.6265 50.127 82.7797C50.2805 82.7797 50.4341 82.7797 50.5877 82.9329H50.7413H50.8949C51.0484 82.9329 51.0484 82.9329 51.202 82.9329C51.3556 82.9329 51.3556 82.9329 51.5092 82.9329C51.6627 82.9329 51.8163 82.9329 51.9699 82.9329C52.277 82.9329 52.4306 83.0861 52.7378 83.0861H52.8913C53.0449 83.0861 53.1985 83.0861 53.1985 83.0861C53.3521 83.0861 53.5056 83.0861 53.8128 83.2393C53.9664 83.2393 53.9664 83.2393 54.12 83.2393H54.2735C54.4271 83.2393 54.5807 83.2393 54.7343 83.2393C54.8878 83.2393 54.8878 83.2393 55.0414 83.2393C55.195 83.2393 55.5021 83.2393 55.6557 83.3925C55.8093 83.3925 55.8093 83.3925 55.9629 83.3925C56.1164 83.3925 56.27 83.3925 56.5772 83.3925C56.7307 83.3925 57.0379 83.3925 57.1915 83.3925C57.3451 83.3925 57.4986 83.3925 57.4986 83.3925H57.6522C57.8058 83.3925 57.8058 83.3925 57.9594 83.3925C58.1129 83.3925 58.2665 83.3925 58.4201 83.3925C58.5737 83.3925 58.7272 83.3925 58.8808 83.3925C59.0344 83.3925 59.188 83.3925 59.188 83.3925C59.3415 83.3925 59.4951 83.3925 59.6487 83.3925C59.9558 83.3925 60.4166 83.3925 60.7237 83.5457C60.8773 83.5457 61.0309 83.5457 61.1845 83.5457H61.338C61.4916 83.5457 61.4916 83.5457 61.6452 83.5457C61.7988 83.5457 61.9523 83.5457 62.1059 83.5457C62.2595 83.5457 62.4131 83.5457 62.5666 83.5457C62.7202 83.5457 62.8738 83.5457 63.1809 83.5457C63.6417 83.5457 64.1024 83.5457 64.5631 83.6989C64.7167 83.6989 64.7167 83.6989 64.8703 83.6989H65.0239C65.1774 83.6989 65.4846 83.6989 65.6382 83.6989C65.9453 83.6989 66.406 83.6989 66.7132 83.6989C66.7132 83.6989 66.7132 83.6989 66.8668 83.6989C67.0203 83.6989 67.1739 83.6989 67.3275 83.6989C67.4811 83.6989 67.6347 83.6989 67.7882 83.6989C67.9418 83.6989 67.9418 83.6989 68.0954 83.6989H68.249C68.4025 83.6989 68.4025 83.6989 68.5561 83.6989C69.0168 83.6989 69.4776 83.6989 69.9383 83.6989C70.2455 83.6989 70.399 83.6989 70.7062 83.6989C70.8598 83.6989 70.8598 83.6989 71.0133 83.6989C71.1669 83.6989 71.1669 83.6989 71.3205 83.6989C71.4741 83.6989 71.4741 83.6989 71.6276 83.6989C71.7812 83.6989 71.9348 83.6989 72.0884 83.6989C72.2419 83.6989 72.3955 83.6989 72.5491 83.6989C72.8562 83.6989 73.0098 83.6989 73.317 83.6989C73.6241 83.6989 73.9313 83.6989 74.0849 83.6989C74.2384 83.6989 74.392 83.6989 74.6992 83.6989C74.8527 83.6989 74.8527 83.6989 75.0063 83.6989C75.1599 83.6989 75.3135 83.6989 75.6206 83.6989H75.7742C76.2349 83.6989 76.6956 83.6989 77.1564 83.6989C77.31 83.6989 77.6171 83.6989 77.7707 83.6989C77.9243 83.6989 78.0778 83.6989 78.2314 83.6989C78.385 83.6989 78.385 83.6989 78.5386 83.6989C78.6921 83.6989 78.8457 83.6989 78.9993 83.6989C79.46 83.6989 80.0743 83.6989 80.5351 83.5457C80.6886 83.5457 80.8422 83.5457 80.8422 83.5457C80.9958 83.5457 81.3029 83.5457 81.4565 83.5457C81.7637 83.5457 82.0708 83.5457 82.378 83.3925C82.5315 83.3925 82.8387 83.3925 82.9923 83.3925C83.1459 83.3925 83.453 83.3925 83.6066 83.3925C83.7602 83.3925 83.9137 83.3925 84.0673 83.3925C84.528 83.3925 84.9888 83.2393 85.6031 83.2393C85.9102 83.2393 86.2174 83.0861 86.5245 83.0861C86.6781 83.0861 86.8317 83.0861 86.9853 83.0861C87.1388 83.0861 87.2924 83.0861 87.446 82.9329C87.7531 82.9329 88.0603 82.7797 88.3674 82.7797C88.521 82.7797 88.8282 82.7797 88.9817 82.6265C89.2889 82.6265 89.596 82.4734 89.9032 82.4734C90.2104 82.4734 90.5175 82.3202 90.6711 82.3202C90.8247 82.3202 91.1318 82.3202 91.2854 82.167C91.7461 82.0138 92.3604 82.0138 92.8212 81.8606C93.1283 81.8606 93.4354 81.7074 93.8962 81.7074C94.6641 81.5542 95.5855 81.401 96.3534 81.2478C96.507 81.2478 96.6606 81.2478 96.8141 81.0946C97.7356 80.9414 98.8106 80.635 99.7321 80.3286C99.8857 80.3286 100.193 80.1754 100.346 80.1754C101.114 80.0222 101.729 79.7158 102.496 79.5626C102.804 79.4094 103.111 79.4094 103.418 79.2562C103.725 79.1031 104.186 79.1031 104.493 78.9499C104.339 78.9499 104.186 78.9499 104.186 79.103C105.414 78.6435 106.643 78.3371 108.025 77.8775C117.547 74.5072 125.84 69.7581 131.522 63.3239C131.522 63.3239 131.522 63.3239 131.522 63.1707C131.676 63.0175 131.676 63.0175 131.829 62.8643C131.983 62.7111 131.983 62.7111 132.137 62.5579L132.29 62.4047C132.444 62.2515 132.597 62.0983 132.751 61.7919C132.905 61.6387 132.905 61.6387 133.058 61.4855C133.212 61.3323 133.365 61.0259 133.672 60.8727L133.826 60.7196C133.826 60.5664 133.98 60.5664 133.98 60.4132C134.133 60.26 134.133 60.26 134.287 60.1068C134.44 59.9536 134.44 59.8004 134.594 59.6472C134.747 59.494 134.747 59.494 134.901 59.3408C134.901 59.3408 134.901 59.1876 135.055 59.1876C135.055 59.1876 135.055 59.1876 135.208 59.0344C135.362 58.8812 135.362 58.728 135.515 58.728C135.669 58.5748 135.669 58.4216 135.822 58.2684C135.822 58.2684 135.822 58.1152 135.976 58.1152C135.976 58.1152 135.976 58.1152 135.976 57.962L136.13 57.8088C136.13 57.6556 136.283 57.6556 136.283 57.5024C136.283 57.5024 136.283 57.3492 136.437 57.3492C136.59 57.196 136.59 57.0429 136.744 56.8897C136.744 56.7365 136.898 56.5833 136.898 56.4301C136.898 56.2769 137.051 56.1237 137.051 55.9705C137.051 55.9705 137.051 55.8173 137.205 55.8173V55.6641C137.205 55.6641 137.205 55.5109 137.358 55.5109V55.3577C137.358 55.2045 137.512 55.2045 137.512 55.0513C137.665 54.8981 137.665 54.5917 137.819 54.4385C137.819 54.4385 137.819 54.2853 137.973 54.2853V54.1321C138.126 53.8257 138.126 53.6725 138.28 53.3662V53.213C138.28 53.0598 138.28 53.0598 138.433 52.9066C138.433 52.7534 138.433 52.7534 138.587 52.6002C138.587 52.6002 138.587 52.447 138.74 52.447C138.74 52.2938 138.74 52.2938 138.894 52.1406C138.894 51.9874 138.894 51.9874 139.048 51.8342C139.048 51.681 139.048 51.681 139.201 51.5278V51.3746V51.2214C139.201 51.2214 139.201 51.2214 139.201 51.0682C139.201 50.915 139.201 50.7618 139.355 50.6086V50.4554V50.3022C139.355 50.149 139.355 50.149 139.355 49.9958C139.355 49.8427 139.355 49.8426 139.355 49.6895C139.355 49.6895 139.355 49.6895 139.355 49.5363V49.3831C139.355 49.3831 139.355 49.3831 139.355 49.5363V49.3831V49.2299V49.0767C139.355 48.9235 139.355 48.9235 139.355 48.7703C139.355 48.7703 139.355 48.7703 139.355 48.6171C139.355 48.4639 139.355 48.4639 139.355 48.3107V48.1575C139.355 48.1575 139.355 48.1575 139.355 48.0043V47.8511V47.6979C139.355 47.5447 139.355 47.5447 139.355 47.3915V47.2383V47.0851V46.9319V46.7787V46.6255V46.4723C139.355 46.4723 139.355 46.4723 139.355 46.3191C139.355 46.166 139.355 45.8596 139.355 45.7064C139.355 45.8596 139.355 45.8596 139.355 46.0128C140.583 46.4723 140.583 46.3191 140.583 46.166Z" fill="#E8B100"/>
<path d="M140.583 42.6424C140.583 42.4892 140.583 42.1828 140.583 42.0296C140.583 42.9488 140.583 42.0296 140.583 41.8764C140.583 40.9573 140.43 39.1189 140.123 37.7402C140.123 37.8934 140.123 38.0466 140.123 38.1997C138.28 26.5569 129.219 17.9779 119.543 12.1565C112.172 7.71378 103.879 4.95625 95.5855 3.1179C92.6676 2.50512 89.5961 1.89234 86.6781 1.58594C84.5281 1.27955 82.378 1.12636 80.2279 0.819965C79.3065 0.819965 78.385 0.66677 77.31 0.66677C76.8492 0.66677 73.9313 0.513574 74.8527 0.513574C61.1845 0.207182 47.3626 1.89234 34.6158 6.7946C24.019 10.7777 12.9615 17.2119 6.97207 27.0164C0.982598 36.5146 0.829021 48.0043 7.4328 57.3492C12.808 64.8558 20.7939 70.2177 29.2406 73.8944C41.2196 79.5626 55.5021 82.3201 68.7097 82.3201C71.0133 82.3201 73.4706 82.3201 75.7742 82.3201C85.2959 82.3201 96.0463 80.3286 105.414 77.2647C104.186 77.5711 106.643 76.8051 106.643 76.8051C107.718 76.4987 108.64 76.0391 109.715 75.7327C111.557 75.1199 113.4 74.354 115.243 73.4348C118.622 71.9028 122.001 70.0645 125.072 67.9197C129.219 65.009 132.751 61.4855 135.669 57.3492C137.665 54.2853 139.662 50.4554 140.276 47.0851C140.583 45.8595 140.737 43.5616 140.737 43.102C140.583 42.9488 140.583 42.7956 140.583 42.6424C140.583 42.7956 140.583 42.336 140.583 42.6424Z" fill="#FFDA00"/>
</g>
<path d="M34.93 55.45C33.38 55.45 31.98 55.185 30.73 54.655C29.49 54.115 28.465 53.35 27.655 52.36C26.855 51.36 26.335 50.175 26.095 48.805L29.365 48.31C29.695 49.63 30.385 50.66 31.435 51.4C32.485 52.13 33.71 52.495 35.11 52.495C35.98 52.495 36.78 52.36 37.51 52.09C38.24 51.81 38.825 51.415 39.265 50.905C39.715 50.385 39.94 49.765 39.94 49.045C39.94 48.655 39.87 48.31 39.73 48.01C39.6 47.71 39.415 47.45 39.175 47.23C38.945 47 38.66 46.805 38.32 46.645C37.99 46.475 37.625 46.33 37.225 46.21L31.69 44.575C31.15 44.415 30.6 44.21 30.04 43.96C29.48 43.7 28.965 43.365 28.495 42.955C28.035 42.535 27.66 42.02 27.37 41.41C27.08 40.79 26.935 40.04 26.935 39.16C26.935 37.83 27.275 36.705 27.955 35.785C28.645 34.855 29.575 34.155 30.745 33.685C31.915 33.205 33.225 32.965 34.675 32.965C36.135 32.985 37.44 33.245 38.59 33.745C39.75 34.245 40.71 34.965 41.47 35.905C42.24 36.835 42.77 37.965 43.06 39.295L39.7 39.865C39.55 39.055 39.23 38.36 38.74 37.78C38.25 37.19 37.65 36.74 36.94 36.43C36.23 36.11 35.46 35.945 34.63 35.935C33.83 35.915 33.095 36.035 32.425 36.295C31.765 36.555 31.235 36.92 30.835 37.39C30.445 37.86 30.25 38.4 30.25 39.01C30.25 39.61 30.425 40.095 30.775 40.465C31.125 40.835 31.555 41.13 32.065 41.35C32.585 41.56 33.1 41.735 33.61 41.875L37.6 43C38.1 43.14 38.665 43.33 39.295 43.57C39.935 43.8 40.55 44.125 41.14 44.545C41.74 44.965 42.235 45.525 42.625 46.225C43.015 46.915 43.21 47.785 43.21 48.835C43.21 49.925 42.99 50.885 42.55 51.715C42.11 52.535 41.505 53.225 40.735 53.785C39.975 54.335 39.095 54.75 38.095 55.03C37.095 55.31 36.04 55.45 34.93 55.45ZM51.4916 55V36.355H44.3066V33.4H61.8116V36.355H54.6266V55H51.4916ZM63.9121 55V33.4H77.7121V36.355H67.0471V42.415H75.9121V45.37H67.0471V52.045H77.7121V55H63.9121ZM81.0145 55V33.4H89.7445C89.9545 33.4 90.2145 33.41 90.5245 33.43C90.8345 33.44 91.1295 33.47 91.4095 33.52C92.6095 33.71 93.6095 34.12 94.4095 34.75C95.2195 35.38 95.8245 36.175 96.2245 37.135C96.6245 38.095 96.8245 39.155 96.8245 40.315C96.8245 41.485 96.6245 42.55 96.2245 43.51C95.8245 44.47 95.2195 45.265 94.4095 45.895C93.6095 46.525 92.6095 46.935 91.4095 47.125C91.1295 47.165 90.8295 47.195 90.5095 47.215C90.1995 47.235 89.9445 47.245 89.7445 47.245H84.1495V55H81.0145ZM84.1495 44.275H89.6245C89.8245 44.275 90.0445 44.265 90.2845 44.245C90.5345 44.225 90.7695 44.19 90.9895 44.14C91.6295 43.99 92.1445 43.715 92.5345 43.315C92.9245 42.905 93.2045 42.435 93.3745 41.905C93.5445 41.375 93.6295 40.845 93.6295 40.315C93.6295 39.785 93.5445 39.26 93.3745 38.74C93.2045 38.21 92.9245 37.745 92.5345 37.345C92.1445 36.935 91.6295 36.655 90.9895 36.505C90.7695 36.445 90.5345 36.405 90.2845 36.385C90.0445 36.365 89.8245 36.355 89.6245 36.355H84.1495V44.275ZM111.634 55.45C110.524 55.45 109.489 55.225 108.529 54.775C107.579 54.315 106.764 53.685 106.084 52.885C105.404 52.075 104.919 51.145 104.629 50.095L107.644 49.285C107.814 49.925 108.104 50.48 108.514 50.95C108.934 51.42 109.424 51.785 109.984 52.045C110.544 52.295 111.124 52.42 111.724 52.42C112.514 52.42 113.229 52.23 113.869 51.85C114.519 51.47 115.029 50.96 115.399 50.32C115.779 49.68 115.969 48.975 115.969 48.205C115.969 47.415 115.774 46.7 115.384 46.06C115.004 45.42 114.489 44.915 113.839 44.545C113.199 44.165 112.494 43.975 111.724 43.975C110.844 43.975 110.099 44.15 109.489 44.5C108.879 44.85 108.404 45.255 108.064 45.715L105.334 44.755L105.994 33.4H117.649V36.355H107.599L108.874 35.17L108.349 43.675L107.734 42.88C108.304 42.31 108.984 41.875 109.774 41.575C110.564 41.275 111.349 41.125 112.129 41.125C113.469 41.125 114.664 41.435 115.714 42.055C116.774 42.675 117.609 43.52 118.219 44.59C118.829 45.65 119.134 46.855 119.134 48.205C119.134 49.545 118.789 50.765 118.099 51.865C117.409 52.955 116.494 53.825 115.354 54.475C114.214 55.125 112.974 55.45 111.634 55.45Z" fill="#151515"/>
<defs>
<linearGradient id="paint0_linear_1023_364" x1="2.36478" y1="87.3367" x2="140.584" y2="87.3367" gradientUnits="userSpaceOnUse">
<stop stop-color="#FFD200"/>
<stop offset="1" stop-color="#FFB900"/>
</linearGradient>
<clipPath id="clip0_1023_364">
<rect width="138.219" height="130.216" fill="white" transform="translate(2.36478 0.513672)"/>
</clipPath>
</defs>
</svg>
