<svg width="183" height="179" viewBox="0 0 183 179" fill="none" xmlns="http://www.w3.org/2000/svg">
<g opacity="0.3">
<path opacity="0.0243902" d="M92.1467 176.392C79.5376 157.586 -7.58929 158.487 3.36617 140.019C14.2183 121.663 141.24 72.115 162.117 78.5338C182.891 84.9525 190.022 99.3665 169.558 117.722C153.952 131.686 96.901 183.486 92.1467 176.392Z" fill="#FBFBFB"/>
<path opacity="0.0487805" d="M93.1803 174.928C79.951 156.797 -5.21219 157.135 5.53658 138.892C16.182 120.65 140.516 72.0023 161.394 78.3085C182.271 84.6146 189.609 98.916 169.662 117.159C154.572 131.122 98.2446 182.022 93.1803 174.928Z" fill="#F7F7F7"/>
<path opacity="0.0731707" d="M94.2138 173.576C80.4678 156.234 -2.73163 156.009 7.70706 137.766C18.1458 119.524 139.689 71.8897 160.67 78.0832C181.651 84.2768 189.299 98.353 169.869 116.596C155.089 130.447 99.6916 180.558 94.2138 173.576Z" fill="#F3F3F3"/>
<path opacity="0.097561" d="M95.2473 172.225C80.9846 155.559 -0.251221 154.77 9.87741 136.64C20.0061 118.51 138.966 71.8897 160.05 77.858C181.031 83.8263 188.989 97.9025 170.075 116.033C155.709 129.884 101.138 179.094 95.2473 172.225Z" fill="#EFEFEF"/>
<path opacity="0.122" d="M96.2809 170.761C81.6047 154.77 2.12595 153.419 12.0479 135.401C21.9698 117.496 138.242 71.7769 159.326 77.6326C180.514 83.4883 188.679 97.4519 170.282 115.469C156.226 129.32 102.585 177.63 96.2809 170.761Z" fill="#EBEBEB"/>
<path opacity="0.1463" d="M97.3144 169.41C82.2248 154.095 4.6064 152.18 14.2183 134.388C23.9335 116.483 137.416 71.6646 158.706 77.4077C179.894 83.0381 188.369 97.0017 170.592 115.019C156.846 128.758 104.032 176.279 97.3144 169.41Z" fill="#E7E7E7"/>
<path opacity="0.1707" d="M98.4513 168.058C82.9483 153.419 7.19028 151.054 16.4921 133.262C25.7939 115.47 136.692 71.6645 157.983 77.1824C179.274 82.7003 188.059 96.4387 170.695 114.456C157.363 128.195 105.583 174.815 98.4513 168.058Z" fill="#E4E4E4"/>
<path opacity="0.1951" d="M99.4848 166.594C83.6718 152.518 9.56738 149.703 18.6625 132.023C27.7576 114.456 135.969 71.5517 157.259 76.957C178.654 82.3623 187.749 95.9881 170.902 113.893C157.983 127.631 107.03 173.351 99.4848 166.594Z" fill="#E0E0E0"/>
<path opacity="0.2195" d="M100.518 165.243C84.3952 151.843 12.0479 148.464 20.8329 130.897C29.7213 113.33 135.142 71.4393 156.639 76.732C178.033 81.912 187.335 95.5378 171.109 113.33C158.5 127.068 108.58 171.887 100.518 165.243Z" fill="#DCDCDC"/>
<path opacity="0.2439" d="M101.552 163.779C85.1187 150.942 14.5284 147.226 23.0033 129.771C31.5816 112.317 134.418 71.4394 155.916 76.5068C177.413 81.5742 187.025 95.0874 171.315 112.767C159.12 126.506 110.027 170.423 101.552 163.779Z" fill="#D8D8D8"/>
<path opacity="0.2683" d="M102.585 162.428C85.8422 150.153 17.0089 145.987 25.2771 128.645C33.5454 111.303 133.695 71.3267 155.296 76.2815C176.897 81.1237 186.715 94.6369 171.522 112.204C159.637 125.942 111.577 168.959 102.585 162.428Z" fill="#D4D4D4"/>
<path opacity="0.2927" d="M103.619 161.076C86.5657 149.365 19.3859 144.748 27.4475 127.519C35.4057 110.289 132.868 71.2139 154.572 76.0561C176.276 80.7857 186.405 94.1863 171.729 111.641C160.257 125.379 113.127 167.495 103.619 161.076Z" fill="#D0D0D0"/>
<path opacity="0.3171" d="M104.652 159.613C87.3925 148.464 21.8664 143.509 29.6179 126.28C37.3694 109.276 132.144 71.2139 153.849 75.8309C175.656 80.3353 186.095 93.6232 171.936 111.078C160.773 124.816 114.574 166.031 104.652 159.613Z" fill="#CCCCCC"/>
<path opacity="0.3415" d="M105.789 158.261C88.3227 147.676 24.4502 142.271 31.8917 125.267C39.3331 108.263 131.421 71.1015 153.229 75.4933C175.036 79.9977 185.785 93.173 172.142 110.515C161.394 124.253 116.125 164.568 105.789 158.261Z" fill="#C8C8C8"/>
<path opacity="0.3659" d="M106.823 156.91C89.0461 146.775 26.8274 141.032 34.0621 124.141C41.2969 107.249 130.698 71.1016 152.608 75.3807C174.416 79.6599 185.475 92.7226 172.349 109.952C161.91 123.69 117.675 163.104 106.823 156.91Z" fill="#C4C4C4"/>
<path opacity="0.3902" d="M107.856 155.446C89.873 145.874 29.3079 139.793 36.2325 122.902C43.1572 106.123 129.871 70.9889 151.885 75.0428C173.796 79.2094 185.165 92.2721 172.556 109.389C162.53 123.127 119.225 161.527 107.856 155.446Z" fill="#C0C0C0"/>
<path opacity="0.4146" d="M108.89 154.095C90.6998 144.974 31.7883 138.555 38.403 121.776C45.1209 105.11 129.147 70.8764 151.162 74.8177C173.279 78.8717 184.855 91.8218 172.762 108.826C163.151 122.564 120.776 160.063 108.89 154.095Z" fill="#BCBCBC"/>
<path opacity="0.439" d="M109.924 152.743C91.5266 144.073 34.1655 137.316 40.5734 120.762C46.9813 104.096 128.32 70.7636 150.541 74.5924C172.659 78.4211 184.441 91.3712 172.969 108.263C163.667 122.001 122.326 158.599 109.924 152.743Z" fill="#B8B8B8"/>
<path opacity="0.4634" d="M110.957 151.28C92.3534 143.059 36.646 136.077 42.7438 119.524C48.945 103.083 127.597 70.7638 149.818 74.3673C172.039 78.0834 184.131 90.9209 173.176 107.7C164.287 121.551 123.876 157.023 110.957 151.28Z" fill="#B4B4B4"/>
<path opacity="0.4878" d="M111.991 149.928C93.1803 142.158 39.1264 134.838 44.9142 118.397C50.9087 102.069 126.873 70.6509 149.094 74.1418C171.419 77.6327 183.821 90.4702 173.383 107.136C164.804 120.987 125.427 155.446 111.991 149.928Z" fill="#B0B0B0"/>
<path opacity="0.5122" d="M113.127 148.577C94.1105 141.257 41.6069 133.6 47.188 117.271C52.7691 100.943 126.047 70.5384 148.474 73.9167C170.902 77.295 183.615 90.0199 173.693 106.573C165.424 120.424 126.977 153.87 113.127 148.577Z" fill="#ADADAD"/>
<path opacity="0.5366" d="M114.161 147.113C94.9373 140.131 44.0874 132.361 49.4618 116.145C54.7328 99.9294 125.323 70.5383 147.751 73.6914C170.179 76.9571 183.201 89.5694 173.796 106.01C165.941 119.861 128.527 152.293 114.161 147.113Z" fill="#A9A9A9"/>
<path opacity="0.561" d="M115.195 145.762C95.7641 139.23 46.5679 131.122 51.6322 115.019C56.5932 98.916 124.496 70.4257 147.131 73.4662C169.662 76.5066 182.891 89.1189 174.003 105.56C166.561 119.298 130.181 150.716 115.195 145.762Z" fill="#A5A5A5"/>
<path opacity="0.5854" d="M116.228 144.298C96.5909 138.104 48.945 129.771 53.8026 113.781C58.5569 97.9026 123.773 70.3132 146.407 73.2411C169.042 76.169 182.581 88.6686 174.313 104.997C167.181 118.735 131.731 149.14 116.228 144.298Z" fill="#A1A1A1"/>
<path opacity="0.6098" d="M117.262 142.947C97.4178 137.203 51.4255 128.532 55.973 112.655C60.5206 96.8892 123.049 70.2007 145.684 73.0159C168.422 75.7185 182.374 88.2182 174.519 104.434C167.698 118.285 133.281 147.564 117.262 142.947Z" fill="#9D9D9D"/>
<path opacity="0.6341" d="M118.295 141.595C98.1413 136.19 53.906 127.406 58.1435 111.641C62.381 95.8755 122.223 70.2005 145.064 72.7905C167.801 75.3805 182.064 87.7676 174.726 103.871C168.318 117.722 134.832 145.987 118.295 141.595Z" fill="#999999"/>
<path opacity="0.6585" d="M119.329 140.131C98.9681 135.064 56.3865 126.055 60.3139 110.402C64.3447 94.7495 121.499 70.088 144.34 72.5654C167.181 74.9302 181.754 87.4299 174.933 103.308C168.938 117.159 136.382 144.41 119.329 140.131Z" fill="#959595"/>
<path opacity="0.6829" d="M120.466 138.78C99.8983 134.163 58.867 124.816 62.5877 109.276C66.3084 93.7361 120.776 69.9755 143.72 72.3403C166.665 74.5925 181.444 86.9795 175.14 102.745C169.455 116.596 137.932 142.721 120.466 138.78Z" fill="#919191"/>
<path opacity="0.7073" d="M121.499 137.429C100.725 133.149 61.3474 123.69 64.7581 108.15C68.1687 92.7224 120.052 69.9753 142.997 72.1149C166.044 74.2545 181.134 86.5289 175.346 102.182C170.075 116.145 139.483 141.145 121.499 137.429Z" fill="#8D8D8D"/>
<path opacity="0.7317" d="M122.533 135.965C101.449 132.023 63.8279 122.339 66.9285 107.024C70.1325 91.709 119.225 69.8627 142.273 71.8897C165.424 73.804 180.824 86.0785 175.553 101.619C170.695 115.582 141.033 139.455 122.533 135.965Z" fill="#898989"/>
<path opacity="0.7561" d="M123.566 134.613C102.275 131.01 66.2051 121.1 69.0989 105.898C71.9928 90.6956 118.502 69.7502 141.653 71.6645C164.804 73.4663 180.617 85.6281 175.76 101.056C171.315 115.019 142.583 137.766 123.566 134.613Z" fill="#858585"/>
<path opacity="0.7805" d="M124.6 133.262C103.102 129.996 68.6855 119.974 71.2694 104.772C73.9566 89.5694 117.675 69.7501 140.93 71.4393C164.184 73.0158 180.307 85.2903 175.966 100.493C171.936 114.456 144.134 136.19 124.6 133.262Z" fill="#818181"/>
<path opacity="0.8049" d="M125.633 131.798C103.826 128.87 71.166 118.623 73.5431 103.533C75.9202 88.556 116.952 69.6376 140.309 71.1015C163.564 72.678 179.997 84.8399 176.173 99.9296C172.556 114.006 145.684 134.501 125.633 131.798Z" fill="#7D7D7D"/>
<path opacity="0.8293" d="M126.667 130.447C104.653 127.857 73.5431 117.384 75.7136 102.52C77.7806 87.6553 116.228 69.6377 139.586 70.9891C162.944 72.2278 179.79 84.3896 176.38 99.3667C173.176 113.443 147.234 132.812 126.667 130.447Z" fill="#797979"/>
<path opacity="0.8537" d="M127.804 128.983C105.479 126.73 76.1269 116.145 77.9873 101.281C79.7443 86.5287 115.401 69.5246 138.862 70.6507C162.427 71.8894 179.48 83.9387 176.586 98.8032C173.796 112.879 148.784 131.122 127.804 128.983Z" fill="#767676"/>
<path opacity="0.878" d="M128.837 127.632C106.306 125.717 78.6075 114.907 80.1578 100.155C81.7081 85.5156 114.678 69.4124 138.242 70.4259C161.807 71.552 179.274 83.4886 176.793 98.2405C174.416 112.429 150.335 129.433 128.837 127.632Z" fill="#727272"/>
<path opacity="0.9024" d="M129.871 126.28C107.03 124.704 80.9846 113.668 82.3282 99.0286C83.5684 84.502 113.954 69.2997 137.519 70.2005C161.187 71.1014 178.964 83.038 177 97.6773C175.036 111.866 151.885 127.744 129.871 126.28Z" fill="#6E6E6E"/>
<path opacity="0.9268" d="M130.904 124.816C107.753 123.578 83.4651 112.429 84.4986 97.9026C85.5322 83.376 113.128 69.2998 136.899 69.9754C160.567 70.7637 178.757 82.5877 177.207 97.1143C175.656 111.303 153.435 126.055 130.904 124.816Z" fill="#6A6A6A"/>
<path opacity="0.9512" d="M131.938 123.465C108.58 122.564 85.9455 111.191 86.669 96.7765C87.3925 82.3625 112.404 69.1872 136.175 69.7502C159.947 70.3133 178.447 82.1373 177.413 96.5513C176.276 110.74 154.882 124.366 131.938 123.465Z" fill="#666666"/>
<path opacity="0.9756" d="M132.971 122.114C109.303 121.551 88.3226 109.952 88.8394 95.6504C89.3562 81.349 111.681 69.0745 135.555 69.525C159.43 69.9754 178.24 81.7994 177.62 95.9882C176.897 110.177 156.433 122.677 132.971 122.114Z" fill="#626262"/>
<path d="M134.005 120.65C110.13 120.425 90.9065 108.713 91.1132 94.5243C91.3199 80.3355 110.854 69.0745 134.832 69.2997C158.81 69.6375 178.033 81.3489 177.827 95.5378C177.62 109.727 157.983 120.988 134.005 120.65Z" fill="#5E5E5E"/>
</g>
<g clip-path="url(#clip0_248_3964)">
<g opacity="0.7">
<path d="M102.916 128.527C69.4368 128.22 46.4003 112.288 46.5539 97.8875C46.8611 83.4871 74.0441 72.1506 107.524 72.457C141.003 72.9166 170.183 86.8574 169.876 101.258C169.568 115.658 136.396 128.986 102.916 128.527Z" fill="#5E5E5E"/>
</g>
<g opacity="0.5">
<path d="M111.517 129.752C75.887 129.446 47.3218 113.513 47.629 94.0576C47.9361 74.7549 77.1156 59.4353 112.592 59.7417C148.221 60.2013 176.94 76.1336 176.633 95.4363C176.172 114.739 147.146 130.059 111.517 129.752Z" fill="#5E5E5E"/>
</g>
<path d="M42.4074 45.4945C42.4074 45.6477 42.4074 45.8009 42.4074 45.9541C42.4074 46.1073 42.4074 46.2605 42.4074 46.4137C42.4074 46.5669 42.4074 46.7201 42.4074 46.8733C42.4074 47.0264 42.4074 47.1796 42.4074 47.3328C42.4074 47.486 42.4074 47.6392 42.4074 47.7924C42.4074 47.9456 42.4074 48.0988 42.4074 48.252C42.4074 48.4052 42.4074 48.5584 42.5609 48.7116C42.5609 48.8648 42.5609 49.018 42.7145 49.1712C42.7145 49.3244 42.8681 49.4776 42.8681 49.6308C42.8681 49.784 42.8681 49.9372 43.0217 50.0904C43.0217 50.2436 43.1752 50.3968 43.1752 50.55C43.1752 50.7031 43.1752 50.8563 43.3288 51.0095C43.3288 51.1627 43.4824 51.3159 43.4824 51.6223C43.4824 51.7755 43.636 51.9287 43.636 52.0819C43.7896 52.2351 43.7896 52.5415 43.9431 52.6947C43.9431 52.8479 43.9431 52.8479 44.0967 53.0011C44.2503 53.3075 44.2503 53.6139 44.4039 53.7671V53.9203C44.5574 54.2266 44.711 54.533 44.8646 54.8394C44.8646 54.9926 45.0182 55.1458 45.0182 55.299C45.1717 55.4522 45.1717 55.6054 45.3253 55.9118C45.3253 56.065 45.4789 56.2182 45.4789 56.3714C45.6325 56.5246 45.6325 56.831 45.786 56.9842C45.786 57.1374 45.9396 57.1374 45.9396 57.2906C46.0932 57.597 46.2468 57.7502 46.4003 57.9033C46.4003 58.0565 46.5539 58.2097 46.7075 58.2097C46.8611 58.3629 47.0146 58.6693 47.1682 58.8225C47.0146 59.1289 47.1682 59.1289 47.3218 59.2821C47.4754 59.4353 47.629 59.7417 47.7825 59.8949C47.9361 60.0481 47.9361 60.2013 48.0897 60.3545C48.2433 60.5077 48.3968 60.8141 48.5504 60.9673C48.704 61.1205 48.704 61.2737 48.8576 61.2737C49.1647 61.58 49.4719 62.0396 49.779 62.346L49.9326 62.4992C50.2397 62.8056 50.3933 63.112 50.7005 63.4184C50.8541 63.5716 50.854 63.5716 51.0076 63.7248C51.3148 64.0312 51.4684 64.1844 51.7755 64.4908C51.9291 64.644 51.9291 64.644 52.0827 64.7972C52.3898 65.1036 52.697 65.4099 53.1577 65.8695C53.3113 66.0227 53.4649 66.1759 53.6184 66.3291C53.772 66.4823 53.9256 66.6355 54.0792 66.7887C54.2327 66.9419 54.3863 67.0951 54.5399 67.2483C54.6935 67.4015 54.847 67.5547 55.0006 67.7079C55.1542 67.8611 55.3078 68.0143 55.4613 68.1675C55.6149 68.3207 55.7685 68.4739 55.9221 68.6271C56.0757 68.7803 56.2292 68.9334 56.5364 69.0866C56.6899 69.2398 56.8435 69.393 56.9971 69.393C57.1507 69.5462 57.4578 69.6994 57.6114 69.8526C57.765 70.0058 57.9186 70.0058 58.0721 70.159C58.2257 70.3122 58.5329 70.4654 58.6864 70.6186C58.84 70.7718 58.9936 70.7718 59.1472 70.925C59.4543 71.0782 59.6079 71.2314 59.9151 71.3846C60.0686 71.5378 60.2222 71.5378 60.3758 71.691C60.6829 71.8442 60.8365 71.9974 61.1437 72.1506C61.2972 72.3038 61.4508 72.3038 61.6044 72.4569C61.9115 72.6101 62.3723 72.9165 62.6794 73.0697C63.4473 73.5293 64.2152 73.9889 64.9831 74.2953C65.1366 74.4485 65.4438 74.4485 65.5974 74.6017C66.3652 74.9081 66.9796 75.3677 67.7474 75.6741C67.7474 75.6741 67.901 75.6741 67.901 75.8273C68.6689 76.1336 69.5903 76.5932 70.3582 76.8996C70.5118 77.0528 70.819 77.0528 70.9725 77.206C71.7404 77.5124 72.3547 77.8188 73.1226 78.1252C73.2762 78.1252 73.4298 78.2784 73.5833 78.2784C74.5048 78.5848 75.2727 78.8912 76.1941 79.1976C76.3477 79.1976 76.5013 79.3508 76.6549 79.3508C77.2692 79.504 77.8835 79.8103 78.4978 79.9635C78.9585 80.1167 79.5728 80.2699 80.0335 80.4231C80.4943 80.5763 80.955 80.7295 81.5693 80.8827C82.1836 81.0359 82.6443 81.1891 83.2586 81.3423C83.7194 81.4955 84.1801 81.6487 84.7944 81.6487C85.4087 81.8019 86.023 81.9551 86.4837 82.1083C86.9445 82.2615 87.4052 82.2615 88.0195 82.4147C88.6338 82.5679 89.2481 82.7211 89.8624 82.7211C90.4767 82.8743 90.9374 82.8743 91.5517 83.0275C91.7053 83.0275 92.0125 83.0275 92.1661 83.1807C93.0875 83.3339 93.8554 83.487 94.7768 83.6402C94.9304 83.6402 95.084 83.6402 95.084 83.6402C96.0055 83.7934 96.9269 83.9466 98.0019 83.9466C98.3091 83.9466 98.6162 83.9466 98.7698 84.0998C99.3841 84.0998 99.8449 84.253 100.459 84.253C101.227 84.253 101.995 84.4062 102.763 84.4062C103.224 84.4062 103.684 84.4062 104.145 84.5594C104.913 84.5594 105.681 84.7126 106.449 84.7126C106.909 84.7126 107.37 84.7126 107.831 84.7126C108.445 84.7126 109.059 84.7126 109.827 84.7126C110.288 84.7126 110.749 84.7126 111.363 84.7126C112.131 84.7126 112.899 84.7126 113.513 84.7126C113.974 84.7126 114.281 84.7126 114.742 84.7126C115.51 84.7126 116.124 84.7126 116.738 84.5594C117.199 84.5594 117.66 84.5594 117.967 84.5594C118.735 84.5594 119.349 84.4062 120.117 84.4062C120.578 84.4062 120.885 84.4062 121.346 84.253C122.267 84.0998 123.188 84.0998 124.263 83.9466C124.417 83.9466 124.571 83.9466 124.724 83.9466C125.799 83.7934 126.874 83.6402 128.103 83.487C128.256 83.487 128.256 83.487 128.41 83.487C129.485 83.3339 130.407 83.1807 131.482 83.0275C131.789 83.0275 132.249 82.8743 132.557 82.8743C133.324 82.7211 134.092 82.5679 134.707 82.4147C135.014 82.4147 135.475 82.2615 135.782 82.1083C136.55 81.9551 137.317 81.8019 138.085 81.6487C138.546 81.4955 138.853 81.4955 139.314 81.3423C140.082 81.1891 140.696 81.0359 141.464 80.7295C142.078 80.5763 142.693 80.4231 143.153 80.2699C143.46 80.2699 143.614 80.1167 143.921 80.1167C144.843 79.8103 145.764 79.504 146.532 79.1976C146.686 79.1976 146.839 79.0444 146.993 79.0444C147.761 78.738 148.529 78.5848 149.143 78.2784C149.296 78.1252 149.604 78.1252 149.757 77.972C150.371 77.8188 150.986 77.5124 151.446 77.206C151.754 77.0528 152.214 76.8996 152.521 76.7464C153.136 76.44 153.597 76.2868 154.211 75.9805C154.518 75.8273 154.825 75.6741 155.286 75.5209C155.9 75.2145 156.514 74.9081 156.975 74.6017C157.282 74.4485 157.59 74.2953 157.743 74.1421C158.511 73.6825 159.432 73.2229 160.2 72.7633C173.869 64.7972 180.626 54.533 180.626 44.2689C180.626 44.2689 180.319 94.2108 180.012 95.1299C180.012 95.1299 180.012 95.1299 180.012 95.2831C179.858 95.8959 179.704 96.5087 179.551 97.1215C179.397 97.7343 179.09 98.347 178.937 98.9598V99.113C178.476 100.185 178.015 101.258 177.401 102.483C177.401 102.483 177.401 102.483 177.401 102.637C177.094 103.096 176.787 103.709 176.326 104.322C176.326 104.475 176.172 104.628 176.172 104.628C175.711 105.241 175.404 105.854 174.944 106.466C174.636 106.773 174.329 107.232 174.022 107.692C173.715 107.998 173.408 108.305 173.254 108.764C172.794 109.224 172.333 109.837 171.719 110.45L171.565 110.603C171.258 110.909 170.951 111.215 170.643 111.522C153.289 128.22 120.885 133.582 96.6198 129.905C91.8589 129.293 89.2481 128.68 86.6373 128.067C85.2551 127.761 81.5693 126.841 77.1156 125.309C77.1156 125.309 77.1156 125.309 76.962 125.309C75.7334 124.85 74.3512 124.39 73.1226 123.778C67.901 121.633 63.2937 119.182 59.3007 116.271C59.1472 116.118 58.9936 116.118 58.84 115.965C58.6864 115.811 58.5329 115.658 58.3793 115.658C58.3793 115.658 58.3793 115.658 58.2257 115.505C57.4578 114.892 56.6899 114.279 55.7685 113.513C55.6149 113.513 55.6149 113.36 55.6149 113.36L55.4613 113.207C54.6935 112.594 53.9256 111.828 53.1577 111.062C52.0827 109.99 50.5469 108.458 49.6254 107.079C49.1647 106.466 48.5504 105.547 48.0897 104.934L47.629 104.168L47.4754 104.015C47.0146 103.249 46.4003 102.33 46.0932 101.564C45.9396 101.258 45.786 101.105 45.786 100.798V100.645C45.6325 100.185 45.4789 99.879 45.3253 99.4194L45.1717 99.113V98.9598C44.8646 98.1938 44.5574 97.1215 44.2503 96.3555C44.0967 95.7427 43.9431 95.1299 43.7896 94.5171V94.3639C43.7896 94.3639 43.7896 94.3639 43.7896 94.2108C43.7896 93.9044 43.636 93.598 43.636 93.2916V93.1384C43.636 92.9852 43.3288 56.831 43.1752 44.4221C42.4074 44.8817 42.4074 45.1881 42.4074 45.4945Z" fill="url(#paint0_linear_248_3964)"/>
<path d="M42.4074 43.8093C42.4074 43.9625 42.4074 44.1157 42.4074 44.2689C42.4074 44.4221 42.4074 44.5753 42.4074 44.7285C42.4074 44.8817 42.4074 45.0349 42.4074 45.1881C42.4074 45.3413 42.4074 45.4945 42.4074 45.6477C42.4074 45.8009 42.4074 45.954 42.4074 46.1072C42.4074 46.2604 42.4074 46.4136 42.4074 46.5668C42.4074 46.72 42.4074 46.8732 42.5609 47.1796C42.5609 47.3328 42.5609 47.486 42.7145 47.6392C42.7145 47.7924 42.8681 47.9456 42.8681 48.0988C42.8681 48.252 42.8681 48.4052 43.0217 48.5584C43.0217 48.7116 43.1752 48.8648 43.1752 49.018C43.1752 49.1712 43.1752 49.3244 43.3288 49.4776C43.3288 49.6307 43.4824 49.7839 43.4824 50.0903C43.4824 50.2435 43.636 50.3967 43.636 50.5499C43.7896 50.7031 43.7896 51.0095 43.9431 51.1627C43.9431 51.3159 43.9431 51.3159 44.0967 51.4691C44.2503 51.7755 44.2503 52.0819 44.4039 52.2351V52.3883C44.5574 52.6947 44.711 53.0011 44.8646 53.3074C44.8646 53.4606 45.0182 53.6138 45.0182 53.767C45.1717 53.9202 45.1717 54.0734 45.3253 54.3798C45.3253 54.533 45.4789 54.6862 45.4789 54.8394C45.6325 54.9926 45.6325 55.1458 45.786 55.4522C45.786 55.6054 45.9396 55.6054 45.9396 55.7586C46.0932 55.9118 46.2468 56.2182 46.4003 56.3714C46.4003 56.5246 46.5539 56.6778 46.7075 56.6778C46.8611 56.831 47.0146 57.1373 47.1682 57.2905C47.3218 57.4437 47.3218 57.5969 47.4754 57.7501C47.629 57.9033 47.7825 58.2097 47.9361 58.3629C48.0897 58.5161 48.0897 58.6693 48.2433 58.6693C48.3968 58.8225 48.5504 59.1289 48.704 59.2821C48.8576 59.4353 48.8576 59.5885 49.0111 59.5885C49.3183 59.8949 49.6254 60.3545 49.9326 60.6608L50.0862 60.814C50.3933 61.1204 50.5469 61.4268 50.854 61.7332C51.0076 61.8864 51.0076 61.8864 51.1612 62.0396C51.4684 62.346 51.6219 62.4992 51.9291 62.8056C52.0827 62.9588 52.0827 62.9588 52.2362 63.112C52.5434 63.4184 52.8505 63.7248 53.3113 64.1843C53.4649 64.3375 53.6184 64.4907 53.772 64.6439C53.9256 64.7971 54.0791 64.9503 54.2327 65.1035C54.3863 65.2567 54.5399 65.4099 54.6935 65.5631C54.847 65.7163 55.0006 65.8695 55.1542 66.0227C55.3078 66.1759 55.4613 66.3291 55.6149 66.4823C55.7685 66.6355 55.9221 66.7887 56.0756 66.9419C56.2292 67.0951 56.3828 67.2483 56.69 67.4015C56.8435 67.5547 56.9971 67.7078 57.1507 67.7078C57.3043 67.861 57.6114 68.0142 57.765 68.1674C57.9186 68.3206 58.0721 68.3206 58.2257 68.4738C58.3793 68.627 58.6864 68.7802 58.84 68.9334C58.9936 69.0866 59.1472 69.0866 59.3007 69.2398C59.6079 69.393 59.7615 69.5462 60.0686 69.6994C60.2222 69.8526 60.3758 69.8526 60.5294 70.0058C60.8365 70.159 60.9901 70.3122 61.2972 70.4654C61.4508 70.6186 61.6044 70.6186 61.758 70.7718C62.0651 70.925 62.5258 71.2314 62.833 71.3846C63.6009 71.8441 64.3688 72.3037 65.1366 72.6101C65.2902 72.7633 65.5974 72.7633 65.7509 72.9165C66.5188 73.2229 67.1331 73.6825 67.901 73.9889C67.901 73.9889 68.0546 73.9889 68.0546 74.1421C68.8225 74.6017 69.7439 74.9081 70.5118 75.2144C70.6654 75.3676 70.9725 75.3676 71.1261 75.5208C71.894 75.8272 72.5083 76.1336 73.2762 76.44C73.4298 76.44 73.5833 76.5932 73.7369 76.5932C74.6584 76.8996 75.4262 77.206 76.3477 77.5124C76.5013 77.5124 76.6549 77.6656 76.8084 77.6656C77.4227 77.8188 78.037 78.1252 78.6513 78.2784C79.1121 78.4316 79.7264 78.5848 80.1871 78.7379C80.6478 78.8911 81.1086 79.0443 81.7229 79.1975C82.3372 79.3507 82.7979 79.5039 83.4122 79.6571C83.8729 79.8103 84.3337 79.9635 84.948 79.9635C85.5623 80.1167 86.1766 80.2699 86.6373 80.4231C87.098 80.5763 87.5588 80.5763 88.1731 80.7295C88.7874 80.8827 89.4017 81.0359 90.016 81.0359C90.6303 81.1891 91.091 81.1891 91.7053 81.3423C91.8589 81.3423 92.166 81.3423 92.3196 81.4955C93.2411 81.6487 94.009 81.8019 94.9304 81.9551C95.084 81.9551 95.2376 81.9551 95.2376 81.9551C96.159 82.1083 97.0805 82.2615 98.1555 82.2615C98.4627 82.2615 98.7698 82.2615 98.9234 82.4146C99.5377 82.4146 99.9984 82.5678 100.613 82.5678C101.381 82.5678 102.149 82.721 102.916 82.721C103.377 82.721 103.838 82.721 104.299 82.8742C105.066 82.8742 105.834 83.0274 106.602 83.0274C107.063 83.0274 107.524 83.0274 107.984 83.0274C108.599 83.0274 109.213 83.0274 109.981 83.0274C110.442 83.0274 110.902 83.0274 111.517 83.0274C112.285 83.0274 113.052 83.0274 113.667 83.0274C114.127 83.0274 114.435 83.0274 114.895 83.0274C115.663 83.0274 116.278 83.0274 116.892 82.8742C117.353 82.8742 117.813 82.8742 118.12 82.8742C118.888 82.8742 119.503 82.721 120.27 82.721C120.731 82.721 121.038 82.721 121.499 82.5678C122.421 82.4146 123.342 82.4146 124.417 82.2615C124.571 82.2615 124.724 82.2615 124.878 82.2615C125.953 82.1083 127.028 81.9551 128.256 81.8019C128.41 81.8019 128.41 81.8019 128.564 81.8019C129.639 81.6487 130.56 81.4955 131.635 81.3423C131.942 81.3423 132.403 81.1891 132.71 81.1891C133.478 81.0359 134.246 80.8827 134.86 80.7295C135.167 80.7295 135.628 80.5763 135.935 80.4231C136.703 80.2699 137.471 80.1167 138.239 79.9635C138.7 79.8103 139.007 79.8103 139.468 79.6571C140.235 79.5039 140.85 79.3507 141.618 79.0443C142.232 78.8911 142.846 78.738 143.307 78.5848C143.614 78.5848 143.768 78.4316 144.075 78.4316C144.996 78.1252 145.918 77.8188 146.686 77.5124C146.839 77.5124 146.993 77.3592 147.146 77.3592C147.914 77.0528 148.682 76.8996 149.296 76.5932C149.45 76.44 149.757 76.44 149.911 76.2868C150.525 75.9804 151.139 75.8272 151.6 75.5208C151.907 75.3676 152.368 75.2145 152.675 75.0613C153.289 74.7549 153.75 74.6017 154.364 74.2953C154.672 74.1421 154.979 73.9889 155.439 73.8357C156.054 73.5293 156.668 73.2229 157.129 72.9165C157.436 72.7633 157.743 72.6101 157.897 72.4569C158.665 71.9973 159.586 71.5377 160.354 71.0782C173.869 63.112 180.626 52.8479 180.626 42.5837C180.626 42.5837 180.319 92.5256 180.012 93.4448C180.012 93.4448 180.012 93.4447 180.012 93.5979C179.858 94.2107 179.704 94.8235 179.551 95.4363V95.5895C179.244 96.2023 179.09 96.8151 178.783 97.4278V97.581C178.322 98.6534 177.862 99.7258 177.247 100.951C176.94 101.411 176.633 102.024 176.172 102.636C176.172 102.79 176.019 102.943 176.019 102.943C175.558 103.556 175.251 104.168 174.79 104.781C174.483 105.088 174.176 105.547 173.869 106.007C173.561 106.313 173.254 106.62 173.101 106.926C172.64 107.386 172.179 107.998 171.565 108.611L171.411 108.764C171.104 109.071 170.797 109.377 170.49 109.684C153.136 126.382 120.731 131.744 96.4662 128.067C91.7053 127.454 89.0945 126.841 86.4837 126.229C85.1015 125.922 81.4157 125.003 76.962 123.471C76.962 123.471 76.962 123.471 76.8084 123.471C75.5798 123.012 74.1976 122.552 72.969 121.939C67.7474 119.794 63.1402 117.343 59.1472 114.433C58.9936 114.279 58.84 114.279 58.6864 114.126C58.5329 113.973 58.3793 113.82 58.2257 113.82C58.2257 113.82 58.2257 113.82 58.0721 113.667C57.3043 113.054 56.5364 112.441 55.6149 111.675C55.4613 111.675 55.4613 111.522 55.4613 111.522L55.3078 111.369C54.5399 110.756 53.772 109.99 53.0041 109.224C51.9291 108.152 50.3933 106.62 49.4719 105.241C49.0111 104.628 48.3968 103.709 47.9361 103.096L47.4754 102.33L47.3218 102.177C46.8611 101.411 46.2468 100.492 45.9396 99.7258C45.786 99.4194 45.6325 99.2662 45.6325 98.9598V98.8066C45.4789 98.347 45.3253 98.0406 45.1717 97.581L45.0182 97.2746V97.1214C44.711 96.3555 44.4039 95.2831 44.0967 94.5171C43.3288 94.3639 42.4074 55.299 42.4074 43.0433C42.4074 43.1965 42.4074 43.5029 42.4074 43.8093Z" fill="#FAC700"/>
<path d="M42.4074 46.5668C42.4074 46.4136 42.4074 46.1072 42.4074 45.954C42.4074 46.1072 42.4074 46.2604 42.4074 46.2604C42.4074 46.1072 42.4074 45.954 42.4074 45.8008V45.6477C42.4074 45.6477 42.4074 45.6477 42.4074 45.8008C42.4074 45.1881 42.4074 44.5753 42.5609 43.8093C42.5609 43.3497 42.5609 43.0433 42.7145 42.7369C42.7145 42.5837 42.7145 42.4305 42.7145 42.2773C42.7145 41.971 42.7145 41.8178 42.8681 41.5114V41.971C43.1752 40.439 43.3288 39.8262 43.7896 38.2943V38.1411V37.9879C43.7896 37.8347 43.9431 37.6815 43.9431 37.5283C44.2503 36.6091 44.711 35.5367 45.3253 34.3112C45.4789 34.158 45.4789 34.0048 45.6325 33.6984C45.6325 33.5452 45.786 33.392 45.786 33.392C45.9396 33.0856 46.0932 32.7792 46.2468 32.4728C46.2468 32.3196 46.4003 32.1664 46.4003 32.1664V32.0132V31.86C46.4003 31.7068 46.5539 31.5536 46.5539 31.4004C46.5539 31.4004 46.5539 31.2473 46.7075 31.2473C46.8611 30.9409 47.0146 30.6345 47.3218 30.3281L47.4754 30.1749C47.629 30.0217 47.629 29.8685 47.7825 29.7153L47.9361 29.5621C48.0897 29.2557 48.3968 28.9493 48.704 28.6429L48.8576 28.4897C49.0111 28.3365 49.1647 28.1833 49.3183 27.8769C49.9326 27.111 50.5469 26.345 51.1612 25.7322L51.3148 25.579L51.4684 25.4258C52.0827 24.6598 52.8505 24.047 53.4648 23.4343C53.4648 23.4343 53.4649 23.4343 53.6184 23.2811C54.0792 22.8215 54.5399 22.3619 55.0006 22.0555C55.3078 21.7491 55.6149 21.4427 56.0756 21.1363C57.3043 20.064 58.3793 19.298 60.8365 17.6128C61.1437 17.3064 61.6044 17 62.0651 16.8468L62.2187 16.6937L63.7545 15.7745L63.908 15.6213C64.3688 15.3149 64.8295 15.1617 65.2902 14.8553C70.0511 12.4042 75.7334 10.2594 81.7229 8.57427C83.2586 8.11469 84.3337 7.8083 86.4837 7.34871C91.8589 5.96995 96.3126 5.51036 96.3126 5.51036C96.6198 5.51036 96.7733 5.51036 97.0805 5.35716C98.3091 5.20397 99.5377 5.05077 100.92 4.89758C102.763 4.74438 104.145 4.59118 106.602 4.43799C107.217 4.43799 107.831 4.43799 108.599 4.43799C108.445 4.43799 108.292 4.43799 108.292 4.43799C108.752 4.43799 109.367 4.43799 109.674 4.43799C109.981 4.43799 110.134 4.43799 110.442 4.43799C110.749 4.43799 111.056 4.43799 111.363 4.43799C111.517 4.43799 111.824 4.43799 111.977 4.43799C112.285 4.43799 112.745 4.43799 113.052 4.43799C113.206 4.43799 113.513 4.43799 113.667 4.43799C113.82 4.43799 113.82 4.43799 113.974 4.43799C115.97 4.43799 117.967 4.59118 119.963 4.74438C126.106 5.05077 131.635 5.96995 136.703 7.19551C138.546 7.6551 140.235 8.11469 141.925 8.57427C143.614 9.03386 144.689 9.34025 146.839 10.1062C149.45 11.0254 151.446 11.9446 153.289 12.7106C155.132 13.4765 156.822 14.3957 158.511 15.3149C158.818 15.4681 158.972 15.6213 159.279 15.7745C159.74 16.0809 160.354 16.3873 160.815 16.6937C160.815 16.6937 160.968 16.6937 160.968 16.8468C161.122 17 161.275 17 161.429 17.1532C162.504 17.766 163.272 18.3788 164.04 18.8384C164.193 18.9916 164.347 19.1448 164.654 19.1448C165.422 19.6044 166.19 20.3703 167.111 20.9831C167.265 21.1363 167.418 21.1363 167.572 21.2895L168.493 22.3619C168.954 22.8215 169.415 23.2811 169.876 23.5875C172.486 25.8854 175.558 29.4089 177.708 34.0048C177.862 34.4644 178.169 34.924 178.322 35.3835C178.322 35.3835 179.397 37.8347 180.012 40.5922C180.165 41.6646 180.472 43.0433 180.472 44.1157C180.472 44.7285 180.472 45.4945 180.626 46.1072C180.626 56.3714 173.869 66.7887 160.2 74.6017C159.586 74.9081 158.972 75.2144 158.357 75.5208C158.357 75.5208 158.204 75.5208 158.204 75.674C158.204 75.674 158.05 75.674 158.05 75.8272H157.897C157.897 75.8272 157.743 75.8272 157.743 75.9804C157.743 75.9804 157.743 75.9804 157.59 75.9804C157.59 75.9804 157.436 75.9804 157.436 76.1336H157.282C157.282 76.1336 157.129 76.1336 157.129 76.2868C156.975 76.2868 156.975 76.44 156.822 76.44C156.668 76.44 156.668 76.5932 156.514 76.5932C156.361 76.5932 156.207 76.7464 156.207 76.7464C156.054 76.7464 156.054 76.8996 155.9 76.8996C155.747 76.8996 155.747 77.0528 155.593 77.0528C155.439 77.0528 155.439 77.206 155.286 77.206C155.286 77.206 155.132 77.206 155.132 77.3592C155.132 77.3592 154.979 77.3592 154.979 77.5124H154.825H154.672H154.518C154.364 77.5124 154.364 77.6656 154.211 77.6656C154.057 77.6656 153.904 77.8188 153.75 77.8188C153.597 77.8188 153.443 77.972 153.443 77.972C153.289 77.972 153.136 78.1252 152.982 78.1252C152.982 78.1252 152.982 78.1252 152.829 78.1252C152.675 78.1252 152.675 78.2784 152.521 78.2784C152.368 78.2784 152.214 78.4315 152.061 78.4315C151.907 78.4315 151.907 78.4316 151.754 78.5848C151.754 78.5848 151.754 78.5848 151.6 78.5848C151.6 78.5848 151.6 78.5848 151.446 78.5848H151.293C151.139 78.5848 151.139 78.7379 150.986 78.7379C150.832 78.7379 150.679 78.8911 150.525 78.8911C150.525 78.8911 150.371 78.8911 150.371 79.0443C150.218 79.0443 150.064 79.1975 149.911 79.1975C149.757 79.1975 149.604 79.3507 149.45 79.3507C149.45 79.3507 149.45 79.3507 149.296 79.3507H149.143C148.989 79.3507 148.989 79.3507 148.836 79.5039C148.682 79.5039 148.682 79.5039 148.529 79.6571C148.375 79.6571 148.221 79.8103 148.068 79.8103C147.914 79.8103 147.914 79.8103 147.761 79.9635C147.607 79.9635 147.453 80.1167 147.3 80.1167C147.146 80.1167 147.146 80.1167 146.993 80.2699C146.993 80.2699 146.993 80.2699 146.839 80.2699H146.686H146.532C146.378 80.2699 146.225 80.4231 146.071 80.4231C145.918 80.4231 145.764 80.5763 145.611 80.5763C145.457 80.5763 145.303 80.7295 145.303 80.7295C145.15 80.7295 145.15 80.7295 144.996 80.8827C144.843 80.8827 144.843 80.8827 144.689 81.0359H144.536H144.382C144.228 81.0359 144.075 81.1891 143.921 81.1891C143.768 81.1891 143.614 81.3423 143.46 81.3423H143.307C143.153 81.3423 143.153 81.3423 143 81.4955C142.846 81.4955 142.693 81.6487 142.539 81.6487C142.385 81.6487 142.385 81.6487 142.232 81.6487H142.078H141.925C141.771 81.6487 141.771 81.6487 141.618 81.6487C141.464 81.6487 141.157 81.8019 141.003 81.8019H140.85H140.696C140.543 81.8019 140.389 81.8019 140.389 81.9551C140.082 81.9551 139.928 82.1083 139.621 82.1083C139.468 82.1083 139.468 82.1083 139.314 82.1083C139.16 82.1083 139.007 82.1083 138.853 82.2614C138.7 82.2614 138.7 82.2614 138.546 82.2614H138.392C138.239 82.2614 138.239 82.2614 138.085 82.2614C137.932 82.2614 137.625 82.4146 137.471 82.4146C137.317 82.4146 137.164 82.4146 137.164 82.5678C137.01 82.5678 137.01 82.5678 136.857 82.5678H136.703C136.55 82.5678 136.396 82.5678 136.396 82.721C136.242 82.721 136.242 82.721 136.089 82.721H135.935C135.782 82.721 135.628 82.721 135.475 82.8742C135.321 82.8742 135.321 82.8742 135.167 82.8742H135.014C134.86 82.8742 134.707 82.8742 134.707 83.0274C134.707 83.0274 134.707 83.0274 134.553 83.0274H134.399C134.399 83.0274 134.246 83.0274 134.092 83.0274C133.939 83.0274 133.785 83.0274 133.785 83.0274C133.632 83.0274 133.632 83.0274 133.478 83.0274C133.324 83.0274 133.017 83.0274 132.864 83.1806C132.71 83.1806 132.557 83.1806 132.403 83.3338H132.249H132.096C131.942 83.3338 131.942 83.3338 131.789 83.3338C131.635 83.3338 131.635 83.3338 131.482 83.3338C131.328 83.3338 131.174 83.3338 131.021 83.3338C130.714 83.3338 130.56 83.487 130.253 83.487H130.099C129.946 83.487 129.792 83.487 129.792 83.487C129.639 83.487 129.485 83.487 129.178 83.6402C129.024 83.6402 129.024 83.6402 128.871 83.6402H128.717C128.564 83.6402 128.41 83.6402 128.256 83.6402C128.103 83.6402 128.103 83.6402 127.949 83.6402C127.796 83.6402 127.489 83.6402 127.335 83.7934C127.181 83.7934 127.181 83.7934 127.028 83.7934C126.874 83.7934 126.721 83.7934 126.414 83.7934C126.26 83.7934 125.953 83.7934 125.799 83.7934C125.646 83.7934 125.492 83.7934 125.492 83.7934H125.339C125.185 83.7934 125.185 83.7934 125.031 83.7934C124.878 83.7934 124.724 83.7934 124.571 83.7934C124.417 83.7934 124.263 83.7934 124.11 83.7934C123.956 83.7934 123.803 83.7934 123.803 83.7934C123.649 83.7934 123.496 83.7934 123.342 83.7934C123.035 83.7934 122.574 83.7934 122.267 83.9466C122.113 83.9466 121.96 83.9466 121.806 83.9466H121.653C121.499 83.9466 121.499 83.9466 121.346 83.9466C121.192 83.9466 121.038 83.9466 120.885 83.9466C120.731 83.9466 120.578 83.9466 120.424 83.9466C120.27 83.9466 120.117 83.9466 119.81 83.9466C119.349 83.9466 118.888 83.9466 118.428 84.0998C118.274 84.0998 118.274 84.0998 118.12 84.0998H117.967C117.813 84.0998 117.506 84.0998 117.353 84.0998C117.045 84.0998 116.585 84.0998 116.278 84.0998C116.278 84.0998 116.278 84.0998 116.124 84.0998C115.97 84.0998 115.817 84.0998 115.663 84.0998C115.51 84.0998 115.356 84.0998 115.202 84.0998C115.049 84.0998 115.049 84.0998 114.895 84.0998H114.742C114.588 84.0998 114.588 84.0998 114.435 84.0998C113.974 84.0998 113.513 84.0998 113.052 84.0998C112.745 84.0998 112.592 84.0998 112.285 84.0998C112.131 84.0998 112.131 84.0998 111.977 84.0998C111.824 84.0998 111.824 84.0998 111.67 84.0998C111.517 84.0998 111.517 84.0998 111.363 84.0998C111.209 84.0998 111.056 84.0998 110.902 84.0998C110.749 84.0998 110.595 84.0998 110.442 84.0998C110.134 84.0998 109.981 84.0998 109.674 84.0998C109.367 84.0998 109.059 84.0998 108.906 84.0998C108.752 84.0998 108.599 84.0998 108.292 84.0998C108.138 84.0998 108.138 84.0998 107.984 84.0998C107.831 84.0998 107.677 84.0998 107.37 84.0998H107.217C106.756 84.0998 106.295 84.0998 105.834 84.0998C105.681 84.0998 105.374 84.0998 105.22 84.0998C105.066 84.0998 104.913 84.0998 104.759 84.0998C104.606 84.0998 104.606 84.0998 104.452 84.0998C104.299 84.0998 104.145 84.0998 103.991 84.0998C103.531 84.0998 102.916 84.0998 102.456 83.9466C102.302 83.9466 102.149 83.9466 102.149 83.9466C101.995 83.9466 101.688 83.9466 101.534 83.9466C101.227 83.9466 100.92 83.9466 100.613 83.7934C100.459 83.7934 100.152 83.7934 99.9984 83.7934C99.8449 83.7934 99.5377 83.7934 99.3841 83.7934C99.2306 83.7934 99.077 83.7934 98.9234 83.7934C98.4627 83.7934 98.0019 83.6402 97.3876 83.6402C97.0805 83.6402 96.7733 83.487 96.4662 83.487C96.3126 83.487 96.159 83.487 96.0055 83.487C95.8519 83.487 95.6983 83.487 95.5447 83.3338C95.2376 83.3338 94.9304 83.1806 94.6233 83.1806C94.4697 83.1806 94.1625 83.1806 94.009 83.0274C93.7018 83.0274 93.3947 82.8742 93.0875 82.8742C92.7804 82.8742 92.4732 82.721 92.3196 82.721C92.166 82.721 91.8589 82.721 91.7053 82.5678C91.2446 82.4146 90.6303 82.4146 90.1696 82.2614C89.8624 82.2614 89.5553 82.1083 89.0945 82.1083C88.3266 81.9551 87.4052 81.8019 86.6373 81.6487C86.4837 81.6487 86.3302 81.6487 86.1766 81.4955C85.2551 81.3423 84.1801 81.0359 83.2586 80.7295C83.105 80.7295 82.7979 80.5763 82.6443 80.5763C81.8764 80.4231 81.2621 80.1167 80.4943 79.9635C80.1871 79.8103 79.88 79.8103 79.5728 79.6571C79.2656 79.5039 78.8049 79.5039 78.4978 79.3507C78.6513 79.3507 78.8049 79.3507 78.8049 79.5039C77.5763 79.0443 76.3477 78.7379 74.9655 78.2784C65.4438 74.9081 57.1507 70.159 51.4684 63.7248C51.4684 63.7248 51.4684 63.7248 51.4684 63.5716C51.3148 63.4184 51.3148 63.4184 51.1612 63.2652C51.0076 63.112 51.0076 63.112 50.854 62.9588L50.7005 62.8056C50.5469 62.6524 50.3933 62.4992 50.2397 62.1928C50.0862 62.0396 50.0862 62.0396 49.9326 61.8864C49.779 61.7332 49.6254 61.4268 49.3183 61.2736L49.1647 61.1204C49.1647 60.9672 49.0111 60.9672 49.0111 60.814C48.8576 60.6608 48.8576 60.6608 48.704 60.5076C48.5504 60.3545 48.5504 60.2013 48.3968 60.0481C48.2433 59.8949 48.2433 59.8949 48.0897 59.7417C48.0897 59.7417 48.0897 59.5885 47.9361 59.5885C47.9361 59.5885 47.9361 59.5885 47.7825 59.4353C47.629 59.2821 47.629 59.1289 47.4754 59.1289C47.3218 58.9757 47.3218 58.8225 47.1682 58.6693C47.1682 58.6693 47.1682 58.5161 47.0146 58.5161C47.0146 58.5161 47.0146 58.5161 47.0146 58.3629L46.8611 58.2097C46.8611 58.0565 46.7075 58.0565 46.7075 57.9033C46.7075 57.9033 46.7075 57.7501 46.5539 57.7501C46.4003 57.5969 46.4003 57.4437 46.2468 57.2905C46.2468 57.1373 46.0932 56.9841 46.0932 56.8309C46.0932 56.6778 45.9396 56.5246 45.9396 56.3714C45.9396 56.3714 45.9396 56.2182 45.786 56.2182V56.065C45.786 56.065 45.786 55.9118 45.6325 55.9118V55.7586C45.6325 55.6054 45.4789 55.6054 45.4789 55.4522C45.3253 55.299 45.3253 54.9926 45.1717 54.8394C45.1717 54.8394 45.1717 54.6862 45.0182 54.6862V54.533C44.8646 54.2266 44.8646 54.0734 44.711 53.767V53.6138C44.711 53.4606 44.711 53.4606 44.5574 53.3074C44.5574 53.1543 44.5574 53.1543 44.4039 53.0011C44.4039 53.0011 44.4039 52.8479 44.2503 52.8479C44.2503 52.6947 44.2503 52.6947 44.0967 52.5415C44.0967 52.3883 44.0967 52.3883 43.9431 52.2351C43.9431 52.0819 43.9431 52.0819 43.7896 51.9287V51.7755V51.6223C43.7896 51.6223 43.7896 51.6223 43.7896 51.4691C43.7896 51.3159 43.7896 51.1627 43.636 51.0095V50.8563V50.7031C43.636 50.5499 43.636 50.5499 43.636 50.3967C43.636 50.2435 43.636 50.2435 43.636 50.0903C43.636 50.0903 43.636 50.0903 43.636 49.9371V49.7839C43.636 49.7839 43.636 49.7839 43.636 49.9371V49.7839V49.6307V49.4776C43.636 49.3244 43.636 49.3244 43.636 49.1712C43.636 49.1712 43.636 49.1712 43.636 49.018C43.636 48.8648 43.636 48.8648 43.636 48.7116V48.5584C43.636 48.5584 43.636 48.5584 43.636 48.4052V48.252V48.0988C43.636 47.9456 43.636 47.9456 43.636 47.7924V47.6392V47.486V47.3328V47.1796V47.0264V46.8732C43.636 46.8732 43.636 46.8732 43.636 46.72C43.636 46.5668 43.636 46.2604 43.636 46.1072C43.636 46.2604 43.636 46.2604 43.636 46.4136C42.4074 46.8732 42.4074 46.72 42.4074 46.5668Z" fill="#E8B100"/>
<path d="M42.4073 43.0433C42.4073 42.8901 42.4073 42.5837 42.4073 42.4305C42.4073 43.3497 42.4073 42.4305 42.4073 42.2773C42.4073 41.3581 42.5609 39.5198 42.8681 38.141C42.8681 38.2942 42.8681 38.4474 42.8681 38.6006C44.711 26.9577 53.772 18.3788 63.4473 12.5573C70.8189 8.11466 79.1121 5.35713 87.4052 3.51878C90.3231 2.906 93.3946 2.29321 96.3126 1.98682C98.4627 1.68043 100.613 1.52724 102.763 1.22084C103.684 1.22084 104.606 1.06765 105.681 1.06765C106.141 1.06765 109.059 0.914453 108.138 0.914453C121.806 0.608061 135.628 2.29321 148.375 7.19548C158.972 11.1786 170.029 17.6128 176.019 27.4173C182.008 36.9155 182.162 48.4052 175.558 57.7501C170.183 65.2567 162.197 70.6185 153.75 74.2952C141.771 79.9635 127.489 82.721 114.281 82.721C111.977 82.721 109.52 82.721 107.217 82.721C97.6948 82.721 86.9444 80.7295 77.5763 77.6656C78.8049 77.9719 76.3477 77.206 76.3477 77.206C75.2726 76.8996 74.3512 76.44 73.2762 76.1336C71.4332 75.5208 69.5903 74.7548 67.7474 73.8357C64.3687 72.3037 60.9901 70.4653 57.9185 68.3206C53.772 65.4099 50.2397 61.8864 47.3218 57.7501C45.3253 54.6862 43.3288 50.8563 42.7145 47.486C42.4073 46.2604 42.2538 43.9625 42.2538 43.5029C42.4073 43.3497 42.4073 43.1965 42.4073 43.0433C42.4073 43.1965 42.4073 42.7369 42.4073 43.0433Z" fill="#FFDA00"/>
<g clip-path="url(#clip1_248_3964)">
<path d="M74.93 59.45C73.38 59.45 71.98 59.185 70.73 58.655C69.49 58.115 68.465 57.35 67.655 56.36C66.855 55.36 66.335 54.175 66.095 52.805L69.365 52.31C69.695 53.63 70.385 54.66 71.435 55.4C72.485 56.13 73.71 56.495 75.11 56.495C75.98 56.495 76.78 56.36 77.51 56.09C78.24 55.81 78.825 55.415 79.265 54.905C79.715 54.385 79.94 53.765 79.94 53.045C79.94 52.655 79.87 52.31 79.73 52.01C79.6 51.71 79.415 51.45 79.175 51.23C78.945 51 78.66 50.805 78.32 50.645C77.99 50.475 77.625 50.33 77.225 50.21L71.69 48.575C71.15 48.415 70.6 48.21 70.04 47.96C69.48 47.7 68.965 47.365 68.495 46.955C68.035 46.535 67.66 46.02 67.37 45.41C67.08 44.79 66.935 44.04 66.935 43.16C66.935 41.83 67.275 40.705 67.955 39.785C68.645 38.855 69.575 38.155 70.745 37.685C71.915 37.205 73.225 36.965 74.675 36.965C76.135 36.985 77.44 37.245 78.59 37.745C79.75 38.245 80.71 38.965 81.47 39.905C82.24 40.835 82.77 41.965 83.06 43.295L79.7 43.865C79.55 43.055 79.23 42.36 78.74 41.78C78.25 41.19 77.65 40.74 76.94 40.43C76.23 40.11 75.46 39.945 74.63 39.935C73.83 39.915 73.095 40.035 72.425 40.295C71.765 40.555 71.235 40.92 70.835 41.39C70.445 41.86 70.25 42.4 70.25 43.01C70.25 43.61 70.425 44.095 70.775 44.465C71.125 44.835 71.555 45.13 72.065 45.35C72.585 45.56 73.1 45.735 73.61 45.875L77.6 47C78.1 47.14 78.665 47.33 79.295 47.57C79.935 47.8 80.55 48.125 81.14 48.545C81.74 48.965 82.235 49.525 82.625 50.225C83.015 50.915 83.21 51.785 83.21 52.835C83.21 53.925 82.99 54.885 82.55 55.715C82.11 56.535 81.505 57.225 80.735 57.785C79.975 58.335 79.095 58.75 78.095 59.03C77.095 59.31 76.04 59.45 74.93 59.45ZM91.4916 59V40.355H84.3066V37.4H101.812V40.355H94.6266V59H91.4916ZM103.912 59V37.4H117.712V40.355H107.047V46.415H115.912V49.37H107.047V56.045H117.712V59H103.912ZM121.014 59V37.4H129.744C129.954 37.4 130.214 37.41 130.524 37.43C130.834 37.44 131.129 37.47 131.409 37.52C132.609 37.71 133.609 38.12 134.409 38.75C135.219 39.38 135.824 40.175 136.224 41.135C136.624 42.095 136.824 43.155 136.824 44.315C136.824 45.485 136.624 46.55 136.224 47.51C135.824 48.47 135.219 49.265 134.409 49.895C133.609 50.525 132.609 50.935 131.409 51.125C131.129 51.165 130.829 51.195 130.509 51.215C130.199 51.235 129.944 51.245 129.744 51.245H124.149V59H121.014ZM124.149 48.275H129.624C129.824 48.275 130.044 48.265 130.284 48.245C130.534 48.225 130.769 48.19 130.989 48.14C131.629 47.99 132.144 47.715 132.534 47.315C132.924 46.905 133.204 46.435 133.374 45.905C133.544 45.375 133.629 44.845 133.629 44.315C133.629 43.785 133.544 43.26 133.374 42.74C133.204 42.21 132.924 41.745 132.534 41.345C132.144 40.935 131.629 40.655 130.989 40.505C130.769 40.445 130.534 40.405 130.284 40.385C130.044 40.365 129.824 40.355 129.624 40.355H124.149V48.275ZM152.654 59.45C151.254 59.45 149.994 59.12 148.874 58.46C147.754 57.79 146.864 56.875 146.204 55.715C145.554 54.555 145.229 53.235 145.229 51.755V44.87C145.229 43.3 145.554 41.92 146.204 40.73C146.864 39.54 147.774 38.615 148.934 37.955C150.104 37.295 151.449 36.965 152.969 36.965C154.109 36.965 155.179 37.18 156.179 37.61C157.179 38.04 158.044 38.68 158.774 39.53L156.479 41.675C156.069 41.145 155.554 40.725 154.934 40.415C154.324 40.095 153.669 39.935 152.969 39.935C152.069 39.935 151.279 40.15 150.599 40.58C149.919 41 149.384 41.555 148.994 42.245C148.614 42.935 148.424 43.675 148.424 44.465V48.425L147.809 47.735C148.429 46.925 149.199 46.285 150.119 45.815C151.039 45.345 152.024 45.11 153.074 45.11C154.414 45.11 155.609 45.425 156.659 46.055C157.719 46.675 158.549 47.52 159.149 48.59C159.759 49.66 160.064 50.865 160.064 52.205C160.064 53.555 159.724 54.78 159.044 55.88C158.374 56.97 157.474 57.84 156.344 58.49C155.224 59.13 153.994 59.45 152.654 59.45ZM152.654 56.435C153.434 56.435 154.144 56.245 154.784 55.865C155.424 55.485 155.934 54.975 156.314 54.335C156.694 53.695 156.884 52.985 156.884 52.205C156.884 51.425 156.694 50.715 156.314 50.075C155.944 49.435 155.439 48.925 154.799 48.545C154.159 48.165 153.449 47.975 152.669 47.975C151.889 47.975 151.174 48.165 150.524 48.545C149.884 48.925 149.374 49.435 148.994 50.075C148.614 50.715 148.424 51.425 148.424 52.205C148.424 52.975 148.614 53.68 148.994 54.32C149.374 54.96 149.884 55.475 150.524 55.865C151.164 56.245 151.874 56.435 152.654 56.435Z" fill="#151515"/>
</g>
</g>
<defs>
<linearGradient id="paint0_linear_248_3964" x1="180.626" y1="87.7376" x2="42.4072" y2="87.7376" gradientUnits="userSpaceOnUse">
<stop stop-color="#FFD200"/>
<stop offset="1" stop-color="#FFB900"/>
</linearGradient>
<clipPath id="clip0_248_3964">
<rect width="138.219" height="130.216" fill="white" transform="matrix(-1 0 0 1 180.626 0.914551)"/>
</clipPath>
<clipPath id="clip1_248_3964">
<rect width="218.24" height="120.032" fill="white" transform="matrix(-1 0 0 1 214.817 35.8329)"/>
</clipPath>
</defs>
</svg>
