<svg width="104" height="101" viewBox="0 0 104 101" fill="none" xmlns="http://www.w3.org/2000/svg">
<rect width="103.141" height="100.969" rx="8" fill="#ECECEC"/>
<path d="M51.5541 55.7888C51.5541 54.5608 51.5541 53.3573 51.5541 52.1047C51.3576 52.1047 51.1733 52.1047 51.0013 52.1047C46.0876 52.1047 41.1738 52.1047 36.2601 52.1047C35.2773 52.1047 34.9948 51.8223 34.9948 50.8521C34.9948 49.5995 34.9948 48.3346 34.9948 47.082C34.9948 46.9347 34.9948 46.7873 34.9948 46.5908C34.7859 46.5908 34.6262 46.5908 34.4543 46.5908C32.9801 46.5908 31.506 46.5908 30.0319 46.5908C29.3685 46.5908 29 46.2347 29 45.5593C29 40.7085 29 35.8823 29 31.0438C29 30.3561 29.3562 30 30.0687 30C33.9629 30 37.8693 30 41.7635 30C42.4637 30 42.8199 30.3561 42.8199 31.0561C42.8199 35.87 42.8199 40.6962 42.8199 45.5101C42.8199 46.2347 42.4637 46.5785 41.7389 46.5785C40.1296 46.5785 38.5204 46.5785 36.8743 46.5785C36.8743 47.8066 36.8743 48.9978 36.8743 50.2381C41.7635 50.2381 46.6526 50.2381 51.5541 50.2381C51.5541 49.0346 51.5541 47.8434 51.5541 46.5785C51.3944 46.5785 51.2347 46.5785 51.0627 46.5785C49.6009 46.5785 48.1513 46.5785 46.6895 46.5785C45.9279 46.5785 45.5839 46.2347 45.5839 45.4856C45.5839 40.6839 45.5839 35.8823 45.5839 31.0684C45.5839 30.3439 45.9401 30 46.6649 30C50.5468 30 54.4286 30 58.3228 30C59.0476 30 59.4038 30.3439 59.4038 31.0684C59.4038 35.8823 59.4038 40.7085 59.4038 45.5224C59.4038 46.2224 59.0476 46.5663 58.3474 46.5663C56.8855 46.5663 55.436 46.5663 53.9741 46.5663C53.8021 46.5663 53.6424 46.5663 53.4459 46.5663C53.4459 47.8066 53.4459 48.9978 53.4459 50.2258C58.3351 50.2258 63.212 50.2258 68.1257 50.2258C68.1257 49.0223 68.1257 47.8189 68.1257 46.5663C67.966 46.5663 67.794 46.5663 67.6343 46.5663C66.1971 46.5663 64.7475 46.5663 63.3102 46.5663C62.5118 46.5663 62.1801 46.2347 62.1801 45.461C62.1801 40.6717 62.1801 35.8823 62.1801 31.093C62.1801 30.3316 62.524 30 63.2734 30C67.143 30 71.0125 30 74.8821 30C75.6683 30 76 30.3316 76 31.1298C76 35.9069 76 40.6717 76 45.4487C76 46.2347 75.6683 46.5663 74.8821 46.5785C73.4203 46.5785 71.9707 46.5785 70.5089 46.5785C70.3615 46.5785 70.2141 46.5785 70.0175 46.5785C70.0175 47.7206 70.0175 48.8258 70.0175 49.9311C70.0175 50.3118 70.0175 50.7048 70.0175 51.0854C70.0052 51.7486 69.6613 52.1047 68.9856 52.117C67.4624 52.1293 65.9514 52.117 64.4281 52.117C60.7919 52.117 57.1558 52.117 53.4705 52.117C53.4705 53.345 53.4705 54.5608 53.4705 55.7397C54.8095 55.9116 56.1362 56.059 57.4506 56.2678C58.8142 56.4888 60.1532 56.8818 61.3693 57.5449C61.9835 57.8765 62.5855 58.2818 63.0768 58.773C64.379 60.0379 64.3544 61.6711 63.0768 62.9729C62.1187 63.9553 60.8902 64.4956 59.6126 64.9132C56.8241 65.8096 53.9618 66.043 51.0627 65.8956C48.9498 65.7851 46.886 65.4658 44.896 64.729C43.7904 64.3237 42.7585 63.8079 41.9232 62.9483C40.7316 61.7203 40.6947 60.1238 41.8617 58.8712C42.8445 57.8151 44.1221 57.2502 45.4611 56.8204C47.0826 56.2923 48.7656 56.0099 50.4731 55.8871C50.7925 55.8502 51.161 55.8257 51.5541 55.7888ZM35.867 35.5262C36.6163 35.5262 37.3657 35.5385 38.115 35.5262C38.7047 35.5139 39.11 35.1455 39.1223 34.6297C39.1346 34.0894 38.7169 33.6964 38.1027 33.6964C36.6286 33.6841 35.1668 33.6841 33.6926 33.6964C33.0907 33.6964 32.6976 34.0771 32.6853 34.5929C32.673 35.1332 33.0907 35.5262 33.7049 35.5262C34.4297 35.5385 35.1545 35.5262 35.867 35.5262ZM52.4754 35.5262C53.2125 35.5262 53.9496 35.5262 54.6743 35.5262C55.3008 35.5262 55.7062 35.1455 55.7062 34.6051C55.7062 34.0648 55.2886 33.6964 54.662 33.6841C53.2125 33.6841 51.7507 33.6841 50.3011 33.6841C49.6746 33.6841 49.2692 34.0648 49.2692 34.6051C49.2692 35.1455 49.6869 35.5139 50.3134 35.5139C51.0382 35.5262 51.7507 35.5262 52.4754 35.5262ZM69.047 35.5262C69.7964 35.5262 70.5457 35.5385 71.2951 35.5262C71.8847 35.5139 72.2901 35.1455 72.3024 34.6174C72.3147 34.0894 71.9093 33.6964 71.3197 33.6841C69.8332 33.6718 68.3468 33.6718 66.8604 33.6841C66.2708 33.6841 65.8654 34.0648 65.8531 34.5929C65.8408 35.1332 66.2585 35.5139 66.885 35.5262C67.6098 35.5262 68.3223 35.5262 69.047 35.5262ZM35.8792 39.2103C36.6286 39.2103 37.3779 39.2226 38.1273 39.2103C38.7169 39.198 39.1223 38.8296 39.1346 38.3015C39.1469 37.7735 38.7415 37.3805 38.1519 37.3682C36.6654 37.3682 35.179 37.3682 33.6926 37.3682C33.103 37.3682 32.6976 37.7489 32.6853 38.277C32.673 38.8173 33.0907 39.198 33.7172 39.2103C34.442 39.2103 35.1545 39.2103 35.8792 39.2103ZM52.4631 39.2103C53.2002 39.2103 53.9373 39.2103 54.662 39.2103C55.2886 39.2103 55.7062 38.8419 55.7062 38.2893C55.7062 37.7489 55.2886 37.3682 54.6743 37.3682C53.2248 37.3682 51.7629 37.3682 50.3134 37.3682C49.6869 37.3682 49.2692 37.7489 49.2692 38.2893C49.2692 38.8296 49.6746 39.2103 50.3011 39.2103C51.0259 39.2103 51.7507 39.2103 52.4631 39.2103ZM69.047 39.2103C69.7841 39.2103 70.5212 39.2103 71.2459 39.2103C71.8724 39.2103 72.2901 38.8419 72.2901 38.3015C72.2901 37.7612 71.8847 37.3805 71.2582 37.3805C69.8087 37.3682 68.3468 37.3805 66.8973 37.3805C66.2708 37.3805 65.8531 37.7489 65.8531 38.2893C65.8531 38.8296 66.2585 39.2103 66.885 39.2103C67.6098 39.2103 68.3346 39.2103 69.047 39.2103ZM35.953 41.0524C35.2036 41.0524 34.4543 41.0401 33.7049 41.0524C33.0907 41.0646 32.673 41.4453 32.6853 41.9979C32.6976 42.526 33.103 42.8944 33.7049 42.8944C35.179 42.9067 36.6409 42.9067 38.115 42.8944C38.7169 42.8944 39.1223 42.526 39.1346 41.9979C39.1469 41.4576 38.7292 41.0646 38.115 41.0524C37.4025 41.0524 36.6777 41.0524 35.953 41.0524ZM52.5491 41.0524C51.8121 41.0524 51.075 41.0524 50.3502 41.0524C49.6992 41.0524 49.2692 41.4331 49.2815 41.9979C49.2938 42.5383 49.6992 42.8944 50.3379 42.8944C51.7752 42.8944 53.2125 42.8944 54.662 42.8944C55.3131 42.8944 55.7431 42.5137 55.7308 41.9611C55.7185 41.4208 55.3008 41.0646 54.6743 41.0646C53.9496 41.0524 53.2493 41.0524 52.5491 41.0524ZM69.0348 42.8944C69.7841 42.8944 70.5335 42.8944 71.2828 42.8944C71.897 42.8821 72.3147 42.5014 72.3024 41.9488C72.2901 41.4208 71.8847 41.0524 71.2828 41.0524C69.8087 41.0401 68.3468 41.0401 66.8727 41.0524C66.2585 41.0524 65.8408 41.4453 65.8531 41.9979C65.8654 42.526 66.2708 42.8944 66.8727 42.8944C67.5852 42.9067 68.31 42.8944 69.0348 42.8944Z" fill="#02314E"/>
<path d="M63.9982 68.6833C63.9982 69.9113 64.0473 71.0902 63.9859 72.2569C63.9245 73.2024 63.3225 73.8901 62.5978 74.455C61.3693 75.4129 59.9566 75.941 58.4702 76.2848C54.097 77.2918 49.736 77.2795 45.4242 75.9655C44.3309 75.634 43.299 75.1673 42.4022 74.4428C41.4564 73.6937 40.9158 72.7603 40.9773 71.5077C41.0264 70.5867 40.9895 69.6657 40.9895 68.6833C44.5766 70.7709 48.4584 71.4586 52.4877 71.4586C56.517 71.4463 60.4111 70.7709 63.9982 68.6833Z" fill="#02314E"/>
<path d="M40.9773 64.729C41.7512 65.1711 42.4882 65.65 43.2622 66.0184C45.3505 67.0131 47.5985 67.4307 49.8834 67.6394C52.93 67.9096 55.9519 67.7377 58.9247 67.0008C60.7305 66.5465 62.4503 65.8833 64.0105 64.6184C64.0105 65.3307 64.0227 65.9693 63.9982 66.5956C63.9982 66.7061 63.8385 66.8412 63.7156 66.9272C62.1555 68.0692 60.3866 68.7569 58.5193 69.1867C53.8881 70.2429 49.3061 70.1692 44.7608 68.6955C43.5447 68.3026 42.4022 67.7377 41.3458 67.0131C41.0633 66.8166 40.9281 66.6201 40.9527 66.264C41.0018 65.7482 40.9773 65.2325 40.9773 64.729Z" fill="#02314E"/>
</svg>
