<svg width="104" height="101" viewBox="0 0 104 101" fill="none" xmlns="http://www.w3.org/2000/svg">
<rect width="103.141" height="100.969" rx="8" fill="#ECECEC"/>
<path d="M38.2831 41.3226C40.0836 39.5146 41.8241 37.7669 43.5496 36.0343C43.6846 35.8987 43.8197 35.7631 43.9397 35.6275C44.2398 35.3261 44.3898 34.9796 44.1948 34.5578C43.9997 34.1208 43.6396 34.0003 43.1895 34.0003C42.6644 34.0003 42.1242 34.0003 41.6441 33.8496C39.8886 33.3223 38.8683 31.4993 39.2434 29.6762C39.6185 27.8682 41.284 26.6931 43.1745 26.8889C44.99 27.0697 46.3554 28.6065 46.3554 30.4597C46.3554 30.6405 46.2804 30.8665 46.3404 31.0171C46.4604 31.3185 46.5954 31.7403 46.8505 31.8609C47.1056 31.9814 47.5557 31.891 47.8108 31.7253C48.2309 31.439 48.576 31.0021 48.9511 30.6405C50.4815 29.0886 52.0119 27.5368 53.5274 26C54.8927 27.3861 56.2131 28.712 57.5185 30.0378C55.2378 31.4089 54.1125 33.4428 54.7277 36.1699C55.2528 38.475 56.8133 39.9064 59.1539 40.2529C61.6746 40.6295 63.5352 39.5146 64.7805 37.3903C66.0859 38.701 67.3912 40.0269 68.7566 41.3979C68.7116 41.4431 68.5766 41.5938 68.4415 41.7294C66.746 43.4319 65.0506 45.1495 63.3551 46.8369C63.01 47.1684 62.7549 47.53 62.95 48.0272C63.16 48.5545 63.6252 48.5997 64.1203 48.5696C66.1759 48.4792 67.7813 49.8352 67.9764 51.7787C68.1714 53.7374 66.8961 55.3947 64.9305 55.7412C62.7699 56.1179 60.7444 54.2948 60.8194 52.0499C60.8194 51.9595 60.8344 51.8691 60.8494 51.7637C60.9094 51.3117 60.7744 50.935 60.3543 50.7241C59.8891 50.483 59.514 50.6789 59.1989 51.0103C59.0039 51.2062 58.8238 51.4171 58.5388 51.7335C58.4037 50.1516 57.8336 48.9462 56.6632 48.0724C55.763 47.4095 54.7577 47.1081 53.6474 47.1985C52.342 47.304 51.2767 47.8765 50.4665 48.901C49.8664 49.6393 49.7763 49.9708 49.4312 52.5019C48.9361 51.9897 48.471 51.5226 48.0358 51.0555C47.7058 50.709 47.3457 50.4679 46.8505 50.709C46.3854 50.935 46.3404 51.3418 46.3554 51.8089C46.4454 54.0839 44.9 55.7864 42.7844 55.7864C40.8038 55.7864 39.1684 54.1442 39.1834 52.1403C39.1984 50.1666 40.8038 48.5545 42.7844 48.5545C43.0094 48.5545 43.2495 48.6298 43.4596 48.5696C43.7447 48.4641 44.1048 48.3134 44.2098 48.0874C44.3298 47.8313 44.2248 47.4547 44.1348 47.1533C44.0747 46.9725 43.8647 46.852 43.7296 46.7013C41.8991 44.9235 40.1136 43.1456 38.2831 41.3226Z" fill="#02314E"/>
<path d="M48.0208 53.5716C48.501 54.0688 48.9511 54.4907 49.3412 54.9728C49.4612 55.1235 49.4912 55.3796 49.4912 55.5905C49.5063 58.3929 49.4912 61.1953 49.4912 63.9976C49.4912 64.1634 49.4762 64.3442 49.5063 64.5099C49.5963 64.992 49.8964 65.2934 50.3915 65.2783C50.8866 65.2783 51.1867 64.977 51.2767 64.4948C51.3068 64.314 51.2917 64.1182 51.2917 63.9374C51.2917 59.8694 51.2917 55.8015 51.2917 51.7335C51.2917 50.5433 52.042 49.5188 53.1373 49.1572C54.2476 48.7956 55.5079 49.127 56.1231 50.1214C56.4382 50.6337 56.6632 51.2966 56.6632 51.8993C56.7083 55.3947 56.6933 58.9052 56.6782 62.4006C56.6782 63.862 56.9633 65.2331 57.6535 66.5288C58.8238 68.7285 58.8388 70.9282 57.6385 73.0978C56.9783 74.3031 56.4532 75.5386 56.7383 77C52.4921 77 48.3209 77 44.0897 77C44.0897 76.7288 44.1198 76.4425 44.0897 76.1713C43.9847 75.5687 43.9397 74.9208 43.7146 74.3634C42.5893 71.6363 41.419 68.9244 40.2637 66.2124C39.9786 65.5344 39.9486 64.8564 40.1737 64.1784C40.8789 62.1143 41.5991 60.0653 42.3193 58.0012C42.3793 57.8355 42.5893 57.6095 42.7244 57.5944C45.3651 57.4739 47.0756 56.1329 48.0208 53.5716Z" fill="#02314E"/>
<path d="M59.0489 53.6168C59.9792 55.922 61.5396 57.2177 63.9103 57.5944C63.9103 58.5888 63.9103 59.5832 63.9103 60.5775C63.9103 61.1953 63.9103 61.813 63.9103 62.4458C63.8952 63.169 63.5352 63.5155 62.83 63.4854C60.6093 63.4402 58.6288 61.5418 58.5388 59.2818C58.4787 57.6999 58.4937 56.1179 58.5388 54.551C58.5388 54.2346 58.8689 53.9332 59.0489 53.6168Z" fill="#02314E"/>
<path d="M30.601 42.6936C29.7608 42.6936 28.9205 42.6936 28.0653 42.6936C27.4051 42.6936 27 42.3471 27 41.7897C27 41.2322 27.4051 40.8857 28.0653 40.8857C29.7458 40.8857 31.4412 40.8857 33.1217 40.8857C33.7819 40.8857 34.187 41.2322 34.187 41.7897C34.187 42.3321 33.7819 42.6936 33.1217 42.6936C32.2815 42.6936 31.4412 42.6936 30.601 42.6936Z" fill="#02314E"/>
<path d="M77.354 42.6936C76.5288 42.6936 75.7035 42.6936 74.8783 42.6936C74.2181 42.6936 73.813 42.3471 73.813 41.7897C73.813 41.2322 74.2181 40.8857 74.8783 40.8857C76.5588 40.8857 78.2542 40.8857 79.9347 40.8857C80.5949 40.8857 81 41.2322 81 41.7897C81 42.3321 80.5949 42.6936 79.9347 42.6936C79.0795 42.6936 78.2242 42.6936 77.354 42.6936Z" fill="#02314E"/>
<path d="M29.6707 55.8015C29.1606 55.7713 28.8605 55.5453 28.7405 55.1235C28.6054 54.6564 28.8005 54.3099 29.2056 54.0839C30.2709 53.4662 31.3362 52.8334 32.4165 52.2157C32.8516 51.9595 33.2867 51.7034 33.7369 51.4623C34.292 51.161 34.7872 51.2514 35.0572 51.7034C35.3273 52.1554 35.1923 52.6827 34.6671 52.9991C33.1517 53.888 31.6213 54.777 30.1059 55.6508C29.9408 55.7412 29.7758 55.7713 29.6707 55.8015Z" fill="#02314E"/>
<path d="M73.813 51.2665C73.948 51.3267 74.1431 51.387 74.3081 51.4774C75.7635 52.3211 77.234 53.1498 78.6894 54.0086C79.2745 54.3551 79.4546 54.8372 79.1845 55.3193C78.9144 55.8165 78.3893 55.922 77.7741 55.5755C76.3037 54.7318 74.8333 53.873 73.3479 53.0142C72.9278 52.7731 72.7027 52.4417 72.8527 51.9445C73.0028 51.5075 73.3029 51.3117 73.813 51.2665Z" fill="#02314E"/>
<path d="M29.4757 27.6874C29.8358 27.8381 30.0458 27.9134 30.2259 28.0189C31.6663 28.8476 33.1067 29.6762 34.5471 30.5199C35.1473 30.8665 35.3273 31.3938 35.0272 31.8759C34.7422 32.343 34.247 32.4334 33.6468 32.0869C32.1764 31.2431 30.706 30.3843 29.2356 29.5256C28.8305 29.2845 28.5454 28.9229 28.7555 28.4558C28.8905 28.1394 29.2356 27.9285 29.4757 27.6874Z" fill="#02314E"/>
<path d="M79.3045 28.8777C79.1995 28.9982 79.0645 29.3146 78.8244 29.4653C77.309 30.3843 75.7635 31.2733 74.2181 32.1471C73.723 32.4334 73.1978 32.2827 72.9578 31.8307C72.7027 31.3787 72.8527 30.8815 73.3479 30.5802C74.8633 29.6913 76.3787 28.8024 77.9091 27.9436C78.5843 27.5669 79.3195 27.9888 79.3045 28.8777Z" fill="#02314E"/>
</svg>
