<svg width="104" height="101" viewBox="0 0 104 101" fill="none" xmlns="http://www.w3.org/2000/svg">
<rect width="103.141" height="100.969" rx="8" fill="#ECECEC"/>
<path d="M68.6218 58.3937C68.6743 58.6295 68.7205 58.8376 68.7637 59.0318C69.3837 61.82 70.0176 64.6051 70.6267 67.4102C71.0014 69.1612 70.2279 70.6725 68.6835 71.2779C67.1423 71.8972 65.4038 71.2356 64.6132 69.781C64.4649 69.5082 64.2023 69.2464 63.9396 69.1155C60.1321 67.3563 56.0815 66.5392 51.9085 66.2879C49.9997 66.1737 48.0693 66.2245 46.1465 66.2444C45.7694 66.2555 45.6551 66.1353 45.5811 65.8024C44.7159 61.8459 43.8368 57.8925 42.9439 53.9421C42.8575 53.5537 42.9889 53.4226 43.3244 53.2898C48.092 51.3562 52.4889 48.8063 56.2387 45.2503C56.9516 44.5823 57.5902 43.8434 58.2459 43.1153C58.3882 42.9672 58.478 42.7143 58.4904 42.5078C58.5655 40.7442 59.7114 39.3976 61.3205 39.2145C63.0748 39.0282 64.5133 40.0476 64.922 41.8201C65.5729 44.616 66.1712 47.4381 66.7943 50.2402C66.8405 50.4483 66.8837 50.6425 66.9392 50.8922C68.3181 50.5274 69.5591 50.659 70.6592 51.5353C71.4579 52.1729 71.9088 53.0189 72.0583 54.0193C72.3973 56.0693 71.0827 57.7737 68.6218 58.3937Z" fill="#02314E"/>
<path d="M38.4052 46.0712C37.9707 46.4153 37.4961 46.7101 37.1187 47.1143C36.6347 47.6295 36.3905 47.7129 35.7956 47.3357C35.2857 47.0124 34.7619 46.6921 34.2659 46.3657C33.77 46.0392 33.6743 45.7402 33.9435 45.2437C34.4416 44.3322 34.4482 43.4427 33.835 42.5892C33.2419 41.7603 32.4167 41.4634 31.4074 41.5859C30.7968 41.6634 30.5527 41.4848 30.4092 40.9053C30.2565 40.2841 30.1177 39.6599 29.9928 39.0326C29.8865 38.4885 30.0674 38.1862 30.6008 38.024C31.5731 37.735 32.1916 37.1025 32.3776 36.1003C32.5635 35.0982 32.2085 34.2891 31.3989 33.6685C30.8875 33.2727 30.8397 32.9922 31.1862 32.4493C31.5218 31.9234 31.8436 31.4005 32.1931 30.8715C32.5071 30.3795 32.8209 30.2807 33.3216 30.5624C34.2178 31.0473 35.1065 31.0389 35.9445 30.4741C36.8072 29.8892 37.1337 29.0596 36.975 28.0177C36.8841 27.4119 37.0806 27.179 37.6927 27.0429C38.3187 26.9037 38.9447 26.7645 39.5708 26.6253C40.0855 26.5108 40.4193 26.6986 40.5581 27.1918C40.842 28.206 41.4785 28.836 42.5078 29.0002C43.5263 29.1813 44.3626 28.8061 44.9627 27.9594C45.2643 27.5429 45.6461 27.4871 46.0849 27.7535C46.6118 28.0876 47.1387 28.4218 47.6656 28.7559C48.2605 29.1331 48.3191 29.3967 47.9942 30.0367C47.3181 31.3953 47.8846 32.958 49.2924 33.4456C49.6725 33.5795 50.1285 33.5945 50.5442 33.5603C51.164 33.5244 51.4298 33.6691 51.5794 34.2764C51.7291 34.8836 51.8617 35.4801 51.9835 36.0936C52.093 36.6515 51.9506 36.9306 51.4065 37.1099C50.4233 37.4158 49.7739 38.0406 49.5941 39.0705C49.4143 40.1004 49.7972 40.9033 50.6486 41.5146C51.0657 41.8149 51.1212 42.1956 50.8505 42.6198C50.5257 43.1287 50.2008 43.6377 49.876 44.1466C49.4754 44.7743 49.2281 44.8439 48.5559 44.5129C46.918 43.7126 45.0534 44.7822 44.9784 46.5458C44.9691 46.6352 44.9737 46.7216 44.9783 46.8079C45.0612 47.8376 45.0071 47.9224 44.0193 48.142C43.5463 48.2472 43.0872 48.3493 42.6142 48.4545C41.8491 48.6246 41.6482 48.5091 41.3781 47.754C40.9552 46.5087 39.7871 45.8513 38.5072 46.1359C38.4654 46.1452 38.4423 46.1067 38.4052 46.0712ZM41.9976 42.0698C44.4847 41.5022 46.0547 39.0423 45.5026 36.5593C44.9505 34.0762 42.4752 32.5304 39.971 33.0872C37.4808 33.6409 35.9031 36.1316 36.466 38.5977C37.032 41.0776 39.5243 42.6343 41.9976 42.0698Z" fill="#02314E"/>
<path d="M43.6299 67.0078C41.1953 67.5491 38.8148 68.2677 36.4004 68.5717C33.1019 68.9703 29.9779 66.4768 29.2608 63.1861C28.5437 59.8954 30.3785 56.4595 33.4873 55.2733C33.8644 55.1312 34.2586 54.9999 34.6621 54.9102C36.6345 54.457 38.627 54.0286 40.6442 53.58C41.6466 58.0883 42.6429 62.5689 43.6299 67.0078Z" fill="#02314E"/>
<path d="M39.5093 70.2096C40.9979 69.8786 42.4587 69.5538 43.9194 69.229C44.0585 69.198 44.2007 69.181 44.3847 69.1546C44.7906 70.2581 45.1935 71.3477 45.5964 72.4372C46.0378 73.6347 46.4654 74.8352 46.9207 76.0296C47.3468 77.1577 47.1131 77.7483 46.017 78.2686C45.4744 78.5203 44.9209 78.7889 44.3752 79.0267C43.5636 79.3819 42.7384 79.085 42.4421 78.2774C41.4711 75.6837 40.528 73.0838 39.571 70.487C39.5587 70.4315 39.5402 70.3483 39.5093 70.2096Z" fill="#02314E"/>
<path d="M79.7779 61.6196C80.0138 62.7463 79.0536 63.6149 77.9826 63.3289C76.9565 63.0476 75.9459 62.7046 74.9244 62.3785C74.3928 62.2201 73.8612 62.0618 73.3543 61.8833C72.5492 61.6111 72.1508 60.8699 72.3783 60.1205C72.6167 59.3542 73.3712 58.9389 74.215 59.188C75.748 59.6478 77.2732 60.1385 78.7954 60.6152C79.3162 60.7906 79.6591 61.151 79.7779 61.6196Z" fill="#02314E"/>
<path d="M75.7003 43.2812C75.7743 43.7452 75.6272 44.2001 75.2406 44.5626C74.0531 45.6564 72.8686 46.7641 71.661 47.8333C71.0409 48.3934 70.1646 48.3262 69.644 47.7577C69.1234 47.1893 69.1501 46.3245 69.7671 45.7506C70.9516 44.6429 72.1391 43.549 73.3467 42.4798C74.1864 41.7254 75.4613 42.1407 75.7003 43.2812Z" fill="#02314E"/>
<path d="M77.7523 53.8887C77.0428 54.0464 76.3364 54.2181 75.6099 54.365C74.7164 54.5492 73.9748 54.1027 73.8098 53.295C73.651 52.5151 74.1227 51.8133 74.9822 51.6077C76.4398 51.269 77.9006 50.9442 79.3644 50.6333C80.23 50.4553 80.9408 50.8942 81.1305 51.6818C81.3063 52.4724 80.8485 53.1711 79.9921 53.3906C79.244 53.5715 78.5036 53.7216 77.7523 53.8887Z" fill="#02314E"/>
</svg>
