<svg width="104" height="102" viewBox="0 0 104 102" fill="none" xmlns="http://www.w3.org/2000/svg">
<path d="M0.859009 8.05811C0.859009 3.63983 4.44073 0.0581055 8.85901 0.0581055H96C100.418 0.0581055 104 3.63983 104 8.05811V93.0269C104 97.4452 100.418 101.027 96 101.027H8.85902C4.44074 101.027 0.859009 97.4452 0.859009 93.0269V8.05811Z" fill="#ECECEC"/>
<path d="M73.37 68.6199C73.1076 68.6199 72.9406 68.6199 72.7498 68.6199C69.267 68.6199 65.7842 68.6199 62.2775 68.6199C60.9655 68.6199 59.9397 69.0857 59.2002 70.2266C58.8185 70.8087 58.2699 71.0881 57.5781 71.0881C54.1669 71.0881 50.7318 71.0881 47.3205 71.0881C46.6287 71.0881 46.0801 70.8087 45.6984 70.2266C44.9589 69.0857 43.9331 68.6199 42.6211 68.6199C39.1383 68.6432 35.6555 68.6199 32.1488 68.6199C31.958 68.6199 31.791 68.6199 31.5286 68.6199C31.5286 68.4104 31.5286 68.2241 31.5286 68.0378C31.5286 59.632 31.5286 51.2262 31.5286 42.8203C31.5286 41.074 32.4112 40.1892 34.1049 40.1892C37.5877 40.1892 41.0705 40.1892 44.5772 40.1892C44.9112 40.1892 45.1259 40.259 45.3406 40.5384C45.7461 41.1206 46.3425 41.4233 47.0343 41.5397C47.1535 41.563 47.2967 41.5862 47.4398 41.6328C47.4398 41.9122 47.4398 42.1684 47.4398 42.4711C47.2251 42.4711 47.0343 42.4944 46.8434 42.4944C43.4083 42.4944 39.9732 42.4944 36.5381 42.4944C34.6775 42.4944 33.8187 43.3792 33.8187 45.242C33.8187 51.2727 33.8187 57.2802 33.8187 63.311C33.8187 65.1272 34.7013 66.0121 36.4666 66.0121C47.1297 66.0121 57.7928 66.0121 68.4559 66.0121C70.2212 66.0121 71.1038 65.1039 71.1038 63.2877C71.1038 57.2569 71.1038 51.2495 71.1038 45.2187C71.1038 43.3792 70.2212 42.4711 68.4082 42.4711C64.9731 42.4711 61.538 42.4711 58.1029 42.4711C57.9121 42.4711 57.6974 42.4711 57.4827 42.4711C57.4827 42.1684 57.4827 41.9122 57.4827 41.6095C57.5781 41.5862 57.6974 41.5397 57.8405 41.5164C58.58 41.4 59.1525 41.0274 59.6296 40.4686C59.7727 40.3056 60.0351 40.1659 60.226 40.1659C63.7804 40.1426 67.3347 40.1426 70.8891 40.1426C72.4397 40.1426 73.3462 41.074 73.3462 42.6806C73.3462 50.9468 73.3462 59.2129 73.3462 67.479C73.37 67.8748 73.37 68.2008 73.37 68.6199Z" fill="#02314E"/>
<path d="M52.4732 75C45.6745 75 38.8998 75 32.1011 75C30.1212 75 29 73.859 29 71.81C29 70.18 29 70.1567 30.5744 70.1567C34.582 70.1567 38.5896 70.1567 42.5973 70.1567C43.456 70.1567 44.0763 70.4362 44.5534 71.1813C45.1974 72.1592 46.1278 72.6249 47.2967 72.6482C50.7795 72.6482 54.2384 72.6482 57.7212 72.6482C58.8663 72.6482 59.7966 72.1592 60.4407 71.1813C60.9178 70.4595 61.5141 70.18 62.3491 70.18C66.5475 70.2033 70.7221 70.18 74.9206 70.18C75.7793 70.18 75.994 70.4129 75.994 71.2744C75.994 71.6936 76.0179 72.1127 75.9702 72.5085C75.7793 73.9522 74.6343 75 73.1553 75C71.1276 75 69.1 75 67.0723 75C62.1821 75 57.3157 75 52.4732 75Z" fill="#02314E"/>
<path d="M67.12 64.4985C67.12 63.8 67.12 63.1946 67.12 62.5892C67.12 60.4703 65.9989 59.1663 63.9712 58.817C63.9235 58.817 63.8758 58.7937 63.8758 58.7705C63.7565 58.2349 63.6849 57.6994 63.4941 57.2104C62.9931 55.8599 62.0628 54.9517 60.7031 54.5326C60.3214 54.4162 60.1306 54.2066 59.9397 53.8806C58.6039 51.3659 57.9359 48.6648 57.6735 45.8474C57.6258 45.2885 57.5781 44.7297 57.5304 44.101C57.7451 44.101 57.8882 44.0777 58.0552 44.0777C61.538 44.0777 65.0208 44.0777 68.5275 44.0777C69.4101 44.0777 69.6248 44.3106 69.6248 45.2187C69.6248 51.2727 69.6248 57.3268 69.6248 63.3809C69.6248 64.2657 69.3862 64.4985 68.5275 64.5218C68.0742 64.4985 67.6448 64.4985 67.12 64.4985Z" fill="#02314E"/>
<path d="M47.3921 44.0544C47.2728 46.5692 46.9388 48.9443 46.1278 51.2262C45.77 52.1809 45.3167 53.1122 44.8873 54.0204C44.8158 54.1833 44.6249 54.3463 44.4818 54.3929C42.478 55.0449 41.3807 56.442 41.166 58.5842C41.166 58.6308 41.1421 58.6773 41.1183 58.7239C40.8081 58.7937 40.498 58.8403 40.1879 58.9335C38.8043 59.3992 37.874 60.6798 37.8263 62.1701C37.8024 62.9152 37.8263 63.637 37.8263 64.4287C37.1822 64.4287 36.5858 64.452 35.9895 64.4287C35.6078 64.4054 35.417 64.1027 35.3454 63.7301C35.3215 63.5671 35.3454 63.4274 35.3454 63.2644C35.3454 57.2337 35.3454 51.2262 35.3454 45.1954C35.3454 44.2174 35.5601 44.0079 36.4904 44.0079C39.9494 44.0079 43.4083 44.0079 46.8434 44.0079C47.0104 44.0544 47.1774 44.0544 47.3921 44.0544Z" fill="#02314E"/>
<path d="M65.6172 64.4753C56.8147 64.4753 48.1077 64.4753 39.3769 64.4753C39.3769 63.5671 39.2814 62.6823 39.4007 61.8208C39.52 61.0058 40.1402 60.4935 40.9513 60.3538C41.1898 60.3073 41.4284 60.3073 41.6431 60.3073C48.8472 60.3073 56.0514 60.3305 63.2555 60.284C64.7107 60.284 65.7126 61.1921 65.5933 62.6823C65.5933 63.2644 65.6172 63.8466 65.6172 64.4753Z" fill="#02314E"/>
<path d="M46.5095 55.6154C48.4655 51.6104 49.1573 45.1106 49.0619 40.7097C51.3758 40.7097 53.6421 40.7097 55.9321 40.7097C55.956 45.064 56.3615 51.6337 58.413 55.6154C54.4293 55.6154 50.5171 55.6154 46.5095 55.6154Z" fill="#02314E"/>
<path d="M52.497 36.2075C51.3281 36.2075 50.1592 36.1842 48.9665 36.2075C48.561 36.2075 48.2747 36.0445 48.06 35.7185C46.748 33.8324 46.6526 31.2478 47.9885 29.4083C49.873 26.8469 53.0218 26.2183 55.6459 28.0578C58.0791 29.8041 58.6039 33.3201 56.8386 35.765C56.6239 36.0677 56.3854 36.2075 56.0037 36.2075C54.8348 36.2075 53.6659 36.2075 52.497 36.2075Z" fill="#02314E"/>
<path d="M62.2536 60.5694C55.7174 60.5694 49.205 60.5694 42.6927 60.5694C42.6688 59.0326 43.9331 57.7054 45.4837 57.6821C47.3682 57.6588 49.2289 57.6821 51.1134 57.6821C53.8567 57.6821 56.6239 57.6821 59.3672 57.6821C60.8701 57.6821 62.039 58.7765 62.2536 60.29C62.2775 60.3832 62.2536 60.4763 62.2536 60.5694Z" fill="#02314E"/>
<path d="M52.4732 37.7675C54.0237 37.7675 55.5981 37.7675 57.1487 37.7675C57.3396 37.7675 57.5542 37.7675 57.7451 37.8141C58.2222 37.9072 58.6039 38.3264 58.6277 38.8154C58.6516 39.3276 58.4369 39.7235 57.9598 39.9097C57.6974 40.0262 57.3634 40.0494 57.0772 40.0727C53.9999 40.0727 50.8987 40.096 47.8215 40.0727C47.4875 40.0727 47.1535 40.0262 46.8434 39.8865C46.414 39.6769 46.1993 39.281 46.2709 38.7921C46.3425 38.2798 46.6287 37.9538 47.1297 37.8374C47.3205 37.7908 47.5352 37.7908 47.726 37.7908C49.3243 37.7675 50.8987 37.7675 52.4732 37.7675Z" fill="#02314E"/>
</svg>
