<svg width="104" height="101" viewBox="0 0 104 101" fill="none" xmlns="http://www.w3.org/2000/svg">
<rect width="103.141" height="100.969" rx="8" fill="#ECECEC"/>
<path d="M40.3491 68.5723C39.4005 68.5141 38.4375 68.5578 37.5177 68.3542C35.5774 67.9472 34.2551 66.2464 34.212 64.2549C34.1832 63.0047 34.1976 61.7546 34.1976 60.4899C34.1976 59.1961 33.8239 58.0332 32.9759 57.0301C31.9842 55.8381 31.0212 54.617 30.0439 53.396C28.6641 51.6661 28.6497 49.3547 30.0151 47.6249C31.0069 46.3747 31.9986 45.1246 33.0047 43.9035C33.7952 42.9586 34.1689 41.8683 34.1832 40.6473C34.1976 39.4262 34.1832 38.2196 34.1832 36.9985C34.212 34.3674 36.0373 32.5212 38.6388 32.4776C40.1048 32.4631 41.5852 32.4776 43.0512 32.3904C44.0429 32.3322 44.8909 31.8525 45.6239 31.1548C46.6444 30.1808 47.6648 29.2214 48.6997 28.2474C50.41 26.6338 52.954 26.5757 54.7218 28.1311C55.8717 29.1342 57.0358 30.1517 58.1713 31.1838C59.1486 32.0706 60.2841 32.4631 61.5633 32.4776C62.7418 32.4921 63.9348 32.4776 65.1133 32.4776C67.7148 32.5067 69.5401 34.3528 69.5689 36.984C69.5832 38.1324 69.5545 39.2808 69.5689 40.4147C69.5832 41.6794 69.9713 42.7987 70.8193 43.7436C71.811 44.8629 72.7596 46.0404 73.7801 47.1452C75.4186 48.9041 75.4042 52.233 73.7513 53.9193C72.8027 54.8932 71.9691 55.969 71.078 56.9865C70.2156 57.9459 69.8276 59.0944 69.8132 60.3736C69.7988 61.5511 69.8132 62.7285 69.8132 63.9205C69.7845 66.668 67.9879 68.4996 65.2858 68.5141C64.136 68.5287 62.9862 68.5141 61.8363 68.5141C60.5284 68.5141 59.3786 68.9212 58.3869 69.8225C57.2514 70.8546 56.1016 71.8721 54.9374 72.8752C53.184 74.387 50.7693 74.3724 49.0302 72.8461C47.8804 71.8431 46.7162 70.8255 45.5808 69.7934C44.6322 68.9357 43.5255 68.5432 42.2894 68.5141C41.6427 68.4996 40.9959 68.5141 40.3491 68.5141C40.3491 68.5287 40.3491 68.5578 40.3491 68.5723ZM49.5908 53.5849C49.3608 53.2651 49.2602 53.0907 49.1165 52.9453C47.8661 51.6661 46.6156 50.3869 45.3365 49.1367C45.0777 48.875 44.7472 48.657 44.4022 48.5407C43.6261 48.2936 42.8069 48.6424 42.4044 49.3402C41.9732 50.067 42.0882 50.9392 42.7206 51.5789C44.4597 53.3378 46.1988 55.0968 47.9379 56.8557C48.9153 57.8297 49.792 57.8297 50.7693 56.8412C54.2763 53.2942 57.7689 49.7618 61.2758 46.2148C61.4195 46.0694 61.5633 45.9386 61.6782 45.7787C62.4687 44.7321 61.9369 43.2493 60.6721 42.9295C59.9104 42.7405 59.3211 43.0603 58.8037 43.5982C55.8717 46.7236 52.9396 49.8345 50.0076 52.9453C49.8782 53.0907 49.792 53.2797 49.5908 53.5849Z" fill="#02314E"/>
</svg>
