<svg width="104" height="101" viewBox="0 0 104 101" fill="none" xmlns="http://www.w3.org/2000/svg">
<path d="M103.141 92.8151C103.141 97.2333 99.5593 100.815 95.141 100.815L8.31471 100.815C3.89643 100.815 0.314698 97.2333 0.314698 92.8151L0.314706 8.15431C0.314706 3.73603 3.89642 0.154304 8.31471 0.154304L95.141 0.154311C99.5593 0.154312 103.141 3.73604 103.141 8.15431L103.141 92.8151Z" fill="#ECECEC"/>
<path d="M51.8459 58.7305C51.8308 59.5069 52.1322 59.7682 52.9084 59.8205C55.1315 59.9549 57.3094 60.4028 59.3968 61.1868C60.1504 61.4705 60.5046 61.2913 60.8061 60.6119C61.8837 58.178 62.6222 55.662 62.8784 53.0041C62.9915 51.8767 62.5695 51.5407 61.4843 51.6005C60.1504 51.6677 58.8166 51.6154 57.4827 51.6154C57.4827 51.6229 57.4827 51.6229 57.4827 51.6303C55.9831 51.6303 54.4834 51.6602 52.9838 51.6229C52.1172 51.6005 51.8157 51.9439 51.8383 52.795C51.8836 54.7586 51.876 56.7445 51.8459 58.7305Z" fill="#02314E"/>
<path d="M53.029 49.8908C54.4684 49.8534 55.9077 49.8833 57.3471 49.8833C58.7337 49.8833 60.1203 49.8385 61.4994 49.8982C62.5393 49.943 63.0065 49.6817 62.886 48.532C62.6448 46.1653 62.0344 43.9105 61.1602 41.7081C60.8513 40.9316 60.4519 40.9465 59.7586 41.2004C57.5732 41.9918 55.3275 42.5741 52.9763 42.6413C52.1398 42.6637 51.8082 43.0146 51.8383 43.8583C51.8836 45.5008 51.8911 47.1508 51.8383 48.7933C51.8082 49.6892 52.2151 49.9132 53.029 49.8908Z" fill="#02314E"/>
<path d="M68.2817 51.6079C67.7843 51.6079 67.2719 51.6751 66.7896 51.593C65.0865 51.2869 64.5665 52.1007 64.5213 53.6536C64.4685 55.5276 63.9259 57.3194 63.2929 59.0814C62.1474 62.2619 62.1625 62.2245 65.0789 64.0388C65.8777 64.539 66.2997 64.3971 66.8498 63.7252C68.9448 61.1644 70.4671 58.3124 71.0549 55.0796C71.816 50.9061 72.0647 51.6901 68.2817 51.6079Z" fill="#02314E"/>
<path d="M63.308 39.5653C62.5092 39.8938 62.4263 40.3493 62.7729 41.1108C63.5943 42.9176 64.0917 44.8363 64.4384 46.7849C64.9809 49.8758 64.9659 49.8758 68.0255 49.8758C68.6886 49.8758 69.3668 49.8161 70.0225 49.8908C71.3413 50.0401 71.6125 49.5175 71.4166 48.2856C70.9268 45.2021 69.9622 42.3277 68.2289 39.7072C66.7594 37.4749 66.767 37.4749 64.4534 38.8934C64.0766 39.1323 63.7149 39.4011 63.308 39.5653Z" fill="#02314E"/>
<path d="M52.9235 40.9465C55.0863 40.7748 57.1738 40.2746 59.216 39.5579C59.7736 39.3638 59.8189 39.0577 59.5174 38.5724C57.6108 35.5636 55.1843 33.0998 51.8534 30.9645C51.8534 34.2346 51.876 37.0792 51.8383 39.9237C51.8383 40.73 52.1473 41.0063 52.9235 40.9465Z" fill="#02314E"/>
<path d="M58.8015 64.0686C59.4345 63.1951 59.1557 62.889 58.2514 62.5978C56.5558 62.0603 54.8075 61.8064 53.0591 61.5302C52.2001 61.3958 51.8157 61.6571 51.8534 62.553C51.8911 63.6505 51.8609 64.748 51.8609 65.8455C51.8609 66.9953 51.8911 68.1525 51.8534 69.3023C51.8157 70.3624 52.1624 70.4296 52.9687 69.8622C55.237 68.257 57.1662 66.3159 58.8015 64.0686Z" fill="#02314E"/>
<path d="M60.0901 36.3326C61.7707 38.6918 61.733 38.6321 64.1897 37.0493C65.3351 36.3102 65.1015 35.8697 64.2198 35.1754C61.9817 33.4134 59.5551 32.0322 56.797 31.2781C56.3674 31.1587 55.9303 30.8003 55.335 31.2781C57.1738 32.7788 58.7488 34.4512 60.0901 36.3326Z" fill="#02314E"/>
<path d="M62.2077 64.3001C61.7104 64.0388 61.2205 63.5012 60.7006 64.3374C59.2311 66.6743 57.2943 68.6154 55.2747 70.5342C57.8897 70.1161 60.2559 69.1231 62.4263 67.6747C65.0865 65.8978 65.0865 65.7933 62.2077 64.3001Z" fill="#02314E"/>
<path d="M49.3213 51.6079C47.8217 51.6453 46.3221 51.6154 44.8224 51.6154C44.8224 51.6079 44.8224 51.6079 44.8224 51.6005C43.4886 51.6005 42.1547 51.6527 40.8208 51.5855C39.7432 51.5258 39.3212 51.8618 39.4267 52.9891C39.6829 55.647 40.4214 58.1631 41.4991 60.597C41.8005 61.2764 42.1547 61.4556 42.9083 61.1718C44.9957 60.3879 47.1736 59.9474 49.3967 59.8056C50.1729 59.7608 50.4743 59.492 50.4593 58.7155C50.4291 56.7371 50.4216 54.7511 50.4668 52.7652C50.4894 51.929 50.188 51.5855 49.3213 51.6079Z" fill="#02314E"/>
<path d="M50.4668 43.8508C50.4894 43.0071 50.1578 42.6562 49.3289 42.6339C46.9852 42.5667 44.7395 41.9918 42.5466 41.1929C41.8533 40.9391 41.4539 40.9316 41.1449 41.7006C40.2707 43.9031 39.6679 46.1578 39.4192 48.5245C39.2986 49.6743 39.7734 49.9356 40.8058 49.8908C42.1848 49.831 43.5714 49.8758 44.9581 49.8758C46.3974 49.8758 47.8368 49.846 49.2761 49.8833C50.09 49.9057 50.4969 49.6817 50.4668 48.7783C50.414 47.1433 50.4216 45.4933 50.4668 43.8508Z" fill="#02314E"/>
<path d="M39.0198 59.0814C38.3867 57.3194 37.8366 55.5276 37.7914 53.6536C37.7537 52.1007 37.2338 51.2869 35.5231 51.593C35.0408 51.6826 34.5284 51.6079 34.031 51.6079C30.2404 51.6901 30.4967 50.9061 31.2578 55.0796C31.8456 58.3124 33.3754 61.1644 35.4628 63.7252C36.0129 64.3971 36.4349 64.539 37.2338 64.0388C40.1502 62.2245 40.1652 62.2619 39.0198 59.0814Z" fill="#02314E"/>
<path d="M32.2902 49.8982C32.9458 49.8236 33.6165 49.8833 34.2872 49.8833C37.3468 49.8833 37.3317 49.8758 37.8743 46.7924C38.221 44.8438 38.7183 42.925 39.5397 41.1183C39.8864 40.3567 39.8035 39.9013 39.0047 39.5728C38.5978 39.4086 38.236 39.1398 37.8592 38.9083C35.5457 37.4823 35.5532 37.4898 34.0837 39.7221C32.3505 42.3427 31.3859 45.2171 30.8961 48.3005C30.7001 49.5249 30.9714 50.0476 32.2902 49.8982Z" fill="#02314E"/>
<path d="M42.7953 38.5724C42.4863 39.0577 42.539 39.3638 43.0967 39.5579C45.1389 40.2746 47.2188 40.7748 49.3892 40.9465C50.1654 41.0063 50.4743 40.73 50.4668 39.9312C50.4367 37.0866 50.4517 34.2346 50.4517 30.972C47.1284 33.0998 44.6943 35.5636 42.7953 38.5724Z" fill="#02314E"/>
<path d="M50.4517 65.8455C50.4517 64.748 50.4216 63.6505 50.4593 62.553C50.4894 61.6571 50.1126 61.3958 49.2535 61.5302C47.5052 61.799 45.7569 62.0603 44.0613 62.5978C43.1494 62.889 42.8781 63.1951 43.5112 64.0686C45.1465 66.3234 47.0756 68.257 49.359 69.8697C50.1578 70.4371 50.512 70.3699 50.4743 69.3097C50.4216 68.1525 50.4517 67.0028 50.4517 65.8455Z" fill="#02314E"/>
<path d="M38.123 37.0493C40.5722 38.6321 40.5345 38.6918 42.2225 36.3326C43.5639 34.4512 45.1389 32.7788 46.9777 31.2781C46.3823 30.7928 45.9528 31.1587 45.5157 31.2781C42.75 32.0396 40.3235 33.4209 38.0928 35.1754C37.2036 35.8697 36.9775 36.3102 38.123 37.0493Z" fill="#02314E"/>
<path d="M41.6121 64.3449C41.0846 63.5087 40.6023 64.0462 40.1049 64.3075C37.2338 65.7933 37.2262 65.8978 39.8939 67.6822C42.0643 69.1306 44.423 70.1161 47.0455 70.5416C45.0183 68.6154 43.0816 66.6817 41.6121 64.3449Z" fill="#02314E"/>
<path d="M51.0847 27.0001C37.7839 27.0001 27 37.6839 27 50.8613C27 64.0388 37.7839 74.7226 51.0847 74.7226C64.3856 74.7226 75.1695 64.0388 75.1695 50.8613C75.1695 37.6839 64.3856 27.0001 51.0847 27.0001ZM51.0847 72.983C38.756 72.983 28.7559 63.0831 28.7559 50.8613C28.7559 38.6396 38.756 28.7397 51.0847 28.7397C63.421 28.7397 73.4136 38.647 73.4136 50.8613C73.4136 63.0757 63.421 72.983 51.0847 72.983Z" fill="#02314E"/>
<path d="M54.0539 53.7208L80 63.5684L73.3759 67.1745L78.3873 71.557C78.6888 71.8183 78.8696 72.1841 78.8922 72.5873C78.9148 72.983 78.7867 73.3712 78.5154 73.6699L77.0761 75.2825C76.7897 75.6036 76.3752 75.7902 75.9457 75.7902C75.5764 75.7902 75.2222 75.6558 74.9434 75.4169L69.932 71.0344L67.1438 78.0001L54.0539 53.7208Z" fill="#ECECEC"/>
<path d="M77.4077 63.7401L56.3976 55.7665L67.0081 75.4244L69.5025 69.1978L75.6819 74.5956C75.8553 74.745 76.119 74.73 76.2697 74.5583L76.9856 73.7595L76.9932 73.752L77.7091 72.9457C77.8598 72.774 77.8447 72.5126 77.6714 72.3633L71.492 66.9654L77.4077 63.7401Z" fill="#02314E"/>
</svg>
