<svg width="104" height="101" viewBox="0 0 104 101" fill="none" xmlns="http://www.w3.org/2000/svg">
<rect width="103.141" height="100.969" rx="8" fill="#ECECEC"/>
<path d="M51.578 23C51.8549 23 52.1449 23 52.4218 23C53.4106 23.4219 53.7797 24.1865 53.6874 25.228C53.6479 25.6631 53.6874 26.1113 53.6874 26.5464C53.6874 27.6274 53.6874 28.7217 53.6874 29.8423C58.6049 30.3169 62.8368 32.2549 66.2909 35.7089C69.7582 39.1762 71.683 43.395 72.1576 48.3124C72.3685 48.3124 72.5399 48.3124 72.7245 48.3124C74.1483 48.3124 75.5721 48.3124 76.9959 48.3124C78.222 48.3124 78.9867 48.9584 78.9998 49.9867C79.013 51.015 78.2352 51.6874 77.0223 51.6874C75.5985 51.6874 74.1747 51.6874 72.7508 51.6874C72.5663 51.6874 72.3685 51.6874 72.1708 51.6874C71.6961 56.6312 69.7582 60.85 66.2777 64.3173C62.8104 67.7713 58.5917 69.6961 53.6874 70.1707C53.6874 71.8846 53.6874 73.5326 53.6874 75.1805C53.6874 76.2615 52.9755 77.013 51.9867 76.9998C51.0112 76.9998 50.3124 76.2352 50.3124 75.1541C50.2992 73.6776 50.3124 72.201 50.3124 70.7245C50.3124 70.5399 50.3124 70.3553 50.3124 70.1707C41.1762 69.4061 32.7387 62.1024 31.7895 51.6874C31.6181 51.6874 31.4468 51.6874 31.2754 51.6874C29.9175 51.6874 28.5727 51.6479 27.2148 51.7006C26.1865 51.7401 25.4219 51.4106 25 50.4218C25 50.1449 25 49.8549 25 49.578C25.4087 48.6552 26.0942 48.2201 27.1226 48.3124C27.4521 48.3388 27.7949 48.3124 28.1245 48.3124C29.3506 48.3124 30.5766 48.3124 31.7236 48.3124C33.4902 37.6469 39.6469 31.4902 50.3124 29.7236C50.3124 28.2734 50.352 26.7441 50.2992 25.228C50.2597 24.1865 50.5893 23.4219 51.578 23ZM58.7499 50.0131C58.7631 46.2953 55.744 43.2631 52.0263 43.2499C48.3217 43.2368 45.2763 46.2426 45.2499 49.9604C45.2236 53.6913 48.269 56.7499 51.9999 56.7499C55.7045 56.7499 58.7367 53.7309 58.7499 50.0131Z" fill="#02314E"/>
</svg>
