<svg width="103" height="101" viewBox="0 0 103 101" fill="none" xmlns="http://www.w3.org/2000/svg">
<path d="M102.826 92.6606C102.826 97.0789 99.2446 100.661 94.8263 100.661L8.00002 100.661C3.58173 100.661 3.1986e-07 97.0789 7.14428e-07 92.6606L8.27493e-06 7.99989C8.6695e-06 3.58161 3.58173 -0.000115305 8.00001 -0.000114927L94.8263 -0.000107496C99.2446 -0.000107118 102.826 3.58162 102.826 7.99989L102.826 92.6606Z" fill="#ECECEC"/>
<path d="M83 40.467C82.6833 41.7435 82.15 42.9193 81.1 43.7759C78.4667 45.9427 74.6167 45.1532 73.0833 42.0795C72.9 41.7099 72.6833 41.6092 72.2833 41.5756C69.65 41.3404 67.2167 41.9283 64.8 42.9697C60.65 44.7669 56.4167 46.3458 52.2333 48.0422C51.3833 48.3949 50.6333 48.3949 49.7833 48.0422C44.3833 45.8587 38.9667 43.7087 33.55 41.542C32.3333 41.0885 31.7667 40.0135 32.3 38.9889C32.5333 38.5354 33.0333 38.0987 33.5 37.8971C38.4667 35.8648 43.45 33.866 48.45 31.9008C51.4333 30.7251 50.4833 30.6747 53.5667 31.9008C58.25 33.7652 62.9167 35.6464 67.6 37.494C68.0833 37.6788 68.6333 37.7796 69.1667 37.7964C70.25 37.8468 71.3333 37.83 72.4167 37.7964C72.6167 37.7964 72.8833 37.6452 72.9833 37.4772C74.1667 35.3105 76.1667 34.1515 78.3333 34.4371C80.6833 34.7394 82.3 36.2847 82.9167 38.7874C82.9333 38.8377 82.9667 38.9049 83 38.9553C83 39.4592 83 39.9631 83 40.467Z" fill="#02314E"/>
<path d="M83 61.1267C82.6667 62.4704 82.1 63.6797 80.95 64.5531C78.3333 66.5687 74.6167 65.7457 73.1 62.8063C72.8833 62.4032 72.6667 62.2856 72.2167 62.252C69.6 62.0337 67.2 62.6215 64.7833 63.6629C60.6333 65.4601 56.4 67.039 52.2167 68.7355C51.3667 69.0882 50.6167 69.0882 49.7667 68.7355C44.3667 66.5519 38.95 64.402 33.5333 62.2352C32.3667 61.7649 31.8 60.7739 32.25 59.7829C32.45 59.3294 32.8833 58.8759 33.3167 58.6576C34.4 58.1201 35.5333 57.717 36.6667 57.2971C36.9 57.2131 37.2333 57.2635 37.4833 57.3475C41.5667 58.9599 45.65 60.5892 49.7167 62.2352C50.5833 62.5879 51.4 62.5711 52.25 62.2352C56.3167 60.5892 60.4 58.9599 64.4833 57.3475C64.75 57.2467 65.1 57.3139 65.4167 57.3307C65.55 57.3475 65.7 57.4146 65.8167 57.4818C67.9167 58.7248 70.2167 58.5064 72.5 58.456C72.6833 58.456 72.9167 58.1873 73.0167 57.9857C74.1333 55.9869 75.8167 54.9959 78.1 55.0967C80.1667 55.1975 82 56.6588 82.6667 58.6576C82.7667 58.9767 82.85 59.2958 82.95 59.615C83 60.1189 83 60.6228 83 61.1267Z" fill="#02314E"/>
<path d="M19 49.2851C19.1 48.9492 19.1833 48.5965 19.3167 48.2774C20.1167 46.1946 21.65 44.9517 23.8667 44.7837C26.1167 44.6157 27.8167 45.6235 28.9 47.6055C29.1167 48.0086 29.3333 48.227 29.8 48.143C30 48.1094 30.2167 48.1262 30.4167 48.143C32.5833 48.3613 34.6167 47.9582 36.5833 47.0008C36.85 46.8665 37.2833 46.9001 37.5667 47.0176C41.6333 48.6133 45.7 50.2425 49.75 51.8718C50.6333 52.2245 51.4667 52.2077 52.35 51.855C56.4 50.209 60.4667 48.5965 64.5333 47.0008C64.8167 46.8833 65.2167 46.9 65.5167 47.0008C66.5167 47.3536 67.5 47.7567 68.4833 48.1598C69.4333 48.5461 69.9167 49.1844 69.9167 50.0242C69.9167 50.864 69.4333 51.5191 68.5 51.8886C63.05 54.0721 57.6 56.2389 52.15 58.4392C51.3833 58.7416 50.7 58.7416 49.9333 58.4224C44.6667 56.2893 39.3833 54.1897 34.1167 52.0902C33.8667 51.9894 33.6 51.9222 33.3333 51.9222C32.1 51.9054 30.8833 51.9054 29.65 51.9222C29.45 51.9222 29.1667 52.0734 29.0833 52.2413C27.8833 54.4249 25.9 55.567 23.7333 55.2815C21.3333 55.0127 19.7167 53.4843 19.0833 50.9648C19.0667 50.8976 19.0333 50.8472 19 50.7968C19 50.2929 19 49.789 19 49.2851Z" fill="#02314E"/>
</svg>
