<svg width="104" height="101" viewBox="0 0 104 101" fill="none" xmlns="http://www.w3.org/2000/svg">
<path d="M103.141 92.8151C103.141 97.2333 99.5593 100.815 95.141 100.815L8.31471 100.815C3.89643 100.815 0.314698 97.2333 0.314698 92.815L0.314706 8.1543C0.314706 3.73602 3.89642 0.154296 8.31471 0.154296L95.141 0.154304C99.5593 0.154304 103.141 3.73603 103.141 8.1543L103.141 92.8151Z" fill="#ECECEC"/>
<path d="M28.0125 58.3635C28.0625 58.201 28.125 58.0511 28.1624 57.8886C28.6872 55.9137 30.4116 54.5638 32.4483 54.5263C32.9481 54.5138 33.448 54.5263 34.0102 54.5263C34.0102 54.0888 34.0102 53.6638 34.0102 53.2513C34.0102 50.439 35.9345 48.5141 38.7585 48.5266C39.933 48.5266 41.1076 48.4766 42.2696 48.6141C44.3688 48.8766 45.9433 50.7265 46.0057 52.8514C46.0182 53.3763 46.0057 53.9138 46.0057 54.5263C46.543 54.5263 47.0678 54.5138 47.5926 54.5263C49.6544 54.5763 51.4287 56.0012 51.8785 58.0011C52.0035 58.5385 51.991 59.1135 52.0035 59.676C52.0285 60.4384 52.0035 61.2009 52.0035 61.9883C48.4923 61.9883 45.0186 61.9883 41.5449 61.9883C41.295 60.9884 40.7577 60.4884 39.9455 60.5134C39.1833 60.5384 38.671 61.0384 38.4711 62.0133C34.9849 62.0133 31.4987 62.0133 28 62.0133C28.0125 60.8009 28.0125 59.576 28.0125 58.3635ZM43.0069 54.5013C43.0069 53.9638 43.0194 53.4763 43.0069 53.0014C42.9819 52.1764 42.3571 51.5514 41.5449 51.5389C40.5328 51.5264 39.5207 51.5264 38.5085 51.5389C37.7963 51.5514 37.1591 52.0264 37.0716 52.7139C36.9966 53.3013 37.0591 53.9138 37.0591 54.5138C39.0333 54.5013 40.9951 54.5013 43.0069 54.5013Z" fill="#02314E"/>
<path d="M28.0125 65.0131C31.4987 65.0131 34.9724 65.0131 38.4461 65.0131C38.746 66.0506 39.2583 66.5256 40.0455 66.5131C40.8077 66.4881 41.295 66.0131 41.5449 65.0256C45.0061 65.0256 48.4673 65.0256 51.9785 65.0256C51.991 65.1756 52.0035 65.3256 52.0035 65.4756C52.0035 66.7255 52.0035 67.9755 52.0035 69.2254C52.0035 71.7252 50.6415 73.4002 48.1924 73.9376C48.1424 73.9501 48.1049 73.9751 48.0675 74.0001C42.6945 74.0001 37.3215 74.0001 31.9485 74.0001C29.8118 73.5876 28.5123 72.2877 28.0125 70.1753C28.0125 68.4504 28.0125 66.738 28.0125 65.0131Z" fill="#02314E"/>
<path d="M58.0262 32.0276C58.0262 31.3026 57.9512 30.6402 58.0387 30.0027C58.3011 27.8778 59.8255 26.2904 61.9497 26.0904C63.3742 25.9529 64.8237 25.9779 66.2481 26.1279C68.3223 26.3654 69.8967 28.2278 69.9842 30.3152C70.0092 30.8652 69.9842 31.4026 69.9842 32.0276C70.3841 32.0276 70.7714 32.0276 71.1588 32.0276C74.0952 32.0276 75.9944 33.915 75.9944 36.8648C75.9944 37.7398 75.9944 38.6022 75.9944 39.5022C72.4958 39.5022 69.0346 39.5022 65.6983 39.5022C65.361 39.0522 65.111 38.6022 64.7612 38.2772C64.5612 38.0897 64.1864 38.0397 63.8865 38.0522C63.1493 38.0647 62.662 38.5897 62.4745 39.5147C59.0008 39.5147 55.5271 39.5147 51.9535 39.5147C52.0035 38.1897 51.9285 36.8648 52.1284 35.5899C52.4283 33.615 54.2901 32.1276 56.3019 32.0526C56.8516 32.0151 57.3889 32.0276 58.0262 32.0276ZM66.9978 32.0026C66.9978 31.4526 67.0103 30.9527 66.9978 30.4527C66.9603 29.6652 66.3356 29.0403 65.5359 29.0278C64.5113 29.0153 63.4742 29.0153 62.4495 29.0278C61.7623 29.0403 61.15 29.5277 61.0626 30.1902C60.9876 30.7777 61.0501 31.3901 61.0501 31.9901C63.0243 32.0026 64.9861 32.0026 66.9978 32.0026Z" fill="#02314E"/>
<path d="M52.0035 42.5395C55.5147 42.5395 58.9758 42.5395 62.437 42.5395C62.7619 43.5769 63.2492 44.0269 64.0364 44.0144C64.7987 44.0019 65.311 43.5019 65.5359 42.5395C68.9971 42.5395 72.4583 42.5395 75.957 42.5395C75.9695 42.652 75.9944 42.777 75.9944 42.8895C75.9944 44.2519 76.0069 45.6018 75.9944 46.9642C75.9695 49.5391 74.0202 51.5014 71.4462 51.5139C66.4855 51.5264 61.5124 51.5264 56.5518 51.5139C54.0027 51.5014 52.041 49.5391 52.016 47.0017C51.991 45.5268 52.0035 44.0644 52.0035 42.5395Z" fill="#02314E"/>
<path d="M41.5074 40.4146C41.7698 40.1646 41.9323 40.0021 42.1072 39.8521C42.707 39.3522 43.5691 39.3897 44.1064 39.9271C44.6687 40.4771 44.7562 41.377 44.1939 41.952C43.1568 43.0519 42.0822 44.1144 40.9826 45.1643C40.3953 45.7268 39.5457 45.6643 38.9584 45.0893C37.9588 44.1019 36.9591 43.1144 35.9845 42.102C35.3722 41.477 35.3847 40.5521 35.9845 39.9646C36.5718 39.3897 37.4589 39.4022 38.0962 39.9896C38.2087 40.0896 38.3211 40.2021 38.5085 40.3771C38.5085 39.5146 38.4836 38.7397 38.5085 37.9772C38.5585 36.2648 39.3332 34.9649 40.8077 34.1025C41.4824 33.7025 42.2197 33.5275 42.9944 33.5275C44.4563 33.5275 45.9308 33.5275 47.3927 33.5275C48.3049 33.5275 48.9796 34.165 48.9921 35.0149C49.0046 35.8899 48.3174 36.5273 47.3802 36.5273C45.9807 36.5273 44.5688 36.5273 43.1693 36.5273C42.1197 36.5273 41.5074 37.1398 41.5074 38.1772C41.5074 38.8897 41.5074 39.6021 41.5074 40.4146Z" fill="#02314E"/>
<path d="M65.4109 59.776C65.4109 60.7884 65.5234 61.8133 65.3859 62.8133C65.111 64.8632 63.2867 66.4381 61.2125 66.5006C59.6381 66.5506 58.0637 66.5256 56.4893 66.5131C55.6521 66.5006 55.0023 65.8381 55.0023 65.0131C55.0023 64.1882 55.6396 63.5257 56.4893 63.5132C57.9262 63.5007 59.3632 63.5132 60.8002 63.5132C61.9122 63.5132 62.4995 62.9258 62.4995 61.8008C62.4995 61.1259 62.4995 60.4634 62.487 59.7885C62.487 59.7635 62.462 59.7385 62.4246 59.6885C62.2621 59.8385 62.1122 59.9884 61.9622 60.1259C61.3375 60.6634 60.4503 60.6384 59.888 60.0634C59.3257 59.501 59.3007 58.5885 59.8755 57.9886C60.8876 56.9386 61.9122 55.9137 62.9494 54.9012C63.5491 54.3138 64.4113 54.3263 65.0111 54.9137C66.0357 55.9137 67.0603 56.9261 68.0599 57.9636C68.6347 58.5635 68.6097 59.4635 68.0474 60.0384C67.4727 60.6259 66.573 60.6384 65.9357 60.0634C65.8108 59.9509 65.6983 59.8384 65.5734 59.726C65.5234 59.751 65.4734 59.7635 65.4109 59.776Z" fill="#02314E"/>
</svg>
