<svg width="103" height="101" viewBox="0 0 103 101" fill="none" xmlns="http://www.w3.org/2000/svg">
<path d="M103 93C103 97.4183 99.4183 101 95 101L8.17372 101C3.75544 101 0.173706 97.4183 0.173707 93L0.173714 8.33925C0.173715 3.92097 3.75543 0.33924 8.17372 0.339241L95 0.339248C99.4183 0.339248 103 3.92097 103 8.33925L103 93Z" fill="#ECECEC"/>
<path d="M72 48.216C71.672 48.9951 71.0839 49.293 70.2469 49.2586C69.0367 49.2128 67.8265 49.2471 66.5823 49.2471C66.5145 50.5876 66.0168 51.6874 64.9876 52.5008C64.1846 53.1309 63.2684 53.4173 62.2618 53.3601C60.3956 53.257 58.5407 51.7905 58.405 49.2471C58.2353 49.2471 58.0543 49.2471 57.8734 49.2471C56.7423 49.2471 55.6113 49.2471 54.4803 49.2471C53.5302 49.2471 52.9873 48.6858 52.9873 47.7234C52.9873 45.8789 52.9873 44.0344 52.9873 42.1899C52.9873 40.9525 53.96 40.3339 55.0684 40.8494C55.6226 41.1015 56.1203 41.0213 56.5727 40.6432C56.9686 40.311 57.1495 39.8642 57.0251 39.3372C56.8894 38.7643 56.5161 38.3977 55.9619 38.3061C55.6792 38.2602 55.3399 38.3175 55.0684 38.4321C53.9487 38.9133 52.9986 38.3061 52.9986 37.0573C52.9986 35.293 53.0212 33.5401 52.9873 31.7758C52.9647 30.928 53.2361 30.3322 54.0166 30C58.8574 30 63.6869 30 68.5277 30C68.6182 30.0344 68.7087 30.0687 68.7992 30.0917C70.2808 30.4697 71.2874 31.3863 71.7964 32.8412C71.8756 33.0704 71.9321 33.2995 72 33.5286C72 38.4206 72 43.3241 72 48.216Z" fill="#02314E"/>
<path d="M31 39.7725C31.0792 39.509 31.147 39.2226 31.2488 38.9705C31.8935 37.3322 33.0811 36.3126 34.8003 36.2782C38.9399 36.198 43.0794 36.2553 47.2869 36.2553C47.2869 36.4157 47.2869 36.5646 47.2869 36.7136C47.2869 38.9018 47.2869 41.09 47.2869 43.2782C47.2869 44.5499 48.2257 45.1686 49.3793 44.653C50.0014 44.3666 50.68 44.5385 51.0872 45.0769C51.4604 45.5696 51.4491 46.2226 51.0759 46.7038C50.68 47.2193 49.9901 47.4141 49.4019 47.0818C48.4745 46.5434 47.2303 47.2308 47.2756 48.4566C47.3321 49.7283 47.2869 51 47.2869 52.2717C47.2869 52.4092 47.2869 52.5466 47.2869 52.7185C46.3708 52.7185 45.4886 52.7185 44.6063 52.7185C44.1992 50.072 42.6383 48.5712 40.3876 48.617C38.6119 48.6628 36.576 50.0147 36.4063 52.7414C34.608 52.7414 32.7983 52.7414 31 52.7414C31 48.4223 31 44.0917 31 39.7725Z" fill="#02314E"/>
<path d="M31 55.491C33.3186 55.491 35.6372 55.4566 37.9559 55.5025C39.1887 55.5254 39.8447 54.2995 39.3131 53.3601C38.9738 52.7643 39.2 52.054 39.7316 51.6416C40.2179 51.2635 40.8626 51.275 41.3377 51.6759C41.8353 52.0884 41.9823 52.7529 41.6996 53.383C41.1906 54.5401 41.8014 55.5025 43.0568 55.5025C44.3123 55.5025 45.5677 55.5025 46.8345 55.5025C46.9702 55.5025 47.1059 55.5025 47.2643 55.5025C47.2643 56.4304 47.2643 57.3241 47.2643 58.2177C44.6855 58.6072 43.1812 60.1882 43.2152 62.4566C43.2378 64.1866 44.4819 66.329 47.2643 66.5237C47.2643 68.3339 47.2643 70.144 47.2643 72C47.0833 72 46.925 72 46.7553 72C43.0003 72 39.2339 72 35.4789 72C33.0698 72 31.656 70.9002 31.0566 68.5401C31.0452 68.5172 31.0226 68.4943 31 68.4714C31 64.1408 31 59.8216 31 55.491Z" fill="#02314E"/>
<path d="M50.0014 55.5139C50.9288 55.5139 51.7997 55.5139 52.7046 55.5139C52.7724 56.82 53.2588 57.9083 54.2654 58.7218C55.0571 59.3633 55.9732 59.6612 56.9799 59.6154C58.8121 59.5352 60.7236 58.1146 60.8706 55.5254C62.6577 55.5254 64.4447 55.5254 66.2883 55.5254C66.2883 55.6743 66.2883 55.8347 66.2883 55.9836C66.2883 59.8674 66.2883 63.7398 66.2883 67.6236C66.2883 70.2586 64.5691 72 61.9564 72C58.1448 72 54.3219 72 50.5103 72C50.352 72 50.205 72 50.0014 72C50.0014 71.8167 50.0014 71.6563 50.0014 71.5074C50.0014 69.3421 50.0014 67.1882 50.0014 65.0229C50.0014 63.6825 49.0852 63.0753 47.8863 63.6023C47.2869 63.8658 46.6196 63.6939 46.2124 63.1784C45.8392 62.6858 45.8392 62.0442 46.2124 61.5516C46.6083 61.036 47.2982 60.8298 47.875 61.162C48.7799 61.7005 50.0692 61.0589 50.0127 59.7529C49.9561 58.3437 50.0014 56.946 50.0014 55.5139Z" fill="#02314E"/>
</svg>
