<svg width="103" height="101" viewBox="0 0 103 101" fill="none" xmlns="http://www.w3.org/2000/svg">
<path d="M103 92.874C103 97.2923 99.4183 100.874 95 100.874L8.17372 100.874C3.75544 100.874 0.173706 97.2923 0.173707 92.874L0.173714 8.21327C0.173715 3.79499 3.75543 0.213264 8.17372 0.213264L95 0.213271C99.4183 0.213272 103 3.795 103 8.21327L103 92.874Z" fill="#ECECEC"/>
<path d="M55.3517 29C56.3134 29.1497 57.2752 29.2352 58.2155 29.449C66.0163 31.0524 72.2355 37.4661 73.6675 45.3121C73.9667 46.9156 74.0308 48.4976 73.9881 50.1438C66.9567 50.1438 59.9253 50.1438 52.8298 50.1438C52.8298 43.1101 52.8298 36.0551 52.8298 29C53.6633 29 54.5182 29 55.3517 29Z" fill="#02314E"/>
<path d="M29 52.8162C29.1496 51.8969 29.2565 50.9562 29.4488 50.0583C30.3251 46.0604 32.3127 42.6825 35.3261 39.7536C39.6433 44.1149 43.939 48.4548 48.1707 52.752C43.4475 57.4768 38.6815 62.2443 33.8514 67.0759C33.2317 66.1994 32.5264 65.3015 31.928 64.318C30.2823 61.6884 29.3206 58.8023 29.0641 55.7023C29.0641 55.5954 29.0214 55.4671 29 55.3602C29 54.5265 29 53.6713 29 52.8162Z" fill="#02314E"/>
<path d="M35.8818 69C36.01 68.8717 36.0955 68.7648 36.2024 68.658C41.3744 63.4842 46.5464 58.3319 51.6971 53.1368C51.9322 52.9017 52.1672 52.7948 52.4878 52.7948C57.6812 52.7948 62.8746 52.7948 68.0894 52.7948C68.239 52.7948 68.41 52.7948 68.5596 52.7948C69.0725 59.4009 65.9308 67.3966 58.1514 71.6082C50.5857 75.7344 41.8659 74.302 35.8818 69Z" fill="#02314E"/>
<path d="M37.4633 38.0005C41.2034 35.3709 45.4564 34.1737 50.1583 34.3875C50.1583 39.8819 50.1583 45.3549 50.1583 50.6996C45.9694 46.5094 41.7163 42.2549 37.4633 38.0005Z" fill="#02314E"/>
</svg>
