<svg width="104" height="101" viewBox="0 0 104 101" fill="none" xmlns="http://www.w3.org/2000/svg">
<path d="M103.141 92.8151C103.141 97.2333 99.5593 100.815 95.141 100.815L8.31471 100.815C3.89643 100.815 0.314698 97.2333 0.314698 92.8151L0.314706 8.15431C0.314706 3.73603 3.89642 0.154304 8.31471 0.154304L95.141 0.154311C99.5593 0.154312 103.141 3.73604 103.141 8.15431L103.141 92.8151Z" fill="#ECECEC"/>
<path d="M27.3045 54.2053C27.5017 54.4343 27.7777 54.5717 28.0932 54.5901L28.1239 54.5946C29.8766 54.9245 31.3182 56.2026 31.9361 57.948C32.0894 58.374 32.2559 58.7955 32.4356 59.2124C33.1761 60.8982 33.0184 62.8681 32.0018 64.3936L31.9843 64.4211C31.7739 64.6685 31.6688 64.9662 31.6863 65.2777C31.7126 65.7496 32.0149 66.0748 32.1376 66.194L34.4688 68.6311C34.5871 68.7685 34.9201 69.1075 35.4065 69.1075C35.6037 69.1075 35.8885 69.0526 36.1601 68.7914L36.1864 68.7731C37.6324 67.7057 39.5122 67.5362 41.1204 68.3104C41.5235 68.5028 41.931 68.6815 42.3473 68.8418C44.0168 69.4878 45.2393 70.9995 45.5548 72.8274L45.5592 72.8594C45.5942 73.5329 46.085 74.0001 46.7773 74.0001C46.8124 74.0001 46.843 74.0001 46.8693 73.9955H50.1645C50.1864 73.9955 50.2171 74.0001 50.2565 74.0001C50.9488 74.0001 51.4396 73.5329 51.4746 72.8594L51.479 72.8274C51.7901 71.0133 52.9864 69.4923 54.6383 68.8601C55.0896 68.6861 55.5322 68.4937 55.9704 68.2829C55.9748 68.2829 55.9748 68.2784 55.9792 68.2784C56.5181 68.0172 56.8731 67.4721 56.8731 66.8491V65.1082C56.8731 64.444 56.356 63.908 55.7206 63.9126C53.499 63.9263 48.8149 63.9584 48.5476 63.9584C45.1692 63.9584 41.9398 62.465 39.6831 59.8675C37.409 57.2196 36.3354 53.7975 36.6728 50.2289C37.2293 44.3697 41.6988 39.6924 47.3075 39.1152C47.7106 39.0739 48.1182 39.051 48.5257 39.051C48.7448 39.051 53.4947 39.0739 55.7338 39.0831C56.3691 39.0877 56.8818 38.5471 56.8818 37.8874V36.1604C56.8818 35.5419 56.5269 34.9922 55.9879 34.7356C55.9835 34.7311 55.9792 34.7311 55.9704 34.7265C55.5278 34.5112 55.0809 34.3142 54.6208 34.1401C52.9688 33.5217 51.7901 31.987 51.4834 30.182L51.479 30.15C51.444 29.4674 50.9532 29.0001 50.2609 29.0001C50.2258 29.0001 50.1951 29.0001 50.1689 29.0047H46.8737C46.8518 29.0001 46.8211 29.0001 46.7861 29.0001C46.0938 29.0001 45.603 29.4674 45.5679 30.1408L45.5636 30.1729C45.2481 32.0053 44.0255 33.5125 42.3561 34.1584C41.9485 34.3142 41.5498 34.4883 41.1554 34.6807C39.5385 35.4549 37.6544 35.2945 36.1952 34.2317L36.1689 34.2134C35.8929 33.9569 35.608 33.8973 35.4152 33.8973C34.9289 33.8973 34.5958 34.2363 34.4775 34.3737L32.1464 36.8109C32.0193 36.9254 31.7214 37.2507 31.6951 37.7271C31.6775 38.034 31.7827 38.3364 31.993 38.5838L32.0106 38.6112C33.0228 40.1322 33.1805 42.102 32.4356 43.7924C32.2559 44.2047 32.0894 44.6262 31.9361 45.0522C31.3182 46.7976 29.8722 48.0758 28.1195 48.4056L28.0888 48.4102C27.7733 48.4285 27.4973 48.5614 27.3001 48.795C26.9977 49.1477 26.9934 49.6013 27.0021 49.7753V53.2249C26.9934 53.399 27.0021 53.8525 27.3045 54.2053Z" fill="#02314E"/>
<path d="M48.5695 42.3861V43.3572C48.5695 43.9803 49.0515 44.4842 49.6474 44.4842H59.1823C59.914 44.4842 60.6107 44.1635 61.1059 43.6L64.217 40.068C64.5807 40.178 64.9619 40.2375 65.3606 40.2375C67.6655 40.2375 69.5453 38.2768 69.5453 35.8626C69.5453 33.4529 67.6699 31.4877 65.3606 31.4877C63.0514 31.4877 61.176 33.4484 61.176 35.8626C61.176 36.6734 61.3907 37.4339 61.7632 38.0844L59.3313 40.8468C59.1034 41.1033 58.7835 41.2545 58.4461 41.2545H49.6474C49.0515 41.2591 48.5695 41.763 48.5695 42.3861ZM65.3606 33.7965C66.4517 33.7965 67.3412 34.7265 67.3412 35.8672C67.3412 37.0079 66.4517 37.9332 65.3606 37.9332C64.2696 37.9332 63.3801 37.0033 63.3801 35.8626C63.3801 34.7219 64.2696 33.7965 65.3606 33.7965Z" fill="#02314E"/>
<path d="M75.1584 54.5809C75.1584 52.1713 73.283 50.206 70.9738 50.206C69.2123 50.206 67.7049 51.3512 67.0915 52.9638H49.6474C49.0515 52.9638 48.5695 53.4677 48.5695 54.0907V55.0619C48.5695 55.6849 49.0515 56.1889 49.6474 56.1889H67.0915C67.7093 57.8014 69.2167 58.9467 70.9738 58.9467C73.283 58.9558 75.1584 56.9951 75.1584 54.5809ZM68.9976 54.5809C68.9976 53.4402 69.8871 52.5103 70.9782 52.5103C72.0692 52.5103 72.9587 53.4402 72.9587 54.5809C72.9587 55.7216 72.0692 56.6516 70.9782 56.6516C69.8827 56.6516 68.9976 55.7216 68.9976 54.5809Z" fill="#02314E"/>
<path d="M64.2652 46.7472C64.0417 46.9809 63.735 47.1137 63.4151 47.1137H49.6474C49.0515 47.1137 48.5695 47.6177 48.5695 48.2407V49.2119C48.5695 49.8349 49.0515 50.3388 49.6474 50.3388H64.1074C64.7998 50.3388 65.4658 50.0502 65.9566 49.5371L70.0667 45.2401C70.2902 45.0064 70.5969 44.8736 70.9168 44.8736H76.9331C77.5509 46.4861 79.0582 47.6314 80.8154 47.6314C83.1202 47.6314 85 45.6707 85 43.2565C85 40.8468 83.1246 38.8815 80.8154 38.8815C79.0539 38.8815 77.5465 40.0268 76.9331 41.6393H70.2245C69.5322 41.6393 68.8661 41.9279 68.3753 42.441L64.2652 46.7472ZM80.8154 41.1904C81.9064 41.1904 82.7959 42.1203 82.7959 43.261C82.7959 44.4017 81.9064 45.3317 80.8154 45.3317C79.7243 45.3317 78.8348 44.4017 78.8348 43.261C78.8348 42.1203 79.7243 41.1904 80.8154 41.1904Z" fill="#02314E"/>
<path d="M64.8129 71.0957C67.1178 71.0957 68.9976 69.135 68.9976 66.7208C68.9976 64.3111 67.1221 62.3458 64.8129 62.3458C64.401 62.3458 64.0023 62.41 63.6254 62.5291L61.2242 59.7071C60.7291 59.1437 60.0323 58.823 59.3006 58.823H49.6474C49.0515 58.823 48.5695 59.3269 48.5695 59.9499V60.9211C48.5695 61.5442 49.0515 62.0481 49.6474 62.0481H58.5688C58.9062 62.0481 59.2261 62.1947 59.4539 62.4558L61.1979 64.531C60.8386 65.177 60.6327 65.9191 60.6327 66.7162C60.6283 69.135 62.5081 71.0957 64.8129 71.0957ZM64.8129 64.6547C65.904 64.6547 66.7935 65.5847 66.7935 66.7254C66.7935 67.8661 65.904 68.796 64.8129 68.796C63.7218 68.796 62.8323 67.8661 62.8323 66.7254C62.8367 65.5801 63.7218 64.6547 64.8129 64.6547Z" fill="#02314E"/>
</svg>
