<svg id="Layer_1" data-name="Layer 1" xmlns="http://www.w3.org/2000/svg" viewBox="0 0 50 50"><defs><style>.cls-1{fill:#fff;}.cls-2{fill:#02314e;}</style></defs><title>For Agencies</title><rect class="cls-1" x="5.82" y="5.66" width="40" height="40" rx="7" ry="7"/><path class="cls-2" d="M33.7,36.16h.7a.38.38,0,0,1,.42.38.39.39,0,0,1-.42.37h-17c-.39,0-.57-.11-.57-.36s.18-.39.58-.39h.54v-.28q0-6.52,0-13a1.52,1.52,0,0,1,1.68-1.69h.24A6,6,0,0,1,21.74,16a5.77,5.77,0,0,1,4.32-1.6,6,6,0,0,1,5.72,6.75H32a1.51,1.51,0,0,1,1.66,1.68q0,6.51,0,13ZM25.8,25.64a5.17,5.17,0,0,0,5.27-5.14,5.25,5.25,0,1,0-10.5-.13A5.19,5.19,0,0,0,25.8,25.64Zm2.64,10.52c0-1.17,0-2.31,0-3.45a1.09,1.09,0,0,0-1.07-1q-1.55,0-3.1,0a1.09,1.09,0,0,0-1.07,1.07c0,1.13,0,2.25,0,3.38,0,0,0,0,0,0Zm-7.1-7.87h-.77a.75.75,0,0,0-.75.74c0,.38,0,.77,0,1.15a.74.74,0,0,0,.74.73h1.52a.74.74,0,0,0,.74-.73c0-.38,0-.77,0-1.15a.75.75,0,0,0-.75-.74Zm4.47,0h-.73a.75.75,0,0,0-.77.75q0,.56,0,1.12a.74.74,0,0,0,.74.75h1.5a.75.75,0,0,0,.75-.76q0-.55,0-1.1a.75.75,0,0,0-.76-.76Zm4.51,0h-.75a.75.75,0,0,0-.75.74c0,.37,0,.75,0,1.12a.74.74,0,0,0,.74.75h1.52a.74.74,0,0,0,.74-.73c0-.38,0-.77,0-1.15a.75.75,0,0,0-.75-.74Zm-9-.75H22a.75.75,0,0,0,.78-.78c0-.33,0-.66,0-1a.4.4,0,0,0-.14-.25c-.22-.18-.46-.35-.7-.51a.5.5,0,0,0-.25-.09H20.57a.75.75,0,0,0-.75.74c0,.37,0,.75,0,1.13a.75.75,0,0,0,.76.76Zm9,0h.77a.75.75,0,0,0,.75-.74c0-.37,0-.75,0-1.13a.75.75,0,0,0-.76-.75H29.93a.5.5,0,0,0-.25.09c-.25.17-.5.35-.74.53a.31.31,0,0,0-.11.2c0,.35,0,.7,0,1.05a.75.75,0,0,0,.75.74Zm-3-1.31a6,6,0,0,1-3,0c0,.23,0,.45,0,.65a.74.74,0,0,0,.71.66q.79,0,1.57,0a.73.73,0,0,0,.71-.66C27.33,26.66,27.31,26.45,27.31,26.22Z"/><path class="cls-2" d="M25.37,22c.23.31.45.59.65.87a1.12,1.12,0,0,1-1,1.75,1.07,1.07,0,0,1-.79-.44l-1.12-1.48a.3.3,0,0,0-.3-.15,1.12,1.12,0,0,1-.66-2.07c.3-.19.6-.36.91-.53a.32.32,0,0,0,.18-.27,1.68,1.68,0,0,1,.21-.61c.42-.67.87-1.34,1.31-2a1.13,1.13,0,0,1,2,.06q.86,1.48,1.71,3a1.13,1.13,0,0,1-1,1.76l-1.82.1Zm-1.72.2,1.16,1.53a.37.37,0,0,0,.52.09.35.35,0,0,0,.09-.5c-.36-.5-.74-1-1.12-1.49ZM23.5,20.6c-.34.2-.67.38-1,.58a.33.33,0,0,0-.11.47.32.32,0,0,0,.43.18c.36-.17.7-.38,1.06-.58Z"/><path class="cls-2" d="M29.28,19.79h-.37a.38.38,0,0,1-.37-.38.37.37,0,0,1,.36-.36c.26,0,.52,0,.77,0a.36.36,0,0,1,.36.36.37.37,0,0,1-.36.39Z"/><path class="cls-2" d="M27.67,17.51c-.34,0-.52-.26-.41-.51a6,6,0,0,1,.42-.73.34.34,0,0,1,.48-.1.33.33,0,0,1,.16.46,5.83,5.83,0,0,1-.42.73A.63.63,0,0,1,27.67,17.51Z"/><path class="cls-2" d="M28.52,18.52c-.1-.1-.24-.18-.3-.3a.31.31,0,0,1,.12-.42,4.66,4.66,0,0,1,.75-.42.43.43,0,0,1,.39.1.42.42,0,0,1,.06.4A2.6,2.6,0,0,1,28.52,18.52Z"/></svg>