<svg width="170" height="125" viewBox="0 0 170 125" fill="none" xmlns="http://www.w3.org/2000/svg">
<path d="M0.807226 59.1654L33.139 3.34536C34.2153 1.50112 36.8199 3.61581e-06 38.951 3.80212e-06L170 1.52588e-05L135.925 58.8437C134.741 60.8595 134.741 64.162 135.925 66.1992L170 125L38.9509 125C36.8199 125 34.2153 123.499 33.139 121.655L0.807226 65.8346C-0.269068 63.9904 -0.269068 60.9882 0.807226 59.1654Z" fill="#FAC600"/>
<path fill-rule="evenodd" clip-rule="evenodd" d="M103.561 71.7634C103.244 71.8375 102.926 71.6707 102.852 71.3557L96.9532 49.7514C96.8785 49.4365 97.0465 49.1215 97.3639 49.0474L103.374 47.4354C103.692 47.3613 104.009 47.528 104.084 47.843L109.982 69.4473C110.057 69.7623 109.889 70.0773 109.572 70.1514L103.561 71.7634Z" fill="#02314E"/>
<path fill-rule="evenodd" clip-rule="evenodd" d="M42.4283 71.0963C42.1109 71.0222 41.9429 70.7072 42.0176 70.3923L47.8042 48.7694C47.8976 48.473 48.2149 48.2877 48.5136 48.3618L54.5428 49.9553C54.8602 50.0294 55.0282 50.3444 54.9535 50.6593L49.1669 72.2822C49.0922 72.5972 48.7749 72.7639 48.4576 72.6898L42.4283 71.0963Z" fill="#02314E"/>
<path fill-rule="evenodd" clip-rule="evenodd" d="M96.6359 52.4381L101.228 70.1699C101.228 70.1699 99.0438 71.5966 98.6145 71.0593C93.1079 64.3705 83.7746 57.8114 77.876 55.0877C74.6094 53.5869 72.3134 54.4206 70.4841 54.7171C68.3001 55.0506 64.4361 57.6446 62.2521 57.8299C61.4308 57.904 59.7695 57.7928 59.1721 57.2926C58.8921 57.0702 58.2948 56.255 58.5561 55.9956C61.3748 53.2348 64.2868 50.5482 66.6574 49.4365C69.3827 48.1395 75.468 46.8795 78.492 47.0092C83.196 47.213 96.6359 52.4381 96.6359 52.4381Z" fill="#02314E"/>
<path fill-rule="evenodd" clip-rule="evenodd" d="M96.6359 52.4381L101.228 70.1699C101.228 70.1699 99.0438 71.5966 98.6145 71.0593C93.1079 64.3705 83.7746 57.8114 77.876 55.0877C74.6094 53.5869 72.3134 54.4206 70.4841 54.7171C68.3001 55.0506 64.4361 57.6446 62.2521 57.8299C61.4308 57.904 59.7695 57.7928 59.1721 57.2926C58.8921 57.0702 58.2948 56.255 58.5561 55.9956C61.3748 53.2348 64.2868 50.5482 66.6574 49.4365C69.3827 48.1395 75.468 46.8795 78.492 47.0092C83.196 47.213 96.6359 52.4381 96.6359 52.4381Z" fill="#02314E"/>
<path fill-rule="evenodd" clip-rule="evenodd" d="M97.1212 72.2822C92.0066 65.6304 82.804 59.4975 77.0547 56.8294C76.0467 56.3661 75.076 56.1438 74.0867 56.1438C73.2654 56.1438 72.5 56.292 71.7534 56.4403C71.4361 56.4958 71.1187 56.57 70.7827 56.607C70.0361 56.7182 68.6547 57.3667 67.4414 57.9411C65.6308 58.7934 63.9134 59.6086 62.4015 59.7383C62.1961 59.7569 61.9721 59.7569 61.7481 59.7569C60.7775 59.7569 58.9668 59.6272 57.9215 58.7563C57.5482 58.4599 56.5962 57.4223 56.5588 56.255C56.5402 55.625 56.7642 55.0506 57.1935 54.6245C57.9775 53.8648 58.7801 53.0866 59.5641 52.364L56.2415 52.049L51.5189 70.2626C51.5189 70.2626 52.7322 70.7814 54.3375 72.2636C54.8788 72.0413 55.4948 71.9301 56.1482 71.9301H56.1855C57.3988 71.9487 58.4628 72.486 59.2095 73.4495C59.2841 73.5606 59.3588 73.6718 59.4335 73.783C59.8441 73.6348 60.2921 73.5421 60.7961 73.5421C61.4495 73.5421 62.1028 73.7089 62.7374 74.0424C63.6708 74.5427 64.3614 75.2653 64.7721 76.1917C64.9961 76.1546 65.2388 76.1176 65.4814 76.1176C66.0974 76.1176 66.6948 76.2658 67.2921 76.5623C68.6174 77.2108 69.4761 78.2298 69.8494 79.5824C69.9614 80.0086 70.0174 80.4162 70.0547 80.8238C70.7641 80.935 71.5667 81.2129 72.2387 81.88C73.0414 82.6582 72.4627 84.8631 75.4494 86.753C76.7187 87.5682 77.5773 87.9203 78.6787 87.5126C80.8626 86.6789 80.3587 84.4184 80.3587 84.4184C80.3587 84.4184 82.972 85.8451 84.7826 84.2516C86.3319 82.8805 85.1559 80.4718 85.1559 80.4718C85.1559 80.4718 88.0493 82.6952 90.4386 80.898C92.7532 79.1748 90.9052 76.1176 90.9052 76.1176C90.9052 76.1176 93.5559 78.3781 96.5612 76.1546C97.2705 75.6544 97.7745 73.1345 97.1212 72.2822Z" fill="#02314E"/>
<path fill-rule="evenodd" clip-rule="evenodd" d="M63.3534 79.2304C64.3241 78.2669 65.2201 77.711 66.4334 78.304C68.3747 79.2489 68.1881 81.0277 68.1134 82.7323C70.5401 82.5099 71.2867 83.0287 71.828 85.3819C72.0334 86.2898 73.0227 86.3454 73.396 87.0309C71.548 88.717 68.2627 88.1241 67.1987 85.8636C66.8628 85.141 66.7508 84.8445 65.7801 85.0484C63.9134 85.456 62.6254 83.8996 62.5321 81.2871C61.2255 82.5099 59.8441 82.6582 58.4628 81.6391C57.6975 81.0647 57.2308 80.2495 57.5108 79.2304C57.7348 78.341 57.5482 78.1001 56.6148 78.4522C55.6442 78.8413 54.6735 78.4892 54.0575 77.7481C53.5162 77.0996 53.1802 76.2658 53.7215 75.3209C54.2815 74.3388 55.0655 73.8386 56.1668 73.8571C57.3988 73.8756 58.1641 74.8762 58.3695 76.8031C59.3961 75.9508 60.3668 74.9873 61.8041 75.747C63.1108 76.4511 63.3348 77.674 63.3534 79.2304Z" fill="#02314E"/>
</svg>
