<svg width="170" height="126" viewBox="0 0 170 126" fill="none" xmlns="http://www.w3.org/2000/svg">
<path d="M169.193 66.3613L136.861 122.628C135.785 124.487 133.18 126 131.049 126L0 126L34.0753 66.6855C35.2593 64.6536 35.2593 61.3248 34.0753 59.2712L0 0L131.049 0C133.18 0 135.785 1.51312 136.861 3.3721L169.193 59.6387C170.269 61.4977 170.269 64.5239 169.193 66.3613Z" fill="#FAC600"/>
<path d="M106.644 73.215C106.234 73.7807 106.347 74.5645 106.899 74.9947C107.208 75.2422 107.6 75.3189 107.963 75.254C108.242 75.201 108.503 75.0595 108.699 74.8356L114.247 68.5358L117.508 67.3807L130 58.6057L119.362 59.3482L117.633 48.9113L111.919 62.9431L111.521 66.4319L106.644 73.215Z" fill="#02314E"/>
<path d="M116.207 70.5984L114.336 72.7199C117.49 76.0025 118.756 80.1866 117.17 83.6519C114.871 88.7024 107.452 90.2994 100.603 87.229C93.7603 84.1587 90.0775 77.576 92.3763 72.5255C94.4434 67.9936 100.633 66.2551 106.828 68.1704L108.444 65.9251C98.2093 61.847 87.4461 64.3987 84.0247 71.9067C80.4726 79.6975 86.1572 89.8515 96.7184 94.5897C107.28 99.3278 118.72 96.8586 122.266 89.0736C124.975 83.145 122.302 75.8375 116.207 70.5984Z" fill="#02314E"/>
<path d="M105.349 70.233C102.967 70.1092 100.876 71.0404 100.051 72.8378C98.8687 75.4249 100.758 78.8017 104.268 80.3752C107.779 81.9487 111.58 81.1296 112.762 78.5424C113.303 77.352 113.19 75.9966 112.572 74.7236L110.861 76.6625C110.256 77.3461 109.43 77.8176 108.533 77.9944C107.345 78.2242 106.121 77.9295 105.171 77.1811C103.437 75.8198 103.086 73.3505 104.375 71.5649L105.349 70.233Z" fill="#02314E"/>
<path d="M107.464 54.1092H104.262L104.304 54.451C104.411 55.3467 104.464 56.1895 104.464 57.0322C104.464 57.8101 104.417 58.6234 104.322 59.4484L104.28 59.7843H107.458C109.038 59.7843 110.321 58.5114 110.321 56.9497C110.327 55.3821 109.044 54.1092 107.464 54.1092ZM66.2286 44.1614L66.4424 43.8962C67.4879 42.5879 68.6877 41.4093 70.0124 40.378L70.2856 40.1658L67.9987 37.891C67.4582 37.3547 66.7394 37.0601 65.9732 37.0601C65.2069 37.0601 64.4882 37.3547 63.9477 37.891C62.831 38.9989 62.831 40.8023 63.9477 41.9043L66.2286 44.1614ZM100.348 37.0836C99.5815 37.0836 98.839 37.3783 98.3281 37.891L96.0234 40.1776L96.2967 40.3897C97.6213 41.4211 98.8212 42.6056 99.8666 43.9139L100.08 44.1791L102.373 41.9043C103.49 40.7964 103.49 38.9989 102.373 37.891C101.851 37.3783 101.114 37.0836 100.348 37.0836ZM85.682 36.0347L86.0265 36.0759V32.8405C86.0265 31.2788 84.7435 30 83.1634 30C81.5893 30 80.3004 31.2729 80.3004 32.8405V36.07L80.6449 36.0288C82.3972 35.8284 83.9237 35.8284 85.682 36.0347ZM62.035 54.1092H58.8631C57.283 54.1092 56 55.3821 56 56.9497C56 58.5114 57.283 59.7843 58.8631 59.7843H62.0112L61.9756 59.4484C61.8806 58.6234 61.833 57.8101 61.833 57.0322C61.833 56.1895 61.8865 55.3467 61.9934 54.451L62.035 54.1092ZM78.5956 88.2486C78.2986 88.2486 78.1145 88.555 78.2451 88.8202L80.0806 92.3326C80.1519 92.4622 80.2825 92.5447 80.431 92.5447H85.8958C86.0443 92.5447 86.175 92.4622 86.2463 92.3326L86.5848 91.6843C85.486 90.6117 84.4999 89.4626 83.6327 88.2545H78.5956V88.2486ZM82.1061 86.0268C81.5596 85.0485 81.1854 84.0585 80.8171 83.0625H76.7364C75.8276 83.0625 75.097 83.7933 75.097 84.6891V84.913C75.097 85.8147 75.8335 86.5454 76.7364 86.5454H82.4625C82.3556 86.3686 82.2071 86.2036 82.1061 86.0268ZM83.4248 39.2524C73.3803 39.1109 65.201 47.1434 65.201 57.0734C65.201 63.3438 68.468 68.8599 73.41 72.0363C74.4851 72.7258 75.091 73.9163 75.091 75.1892V76.1734H79.7064C79.7955 74.2286 80.1281 72.3133 80.9419 70.5277C84.0485 63.7092 91.9308 60.1851 100.722 60.8274C101.025 59.4366 101.179 57.9928 101.132 56.5018C100.817 47.0432 92.9584 39.382 83.4248 39.2524ZM70.5529 61.7468C70.0124 60.3029 69.7035 58.7471 69.7035 57.1206C69.7035 49.7482 75.7266 43.7725 83.1575 43.7725C84.8029 43.7725 86.3651 44.0789 87.8204 44.6152L70.5529 61.7468ZM76.7245 81.3535H80.2469C79.9321 80.1866 79.6886 79.0257 79.6173 77.8706H76.7245C75.8157 77.8706 75.0851 78.6014 75.0851 79.503V79.727C75.0791 80.6286 75.8157 81.3535 76.7245 81.3535ZM66.3712 70.0739L66.1573 69.8087L63.9536 71.9951C63.4131 72.5314 63.1161 73.2444 63.1161 74.0047C63.1161 74.7649 63.4131 75.478 63.9536 76.0084C64.4941 76.5446 65.2129 76.8393 65.9791 76.8393C66.7454 76.8393 67.4641 76.5446 68.0047 76.0084L70.1965 73.8338L69.9292 73.6216C68.6046 72.5785 67.4107 71.3881 66.3712 70.0739Z" fill="#02314E"/>
</svg>
