<svg width="170" height="125" viewBox="0 0 170 125" fill="none" xmlns="http://www.w3.org/2000/svg">
<path d="M0.807226 59.1654L33.139 3.34536C34.2153 1.50112 36.8199 3.61581e-06 38.951 3.80212e-06L170 1.52588e-05L135.925 58.8437C134.741 60.8595 134.741 64.162 135.925 66.1992L170 125L38.9509 125C36.8199 125 34.2153 123.499 33.139 121.655L0.807226 65.8346C-0.269068 63.9904 -0.269068 60.9882 0.807226 59.1654Z" fill="#FAC600"/>
<path d="M74.7606 84.1116L74.5217 86.1092L92.9404 88.3293L93.1793 86.3317L74.7606 84.1116Z" fill="#02314E"/>
<path d="M99.0805 69.0189L70.6878 72.2666L70.9723 74.7743L99.3651 71.5266L99.0805 69.0189Z" fill="#02314E"/>
<path d="M60.6094 46.8199L60.0713 49.7521L100.586 57.2472L101.124 54.315L60.6094 46.8199Z" fill="#02314E"/>
<path d="M83.8451 95.6868C86.1579 95.6868 88.0327 93.8044 88.0327 91.4824C88.0327 89.1603 86.1579 87.2779 83.8451 87.2779C81.5323 87.2779 79.6574 89.1603 79.6574 91.4824C79.6574 93.8044 81.5323 95.6868 83.8451 95.6868Z" fill="#02314E"/>
<path d="M79.3455 84.5854C82.3077 84.5854 84.709 82.1744 84.709 79.2004C84.709 76.2263 82.3077 73.8153 79.3455 73.8153C76.3833 73.8153 73.9819 76.2263 73.9819 79.2004C73.9819 82.1744 76.3833 84.5854 79.3455 84.5854Z" fill="#02314E"/>
<path d="M90.0066 69.9663C94.0125 69.9663 97.26 66.7058 97.26 62.6839C97.26 58.6619 94.0125 55.4014 90.0066 55.4014C86.0006 55.4014 82.7532 58.6619 82.7532 62.6839C82.7532 66.7058 86.0006 69.9663 90.0066 69.9663Z" fill="#02314E"/>
<path d="M74.4079 49.2393C79.1494 49.2393 82.9932 45.3802 82.9932 40.6197C82.9932 35.8592 79.1494 32 74.4079 32C69.6664 32 65.8226 35.8592 65.8226 40.6197C65.8226 45.3802 69.6664 49.2393 74.4079 49.2393Z" fill="#02314E"/>
<path d="M121 95.3796H49V96H121V95.3796Z" fill="#02314E"/>
</svg>
