<svg width="170" height="125" viewBox="0 0 170 125" fill="none" xmlns="http://www.w3.org/2000/svg">
<path d="M0.807226 59.1654L33.139 3.34536C34.2153 1.50112 36.8199 3.61581e-06 38.951 3.80212e-06L170 1.52588e-05L135.925 58.8437C134.741 60.8595 134.741 64.162 135.925 66.1992L170 125L38.9509 125C36.8199 125 34.2153 123.499 33.139 121.655L0.807226 65.8346C-0.269068 63.9904 -0.269068 60.9882 0.807226 59.1654Z" fill="#FAC600"/>
<path d="M54.9047 92C53.7497 91.7202 52.6321 91.3704 51.664 90.6413C49.1447 88.7414 48.2887 85.3686 49.6306 82.5445C50.9874 79.6872 54.1795 78.1628 57.2931 78.8882C58.579 79.1864 59.0238 78.8698 59.1396 77.57C59.5882 72.5477 62.8476 68.8215 67.7591 67.831C70.712 67.2382 73.4555 67.8531 75.9412 69.5358C76.3561 69.8156 76.7971 70.1323 77.2868 69.8451C77.5933 69.6647 77.8811 69.3406 78.0231 69.0166C79.907 64.7049 83.1664 62.0649 87.8424 61.1702C94.6565 59.8667 101.579 64.6166 102.779 71.3658C103.13 73.332 103.037 75.2614 102.513 77.1797C102.177 78.4059 102.741 79.0134 104.001 78.8109C107.817 78.1886 111.163 80.5046 111.899 84.275C111.914 84.3487 111.966 84.415 112 84.4849C112 85.052 112 85.6153 112 86.1824C111.963 86.2928 111.91 86.4033 111.888 86.5174C111.338 89.1317 109.765 90.8512 107.212 91.7091C106.849 91.8306 106.468 91.9043 106.098 91.9963C89.0311 92 71.9679 92 54.9047 92ZM74.0498 83.141C74.2629 83.9952 74.4573 84.8568 74.7002 85.7037C74.8273 86.1455 75.1712 86.4033 75.6534 86.4401C76.543 86.5064 76.9952 85.7663 76.7784 84.8237C76.5916 84.0136 76.4121 83.141 76.528 82.3383C76.7971 80.4678 78.3222 79.0649 80.1462 78.7777C82.1198 78.4684 83.8728 79.2969 84.8596 81.0091C85.3904 81.9296 85.981 82.099 86.8108 81.5651C88.6461 80.3868 90.6907 80.8691 91.8008 82.747C91.812 82.7654 91.8157 82.7838 91.8269 82.8022C92.2232 83.4613 92.8436 83.6749 93.423 83.3545C93.9912 83.0379 94.1332 82.4046 93.7893 81.7197C92.5558 79.2748 89.5805 78.0929 86.9491 79.0429C86.508 79.2012 86.2875 79.1459 85.9847 78.7962C84.1121 76.6495 81.1667 75.9278 78.5016 76.9294C75.8888 77.9051 74.1732 80.3573 74.0498 83.141ZM88.1788 63.1879C85.0951 63.3021 82.3067 65.5481 81.6713 68.4348C81.5367 69.0424 81.8507 69.6057 82.4151 69.7788C82.987 69.9555 83.5663 69.6683 83.8093 69.0903C83.8392 69.0166 83.8579 68.9356 83.8803 68.8583C84.5718 66.7853 86.0071 65.6291 88.2199 65.4156C89.0983 65.3309 89.5506 64.878 89.4833 64.1784C89.4273 63.5561 88.9077 63.1621 88.1788 63.1879ZM63.7035 77.7136C64.0138 77.4632 64.339 77.2276 64.623 76.9514C64.7202 76.8557 64.7314 76.6532 64.7501 76.4949C64.9108 74.8564 65.7743 73.737 67.3143 73.1111C68.0207 72.8239 68.2973 72.2274 68.0357 71.6125C67.7927 71.0417 67.1386 70.773 66.4882 71.0712C65.864 71.3584 65.2435 71.6935 64.7015 72.1059C63.2774 73.1884 62.5112 74.6281 62.5224 76.4286C62.5224 77.1061 62.9634 77.5663 63.7035 77.7136Z" fill="#02314E"/>
<path d="M61.8608 60.3049C62.1486 60.9861 62.4214 61.6304 62.7242 62.3374C61.4608 62.8565 60.2423 63.3647 59.02 63.8617C58.0258 64.2668 57.6819 64.7675 57.951 65.4487C58.2313 66.163 58.8705 66.3214 59.8648 65.9163C61.0908 65.4156 62.3168 64.9148 63.5877 64.3993C63.8979 65.1284 64.1857 65.8095 64.4959 66.5423C60.7731 68.3318 58.351 71.1817 57.2034 75.2614C54.4561 68.7368 51.7686 62.3558 49.0587 55.9232C52.1985 54.6419 55.2934 53.3826 58.4182 52.1086C58.7098 52.8045 58.9826 53.4489 59.2779 54.1522C57.9323 54.7008 56.6353 55.2384 55.3308 55.7575C54.8598 55.9453 54.5085 56.2178 54.4337 56.7333C54.3066 57.6022 55.1813 58.1951 56.0933 57.8379C57.3492 57.3482 58.5939 56.829 59.8423 56.3209C59.9171 56.2914 59.9919 56.2657 60.1414 56.2067C60.4254 56.8769 60.702 57.536 60.9973 58.2356C60.3283 58.5117 59.7078 58.7658 59.091 59.0235C58.3659 59.3254 58.0669 59.8962 58.3061 60.5C58.5565 61.137 59.1882 61.3653 59.9395 61.0707C60.5675 60.8351 61.188 60.5773 61.8608 60.3049Z" fill="#02314E"/>
<path d="M76.4906 66.87C75.4328 62.4331 74.3937 58.0772 73.3658 53.7214C73.2425 53.1911 73.0145 52.7677 72.4388 52.6352C71.6202 52.4437 70.9549 53.147 71.1493 54.0527C71.4296 55.3746 71.7623 56.6854 72.0763 57.9999C72.6855 60.57 73.2985 63.1437 73.9078 65.7138C73.9302 65.8059 73.9452 65.9016 73.9751 66.0415C73.1976 65.8721 72.465 65.7396 71.7511 65.5297C71.5941 65.4818 71.4745 65.1652 71.4259 64.9516C70.7194 62.0281 70.0279 59.1045 69.329 56.181C68.473 52.5873 67.6208 48.9973 66.7685 45.4036C66.7274 45.2342 66.7162 45.0575 66.6901 44.8881C67.4862 45.0317 68.2412 45.1679 69.0561 45.3152C69.2916 46.2947 69.5383 47.333 69.7924 48.3713C69.9831 49.1593 70.5288 49.568 71.1717 49.4134C71.8445 49.2513 72.1622 48.6769 71.9866 47.8927C71.7847 46.9869 71.5717 46.0848 71.3324 45.1864C71.2465 44.8623 71.2988 44.693 71.6053 44.5089C72.1548 44.1738 72.6556 43.7651 73.2088 43.3637C73.7433 45.5951 74.2778 47.8264 74.8086 50.0577C75.9001 54.6713 76.9952 59.2849 78.0643 63.9022C78.1241 64.1674 78.0344 64.5282 77.8886 64.7712C77.4774 65.4561 77.0027 66.1115 76.4906 66.87Z" fill="#02314E"/>
<path d="M90.3281 31.6659C92.6792 34.3611 94.3687 37.3215 94.264 40.9925C94.2079 43.0029 93.4679 44.8145 92.2269 46.4125C92.1035 46.5708 91.827 46.707 91.6288 46.696C89.7226 46.6076 87.82 46.5119 85.9212 46.3573C85.5848 46.3315 85.1811 46.1106 84.9606 45.8491C83.5028 44.1259 83.5813 41.5927 85.0839 39.9026C85.8539 39.0373 86.6351 38.1757 87.3378 37.2589C87.977 36.4231 88.59 35.5541 89.0834 34.6299C89.573 33.7094 89.8982 32.7079 90.3281 31.6659ZM92.8436 39.7259C92.7988 39.3061 92.7689 38.8827 92.7053 38.4666C92.5783 37.6529 92.1073 37.2442 91.4158 37.3289C90.7505 37.4099 90.3692 37.9659 90.4925 38.7722C90.7392 40.385 90.3692 41.8467 89.4759 43.2017C89.0049 43.916 89.0834 44.5715 89.6665 44.9433C90.2458 45.3115 90.8813 45.1127 91.3709 44.3947C92.3278 42.9808 92.81 41.427 92.8436 39.7259Z" fill="#02314E"/>
<path d="M108.468 45.1201C107.974 46.291 107.466 47.4545 107.003 48.6364C106.883 48.9421 106.819 49.3139 106.883 49.6269C106.98 50.1056 107.376 50.3707 107.87 50.4001C108.393 50.4296 108.774 50.1682 108.98 49.6932C109.458 48.5775 109.926 47.4582 110.396 46.3425C110.453 46.2137 110.505 46.0848 110.591 45.8859C110.666 46.0369 110.733 46.1253 110.755 46.2247C111.103 47.6975 111.458 49.1703 111.768 50.6505C111.821 50.8972 111.723 51.2249 111.585 51.4532C110.681 52.9629 109.761 54.4578 108.819 55.9453C108.662 56.1957 108.419 56.4682 108.154 56.5639C106.023 57.3077 103.579 56.3246 102.584 54.3179C102.457 54.0638 102.461 53.6993 102.528 53.4158C102.928 51.6889 103.362 49.973 103.795 48.2535C103.848 48.051 103.919 47.7859 104.068 47.6902C105.496 46.7844 106.943 45.908 108.382 45.0243C108.404 45.0538 108.434 45.0869 108.468 45.1201Z" fill="#02314E"/>
<path d="M103.904 67.5732C102.738 65.1468 101.145 63.2358 99.0746 61.6893C99.7997 59.9698 100.506 58.2834 101.246 56.5271C102.932 58.3423 104.984 59.1598 107.481 59.064C106.289 61.8918 105.126 64.6571 103.904 67.5732Z" fill="#02314E"/>
<path d="M70.5064 36.6109C71.0708 37.6381 71.6763 38.7059 72.2445 39.7921C72.3304 39.9578 72.2931 40.2303 72.2295 40.4255C71.8184 41.6847 70.9811 42.5758 69.6728 42.8888C68.3384 43.2054 67.1648 42.782 66.2153 41.8099C66.0696 41.6626 65.9051 41.438 65.9088 41.2502C65.9275 40.0462 65.9911 38.8385 66.0397 37.6566C66.8508 37.605 67.6395 37.6529 68.3758 37.4835C69.086 37.3215 69.7513 36.9312 70.5064 36.6109Z" fill="#02314E"/>
<path d="M85.1512 59.388C85.1512 57.7053 85.1512 55.9159 85.1512 54.0969C87.2481 54.2295 89.2516 54.3547 91.3747 54.4909C91.2289 55.8459 91.0719 57.293 90.9336 58.5927C88.9114 58.8689 87.0051 59.1303 85.1512 59.388Z" fill="#02314E"/>
<path d="M85.8315 48.5812C87.7452 48.699 89.5768 48.8095 91.4569 48.9236C91.4569 49.9951 91.4569 51.0151 91.4569 52.1049C89.4422 52.2669 87.4612 52.1454 85.4203 51.7809C85.5549 50.7242 85.6894 49.6969 85.8315 48.5812Z" fill="#02314E"/>
<path d="M66.1107 35.2669C66.1742 33.6137 66.2303 32.0009 66.3125 30.3919C66.32 30.2483 66.477 30.02 66.5929 30.0016C66.7162 29.9832 66.933 30.1304 67.0078 30.263C67.7553 31.5849 68.4842 32.9178 69.2019 34.2543C69.2617 34.3648 69.2243 34.6262 69.1346 34.6999C68.245 35.4252 67.2432 35.5725 66.1107 35.2669Z" fill="#02314E"/>
</svg>
