<svg width="170" height="126" viewBox="0 0 170 126" fill="none" xmlns="http://www.w3.org/2000/svg">
<path d="M169.193 66.3613L136.861 122.628C135.785 124.487 133.18 126 131.049 126L0 126L34.0753 66.6855C35.2593 64.6536 35.2593 61.3248 34.0753 59.2712L0 0L131.049 0C133.18 0 135.785 1.51312 136.861 3.3721L169.193 59.6387C170.269 61.4977 170.269 64.5239 169.193 66.3613Z" fill="#FAC600"/>
<path d="M58 91.6465C58.3056 91.1235 58.7666 90.9509 59.3617 90.9671C60.6912 90.994 62.0261 90.9779 63.436 90.9779C63.4467 90.6921 63.4682 90.4494 63.4682 90.2122C63.4682 86.6478 63.4682 83.0835 63.4682 79.5245C63.4682 78.4353 63.763 78.1279 64.8298 78.1279C67.6872 78.1225 70.5393 78.1225 73.3966 78.1279C74.4527 78.1279 74.7583 78.4514 74.7583 79.5353C74.7583 83.0996 74.7583 86.664 74.7583 90.2229C74.7583 90.4494 74.7583 90.6759 74.7583 90.9401C75.6536 90.9401 76.4953 90.9401 77.3905 90.9401C77.3905 90.6543 77.3905 90.4063 77.3905 90.1582C77.3905 84.0379 77.3905 77.9176 77.3905 71.7973C77.3905 70.6002 77.68 70.3036 78.8594 70.2982C81.6525 70.2982 84.4455 70.2982 87.2386 70.2982C88.3912 70.2982 88.6861 70.5894 88.6861 71.7434C88.6861 77.8852 88.6861 84.0271 88.6861 90.169C88.6861 90.4117 88.6861 90.6597 88.6861 90.9401C89.5921 90.9401 90.4123 90.9401 91.3344 90.9401C91.3344 90.6543 91.3344 90.3955 91.3344 90.1313C91.3344 81.455 91.3344 72.7787 91.3344 64.097C91.3344 62.7274 91.5702 62.4901 92.9319 62.4901C95.7035 62.4901 98.4751 62.4901 101.247 62.4901C102.303 62.4901 102.63 62.8244 102.63 63.8813C102.63 72.6439 102.63 81.4011 102.63 90.1636C102.63 90.4117 102.63 90.6597 102.63 90.9401C103.514 90.9401 104.34 90.9401 105.262 90.9401C105.262 90.6759 105.262 90.4117 105.262 90.1528C105.262 78.8343 105.262 67.5158 105.262 56.1972C105.262 54.9516 105.53 54.6766 106.758 54.6766C109.508 54.6766 112.258 54.6766 115.008 54.6766C116.3 54.6766 116.547 54.9192 116.547 56.208C116.547 67.505 116.547 78.8019 116.547 90.0989C116.547 90.3631 116.547 90.6328 116.547 90.9779C117.512 90.9779 118.402 90.9779 119.292 90.9779C119.897 90.9779 120.503 90.9617 121.104 90.9994C121.667 91.0372 121.983 91.3985 121.999 91.9485C122.02 92.5039 121.704 92.849 121.163 92.9569C120.98 92.9946 120.787 92.9892 120.605 92.9892C100.207 92.9892 79.803 92.9892 59.4046 93C58.7881 93 58.3002 92.849 58 92.2774C58 92.0671 58 91.8568 58 91.6465Z" fill="#02314E"/>
<path d="M101.467 41.3575C100.18 40.3761 98.9094 39.4055 97.6335 38.4294C97.3493 38.2137 97.0116 38.0466 96.8025 37.7716C96.5827 37.4804 96.3147 37.0544 96.3844 36.7632C96.4594 36.4397 96.8508 36.0514 97.1778 35.949C99.2471 35.3234 101.343 34.7734 103.429 34.2018C105.975 33.5062 108.527 32.8106 111.073 32.115C112.28 31.7861 112.751 32.1474 112.762 33.3984C112.8 38.176 112.837 42.9536 112.88 47.7312C112.885 48.2165 112.81 48.6533 112.339 48.9068C111.894 49.144 111.502 49.0146 111.127 48.7234C110.023 47.8768 108.908 47.0302 107.755 46.1567C107.187 46.8523 106.661 47.5209 106.109 48.168C98.8129 56.7365 90.0209 63.0994 79.2722 66.5559C75.5678 67.7476 71.7669 68.4325 67.8695 68.5457C67.1243 68.5673 66.7276 68.3246 66.615 67.7908C66.4757 67.1329 66.8616 66.68 67.6551 66.5182C68.9578 66.2593 70.2766 66.0275 71.5578 65.6878C78.007 63.9784 83.7057 60.8131 88.8094 56.5369C93.8218 52.3363 97.9015 47.343 101.263 41.7403C101.327 41.6271 101.381 41.5139 101.467 41.3575Z" fill="#02314E"/>
</svg>
