<svg width="170" height="126" viewBox="0 0 170 126" fill="none" xmlns="http://www.w3.org/2000/svg">
<path d="M169.193 66.3613L136.861 122.628C135.785 124.487 133.18 126 131.049 126L0 126L34.0753 66.6855C35.2593 64.6536 35.2593 61.3248 34.0753 59.2712L0 0L131.049 0C133.18 0 135.785 1.51312 136.861 3.3721L169.193 59.6387C170.269 61.4977 170.269 64.5239 169.193 66.3613Z" fill="#FAC600"/>
<path d="M77.2054 61.6019H90.1224V50.6039C86.1222 50.5279 82.3065 50.1184 78.8827 49.4222C77.8856 53.1604 77.3092 57.2904 77.2054 61.6019Z" fill="#02314E"/>
<path d="M108.544 61.6019H120.297C120.02 55.5822 117.945 50.0365 114.613 45.5086C112.567 46.8307 109.893 47.9305 106.78 48.767C107.835 52.7216 108.44 57.0798 108.544 61.6019Z" fill="#02314E"/>
<path d="M78.8136 76.2853C82.2662 75.5657 86.1222 75.1328 90.1224 75.0509V64.3923H77.2054C77.3092 68.5984 77.8625 72.629 78.8136 76.2853Z" fill="#02314E"/>
<path d="M81.6264 42.18C80.9001 43.584 80.2603 45.1108 79.7012 46.7312C82.8887 47.363 86.4393 47.7433 90.1224 47.8135V34.1772C86.9753 34.809 84.0011 37.5936 81.6264 42.18Z" fill="#02314E"/>
<path d="M108.544 64.3923C108.446 68.7973 107.87 73.0385 106.867 76.9112C110.048 77.7653 112.775 78.8885 114.809 80.2223C118.031 75.7412 120.026 70.2949 120.297 64.3923H108.544Z" fill="#02314E"/>
<path d="M101.374 42.18C99.0047 37.5936 96.0247 34.8032 92.8718 34.1772V47.8135C96.5607 47.7316 100.111 47.3513 103.287 46.7137C102.74 45.0991 102.1 43.584 101.374 42.18Z" fill="#02314E"/>
<path d="M81.6264 83.8083C83.9954 88.3947 86.9753 91.1851 90.1282 91.8111V77.8472C86.3874 77.9233 82.808 78.3152 79.609 78.9587C80.1854 80.6903 80.8598 82.3224 81.6264 83.8083Z" fill="#02314E"/>
<path d="M105.985 46.0877C108.711 45.3624 111.063 44.4322 112.855 43.3324C109.316 39.3778 104.728 36.4119 99.5349 34.8909C101.108 36.4353 102.549 38.4418 103.812 40.8871C104.636 42.49 105.362 44.2333 105.985 46.0877Z" fill="#02314E"/>
<path d="M103.403 78.947C100.198 78.3035 96.6126 77.9174 92.8776 77.8414V91.8111C96.0305 91.1793 99.0046 88.3947 101.379 83.8083C102.146 82.3166 102.82 80.6844 103.403 78.947Z" fill="#02314E"/>
<path d="M76.9172 79.5846C74.1333 80.3334 71.747 81.2928 69.9486 82.4336C73.5165 86.5052 78.1853 89.5588 83.4824 91.1149C81.903 89.5705 80.4563 87.5582 79.1882 85.107C78.3179 83.4164 77.557 81.5619 76.9172 79.5846Z" fill="#02314E"/>
<path d="M74.456 64.3923H62.6976C62.9685 70.3066 64.9744 75.7646 68.2079 80.2515C70.2368 78.9119 72.9574 77.7829 76.1333 76.9288C75.1362 73.0502 74.5598 68.8032 74.456 64.3923Z" fill="#02314E"/>
<path d="M103.812 85.107C102.544 87.5581 101.097 89.5705 99.5176 91.1149C104.826 89.5588 109.507 86.4935 113.074 82.4102C111.27 81.2753 108.878 80.3159 106.089 79.5729C105.449 81.5502 104.688 83.4105 103.812 85.107Z" fill="#02314E"/>
<path d="M76.214 48.7963C73.1015 47.9656 70.4155 46.8716 68.3578 45.5554C65.0435 50.0774 62.9858 55.6056 62.7091 61.6019H74.4618C74.5598 57.0857 75.165 52.7392 76.214 48.7963Z" fill="#02314E"/>
<path d="M105.795 64.3923H92.8776V75.0509C96.8778 75.127 100.734 75.554 104.192 76.2736C105.143 72.6173 105.697 68.5926 105.795 64.3923Z" fill="#02314E"/>
<path d="M79.194 40.8871C80.4563 38.4418 81.8973 36.4353 83.4708 34.8909C78.2602 36.4236 73.6549 39.4012 70.1158 43.3792C71.9199 44.4673 74.2774 45.3916 77.0152 46.117C77.632 44.2509 78.3582 42.4959 79.194 40.8871Z" fill="#02314E"/>
<path d="M104.111 49.4047C100.693 50.1125 96.8835 50.5279 92.8776 50.6039V61.6019H105.795C105.691 57.2846 105.114 53.1428 104.111 49.4047Z" fill="#02314E"/>
<path d="M91.5 29C73.0266 29 58 44.2509 58 63C58 81.7491 73.0266 97 91.5 97C109.973 97 125 81.7491 125 63C125 44.2509 109.973 29 91.5 29ZM91.5 95.1982C74.0065 95.1982 59.7753 80.7546 59.7753 63C59.7753 45.2454 74.0065 30.8018 91.5 30.8018C108.994 30.8018 123.225 45.2454 123.225 63C123.225 80.7546 108.994 95.1982 91.5 95.1982Z" fill="#02314E"/>
</svg>
