<svg width="170" height="125" viewBox="0 0 170 125" fill="none" xmlns="http://www.w3.org/2000/svg">
<path d="M0.807226 59.1654L33.139 3.34536C34.2153 1.50112 36.8199 3.61581e-06 38.951 3.80212e-06L170 1.52588e-05L135.925 58.8437C134.741 60.8595 134.741 64.162 135.925 66.1992L170 125L38.9509 125C36.8199 125 34.2153 123.499 33.139 121.655L0.807226 65.8346C-0.269068 63.9904 -0.269068 60.9882 0.807226 59.1654Z" fill="#FAC600"/>
<path d="M81.2962 91.787C81.2962 91.4277 81.2962 91.1683 81.2962 90.912C81.2962 86.9121 81.3121 82.909 81.2772 78.909C81.2709 78.2653 81.4833 78.034 82.0824 77.7965C84.7169 76.7497 86.0991 74.7622 86.3368 71.9872C86.3527 71.8028 86.3654 71.6122 86.3432 71.4278C85.9089 67.9404 87.5827 65.0279 89.0062 62.0529C89.0918 61.8717 89.3327 61.6811 89.5292 61.6436C92.6582 61.0248 95.8031 60.8936 98.9669 61.3498C99.0145 61.3561 99.0557 61.3998 99.1223 61.4436C99.1223 70.5935 99.1223 79.759 99.1223 89.0027C96.0567 88.6808 93.045 88.7121 90.0428 89.1839C87.047 89.6527 84.1716 90.5277 81.2962 91.787ZM94.0151 65.8123C93.939 65.4873 93.9453 65.3341 93.8724 65.2341C93.1908 64.2779 92.5536 63.2842 91.7833 62.4029C91.3838 61.9436 90.7307 62.0154 90.2267 62.4092C89.7194 62.806 89.5419 63.3873 89.8716 63.9092C90.4549 64.8342 91.0985 65.7373 91.8435 66.5341C92.0876 66.7935 92.785 66.856 93.1655 66.7185C93.5459 66.581 93.7868 66.0748 94.0151 65.8123Z" fill="#02314E"/>
<path d="M58.2267 64.8717C58.2267 65.2998 58.2267 65.6154 58.2267 65.931C58.2267 73.856 58.2267 81.7809 58.2267 89.7089C58.2267 91.5839 58.5913 91.8933 60.4934 91.6402C66.8148 90.7995 72.8413 91.7527 78.5318 94.6026C79.5494 95.112 80.3674 95.1464 81.404 94.6276C87.2752 91.6933 93.4793 90.7183 99.9941 91.7339C101.17 91.9183 101.769 91.3589 101.769 90.0746C101.773 82.0152 101.773 73.9559 101.773 65.8966C101.773 65.5841 101.773 65.2685 101.773 64.8873C102.844 64.8873 103.84 64.8435 104.832 64.9029C105.507 64.9435 105.881 65.4154 105.976 66.0654C106.014 66.3279 105.995 66.5966 105.995 66.8654C105.995 75.2716 105.995 83.6777 105.995 92.0839C105.995 94.0151 105.726 94.312 103.722 94.2683C97.5277 94.1308 91.4662 94.8901 85.6014 96.9151C83.8958 97.5026 82.2473 98.2526 80.5544 98.887C80.2437 99.0026 79.7999 99.0526 79.5177 98.9245C72.4545 95.6964 65.0331 94.1558 57.2503 94.2745C56.6543 94.2839 56.0583 94.2933 55.4623 94.2651C54.4351 94.2183 54.004 93.7745 54.004 92.7495C53.9976 89.0089 54.0008 85.2746 54.0008 81.5371C54.0008 76.5997 54.0008 71.6622 54.0008 66.7279C54.0008 65.2342 54.359 64.8748 55.8459 64.8748C56.6004 64.8717 57.3549 64.8717 58.2267 64.8717Z" fill="#02314E"/>
<path d="M60.8706 89.0089C60.8706 79.7715 60.8706 70.5997 60.8706 61.3061C61.9453 61.2311 63.0169 61.0654 64.082 61.0998C65.9176 61.1592 67.75 61.3217 69.5792 61.4967C69.8581 61.5217 70.2322 61.7873 70.3464 62.0373C71.2499 63.9998 72.109 65.9841 72.9618 67.9716C73.0505 68.181 73.0283 68.4435 73.0315 68.681C73.0379 69.7497 73.022 70.8154 73.041 71.8841C73.0918 74.7528 75.0604 77.2465 77.8629 78.0184C78.1197 78.0903 78.3796 78.159 78.665 78.2372C78.665 82.7246 78.665 87.1996 78.665 91.7777C72.984 89.2652 67.1064 88.3121 60.8706 89.0089ZM69.7694 63.2279C69.4682 62.8967 69.2114 62.431 68.8152 62.2248C68.2762 61.9436 67.6992 62.1217 67.3125 62.631C66.7767 63.331 66.2473 64.0373 65.7432 64.7592C65.2423 65.481 65.3565 66.2154 65.9937 66.6466C66.5897 67.0466 67.322 66.906 67.8324 66.2529C68.3586 65.581 68.8659 64.8904 69.3509 64.1904C69.5126 63.9592 69.5823 63.6685 69.7694 63.2279Z" fill="#02314E"/>
<path d="M83.1508 66.5716C83.341 63.6748 83.5154 60.8311 83.7278 57.9873C83.75 57.7092 83.9497 57.3967 84.1558 57.1842C85.1132 56.203 86.1054 55.2561 87.0755 54.2874C87.792 53.5686 87.8395 53.078 87.2752 52.2311C86.5175 51.0937 85.7535 49.9624 84.9768 48.8374C84.3713 47.9624 83.7405 47.8343 82.8433 48.4031C82.0032 48.9374 81.1599 49.4749 80.3483 50.053C79.9743 50.3187 79.708 50.2905 79.3466 50.0343C78.5318 49.4593 77.6917 48.9218 76.8484 48.3906C75.983 47.8437 75.3489 47.9624 74.772 48.7937C73.9636 49.9593 73.1678 51.1374 72.3848 52.3218C71.8807 53.0843 71.9378 53.5811 72.6004 54.2468C73.5863 55.2374 74.5976 56.203 75.5772 57.1998C75.7674 57.3936 75.964 57.678 75.983 57.9311C76.1954 60.7998 76.3729 63.6717 76.56 66.5341C75.3046 66.7998 75.2063 66.8029 74.8259 65.7404C73.6339 62.3936 71.8268 59.3905 69.8677 56.4249C67.2744 52.4936 66.3741 48.1562 67.8863 43.5875C69.6553 38.2406 75.2316 34.7125 80.7478 35.3C86.8536 35.9532 91.4599 40.3812 92.0717 46.2531C92.4553 49.9437 91.593 53.3968 89.4944 56.4467C87.4464 59.4186 85.6711 62.4998 84.4855 65.906C84.2065 66.706 84.1621 66.6935 83.1508 66.5716ZM89.5768 44.8437C89.5609 42.425 86.3464 38.3281 84.0511 37.8813C83.639 37.8 83.005 38.1188 82.6848 38.45C82.2536 38.8969 82.4058 39.5031 82.8369 39.9656C82.9796 40.1187 83.1762 40.2312 83.3632 40.3312C85.2368 41.3156 86.4129 42.8312 86.9487 44.85C86.9963 45.0281 87.0406 45.2156 87.1294 45.3781C87.4337 45.9312 87.9124 46.1906 88.5433 46.0499C89.209 45.9031 89.5229 45.4343 89.5768 44.8437Z" fill="#02314E"/>
<path d="M80.5195 66.6123C80.0694 66.6123 79.6731 66.6123 79.188 66.6123C79.0961 65.3279 79.001 64.0623 78.9154 62.7935C78.7949 60.9311 78.7125 59.0655 78.5445 57.2061C78.5065 56.7686 78.2782 56.278 77.977 55.9467C77.1655 55.053 76.2556 54.2499 75.4282 53.3686C75.2792 53.2093 75.2443 52.7968 75.3458 52.5936C75.593 52.0968 75.9513 51.6561 76.319 51.1124C77.194 51.6874 78.0499 52.2249 78.8774 52.803C79.5399 53.2655 80.155 53.2749 80.8175 52.8155C81.6354 52.2499 82.4787 51.7186 83.3854 51.1249C83.7531 51.6561 84.1494 52.1561 84.4442 52.7061C84.5298 52.8686 84.403 53.2468 84.2509 53.4124C83.4361 54.2686 82.5421 55.0499 81.7559 55.9311C81.4452 56.2811 81.2043 56.7999 81.1663 57.2592C80.9507 59.9717 80.8048 62.6873 80.6305 65.4029C80.6115 65.7966 80.5607 66.1904 80.5195 66.6123Z" fill="#02314E"/>
<path d="M75.6723 71.9341C75.6723 70.981 75.6723 70.1372 75.6723 69.281C78.3796 69.281 81.0426 69.281 83.7087 69.281C83.7278 69.3654 83.7468 69.4466 83.7658 69.531C81.0933 70.3247 78.4209 71.1185 75.6723 71.9341Z" fill="#02314E"/>
<path d="M76.6392 74.3184C78.9947 73.6247 81.2645 72.956 83.5376 72.2841C83.6422 73.4122 82.6879 74.7122 81.3311 75.3278C79.7238 76.0591 77.9834 75.7184 76.6392 74.3184Z" fill="#02314E"/>
<path d="M78.3987 27.572C78.3987 27.1189 78.3733 26.6626 78.405 26.2126C78.4557 25.5001 78.9883 25.0095 79.6667 25.0001C80.3388 24.9908 80.9317 25.472 80.9665 26.1751C81.0173 27.1314 81.0141 28.0939 80.9697 29.0532C80.9348 29.7907 80.3135 30.3032 79.6224 30.2688C78.9471 30.2345 78.4557 29.7345 78.3955 29.0126C78.3923 28.9595 78.3923 28.9064 78.3923 28.8532C78.3923 28.4251 78.3923 28.0001 78.3923 27.572C78.3955 27.572 78.3955 27.572 78.3987 27.572Z" fill="#02314E"/>
<path d="M61.5142 43.5687C60.1985 43.1062 59.0604 42.7687 57.9857 42.3C57.4468 42.0656 57.3105 41.475 57.5007 40.9125C57.7004 40.3219 58.1728 39.9125 58.791 40.0562C59.8847 40.3125 60.9879 40.6281 61.9961 41.1C62.3321 41.2562 62.6174 42.0219 62.5286 42.425C62.4335 42.8562 61.8724 43.1906 61.5142 43.5687Z" fill="#02314E"/>
<path d="M101.944 41.5844C101.769 41.7719 101.513 42.2625 101.11 42.4437C100.232 42.8375 99.2871 43.1 98.3551 43.3625C97.683 43.55 97.0141 43.1531 96.8048 42.5312C96.5924 41.8969 96.8809 41.2156 97.5594 40.9656C98.466 40.6281 99.3886 40.3156 100.327 40.075C101.183 39.8531 101.941 40.4687 101.944 41.5844Z" fill="#02314E"/>
<path d="M58.5722 56.1436C58.2203 55.803 57.7068 55.503 57.5039 55.0655C57.2312 54.478 57.5102 53.8561 58.1379 53.6093C59.1143 53.228 60.1225 52.9093 61.1401 52.653C61.7995 52.4874 62.3036 52.8405 62.5445 53.4593C62.7791 54.0592 62.6111 54.6624 62.0499 54.9092C60.9943 55.3749 59.8752 55.6936 58.5722 56.1436Z" fill="#02314E"/>
<path d="M101.944 54.428C101.966 55.4874 101.237 56.153 100.444 55.9592C99.452 55.7155 98.4692 55.403 97.515 55.0342C96.8556 54.778 96.621 54.1999 96.7985 53.5155C96.9665 52.8811 97.6418 52.4811 98.3265 52.6655C99.2903 52.9249 100.257 53.1968 101.167 53.5905C101.547 53.753 101.782 54.2436 101.944 54.428Z" fill="#02314E"/>
<path d="M91.1841 33.9032C90.0428 33.8938 89.3993 32.8532 89.9192 32.0157C90.4518 31.1595 91.07 30.3438 91.7198 29.5688C92.1478 29.0595 92.7628 29.0063 93.3303 29.3751C93.9231 29.7626 94.1514 30.3782 93.7836 30.972C93.2257 31.8751 92.5568 32.7188 91.8847 33.5438C91.704 33.7626 91.3331 33.8313 91.1841 33.9032Z" fill="#02314E"/>
<path d="M66.7228 28.9907C67.1571 29.2782 67.5502 29.4345 67.788 29.7188C68.3523 30.3938 68.8627 31.1126 69.3573 31.8407C69.8201 32.5188 69.6806 33.2438 69.0624 33.6626C68.4886 34.0501 67.7531 33.9407 67.2744 33.3344C66.7133 32.6219 66.1268 31.9126 65.6925 31.1282C65.496 30.7751 65.496 30.1782 65.664 29.8095C65.8193 29.4657 66.3234 29.2813 66.7228 28.9907Z" fill="#02314E"/>
</svg>
