<svg width="170" height="126" viewBox="0 0 170 126" fill="none" xmlns="http://www.w3.org/2000/svg">
<path d="M169.193 66.3613L136.861 122.628C135.785 124.487 133.18 126 131.049 126L0 126L34.0753 66.6855C35.2593 64.6536 35.2593 61.3248 34.0753 59.2712L0 0L131.049 0C133.18 0 135.785 1.51312 136.861 3.3721L169.193 59.6387C170.269 61.4977 170.269 64.5239 169.193 66.3613Z" fill="#FAC600"/>
<path d="M115.341 81.4387C114.835 80.3365 113.696 79.5993 112.495 79.5782L102.034 79.4167C101.971 79.6624 101.881 79.9082 101.791 80.1539C100.757 82.8429 98.0147 84.4578 95.1755 84.1488L94.759 84.1067C90.9341 83.6925 87.1578 82.9412 83.4648 81.86L80.5145 81.0034C80.0494 80.863 79.6607 80.5541 79.4247 80.1258C79.1887 79.6905 79.1331 79.192 79.265 78.7146C79.4039 78.2372 79.7093 77.844 80.1327 77.6123C80.5631 77.3736 81.056 77.3175 81.5211 77.4509L84.631 78.3566C87.9977 79.3395 91.4339 80.0275 94.9187 80.4137L95.5643 80.4839C96.7999 80.6243 97.9661 79.9012 98.4173 78.7287C98.6811 78.0406 98.6603 77.2823 98.3548 76.6013C98.0355 75.9203 97.4941 75.4078 96.8138 75.148L81.6877 69.5102C80.0356 68.8923 78.196 68.8502 76.5091 69.3908L58.3703 75.9203C57.1972 76.3415 56.6557 77.7176 57.2319 78.841L62.7922 89.7656C63.2643 90.6994 64.3541 91.1276 65.3329 90.7696L69.734 89.1618C70.4351 88.902 71.2056 88.9301 71.8929 89.239L83.0899 94.2169C85.2349 95.1717 87.6576 95.256 89.8651 94.4556L113.536 85.869C114.397 85.553 115.064 84.9141 115.411 84.0576C115.751 83.201 115.73 82.2742 115.341 81.4387Z" fill="#02314E"/>
<path d="M115.64 65.007H110.739V60.0502C110.739 58.7303 109.684 57.6631 108.379 57.6631C107.074 57.6631 106.019 58.7303 106.019 60.0502V65.007H101.118C99.8126 65.007 98.7575 66.0742 98.7575 67.3941C98.7575 68.7141 99.8126 69.7812 101.118 69.7812H106.019V74.738C106.019 76.058 107.074 77.1251 108.379 77.1251C109.684 77.1251 110.739 76.058 110.739 74.738V69.7812H115.64C116.945 69.7812 118 68.7141 118 67.3941C118 66.0812 116.945 65.007 115.64 65.007Z" fill="#02314E"/>
<path d="M95.1825 56.2098H90.2816V51.253C90.2816 49.933 89.2264 48.8659 87.9214 48.8659C86.6163 48.8659 85.5612 49.933 85.5612 51.253V56.2098H80.6603C79.3553 56.2098 78.3001 57.2769 78.3001 58.5969C78.3001 59.9168 79.3553 60.984 80.6603 60.984H85.5612V65.9408C85.5612 67.2607 86.6163 68.3279 87.9214 68.3279C89.2264 68.3279 90.2816 67.2607 90.2816 65.9408V60.984H95.1825C96.4875 60.984 97.5427 59.9168 97.5427 58.5969C97.5427 57.2769 96.4806 56.2098 95.1825 56.2098Z" fill="#02314E"/>
<path d="M110.273 42.3439H105.372V37.3871C105.372 36.0672 104.317 35 103.011 35C101.706 35 100.651 36.0672 100.651 37.3871V42.3439H95.7504C94.4453 42.3439 93.3902 43.4111 93.3902 44.731C93.3902 46.051 94.4453 47.1181 95.7504 47.1181H100.651V52.0749C100.651 53.3949 101.706 54.4621 103.011 54.4621C104.317 54.4621 105.372 53.3949 105.372 52.0749V47.1181H110.273C111.578 47.1181 112.633 46.051 112.633 44.731C112.633 43.4111 111.571 42.3439 110.273 42.3439Z" fill="#02314E"/>
</svg>
