<svg id="Layer_1" data-name="Layer 1" xmlns="http://www.w3.org/2000/svg" viewBox="0 0 50 50"><defs><style>.cls-1{fill:#fff;}.cls-2{fill:#02314e;}</style></defs><title>For Brands</title><rect class="cls-1" x="4.9" y="4.82" width="40" height="40" rx="7" ry="7"/><path class="cls-2" d="M27.68,30.77a2.62,2.62,0,0,0-1.79.41c-.23.13-.47.22-.71.34a.6.6,0,0,1-.58,0l-1.4-.67a.79.79,0,0,0-.31-.07c-.5,0-1,0-1.49,0a.71.71,0,0,1-.63-.31c-.3-.39-.6-.77-.91-1.14a.85.85,0,0,0-.27-.21l-1.38-.67a.63.63,0,0,1-.38-.47c-.11-.49-.22-1-.34-1.47a1,1,0,0,0-.17-.35c-.31-.4-.63-.8-1-1.2a.61.61,0,0,1-.12-.57,5,5,0,0,1,.15-.64,3.67,3.67,0,0,0-.11-2.47.88.88,0,0,1,.22-1l.08-.1a3.92,3.92,0,0,0,1.16-2.42c0-.09,0-.18.06-.28a.63.63,0,0,1,.42-.52c.14-.06.27-.15.41-.19a3.81,3.81,0,0,0,1.87-1.49c.53-.74.4-.67,1.28-.62a4.28,4.28,0,0,0,2.38-.54c.78-.43.63-.44,1.44,0a4.27,4.27,0,0,0,2.35.54c.87,0,.76-.13,1.29.63a4.24,4.24,0,0,0,1.91,1.51c.81.34.68.26.88,1.07a.87.87,0,0,1,0,.15,3.72,3.72,0,0,0,1.19,2.26.9.9,0,0,1,.21,1c-.1.33-.13.67-.24,1a1.93,1.93,0,0,0,.05,1.11c.07.33.15.67.23,1a.63.63,0,0,1-.13.59q-.48.59-1,1.2a.91.91,0,0,0-.16.33q-.18.74-.34,1.49a.62.62,0,0,1-.37.46c-.45.21-.9.42-1.34.65a1.09,1.09,0,0,0-.33.26c-.31.37-.62.76-.92,1.14a.65.65,0,0,1-.58.28C28.18,30.76,27.93,30.77,27.68,30.77ZM24.9,29.15a6.38,6.38,0,1,0-6.38-6.39A6.39,6.39,0,0,0,24.9,29.15Z"/><path class="cls-2" d="M19.1,29.39a4.17,4.17,0,0,1,.48.41c.28.32.54.66.81,1a1.15,1.15,0,0,0,1,.49c.38,0,.76,0,1.14,0a1.42,1.42,0,0,1,.79.18c.18.1.36.18.56.28l-.13.19L21,35.52a.54.54,0,0,1-1-.09c-.26-.53-.53-1.07-.79-1.61a.33.33,0,0,0-.28-.2c-.57-.1-1.14-.23-1.72-.31a.57.57,0,0,1-.38-1c.71-.88,1.37-1.79,2.06-2.69Z"/><path class="cls-2" d="M25.93,31.75l.87-.42a.59.59,0,0,1,.23,0h1.44a1.07,1.07,0,0,0,.89-.42c.29-.36.56-.73.86-1.07a4.15,4.15,0,0,1,.48-.41l.63.83,1.6,2.1c.35.46.2.86-.36,1l-1.7.31a.41.41,0,0,0-.34.26c-.25.53-.51,1-.77,1.57a.54.54,0,0,1-1,.09l-2.73-3.58Z"/><path class="cls-2" d="M24.9,28.62a5.86,5.86,0,1,1,5.86-5.84A5.87,5.87,0,0,1,24.9,28.62Zm1.39-5.88-.9-1.48a.53.53,0,0,0-1,0l-.8,1.3-.12.17L22.44,22a.53.53,0,0,0-.8.54q.24,1.43.48,2.86c.07.42.24.56.67.56H27c.43,0,.6-.14.67-.58.15-.93.3-1.85.46-2.78a.54.54,0,0,0-.86-.56Zm-.86-2.67a.52.52,0,1,0-1,0,.52.52,0,0,0,1,0ZM21.22,22a.52.52,0,1,0-.52-.54A.53.53,0,0,0,21.22,22Zm7.88-.52a.52.52,0,1,0-.53.52A.53.53,0,0,0,29.1,21.46Z"/></svg>