<svg width="17" height="17" viewBox="0 0 17 17" fill="none" xmlns="http://www.w3.org/2000/svg">
<circle cx="8.5" cy="8.5" r="8.5" transform="matrix(1 0 0 -1 0 17)" fill="#07D5A7"/>
<path d="M7.21993 12C7.07305 12.0007 6.93176 11.9363 6.8263 11.8206L4.16985 8.90423C4.1169 8.84575 4.07465 8.77604 4.04552 8.69908C4.01638 8.62212 4.00093 8.53943 4.00004 8.45572C3.99825 8.28665 4.05589 8.12371 4.16029 8.00273C4.26469 7.88175 4.40729 7.81264 4.55672 7.81061C4.70615 7.80858 4.85018 7.8738 4.95711 7.99191L7.22218 10.4776L12.0425 5.18116C12.1496 5.06305 12.2937 4.9979 12.4433 5.00005C12.5928 5.0022 12.7355 5.07147 12.8399 5.19262C12.9443 5.31377 13.0019 5.47687 13 5.64606C12.9981 5.81524 12.9368 5.97664 12.8298 6.09475L7.61356 11.8206C7.5081 11.9363 7.36682 12.0007 7.21993 12Z" fill="white"/>
</svg>
