<svg id="Layer_1" data-name="Layer 1" xmlns="http://www.w3.org/2000/svg" viewBox="0 0 50 50"><defs><style>.cls-1{fill:#fff;}.cls-2{fill:#02314e;}</style></defs><title>Data</title><rect class="cls-1" x="5" y="5" width="40" height="40" rx="7" ry="7"/><path class="cls-2" d="M25.9,15l1,.08a14.9,14.9,0,0,1,4,.82,4.33,4.33,0,0,1,1.48.85,1,1,0,0,1,.26,1.31,2.18,2.18,0,0,1-.55.57,6.66,6.66,0,0,1-2.45,1,20.34,20.34,0,0,1-5.64.49,18,18,0,0,1-3.93-.56,6.23,6.23,0,0,1-2.17-.94,2.26,2.26,0,0,1-.54-.55,1,1,0,0,1,.26-1.33A4.28,4.28,0,0,1,19,15.92a13.21,13.21,0,0,1,3.3-.76c.52-.06,1.05-.09,1.58-.13l.15,0Z"/><path class="cls-2" d="M17.24,28.36A4.79,4.79,0,0,0,19.62,30,14.15,14.15,0,0,0,24,30.9a17.45,17.45,0,0,0,4.33-.28,9.64,9.64,0,0,0,3.25-1.16,4.57,4.57,0,0,0,.66-.48c.2-.18.37-.4.56-.6a1.41,1.41,0,0,1,.23.79c0,.81,0,1.61,0,2.42A1.92,1.92,0,0,1,32.3,33,6.12,6.12,0,0,1,30,34.26,16.22,16.22,0,0,1,24,35a14.73,14.73,0,0,1-4-.71A6.29,6.29,0,0,1,17.74,33,2.05,2.05,0,0,1,17,31.38c0-.72,0-1.43,0-2.15A1.61,1.61,0,0,1,17.24,28.36Z"/><path class="cls-2" d="M17.24,23.33A4.77,4.77,0,0,0,19.6,25a13.42,13.42,0,0,0,3.72.82,17.89,17.89,0,0,0,4.38-.12,10.49,10.49,0,0,0,3.85-1.26,3.46,3.46,0,0,0,1.2-1.12,1.42,1.42,0,0,1,.25.81c0,.81,0,1.63,0,2.44A1.9,1.9,0,0,1,32.3,28,6.1,6.1,0,0,1,30,29.22a16.26,16.26,0,0,1-6.11.71A14.5,14.5,0,0,1,20,29.22,6.24,6.24,0,0,1,17.71,28,2,2,0,0,1,17,26.35c0-.72,0-1.43,0-2.15A1.64,1.64,0,0,1,17.24,23.33Z"/><path class="cls-2" d="M32.85,18.49a4.36,4.36,0,0,1,.15.75c0,.8,0,1.6,0,2.4a1.93,1.93,0,0,1-.7,1.41A6.12,6.12,0,0,1,30,24.33a16.46,16.46,0,0,1-6.28.68A14.33,14.33,0,0,1,20,24.33a6.28,6.28,0,0,1-2.31-1.26A2,2,0,0,1,17,21.47c0-.72,0-1.44,0-2.17a1.59,1.59,0,0,1,.21-.81,2.43,2.43,0,0,0,1.54,1.4,11.31,11.31,0,0,0,3.06.82,22.06,22.06,0,0,0,5.49.11,12.88,12.88,0,0,0,4-.93,5.45,5.45,0,0,0,.82-.45,1.54,1.54,0,0,0,.72-.94Z"/></svg>