<svg id="Layer_1" data-name="Layer 1" xmlns="http://www.w3.org/2000/svg" viewBox="0 0 50 50"><defs><style>.cls-1{fill:#fff;}.cls-2{fill:#02314e;}</style></defs><title>Demand</title><rect class="cls-1" x="5" y="5" width="40" height="40" rx="7" ry="7"/><path class="cls-2" d="M14.5,28.24c.07-.4.12-.81.22-1.2a6.52,6.52,0,0,1,1.67-3c.47-.48,1-1,1.43-1.42l2.59,2.6-.13.14c-.41.42-.84.82-1.24,1.25a3.06,3.06,0,0,0,.85,4.84,3.16,3.16,0,0,0,3.6-.6l1.33-1.33,2.58,2.63-.12.14c-.61.59-1.19,1.21-1.84,1.75a6.31,6.31,0,0,1-3.5,1.41l-.16,0h-1l-.18,0a6.74,6.74,0,0,1-5.85-4.94c-.11-.43-.17-.87-.25-1.3Z"/><path class="cls-2" d="M26.89,18.81a4.31,4.31,0,1,1,4.3,4.3A4.31,4.31,0,0,1,26.89,18.81ZM33,20.64V17H29.36v3.67Z"/><path class="cls-2" d="M23.87,21.74l-2.54,2.54-2.56-2.56,2.54-2.54Z"/><path class="cls-2" d="M25.72,28.69l2.55-2.55,2.54,2.54-2.55,2.55Z"/><path class="cls-2" d="M24.88,25.45l-1.74-1.74,3.55-1.18.39,1.16-1.62.54L27.2,26l-3.6,1.2L23.22,26Z"/><path class="cls-2" d="M31.8,18.21v1.2H30.59v-1.2Z"/></svg>