<svg xmlns="http://www.w3.org/2000/svg" viewBox="0 0 40 40"><defs><style>.cls-1{fill:#fff;}.cls-2{fill:#02314e;}</style></defs><title>Events</title><g id="Layer_2" data-name="Layer 2"><g id="Layer_1-2" data-name="Layer 1"><rect class="cls-1" width="40" height="40" rx="7" ry="7"/><path class="cls-2" d="M10,17.59H30v.28q0,4,0,8.07a3.54,3.54,0,0,1-3.55,3.71H13.57A3.54,3.54,0,0,1,10,25.94q0-4,0-8.07C10,17.79,10,17.7,10,17.59Zm7.92,4.54h-.72a.77.77,0,0,0-.75.56.83.83,0,0,0,.32.92c.36.28.72.56,1.09.83a.24.24,0,0,1,.1.31c-.14.43-.28.87-.41,1.31a.84.84,0,0,0,.27,1,.76.76,0,0,0,1-.06c.34-.25.68-.5,1-.77.15-.12.25-.15.41,0,.32.27.67.52,1,.77a.76.76,0,0,0,1,.06.85.85,0,0,0,.26-1c-.13-.44-.27-.88-.41-1.31a.22.22,0,0,1,.09-.29c.35-.25.69-.52,1-.78a.86.86,0,0,0,.39-1,.81.81,0,0,0-.87-.55H21.42a.22.22,0,0,1-.26-.19c-.12-.42-.25-.83-.38-1.24s-.4-.7-.77-.7-.63.23-.78.69-.26.81-.37,1.22c0,.18-.13.24-.3.23S18.14,22.13,17.93,22.13Z"/><path class="cls-2" d="M30,16.77H10c-.15-1.63.05-3.11,1.43-4.15a3.25,3.25,0,0,1,2-.67h1.2c0,.42,0,.83,0,1.24a1.54,1.54,0,0,0,.92,1.44,1.41,1.41,0,0,0,1.63-.27,1.56,1.56,0,0,0,.51-1.18c0-.4,0-.8,0-1.21h4.61c0,.39,0,.79,0,1.19a1.57,1.57,0,0,0,.63,1.29,1.4,1.4,0,0,0,1.59.15,1.54,1.54,0,0,0,.85-1.38c0-.41,0-.82,0-1.23,1.84-.21,3.64.18,4.44,2.47A7.47,7.47,0,0,1,30,16.77Z"/><path class="cls-2" d="M16.93,12.15c0,.33,0,.65,0,1a.77.77,0,1,1-1.53,0q0-1,0-2a.77.77,0,1,1,1.53,0C16.94,11.48,16.93,11.82,16.93,12.15Z"/><path class="cls-2" d="M24.61,12.14c0,.33,0,.65,0,1a.77.77,0,1,1-1.53,0q0-1,0-2a.77.77,0,1,1,1.53,0C24.62,11.49,24.61,11.81,24.61,12.14Z"/></g></g></svg>