<svg width="17" height="17" viewBox="0 0 17 17" fill="none" xmlns="http://www.w3.org/2000/svg">
<path d="M0.75 8.83196V8.8158V8.81411V8.81242V8.81073V8.80904V8.80735V8.80566V8.80397V8.80229V8.8006V8.79891V8.79722V8.79553V8.79384V8.79215V8.79046V8.78877V8.78708V8.78539V8.7837V8.78201V8.78032V8.77863V8.77694V8.77525V8.77356V8.77187V8.77018V8.76849V8.7668V8.76511V8.76342V8.76173V8.76004V8.75835V8.75666V8.75497V8.75328V8.75159V8.7499V8.74821V8.74652V8.74483V8.74314V8.74145V8.73976V8.73807V8.73638V8.73469V8.733V8.73131V8.72962V8.72793V8.72624V8.72455V8.72286V8.72117V8.71948V8.71779V8.7161V8.71441V8.71272V8.71103V8.70934V8.70765V8.70596V8.70427V8.70258V8.70089V8.6992V8.69751V8.69582V8.69413V8.69244V8.69075V8.68906V8.68737V8.68568V8.68399V8.6823V8.68061V8.67892V8.67723V8.67554V8.67385V8.67216V8.67047V8.66878V8.66709V8.6654V8.66371V8.66202V8.66034V8.65865V8.65696V8.65527V8.65358V8.65189V8.6502V8.64851V8.64682V8.64513V8.64344V8.64175V8.64006V8.63837V8.63668V8.63499V8.6333V8.63161V8.62992V8.62823V8.62654V8.62485V8.62316V8.62147V8.61978V8.61809V8.6164V8.61471V8.61302V8.61133V8.60964V8.60795V8.60626V8.60457V8.60288V8.60119V8.5995V8.59781V8.59612V8.59443V8.59274V8.59105V8.58936V8.58767V8.58598V8.58429V8.5826V8.58091V8.57922V8.57753V8.57584V8.57415V8.57246V8.57077V8.56908V8.56739V8.5657V8.56401V8.56232V8.56063V8.55894V8.55725V8.55556V8.55387V8.55218V8.55049V8.5488V8.54711V8.54542V8.54373V8.54204V8.54035V8.53866V8.53697V8.53528V8.53359V8.5319V8.53021V8.52852V8.52683V8.52514V8.52345V8.52176V8.52007V8.51838V8.5167V8.51501V8.51332V8.51163V8.50994V8.50825V8.50656V8.50487V8.50318V8.50149V8.4998V8.49811V8.49642V8.49473V8.49304V8.49135V8.48966V8.48797V8.48628V8.48459V8.4829V8.48121V8.47952V8.47783V8.47614V8.47445V8.47276V8.47107V8.46938V8.46769V8.466V8.46431V8.46262V8.46093V8.45924V8.45755V8.45586V8.45417V8.45248V8.45079V8.4491V8.44741V8.44572V8.44403V8.44234V8.44065V8.43896V8.43727V8.43558V8.43389V8.4322V8.43051V8.42882V8.42713V8.42544V8.42375V8.42206V8.42037V8.41868V8.41699V8.4153V8.41361V8.41192V8.41023V8.40854V8.40685V8.40516V8.40347V8.40178V8.40009V8.3984V8.39671V8.39502V8.39333V8.39164V8.38995V8.38826V8.38657V8.38488V8.38319V8.38151V8.37982V8.37813V8.37644V8.37475V8.37306V8.37137V8.36968V8.36799V8.3663V8.36461V8.36292V8.36123V8.35954V8.35785V8.35616V8.35447V8.35278V8.35109V8.3494V8.34771V8.34602V8.34433V8.34264V8.34095V8.33926V8.33757V8.33588V8.33419V8.3325V8.33081V8.32912V8.32743V8.32574V8.32405V8.32236V8.32067V8.31898V8.31729V8.3156V8.31391V8.31222V8.31053V8.30884V8.30715V8.30546V8.30377V8.30208V8.30039V8.2987V8.29701V8.29532V8.29363V8.29194V8.29025V8.28856V8.28687V8.28518V8.28349V8.2818V8.28011V8.27842V8.27673V8.27504V8.27335V8.27166V8.26997V8.26828V8.26659V8.2649V8.26321V8.26152V8.25983V8.25814V8.25645V8.25476V8.25307V8.25138V8.24969V8.248V8.24631V8.24462V8.24293V8.24124V8.23955V8.23786V8.23618V8.23449V8.2328V8.23111V8.22942V8.22773V8.22604V8.22435V8.22266V8.22097V8.21928V8.21759V8.2159V8.21421V8.21252V8.21083V8.20914V8.20745V8.20576V8.20407V8.20238V8.20069V8.199V8.19731V8.19562V8.19393V8.19224V8.19055V8.18886V8.18717V8.18548V8.18379V8.1821V8.18041V8.17872V8.17703V8.17534V8.17365V8.17196V8.17027V8.16858V8.16689V8.1652V8.16351V8.16182V8.16013V8.15844V8.15675V8.15506V8.15337V8.15168V8.14999V8.1483V8.14661V8.14492V8.14323V8.14154V8.13985V8.13816V8.13647V8.13478V8.13309V8.1314V8.12971V8.12802V8.12633V8.12464V8.12295V8.12126V8.11957V8.11788V8.11619V8.1145V8.11281V8.11112V8.10943V8.10774V8.10605V8.10436V8.10267V8.10099V8.0993V8.09761V8.09592V8.09423V8.09254V8.09085V8.08916V8.08747V8.08578V8.08409V8.0824V8.08071V8.07902V8.07733V8.07564V8.07395V8.07226V8.07057V8.06888V8.06719V8.0655V8.06381V8.06212V8.06043V8.05874V8.05705V8.05536V8.05367V8.05198V8.05029V8.0486V8.04691V8.04522V8.04353V8.04184V8.04015V8.03846V8.03677V8.03508V8.03339V8.0317V8.03001V8.02832V8.02663V8.02494V8.02325V8.02156V8.01987V8.01818V8.01649V8.0148V8.01311V8.01142V8.00973V8.00804V8.00635V8.00466V8.00297V8.00128V7.99959V7.9979V7.99621V7.99452V7.99283V7.99114V7.98945V7.98776V7.98607V7.98438V7.98269V7.981V7.97931V7.97762V7.97593V7.97424V7.97255V7.97086V7.96917V7.96748V7.96579V7.9641V7.96242V7.96073V7.95904V7.95735V7.95566V7.95397V7.95228V7.95059V7.93283L0.75251 7.91525C0.756734 7.88567 0.761888 7.8568 0.766202 7.83263L0.766501 7.83095C0.771068 7.80537 0.774739 7.78466 0.777605 7.76473C0.788674 7.68265 0.798564 7.59361 0.808823 7.50124C0.828757 7.32177 0.850084 7.12975 0.884162 6.95192L0.75 8.83196ZM0.75 8.83196L0.75208 8.84799M0.75 8.83196L0.75208 8.84799M0.75208 8.84799C0.762085 8.92506 0.771721 9.0042 0.781508 9.08458C0.805816 9.28422 0.831055 9.49151 0.865184 9.69378L0.865431 9.69519C1.17447 11.4647 2.01439 12.9392 3.35316 14.1223L3.35327 14.1224C4.49183 15.1275 5.82082 15.7483 7.33197 15.9387C9.69127 16.2397 11.7862 15.5977 13.5494 13.99C14.7868 12.8638 15.5588 11.4559 15.8749 9.81131C16.6424 5.84862 14.1214 1.91306 10.2035 0.973202L10.2035 0.9732L10.2027 0.973015C9.91378 0.90468 9.61163 0.864596 9.32431 0.826481C9.20555 0.810726 9.08932 0.795307 8.97761 0.778368C8.96349 0.775965 8.94895 0.772848 8.92818 0.768329L8.92631 0.767923C8.90666 0.763647 8.88083 0.758027 8.85311 0.753405L8.83269 0.75H8.81199H8.8103H8.80861H8.80692H8.80523H8.80354H8.80185H8.80017H8.79848H8.79679H8.7951H8.79341H8.79172H8.79003H8.78834H8.78665H8.78496H8.78327H8.78159H8.7799H8.77821H8.77652H8.77483H8.77314H8.77145H8.76976H8.76807H8.76638H8.7647H8.76301H8.76132H8.75963H8.75794H8.75625H8.75456H8.75287H8.75118H8.74949H8.7478H8.74612H8.74443H8.74274H8.74105H8.73936H8.73767H8.73598H8.73429H8.7326H8.73091H8.72923H8.72754H8.72585H8.72416H8.72247H8.72078H8.71909H8.7174H8.71571H8.71402H8.71233H8.71065H8.70896H8.70727H8.70558H8.70389H8.7022H8.70051H8.69882H8.69713H8.69544H8.69375H8.69207H8.69038H8.68869H8.687H8.68531H8.68362H8.68193H8.68024H8.67855H8.67686H8.67518H8.67349H8.6718H8.67011H8.66842H8.66673H8.66504H8.66335H8.66166H8.65997H8.65828H8.6566H8.65491H8.65322H8.65153H8.64984H8.64815H8.64646H8.64477H8.64308H8.64139H8.63971H8.63802H8.63633H8.63464H8.63295H8.63126H8.62957H8.62788H8.62619H8.6245H8.62281H8.62113H8.61944H8.61775H8.61606H8.61437H8.61268H8.61099H8.6093H8.60761H8.60592H8.60423H8.60255H8.60086H8.59917H8.59748H8.59579H8.5941H8.59241H8.59072H8.58903H8.58734H8.58566H8.58397H8.58228H8.58059H8.5789H8.57721H8.57552H8.57383H8.57214H8.57045H8.56876H8.56708H8.56539H8.5637H8.56201H8.56032H8.55863H8.55694H8.55525H8.55356H8.55187H8.55019H8.5485H8.54681H8.54512H8.54343H8.54174H8.54005H8.53836H8.53667H8.53498H8.53329H8.53161H8.52992H8.52823H8.52654H8.52485H8.52316H8.52147H8.51978H8.51809H8.5164H8.51472H8.51303H8.51134H8.50965H8.50796H8.50627H8.50458H8.50289H8.5012H8.49951H8.49782H8.49614H8.49445H8.49276H8.49107H8.48938H8.48769H8.486H8.48431H8.48262H8.48093H8.47924H8.47756H8.47587H8.47418H8.47249H8.4708H8.46911H8.46742H8.46573H8.46404H8.46235H8.46067H8.45898H8.45729H8.4556H8.45391H8.45222H8.45053H8.44884H8.44715H8.44546H8.44377H8.44209H8.4404H8.43871H8.43702H8.43533H8.43364H8.43195H8.43026H8.42857H8.42688H8.4252H8.42351H8.42182H8.42013H8.41844H8.41675H8.41506H8.41337H8.41168H8.40999H8.4083H8.40662H8.40493H8.40324H8.40155H8.39986H8.39817H8.39648H8.39479H8.3931H8.39141H8.38972H8.38804H8.38635H8.38466H8.38297H8.38128H8.37959H8.3779H8.37621H8.37452H8.37283H8.37115H8.36946H8.36777H8.36608H8.36439H8.3627H8.36101H8.35932H8.35763H8.35594H8.35425H8.35257H8.35088H8.34919H8.3475H8.34581H8.34412H8.34243H8.34074H8.33905H8.33736H8.33568H8.33399H8.3323H8.33061H8.32892H8.32723H8.32554H8.32385H8.32216H8.32047H8.31878H8.3171H8.31541H8.31372H8.31203H8.31034H8.30865H8.30696H8.30527H8.30358H8.30189H8.30021H8.29852H8.29683H8.29514H8.29345H8.29176H8.29007H8.28838H8.28669H8.285H8.28331H8.28163H8.27994H8.27825H8.27656H8.27487H8.27318H8.27149H8.2698H8.26811H8.26642H8.26473H8.26305H8.26136H8.25967H8.25798H8.25629H8.2546H8.25291H8.25122H8.24953H8.24784H8.24616H8.24447H8.24278H8.24109H8.2394H8.23771H8.23602H8.23433H8.23264H8.23095H8.22926H8.22758H8.22589H8.2242H8.22251H8.22082H8.21913H8.21744H8.21575H8.21406H8.21237H8.21069H8.209H8.20731H8.20562H8.20393H8.20224H8.20055H8.19886H8.19717H8.19548H8.19379H8.19211H8.19042H8.18873H8.18704H8.18535H8.18366H8.18197H8.18028H8.17859H8.1769H8.17521H8.17353H8.17184H8.17015H8.16846H8.16677H8.16508H8.16339H8.1617H8.16001H8.15832H8.15664H8.15495H8.15326H8.15157H8.14988H8.14819H8.1465H8.14481H8.14312H8.14143H8.13974H8.13806H8.13637H8.13468H8.13299H8.1313H8.12961H8.12792H8.12623H8.12454H8.12285H8.12117H8.11948H8.11779H8.1161H8.11441H8.11272H8.11103H8.10934H8.10765H8.10596H8.10427H8.10259H8.1009H8.09921H8.09752H8.09583H8.09414H8.09245H8.09076H8.08907H8.08738H8.0857H8.08401H8.08232H8.08063H8.07894H8.07725H8.07556H8.07387H8.07218H8.07049H8.0688H8.06712H8.06543H8.06374H8.06205H8.06036H8.05867H8.05698H8.05529H8.0536H8.05191H8.05022H8.04854H8.04685H8.04516H8.04347H8.04178H8.04009H8.0384H8.03671H8.03502H8.03333H8.03165H8.02996H8.02827H8.02658H8.02489H8.0232H8.02151H8.01982H8.01813H8.01644H8.01475H8.01307H8.01138H8.00969H8.008H8.00631H8.00462H8.00293H8.00124H7.99955H7.99786H7.99618H7.99449H7.9928H7.99111H7.98942H7.98773H7.98604H7.98435H7.98266H7.98097H7.97928H7.9776H7.97591H7.97422H7.97253H7.97084H7.96915H7.96746H7.96577H7.96408H7.96239H7.96071H7.95902H7.95733H7.95564H7.95395H7.95226H7.95057H7.94888H7.94719H7.93122L7.91539 0.752032C7.84961 0.760468 7.78261 0.768636 7.71478 0.776905C7.50181 0.802868 7.28071 0.829821 7.06404 0.869188C5.4628 1.14512 4.0939 1.8696 2.95217 3.01933L2.95184 3.01966M0.75208 8.84799L2.95184 3.01966M2.95184 3.01966C1.86469 4.11852 1.17455 5.43237 0.88419 6.95178L2.95184 3.01966ZM8.38965 2.11522L8.3904 1.86522L8.38965 2.11522C11.848 2.12562 14.6548 4.9482 14.6444 8.39686C14.634 11.8501 11.8232 14.6546 8.37624 14.6512C4.92167 14.6477 2.10787 11.8287 2.1148 8.37649C2.12173 4.91964 4.93967 2.10482 8.38965 2.11522Z" fill="#6B7280" stroke="#6B7280" stroke-width="0.5"/>
<path d="M12.143 6.72742C12.3165 6.49759 12.3301 6.19628 12.1752 5.95525L12.1753 5.95521L12.1722 5.95065C12.025 5.73224 11.7745 5.58043 11.4692 5.66108L7.31999 9.66976C6.93094 9.27839 6.54042 8.88845 6.1494 8.49802C5.94763 8.29654 5.74572 8.09493 5.5438 7.89293C5.53665 7.88577 5.5295 7.87848 5.5223 7.87112C5.49319 7.84142 5.46316 7.81078 5.4285 7.78477L5.58021 7.58607C5.37418 7.42876 5.12526 7.39077 4.87819 7.50312L4.87819 7.50312L4.87621 7.50404C4.63862 7.6146 4.5024 7.81635 4.48039 8.06956L4.48035 8.07001C4.45612 8.35497 4.61628 8.54792 4.74001 8.67171L6.92001 10.8528L6.92001 10.8528L6.9212 10.854C7.07477 11.0055 7.25746 11.1261 7.47653 11.1261C7.69617 11.1261 7.8782 11.005 8.03035 10.8528C8.472 10.4109 8.91414 9.96895 9.35646 9.52682C10.2404 8.64322 11.1251 7.7589 12.0081 6.87312C12.0517 6.83319 12.0988 6.78639 12.143 6.72742ZM12.143 6.72742C12.1431 6.72729 12.1432 6.72716 12.1433 6.72703L11.9433 6.57707L12.1427 6.7278C12.1428 6.72767 12.1429 6.72755 12.143 6.72742ZM7.49662 9.59837L7.6049 9.70628L7.63855 9.67251C7.63144 9.66226 7.6247 9.65247 7.6181 9.64287L7.61536 9.6389C7.59678 9.6119 7.57706 9.58328 7.55446 9.5539L7.5448 9.54132L7.53362 9.53007C7.51597 9.51231 7.49831 9.49455 7.48066 9.47679C7.46309 9.49442 7.44552 9.51205 7.42795 9.52968C7.4279 9.52972 7.42786 9.52976 7.42782 9.52981L7.48077 9.58258L7.49662 9.59837Z" fill="#6B7280" stroke="#6B7280" stroke-width="0.5"/>
</svg>
