<svg xmlns="http://www.w3.org/2000/svg" viewBox="0 0 40 40"><defs><style>.cls-1{fill:#fff;}.cls-2{fill:#02314e;}</style></defs><title>Intelligence</title><g id="Layer_2" data-name="Layer 2"><g id="Layer_1-2" data-name="Layer 1"><rect class="cls-1" width="40" height="40" rx="7" ry="7"/><path class="cls-2" d="M16.49,10h.78l.11,0a3.58,3.58,0,0,1,1.91.86.39.39,0,0,1,.13.26q0,8.85,0,17.69a.36.36,0,0,1-.11.24,3.69,3.69,0,0,1-6-1.93A10.62,10.62,0,0,1,13.13,26a3.74,3.74,0,0,1-2.3-6,3.74,3.74,0,0,1,2.34-6c0-.07,0-.13,0-.19A3.71,3.71,0,0,1,16,10.1Z"/><path class="cls-2" d="M23.51,10c.2,0,.4.08.6.14a3.71,3.71,0,0,1,2.71,3.65c0,.06,0,.12,0,.19a3.74,3.74,0,0,1,2.34,6,3.74,3.74,0,0,1-2.29,6,11,11,0,0,1-.21,1.32,3.69,3.69,0,0,1-6,1.76.34.34,0,0,1-.11-.23c0-1.42,0-2.84,0-4.26,0,0,0-.06,0-.11.4,0,.8,0,1.19,0,0,0,.11.09.14.16a1.76,1.76,0,1,0,2.23-2.38,1.74,1.74,0,0,0-2.21.87.28.28,0,0,1-.3.19c-.34,0-.69,0-1,0V20.6h2.66a.21.21,0,0,1,.23.15A1.75,1.75,0,1,0,25,18.25a1.7,1.7,0,0,0-1.5,1c0,.08-.06.15-.19.15H20.6V16.69h1.26l.09.17a1.75,1.75,0,1,0,2-2.48,1.74,1.74,0,0,0-2,.93.29.29,0,0,1-.32.2c-.34,0-.68,0-1,0V15.3c0-1.37,0-2.73,0-4.1a.36.36,0,0,1,.14-.31,3.71,3.71,0,0,1,1.9-.84l.11,0Z"/><path class="cls-2" d="M23.5,15.51a.59.59,0,1,1-.58.59A.59.59,0,0,1,23.5,15.51Z"/><path class="cls-2" d="M25.08,19.42a.59.59,0,1,1-.59.57A.59.59,0,0,1,25.08,19.42Z"/><path class="cls-2" d="M23.52,24.49a.59.59,0,1,1,.58-.58A.59.59,0,0,1,23.52,24.49Z"/></g></g></svg>