<?xml version="1.0" encoding="UTF-8"?><svg id="Layer_2" xmlns="http://www.w3.org/2000/svg" viewBox="0 0 802.15 137.45"><defs><style>.cls-1{fill:#02314e;stroke-width:0px;}</style></defs><g id="Layer_1-2"><path class="cls-1" d="m65.98,90.35L22.36,2.75H0v131.95h23.27V55.9l38.3,78.81h8.8l38.3-78.81v78.81h23.27V2.75h-22.36l-43.62,87.61Zm161.45-39.41c-3.48-6.59-8.61-11.24-15.39-13.93-6.78-2.69-14.54-4.03-23.27-4.03-11.91,0-21.32,2.56-28.22,7.7-6.91,5.13-11.61,11.79-14.11,19.98l22.54,7.14c1.59-4.52,4.37-7.66,8.34-9.44,3.97-1.77,7.79-2.66,11.46-2.66,6.6,0,11.3,1.38,14.11,4.13,2.2,2.16,3.53,5.28,4.01,9.35-4.21.63-8.21,1.22-11.98,1.78-6.41.95-12.15,1.94-17.22,2.98-5.07,1.04-9.44,2.23-13.11,3.57-5.31,1.95-9.55,4.38-12.69,7.28-3.15,2.9-5.42,6.24-6.83,10.03-1.41,3.79-2.11,7.97-2.11,12.56,0,5.5,1.27,10.52,3.8,15.07,2.53,4.55,6.26,8.19,11.18,10.9,4.92,2.72,10.92,4.08,18.01,4.08,8.55,0,15.63-1.48,21.22-4.44,4.41-2.34,8.57-5.84,12.5-10.47v12.17h21.81v-60.48c0-4.52-.18-8.61-.55-12.28-.36-3.67-1.52-7.33-3.48-11Zm-21.03,44.31c-.22,3.57-.97,6.71-2.25,9.39-.67,1.41-1.94,3.15-3.8,5.22-1.86,2.08-4.37,3.93-7.51,5.55-3.15,1.62-7.01,2.43-11.59,2.43-2.87,0-5.35-.43-7.42-1.28-2.08-.85-3.68-2.09-4.81-3.71-1.13-1.62-1.69-3.55-1.69-5.82,0-1.65.35-3.15,1.05-4.49.7-1.34,1.8-2.58,3.3-3.71,1.5-1.13,3.46-2.19,5.91-3.16,2.14-.79,4.61-1.52,7.42-2.2,2.81-.67,6.51-1.42,11.09-2.24,2.94-.53,6.47-1.14,10.58-1.84-.05,1.74-.14,3.68-.27,5.87Zm70.42-35.19c3.36-2.53,7.66-3.8,12.92-3.8,4.58,0,8.69,1.43,12.32,4.31,3.64,2.87,6.19,6.87,7.65,12l24.93-6.6c-2.2-10.2-7.25-18.25-15.17-24.14-7.92-5.9-17.7-8.84-29.37-8.84-10.08,0-18.82,2.26-26.21,6.78-7.4,4.52-13.12,10.72-17.18,18.6-4.06,7.88-6.09,16.83-6.09,26.85s1.95,18.78,5.86,26.66c3.91,7.88,9.53,14.11,16.86,18.7,7.33,4.58,16.13,6.87,26.39,6.87,11.48,0,21.14-2.84,28.96-8.52,7.82-5.68,13.14-13.78,15.95-24.28l-25.47-5.31c-1.47,4.76-3.67,8.43-6.6,10.99-2.93,2.57-7.21,3.85-12.83,3.85-7.51,0-13.18-2.67-17-8.02-3.82-5.35-5.73-12.32-5.73-20.94,0-5.5.8-10.43,2.38-14.8,1.59-4.37,4.06-7.82,7.42-10.35Zm157.24-.73c-1.16-4.37-3.1-8.57-5.82-12.6-2.72-4.03-6.52-7.36-11.41-9.99-4.89-2.63-11.21-3.94-18.97-3.94-9.72,0-17.76,2.11-24.15,6.32-3,1.98-5.63,4.26-7.92,6.83V2.75h-22.18v131.95h25.29v-50.22c0-6.17.69-11.12,2.06-14.84s3.13-6.55,5.27-8.48c2.14-1.92,4.43-3.22,6.87-3.89,2.44-.67,4.73-1.01,6.88-1.01,5.31,0,9.42,1.19,12.32,3.57,2.9,2.38,4.99,5.35,6.27,8.89,1.29,3.54,2.05,7.07,2.29,10.59.24,3.51.37,6.4.37,8.66v46.73h25.29v-55.53c0-1.65-.12-4.27-.36-7.88-.25-3.61-.95-7.59-2.11-11.96Zm18.97,75.37h24.93V35.74h-24.93v98.96Zm133.5-75.37c-1.16-4.37-3.1-8.57-5.82-12.6-2.72-4.03-6.52-7.36-11.41-9.99-4.89-2.63-11.21-3.94-18.97-3.94-9.72,0-17.76,2.11-24.15,6.32-3,1.98-5.63,4.26-7.92,6.83v-10.21h-22.18v98.96h25.29v-50.22c0-6.17.69-11.12,2.06-14.84,1.37-3.72,3.13-6.55,5.27-8.48,2.14-1.92,4.43-3.22,6.87-3.89,2.44-.67,4.73-1.01,6.88-1.01,5.31,0,9.42,1.19,12.32,3.57,2.9,2.38,4.99,5.35,6.27,8.89,1.29,3.54,2.05,7.07,2.29,10.59.24,3.51.37,6.4.37,8.66v46.73h25.29v-55.53c0-1.65-.12-4.27-.36-7.88-.25-3.61-.95-7.59-2.11-11.96Zm47.92-51.09h-24.92v27.49h-16.86v19.24h16.86v37.75c0,5.93.06,11.23.18,15.9.12,4.68,1.41,9.27,3.85,13.79,2.69,4.83,6.61,8.33,11.78,10.49,5.16,2.17,11.02,3.33,17.59,3.48,6.57.15,13.27-.41,20.11-1.69v-20.71c-5.87.8-11.21,1.04-16.03.73-4.83-.31-8.34-2.2-10.54-5.68-1.17-1.83-1.79-4.29-1.88-7.38-.09-3.08-.14-6.55-.14-10.4v-36.28h28.59v-19.24h-28.59V8.25Zm109.69,32.07c-7.27-4.89-16.1-7.33-26.48-7.33-9.77,0-18.42,2.21-25.93,6.64-7.52,4.43-13.41,10.64-17.69,18.65-4.28,8-6.41,17.41-6.41,28.22,0,9.9,2.18,18.68,6.55,26.34,4.37,7.67,10.42,13.69,18.14,18.05,7.73,4.37,16.67,6.55,26.8,6.55,9.53,0,18.31-2.51,26.34-7.51,8.03-5.01,13.91-12.04,17.64-21.08l-24.93-7.14c-1.83,4.03-4.49,7.11-7.97,9.25-3.48,2.14-7.67,3.21-12.55,3.21-7.76,0-13.64-2.52-17.64-7.56-2.93-3.69-4.77-8.51-5.56-14.43h69.48c1.03-11.97-.18-22.39-3.67-31.25-3.48-8.86-8.86-15.73-16.13-20.62Zm-49.03,33.36c.98-4.58,2.61-8.35,4.91-11.31,4-5.16,10.25-7.75,18.74-7.75,7.27,0,12.51,2.21,15.72,6.64,2.11,2.91,3.52,7.06,4.24,12.42h-43.61ZM777.22,0v134.7h24.93V0h-24.93Zm-311.73,2.75c-6.88,0-12.46,5.58-12.46,12.46h0c0,6.88,5.58,12.46,12.46,12.46s12.46-5.58,12.46-12.46h0c0-6.88-5.58-12.46-12.46-12.46Z"/></g></svg>