<svg id="Layer_1" data-name="Layer 1" xmlns="http://www.w3.org/2000/svg" viewBox="0 0 50 50"><defs><style>.cls-1{fill:#fff;}.cls-2{fill:#02314e;}</style></defs><title>Media</title><rect class="cls-1" x="4.81" y="5.58" width="40" height="40" rx="7" ry="7"/><path class="cls-2" d="M24.81,16.91h8.66a1.25,1.25,0,0,1,1.3.94,1.6,1.6,0,0,1,0,.4q0,5.55,0,11.1a1.25,1.25,0,0,1-1.35,1.35H16.17a1.26,1.26,0,0,1-1.35-1.36q0-5.55,0-11.1a1.22,1.22,0,0,1,1.34-1.33Zm0,11.88a5,5,0,1,0-5-5A5,5,0,0,0,24.8,28.79Z"/><path class="cls-2" d="M22.8,23.79c0-.48,0-1,0-1.45a.89.89,0,0,1,1.36-.79c.83.49,1.66,1,2.48,1.49a.86.86,0,0,1,0,1.48q-1.29.83-2.62,1.58a.87.87,0,0,1-1.26-.8C22.8,24.8,22.8,24.29,22.8,23.79Z"/><path class="cls-2" d="M20.56,33.73H15.32c-.18,0-.32-.07-.35-.27s.1-.34.36-.34h5.24"/><path class="cls-2" d="M20.15,33.13h14a1.67,1.67,0,0,1,.28,0,.27.27,0,0,1,.24.28.28.28,0,0,1-.24.3,1.69,1.69,0,0,1-.28,0h-14"/><circle class="cls-2" cx="18.65" cy="33.43" r="0.83"/></svg>