<svg id="Layer_1" data-name="Layer 1" xmlns="http://www.w3.org/2000/svg" viewBox="0 0 50 50"><defs><style>.cls-1{fill:#fff;}.cls-2{fill:#02314e;}</style></defs><title>Overview</title><rect class="cls-1" x="5" y="5" width="40" height="40" rx="7" ry="7"/><path class="cls-2" d="M32.14,26.65a10.57,10.57,0,0,0-.76-.89,4.8,4.8,0,0,0-5.16-1.18A4.73,4.73,0,0,0,22.9,28.7a5,5,0,0,0,4.23,5.53,5.11,5.11,0,0,0,2.23-.18.34.34,0,0,1,.27,0c.33.26.64.54,1,.82a3.43,3.43,0,0,1-.54.08C26.7,35,23.33,35,20,35a2.13,2.13,0,0,1-2.1-2.17c0-2.36,0-4.72,0-7.08q0-4.23,0-8.46A2.15,2.15,0,0,1,20.15,15h9.71a2.15,2.15,0,0,1,2.29,2.29q0,4.56,0,9.13ZM25,17.86H21.46a.71.71,0,1,0,0,1.43h7.1a.86.86,0,0,0,.42-.12.68.68,0,0,0,.29-.78.7.7,0,0,0-.7-.52Zm0,3.57H21.52a.72.72,0,1,0,0,1.43h7a.72.72,0,1,0,0-1.43ZM21.79,25h-.4a.71.71,0,0,0,0,1.42c.27,0,.54,0,.8,0a.71.71,0,0,0,0-1.42Z"/><path class="cls-2" d="M30.84,31.27l1.09,1.08a.71.71,0,0,1-.41,1.21.71.71,0,0,1-.62-.23l-1-1.05a3.59,3.59,0,1,1,1-1Zm-3-4.13A2.14,2.14,0,1,0,30,29.26,2.15,2.15,0,0,0,27.86,27.14Z"/></svg>