<svg xmlns="http://www.w3.org/2000/svg" viewBox="0 0 40 40"><defs><style>.cls-1{fill:#fff;}.cls-2{fill:#02314e;}</style></defs><title>For Platforms</title><g id="Layer_2" data-name="Layer 2"><g id="Layer_1-2" data-name="Layer 1"><rect class="cls-1" width="40" height="40" rx="7" ry="7"/><path class="cls-2" d="M10,25.89a.75.75,0,0,1,.79-.45h11a4.81,4.81,0,0,0,.34,2.42h-.25c-3.48,0-7,0-10.44,0a1.3,1.3,0,0,1-1.43-1Z"/><path class="cls-2" d="M28.83,14.55H24.21A2.38,2.38,0,0,0,21.8,17q0,3.46,0,6.92v.26H11.17c0-.07,0-.14,0-.21q0-5,0-10A1.79,1.79,0,0,1,13,12.12H27A1.79,1.79,0,0,1,28.83,14C28.83,14.2,28.83,14.36,28.83,14.55Z"/><path class="cls-2" d="M23,21.79q0-2.36,0-4.72a1.2,1.2,0,0,1,1.26-1.31h4.51A1.2,1.2,0,0,1,30,17.06q0,4.75,0,9.51a1.2,1.2,0,0,1-1.25,1.3H24.21A1.2,1.2,0,0,1,23,26.58Q23,24.18,23,21.79Zm3.51,3h-.56a.6.6,0,0,0,0,1.21h1.15a.6.6,0,0,0,0-1.21Zm.59-6.66a.59.59,0,1,0-.59.6A.6.6,0,0,0,27.07,18.19Z"/></g></g></svg>