<svg xmlns="http://www.w3.org/2000/svg" viewBox="0 0 40 40"><defs><style>.cls-1{fill:#fff;}.cls-2{fill:#02314e;}</style></defs><title>For Publishers</title><g id="Layer_2" data-name="Layer 2"><g id="Layer_1-2" data-name="Layer 1"><rect class="cls-1" width="40" height="40" rx="7" ry="7"/><path class="cls-2" d="M20,28.5H12.28A2.14,2.14,0,0,1,10,26.24Q10,20,10,13.76a2.14,2.14,0,0,1,2.28-2.26H27.72A2.14,2.14,0,0,1,30,13.76Q30,20,30,26.24a2.14,2.14,0,0,1-2.28,2.26ZM11.43,15.73H28.57c0-.66,0-1.31,0-2s-.26-.86-.87-.86H12.1a.69.69,0,0,0-.67.66C11.42,14.29,11.43,15,11.43,15.73Zm7.79,6,.06,0q0,1.19,0,2.39a.72.72,0,1,0,1.43,0c0-.74,0-1.48,0-2.21,0-.06,0-.12,0-.24.12.13.2.22.29.31a.71.71,0,0,0,1,0,.69.69,0,0,0,0-1q-.75-.77-1.53-1.52a.69.69,0,0,0-1,0q-.77.74-1.51,1.5a.69.69,0,0,0,0,1,.71.71,0,0,0,1,0A3.47,3.47,0,0,0,19.23,21.73Z"/><path class="cls-2" d="M26.79,13.63h.38a.71.71,0,0,1,0,1.41h-.76a.71.71,0,0,1,0-1.41Z"/><path class="cls-2" d="M24.28,15a.71.71,0,1,1,.72-.7A.72.72,0,0,1,24.28,15Z"/></g></g></svg>