<svg xmlns="http://www.w3.org/2000/svg" viewBox="0 0 40 40"><defs><style>.cls-1{fill:#fff;}.cls-2{fill:#02314e;}</style></defs><title>Asset 11</title><g id="Layer_2" data-name="Layer 2"><g id="Layer_1-2" data-name="Layer 1"><rect class="cls-1" width="40" height="40" rx="7" ry="7"/><path class="cls-2" d="M10.38,10H25.51v.25q0,8.54,0,17.07A2.65,2.65,0,0,0,27.77,30H13a2.57,2.57,0,0,1-2.65-2.6q0-8.6,0-17.19C10.38,10.15,10.38,10.08,10.38,10Zm2.56,7.73h4.81V13H12.94Zm10.16,1.8H12.86v1.15H23.1ZM12.85,23.38H23.1V22.24H12.85Zm0,2.7H23.1V24.93H12.85Z"/><path class="cls-2" d="M26.71,19.46h2.9c0,.06,0,.12,0,.17q0,3.87,0,7.74a1.45,1.45,0,0,1-2.91,0c0-.42,0-.85,0-1.27q0-3.23,0-6.47C26.71,19.61,26.71,19.54,26.71,19.46Z"/><path class="cls-2" d="M16.55,14.22v2.35H14.15V14.22Z"/></g></g></svg>