<svg xmlns="http://www.w3.org/2000/svg" viewBox="0 0 40 40"><defs><style>.cls-1{fill:#fff;}.cls-2{fill:#02314e;}</style></defs><title>Asset 10</title><g id="Layer_2" data-name="Layer 2"><g id="Layer_1-2" data-name="Layer 1"><rect class="cls-1" width="40" height="40" rx="7" ry="7"/><path class="cls-2" d="M30,29.72a.54.54,0,0,1-.53.28H10.55c-.4,0-.52-.13-.52-.53,0-.69,0-1.38,0-2.1h6a.23.23,0,0,1,.27.18c.1.29.23.57.34.85a.58.58,0,0,0,.58.4h5.51a.59.59,0,0,0,.6-.41c.12-.3.23-.59.36-.88a.24.24,0,0,1,.17-.13H30Z"/><path class="cls-2" d="M11.55,26.22V26q0-4.37,0-8.75c0-.42.11-.53.53-.53H27.92c.43,0,.54.11.54.54q0,4.36,0,8.73v.24H23.53c-.45,0-.58.09-.75.51-.11.27-.22.53-.32.8a.17.17,0,0,1-.18.13H17.71a.22.22,0,0,1-.16-.11c-.13-.28-.24-.58-.35-.87a.61.61,0,0,0-.67-.45h-5Zm12.54-4.39-.22.12-1.7.85c-.06,0-.14.08-.15.13,0,.33,0,.67,0,1l.24-.12c.92-.47,1.82-1,2.75-1.4a.67.67,0,0,0,.47-.79.28.28,0,0,0-.16-.25l-3.13-1.61L22,19.71c0,.31,0,.6,0,.88a.27.27,0,0,0,.18.29ZM18,19.71l-.22.1c-.93.48-1.84,1-2.79,1.43-.37.17-.53.38-.46.78a.28.28,0,0,0,.16.25l3.13,1.61L18,24c0-.33,0-.62,0-.92a.22.22,0,0,0-.15-.24L16.21,22l-.27-.14.21-.11,1.7-.86c.06,0,.13-.09.13-.14C18,20.4,18,20.07,18,19.71ZM18.6,24c.31,0,.59,0,.86,0a.23.23,0,0,0,.26-.19c.42-1.1.84-2.19,1.26-3.29l.62-1.62c-.31,0-.59,0-.88,0s-.2.05-.25.18c-.44,1.17-.89,2.34-1.34,3.51Z"/><path class="cls-2" d="M24.1,11.91c-.14.23-.29.48-.44.72a.64.64,0,0,0,0,.68,7.76,7.76,0,0,1,.33.79.62.62,0,0,0,.48.44l.86.21v.8H22.57a2.59,2.59,0,0,0-1-2.36,2.57,2.57,0,0,0-3-.11,2.61,2.61,0,0,0-.93,1.08,2.73,2.73,0,0,0-.22,1.39H14.71v-.83l.83-.2a.66.66,0,0,0,.52-.47,7.32,7.32,0,0,1,.32-.77.64.64,0,0,0,0-.66l-.44-.71.7-.73.75.45a.65.65,0,0,0,.68,0,6,6,0,0,1,.77-.31.65.65,0,0,0,.47-.51c.06-.27.13-.54.2-.82h.92s.11.07.13.13c.07.24.13.49.19.74a.61.61,0,0,0,.43.46c.28.1.56.22.82.34a.62.62,0,0,0,.63,0l.67-.4a.2.2,0,0,1,.18,0C23.68,11.46,23.88,11.68,24.1,11.91Z"/><path class="cls-2" d="M21.41,15.55H18.7c-.13,0-.13-.08-.14-.17a1.46,1.46,0,0,1,.92-1.52,1.45,1.45,0,0,1,1.92,1.68Z"/></g></g></svg>