<svg width="50" height="50" viewBox="0 0 50 50" fill="none" xmlns="http://www.w3.org/2000/svg">
<path d="M36.6018 40.07C25.7035 48.629 11.4279 45.2085 4.54803 36.1341C-2.23798 27.1534 -1.36237 14.2367 6.72143 6.44302C15.0867 -1.61621 27.8769 -2.17848 36.7738 5.11543C45.6394 12.3781 48.235 26.1225 40.1043 36.5245C40.245 36.6651 40.3857 36.8213 40.5264 36.9775C43.4191 39.8669 46.3117 42.7408 49.1888 45.6302C50.5178 46.9578 50.1582 49.0507 48.5164 49.7848C47.5313 50.2221 46.4525 49.9878 45.5769 49.1288C42.7155 46.2706 39.8541 43.4124 36.9927 40.5542C36.852 40.398 36.7269 40.2262 36.6018 40.07ZM32.4895 36.7744C38.525 32.6824 41.746 24.4982 38.9785 16.6576C36.4454 9.51989 29.0496 3.89718 19.9026 5.20914C11.9595 6.36492 5.84582 12.7998 5.06402 20.8434C4.76694 23.9515 5.25165 26.9503 6.59635 29.7929C7.90977 32.6043 9.83299 34.9314 12.4598 36.7901C12.4598 35.6499 12.4442 34.6503 12.4598 33.6663C12.5537 30.2771 15.1961 27.5751 18.5735 27.497C21.1691 27.4345 23.7647 27.4345 26.3759 27.497C29.8314 27.5751 32.4739 30.3396 32.4895 33.7757C32.4895 34.744 32.4895 35.728 32.4895 36.7744Z" fill="#7E7277"/>
<path d="M22.4669 7.5047C27.2827 7.47347 31.2074 11.3781 31.2543 16.2199C31.3012 20.9836 27.3922 24.982 22.6701 24.9976C17.7604 25.0288 13.7733 21.2023 13.742 16.4386C13.7107 11.4718 17.5415 7.53594 22.4669 7.5047Z" fill="#7E7277"/>
</svg>
