<svg width="67" height="67" viewBox="0 0 67 67" fill="none" xmlns="http://www.w3.org/2000/svg">
<rect width="67" height="67" rx="8" fill="#E7F6FF"/>
<g clip-path="url(#clip0_356_1509)">
<path d="M13 24.3506C13.548 23.2569 14.0253 23.0452 15.5985 23.2216C15.5985 23.3803 15.5985 23.5568 15.5985 23.7332C15.5985 29.7133 15.5985 35.7111 15.5985 41.6913C15.5985 42.6791 15.8106 43.5788 16.447 44.355C17.1894 45.2547 18.1439 45.7133 19.3106 45.8015C20.6894 45.9074 22.1035 45.9779 23.4646 46.2073C25.8333 46.613 28.0429 47.4774 29.952 48.9768C30.1465 49.1356 30.3232 49.2944 30.5177 49.4531C30.553 49.4884 30.5884 49.5237 30.6591 49.5942C29.8106 49.4531 29.0328 49.2944 28.2197 49.1709C25.851 48.8533 23.4823 48.7651 21.1136 49.0297C19.0631 49.2591 17.0303 49.6119 14.9975 49.9294C14.0253 50.0882 13.4949 49.8059 13.0177 48.8004C13 40.6681 13 32.5005 13 24.3506Z" fill="#18788E"/>
<path d="M32.8157 48.4123C32.4798 48.1124 32.2146 47.8478 31.9318 47.6009C29.4924 45.484 26.6111 44.3197 23.4293 43.8434C22.1566 43.6494 20.8485 43.5788 19.5581 43.4906C18.5151 43.42 17.9141 42.8555 17.9141 41.8148C17.9141 34.4234 17.9141 27.032 17.9141 19.6406C17.9141 18.635 18.5328 17.9823 19.505 18C21.6793 18.0353 23.8005 18.2999 25.8687 19.0055C28.6086 19.9404 30.8712 21.4928 32.4621 23.9272C32.6742 24.2447 32.8333 24.6858 32.8333 25.0739C32.851 32.7475 32.851 40.4388 32.851 48.1124C32.8333 48.183 32.8333 48.2536 32.8157 48.4123Z" fill="#18788E"/>
<path d="M35.1667 48.3417C35.1667 48.183 35.1667 48.0242 35.1667 47.8655C35.1667 40.4917 35.1843 33.1356 35.149 25.7618C35.149 24.6857 35.5025 23.8566 36.1566 23.0452C38.2424 20.4873 40.9823 19.076 44.1465 18.4586C45.5606 18.1764 47.0101 18.1058 48.4596 18C49.4495 17.9294 50.0859 18.6174 50.0859 19.6758C50.0859 25.215 50.0859 30.7541 50.0859 36.2932C50.0859 38.1279 50.0859 39.9448 50.0859 41.7795C50.0859 42.8732 49.5025 43.4729 48.3889 43.4906C45.7197 43.5435 43.1212 43.914 40.6111 44.8842C38.6843 45.6251 36.9697 46.6835 35.4848 48.1301C35.4141 48.2006 35.3434 48.2712 35.2727 48.3241C35.2727 48.3417 35.2374 48.3417 35.1667 48.3417Z" fill="#18788E"/>
<path d="M37.3939 49.6119C38.2247 48.7828 39.1793 48.1301 40.2222 47.6185C42.5379 46.4718 45.0126 45.9779 47.5758 45.8544C48.2298 45.8191 48.9015 45.8368 49.5202 45.6604C51.3586 45.1841 52.3838 43.7199 52.3838 41.7265C52.3838 35.8346 52.3838 29.9426 52.3838 24.0507C52.3838 23.7861 52.3838 23.5038 52.3838 23.2216C52.8788 23.2216 53.3561 23.1686 53.798 23.2392C54.4343 23.3274 54.8939 23.9095 54.9646 24.5446C54.9823 24.6857 54.9823 24.8092 54.9823 24.9503C54.9823 32.7122 54.9823 40.474 54.9823 48.2359C54.9823 48.3594 54.9823 48.4829 54.9823 48.6064C54.9116 49.4884 54.1692 50.1234 53.2854 49.9823C52.2071 49.8236 51.1465 49.5589 50.0682 49.4002C45.8434 48.7651 41.6187 48.6769 37.3939 49.6119Z" fill="#18788E"/>
</g>
<defs>
<clipPath id="clip0_356_1509">
<rect width="42" height="32" fill="white" transform="translate(13 18)"/>
</clipPath>
</defs>
</svg>
