<svg width="67" height="67" viewBox="0 0 67 67" fill="none" xmlns="http://www.w3.org/2000/svg">
<rect width="67" height="67" rx="8" fill="#E7F6FF"/>
<g clip-path="url(#clip0_356_1442)">
<path d="M35.0543 53C34.3624 52.8229 33.8563 52.3854 33.3606 51.8958C31.7701 50.3229 30.159 48.7604 28.5789 47.2188C29.6737 46.1146 30.758 45.0208 31.8631 43.9063C32.6067 44.625 33.3812 45.3854 34.1455 46.125C34.7341 45.5521 35.3331 45.0104 35.8702 44.4167C36.2833 43.9583 36.211 43.3333 35.7566 42.8646C35.3125 42.4063 34.8477 41.9792 34.3417 41.4792C35.0027 40.9688 35.612 40.5104 36.2833 39.9896C36.8616 40.6563 37.5019 41.25 37.9563 41.9583C38.7825 43.25 38.5863 44.9375 37.5329 46.0729C36.9959 46.6458 36.3969 47.1667 35.8289 47.7188C36.2316 48.125 36.5415 48.4896 36.8926 48.8021C38.5037 50.2292 37.7188 52.6042 35.8908 52.9583C35.8702 52.9583 35.8495 52.9896 35.8289 53C35.5707 53 35.3125 53 35.0543 53Z" fill="#18788E"/>
<path d="M40.8584 13C41.5193 13.3229 41.7569 13.8542 41.7155 14.5729C41.6742 15.1771 41.7155 15.7917 41.7052 16.4062C41.6949 17.1562 41.2095 17.6875 40.5382 17.6875C39.8566 17.6875 39.3919 17.1562 39.3919 16.3958C39.3919 15.7708 39.4228 15.1458 39.3815 14.5208C39.3299 13.8021 39.5881 13.2917 40.249 13C40.4453 13 40.6518 13 40.8584 13Z" fill="#18788E"/>
<path d="M44.3387 34.0938C39.9805 34.9063 36.1593 36.9062 32.7822 39.7708C29.9731 36.9375 27.1847 34.125 24.3653 31.2813C27.195 27.875 29.1263 23.9688 29.9318 19.5625C34.7341 24.4167 39.5364 29.25 44.3387 34.0938Z" fill="#18788E"/>
<path d="M22.7335 33.1354C25.4703 35.8958 28.1865 38.6354 30.9336 41.4063C30.8716 41.4688 30.789 41.5729 30.6961 41.6563C28.9404 43.4375 27.1744 45.2083 25.4187 46.9896C23.8076 48.6146 21.7524 48.6146 20.1517 47C19.1499 45.9896 18.1378 44.9792 17.136 43.9583C15.6282 42.4271 15.6179 40.3021 17.1257 38.7813C18.933 36.9583 20.7403 35.1354 22.5477 33.3125C22.6199 33.2396 22.6922 33.1771 22.7335 33.1354ZM21.5459 41.3333C21.6388 41.8646 21.8557 42.2292 22.2998 42.4271C22.7749 42.6458 23.2189 42.5521 23.5907 42.1979C24.1484 41.6563 24.6958 41.1042 25.2328 40.5417C25.6975 40.0521 25.6975 39.3542 25.2535 38.8854C24.7991 38.4167 24.0761 38.4167 23.5907 38.8958C23.0434 39.4271 22.496 39.9688 21.9796 40.5313C21.7834 40.75 21.6905 41.0625 21.5459 41.3333Z" fill="#18788E"/>
<path d="M32.8339 13.3229C33.4225 13.3333 33.9906 13.6146 34.4863 14.1042C36.5724 16.2188 38.6689 18.3229 40.7551 20.4271C43.7604 23.4583 46.7657 26.4792 49.7607 29.5104C50.6592 30.4167 50.7831 31.625 50.1222 32.5938C49.3579 33.6979 47.8294 33.9271 46.776 33.0938C46.6315 32.9792 46.5075 32.8542 46.3836 32.7188C41.3438 27.6354 36.3039 22.5521 31.2641 17.4792C30.5205 16.7292 30.221 15.875 30.5721 14.8542C30.882 13.9375 31.7598 13.3229 32.8339 13.3229Z" fill="#18788E"/>
<path d="M44.0186 18.6979C44.0909 18.5521 44.1735 18.25 44.3697 18.0417C45.1236 17.2396 45.9085 16.4583 46.6934 15.6875C47.1788 15.2188 47.8708 15.2188 48.3355 15.6771C48.7899 16.125 48.8209 16.8333 48.3458 17.3229C47.5713 18.125 46.7864 18.9167 45.9911 19.6979C45.6297 20.0521 45.1753 20.125 44.7002 19.9063C44.2458 19.6979 44.0496 19.3333 44.0186 18.6979Z" fill="#18788E"/>
<path d="M48.6453 24.7188C48.2735 24.7188 47.9017 24.7292 47.5299 24.7188C46.8483 24.6979 46.3526 24.1875 46.3629 23.5313C46.3733 22.8958 46.869 22.3958 47.5299 22.3854C48.3045 22.375 49.0791 22.375 49.8433 22.3854C50.4939 22.3958 51 22.9167 51 23.5521C51 24.1875 50.4939 24.6979 49.8433 24.7188C49.4405 24.7292 49.0378 24.7188 48.6453 24.7188Z" fill="#18788E"/>
</g>
<defs>
<clipPath id="clip0_356_1442">
<rect width="35" height="40" fill="white" transform="translate(16 13)"/>
</clipPath>
</defs>
</svg>
