<svg width="68" height="67" viewBox="0 0 68 67" fill="none" xmlns="http://www.w3.org/2000/svg">
<rect width="68" height="67" rx="8" fill="#E7F6FF"/>
<g clip-path="url(#clip0_356_1512)">
<path d="M39.1341 15C39.535 15.0867 39.9458 15.1445 40.3467 15.2601C43.2023 16.0888 45.0799 17.9292 45.8329 20.7523C46.5957 23.5948 45.8035 26.0711 43.6814 28.1427C42.4004 29.3953 40.9041 30.3781 39.4568 31.4284C37.6183 32.7773 35.7994 34.1552 33.912 35.562C33.7066 35.3885 33.4328 35.1284 33.1394 34.9068C31.1151 33.4133 29.0908 31.9294 27.0665 30.4456C25.7561 29.4917 24.4653 28.5088 23.4776 27.2177C21.7075 24.9052 21.3848 22.3614 22.5094 19.7213C23.6438 17.0716 25.717 15.5107 28.6214 15.0674C28.6997 15.0578 28.7877 15.0289 28.8659 15C29.3353 15 29.7949 15 30.2643 15C30.3035 15.0193 30.3524 15.0482 30.3915 15.0578C31.7214 15.2409 32.8363 15.8383 33.7946 16.744C33.8631 16.8115 33.9315 16.8596 34.0196 16.9271C34.8606 16.0792 35.8287 15.4721 36.9729 15.1734C37.2271 15.106 37.4912 15.0482 37.7455 14.9904C38.2051 15 38.6745 15 39.1341 15ZM35.1051 21.6003C34.3423 21.6003 33.6284 21.6003 32.8852 21.6003C32.8852 22.3229 32.8852 23.0167 32.8852 23.749C32.142 23.749 31.4281 23.749 30.7142 23.749C30.7142 24.4909 30.7142 25.1943 30.7142 25.9362C31.4476 25.9362 32.1615 25.9362 32.9047 25.9362C32.9047 26.6685 32.9047 27.3622 32.9047 28.056C33.648 28.056 34.3618 28.056 35.1051 28.056C35.1051 27.3237 35.1051 26.6299 35.1051 25.8976C35.8483 25.8976 36.5524 25.8976 37.2565 25.8976C37.2565 25.1654 37.2565 24.462 37.2565 23.7393C36.523 23.7393 35.8189 23.7393 35.0953 23.7393C35.1051 23.0167 35.1051 22.3229 35.1051 21.6003Z" fill="#18788E"/>
<path d="M35.1051 52C35.1051 49.013 35.0953 46.026 35.1051 43.0391C35.1051 41.0638 35.8776 39.4161 37.4814 38.2214C39.3003 36.8628 41.266 35.7354 43.4859 35.138C43.9553 35.0128 44.4736 34.9839 44.9625 35.0224C45.7742 35.0802 46.1165 35.6487 45.9111 36.4292C45.7057 37.2 45.2559 37.8456 44.6398 38.3273C43.525 39.2042 42.3612 40.0232 41.2073 40.8615C40.6205 41.2951 40.024 41.7094 39.3981 42.1622C39.8382 42.7404 40.2685 43.3089 40.7086 43.8966C41.354 43.4341 41.9896 42.9812 42.6155 42.538C43.5054 41.9021 44.3953 41.2758 45.2852 40.6302C47.0357 39.3487 48.1505 37.6432 48.5515 35.5427C48.7569 34.4635 48.7666 33.3362 48.9036 32.2378C49.148 30.2432 49.4023 28.2487 50.1553 26.3602C50.3118 25.9651 50.5465 25.5797 50.8203 25.2521C51.2408 24.7607 51.7395 24.8281 52.072 25.3773C52.473 26.0518 52.5512 26.813 52.6392 27.5646C52.6979 28.0753 52.737 28.5859 52.7859 29.1063C52.7859 30.3107 52.7859 31.5151 52.7859 32.7195C52.7663 32.8352 52.737 32.9508 52.737 33.0664C52.6783 34.0974 52.6001 35.138 52.5708 36.169C52.5219 37.913 52.0427 39.4836 50.9181 40.8518C50.6051 41.2372 50.3118 41.6419 49.9597 41.9888C48.62 43.3089 47.2411 44.5904 45.9111 45.9201C44.8941 46.9414 43.8868 47.9724 42.948 49.0708C42.2341 49.9091 41.7354 50.8823 41.7158 52.0193C39.5057 52 37.3054 52 35.1051 52Z" fill="#18788E"/>
<path d="M15.2239 28.9521C15.2923 28.2872 15.3412 27.6127 15.4488 26.9479C15.5173 26.5047 15.6542 26.0614 15.8009 25.6278C15.9182 25.2906 16.1138 24.9726 16.5147 24.9341C16.9157 24.8956 17.1993 25.1557 17.3655 25.464C17.6393 25.9555 17.9034 26.4661 18.0794 26.9961C18.6564 28.7305 18.9009 30.5323 19.1062 32.3341C19.2334 33.4133 19.2529 34.5021 19.4485 35.562C19.8006 37.4312 20.7296 39.0403 22.2356 40.2255C23.8589 41.4974 25.5703 42.6536 27.2817 43.8966C27.7217 43.3185 28.152 42.75 28.5921 42.1719C28.4943 42.0948 28.4161 42.0177 28.328 41.9599C26.8709 40.9096 25.3943 39.8594 23.9176 38.7995C23.2428 38.3177 22.6757 37.7396 22.304 37.0073C22.0596 36.5159 21.8346 35.9859 22.1867 35.4656C22.5387 34.9453 23.1255 34.9453 23.6731 34.9838C24.9347 35.0802 26.0593 35.5716 27.1448 36.169C28.2498 36.776 29.3646 37.4023 30.3817 38.1346C32.0539 39.3294 32.8656 41.0156 32.8754 43.039C32.8949 46.026 32.8852 49.013 32.8852 52C30.6848 52 28.4845 52 26.2842 52C26.2451 50.8534 25.7072 49.8995 25.0324 49.013C24.0741 47.7219 22.8908 46.6427 21.7173 45.5539C20.1526 44.0989 18.539 42.6922 17.2091 41.0156C16.4561 40.0328 15.7813 38.9922 15.6053 37.7396C15.4781 36.7953 15.439 35.8414 15.3706 34.8971C15.3119 34.1648 15.2728 33.4325 15.2239 32.7002C15.2239 31.4573 15.2239 30.2047 15.2239 28.9521Z" fill="#18788E"/>
</g>
<defs>
<clipPath id="clip0_356_1512">
<rect width="37.5522" height="37" fill="white" transform="translate(15.2239 15)"/>
</clipPath>
</defs>
</svg>
