<svg width="67" height="66" viewBox="0 0 67 66" fill="none" xmlns="http://www.w3.org/2000/svg">
<rect width="67" height="65.8499" rx="8" fill="#E7F6FF"/>
<path d="M31.7339 28.5627C32.2196 28.844 32.6949 29.1148 33.1496 29.4065C33.2323 29.4586 33.2943 29.6669 33.2633 29.7711C33.0669 30.4482 32.8396 31.1044 32.6432 31.7815C32.6122 31.9065 32.6639 32.1044 32.7569 32.1982C33.0566 32.5419 33.3976 32.8336 33.6973 33.1773C33.8316 33.3336 33.9556 33.344 34.1313 33.2815C34.7823 33.0627 35.4333 32.8648 36.0843 32.6461C36.291 32.5732 36.415 32.594 36.5184 32.7919C36.7664 33.2607 37.0454 33.7086 37.3141 34.1877C36.725 34.7294 36.167 35.2502 35.5987 35.7502C35.4127 35.9169 35.3817 36.0523 35.454 36.2815C35.5883 36.6877 35.702 37.1044 35.7847 37.5211C35.826 37.719 35.9087 37.7919 36.105 37.8336C36.7767 37.969 37.4381 38.1357 38.1097 38.2607C38.3267 38.3023 38.4301 38.3857 38.4301 38.6148C38.4301 39.0732 38.4508 39.5315 38.4094 39.9794C38.3991 40.094 38.2441 40.2607 38.1201 40.2919C37.4587 40.4586 36.787 40.6044 36.1153 40.7398C35.9087 40.7815 35.8053 40.8544 35.7743 41.0732C35.7227 41.3961 35.6813 41.7294 35.5367 42.0107C35.3093 42.4794 35.4643 42.7502 35.826 43.0523C36.3324 43.4586 36.787 43.9169 37.3037 44.3961C37.0144 44.8857 36.7457 45.3857 36.4357 45.8648C36.3944 45.9377 36.1877 45.969 36.0843 45.9377C35.4333 45.7398 34.7823 45.5315 34.1313 45.3127C33.9453 45.2502 33.8109 45.2502 33.6663 45.4273C33.3666 45.7711 33.0256 46.0627 32.7259 46.4065C32.6432 46.5002 32.5916 46.6773 32.6226 46.7919C32.8086 47.4482 33.0153 48.1148 33.2426 48.7607C33.3356 49.0107 33.2736 49.1357 33.0566 49.2607C32.6122 49.5002 32.1886 49.7607 31.7132 50.0315C31.1965 49.4482 30.6695 48.8961 30.1735 48.3232C30.0082 48.1357 29.8738 48.0627 29.6155 48.1669C29.2642 48.3023 28.9025 48.4065 28.5305 48.4586C28.1998 48.5002 28.0965 48.6773 28.0345 48.9794C27.9208 49.6044 27.7658 50.219 27.6521 50.8544C27.6108 51.0732 27.5178 51.1669 27.3008 51.1669C26.8667 51.1669 26.4224 51.1669 25.9884 51.1669C25.7714 51.1669 25.668 51.0836 25.6267 50.8544C25.513 50.2294 25.358 49.6044 25.2444 48.9794C25.1927 48.6877 25.0894 48.5107 24.7484 48.4586C24.366 48.4065 23.994 48.2815 23.6323 48.1565C23.405 48.0732 23.281 48.1357 23.1363 48.3023C22.63 48.8752 22.1133 49.4377 21.5759 50.0419C21.1006 49.7607 20.6356 49.4898 20.1602 49.219C19.9742 49.1148 19.9639 49.0002 20.0259 48.8023C20.2429 48.1669 20.4392 47.5107 20.6562 46.8752C20.7286 46.6565 20.7182 46.5107 20.5219 46.344C20.2326 46.1044 19.9536 45.844 19.7262 45.5523C19.5092 45.2711 19.3232 45.2502 19.0132 45.3752C18.4242 45.594 17.8042 45.7607 17.2151 45.969C17.0188 46.0419 16.9051 46.0002 16.8121 45.8232C16.5538 45.3648 16.2851 44.9065 16.0061 44.4169C16.5848 43.8857 17.1428 43.3648 17.7215 42.8648C17.9178 42.6877 17.9488 42.5523 17.8662 42.3023C17.7318 41.9169 17.6285 41.5107 17.5458 41.094C17.5045 40.8752 17.4115 40.7919 17.2048 40.7502C16.5435 40.6148 15.8924 40.4586 15.2414 40.3336C15.0037 40.2919 14.9004 40.1982 14.9004 39.9586C14.9107 39.5211 14.9107 39.0732 14.9004 38.6357C14.9004 38.4169 15.0037 38.3232 15.2207 38.2815C15.8924 38.1565 16.5641 38.0107 17.2255 37.8336C17.3495 37.8023 17.4838 37.6565 17.5251 37.5315C17.6698 37.1148 17.7525 36.6773 17.8868 36.2607C17.9488 36.0627 17.9282 35.9377 17.7628 35.7919C17.1841 35.2815 16.6158 34.7502 16.0164 34.1982C16.2851 33.719 16.5538 33.2711 16.8121 32.8023C16.9155 32.6044 17.0395 32.5732 17.2461 32.6461C17.8765 32.8752 18.5275 33.0627 19.1579 33.2815C19.3852 33.3648 19.5195 33.3127 19.6849 33.1252C19.9536 32.8127 20.2532 32.5211 20.5632 32.2502C20.7389 32.094 20.7699 31.969 20.6976 31.7502C20.4806 31.1148 20.2946 30.4586 20.0672 29.8232C19.9846 29.5836 20.0466 29.469 20.2429 29.3544C20.6976 29.1044 21.1316 28.8336 21.6069 28.5627C22.1339 29.1565 22.6506 29.7086 23.157 30.2919C23.312 30.469 23.4463 30.5315 23.684 30.4482C24.0457 30.3127 24.4177 30.1982 24.8 30.1461C25.1204 30.094 25.2237 29.9377 25.2754 29.6565C25.389 29.0211 25.5234 28.3857 25.6887 27.7502C25.7197 27.6357 25.8954 27.5523 26.0091 27.4586C26.0297 27.4482 26.0607 27.4482 26.0814 27.4482C27.5901 27.3232 27.5901 27.3232 27.9001 28.8127C27.9828 29.2086 27.9621 29.6982 28.1895 29.969C28.3961 30.2086 28.9025 30.1669 29.2435 30.3336C29.7705 30.5836 30.1218 30.469 30.4732 29.9898C30.8245 29.4898 31.2792 29.0732 31.7339 28.5627ZM20.4599 39.2919C20.4599 42.7398 23.2293 45.5523 26.6601 45.5523C30.0702 45.5523 32.8499 42.7711 32.8603 39.3336C32.8706 35.8752 30.1012 33.0627 26.6807 33.0523C23.25 33.0419 20.4702 35.8336 20.4599 39.2919Z" fill="#18788E"/>
<path d="M34.3483 17.5211C34.524 17.3232 34.71 17.1044 34.9063 16.9065C35.082 16.7294 35.268 16.5836 35.454 16.4169C36.012 16.7086 36.5494 17.0002 37.0867 17.2711C37.4174 17.4377 38.2131 17.1044 38.3268 16.7502C38.4818 16.2711 38.6368 15.7815 38.7711 15.3023C38.8434 15.0419 38.9778 14.9586 39.2361 14.9377C40.4245 14.8544 40.4245 14.844 40.7758 15.9794C40.8172 16.1044 40.8895 16.2294 40.8895 16.3544C40.9205 17.0107 41.4372 17.1669 41.9125 17.3336C42.0159 17.3648 42.1605 17.3127 42.2639 17.2607C42.8012 16.9898 43.3386 16.6982 43.9689 16.3752C44.3203 16.7398 44.6716 17.1044 45.0436 17.4898C44.7336 18.0836 44.4546 18.6252 44.1756 19.1565C43.9792 19.5419 44.3099 20.3336 44.7129 20.4586C45.178 20.6044 45.643 20.7607 46.1183 20.8857C46.3766 20.9586 46.4593 21.1044 46.48 21.3544C46.5627 22.5523 46.573 22.5523 45.4466 22.9169C45.3226 22.9586 45.1986 23.0315 45.0746 23.0315C44.4236 23.0627 44.2686 23.5836 44.1033 24.0627C44.0723 24.1669 44.1239 24.3127 44.1756 24.4169C44.4339 24.9377 44.7026 25.4586 44.9713 25.9794C44.9816 26.0002 44.9816 26.0315 45.0126 26.1357C44.6716 26.4794 44.3099 26.8544 43.9482 27.219C43.3282 26.8961 42.7909 26.6044 42.2535 26.3336C41.9229 26.1669 41.1272 26.5002 41.0135 26.8544C40.8585 27.3336 40.7035 27.8232 40.5692 28.3023C40.4968 28.5627 40.3625 28.6461 40.1041 28.6669C38.9158 28.7502 38.9158 28.7607 38.5644 27.6252C38.5231 27.5002 38.4508 27.3752 38.4508 27.2502C38.4198 26.594 37.9031 26.4377 37.4277 26.2711C37.3244 26.2398 37.1797 26.2919 37.0764 26.344C36.539 26.6148 36.0017 26.9065 35.3713 27.2398C35.02 26.8752 34.6686 26.5002 34.2966 26.1148C34.5963 25.5315 34.8857 24.9898 35.1543 24.4482C35.3507 24.0627 35.02 23.2815 34.617 23.1461C34.1416 22.9898 33.6663 22.8232 33.1806 22.6982C32.9429 22.6357 32.8809 22.5002 32.8603 22.2919C32.7466 21.0732 32.7466 21.0627 33.8936 20.6982C34.0073 20.6669 34.1106 20.594 34.2243 20.594C34.8857 20.5627 35.0613 20.0523 35.237 19.5523C35.268 19.4482 35.2163 19.3023 35.1647 19.1982C34.9063 18.6669 34.6273 18.1357 34.3483 17.6044C34.3586 17.5732 34.3586 17.5627 34.3483 17.5211ZM39.6701 19.3023C38.3061 19.3127 37.2004 20.4377 37.2107 21.8232C37.2211 23.1877 38.3268 24.2919 39.6805 24.3023C41.0445 24.3023 42.1709 23.1773 42.1605 21.8023C42.1605 20.4169 41.0342 19.2919 39.6701 19.3023Z" fill="#18788E"/>
<path d="M41.8092 31.7398C42.1295 31.8961 42.3982 32.0211 42.6669 32.1461C43.3076 32.4482 44.0309 32.1461 44.2686 31.469C44.2789 31.4482 44.2893 31.4169 44.2996 31.3961C44.6199 30.4898 44.7233 30.4169 45.6946 30.5732C45.8186 30.594 45.9323 30.719 46.015 30.8336C46.077 30.9065 46.0873 31.0211 46.1183 31.1253C46.418 31.9898 46.418 31.9898 47.2653 32.2919C47.3583 32.3232 47.4927 32.3128 47.5857 32.2711C47.8234 32.1773 48.0714 32.0836 48.2884 31.9378C48.619 31.7086 48.836 31.8232 49.0841 32.0732C49.6731 32.6669 49.7454 32.6982 49.3114 33.3961C48.9497 33.9794 49.2494 34.4273 49.4251 34.9065C49.4561 34.9794 49.5697 35.0419 49.6627 35.0732C49.8384 35.1461 50.0244 35.2086 50.2104 35.2711C50.8408 35.5003 50.8408 35.5003 50.8408 36.1669C50.8408 36.8336 50.8511 36.8961 50.2104 37.0419C49.5284 37.1878 49.2907 37.6565 49.1047 38.219C49.0841 38.2919 49.0944 38.3961 49.1254 38.469C49.1771 38.6044 49.2494 38.7294 49.3011 38.8544C49.4044 39.1253 49.6627 39.469 49.5801 39.6565C49.4457 39.9794 49.1047 40.219 48.8257 40.4794C48.774 40.5315 48.6294 40.5315 48.5467 40.5107C48.4124 40.469 48.2677 40.4169 48.1644 40.3336C47.627 39.9065 47.0897 40.0732 46.5627 40.344C46.4696 40.3857 46.3973 40.5003 46.356 40.594C46.263 40.8128 46.2113 41.0419 46.1183 41.2503C46.0356 41.4273 45.9426 41.719 45.8186 41.7294C45.426 41.7815 45.0229 41.7398 44.6303 41.719C44.5889 41.719 44.5476 41.594 44.5166 41.5315C44.4546 41.3753 44.3719 41.219 44.3513 41.0523C44.2893 40.344 43.6899 40.2398 43.2042 40.0211C43.1422 39.9898 43.0285 40.0315 42.9562 40.0628C42.8115 40.1148 42.6772 40.1982 42.5325 40.2503C42.2845 40.3544 41.9642 40.5836 41.8092 40.5107C41.4785 40.344 41.2305 40.0107 40.9722 39.719C40.9205 39.6669 40.9412 39.5211 40.9722 39.4378C41.0032 39.3128 41.0548 39.1878 41.1375 39.0836C41.5612 38.5419 41.4062 38.0107 41.1375 37.469C41.0962 37.3857 41.0135 37.3128 40.9308 37.2607C40.7965 37.1878 40.6415 37.1565 40.4968 37.094C40.2385 36.9794 39.8458 36.9273 39.7735 36.7398C39.6494 36.4065 39.7218 36.0003 39.7321 35.6253C39.7321 35.5523 39.8355 35.4586 39.9078 35.4065C40.0215 35.344 40.1455 35.3128 40.2695 35.2711C41.1272 34.9586 41.1375 34.969 41.4268 34.1148C41.4578 34.0211 41.4372 33.8857 41.3958 33.7919C41.3028 33.5523 41.1582 33.3232 41.0755 33.0836C41.0135 32.9169 40.9308 32.6669 41.0032 32.5628C41.2305 32.2815 41.5302 32.0211 41.8092 31.7398ZM43.4006 36.1461C43.3902 37.1878 44.2169 38.0419 45.2503 38.0523C46.263 38.0628 47.1103 37.2294 47.1207 36.2086C47.131 35.1669 46.3043 34.3128 45.2709 34.3023C44.2583 34.2919 43.4212 35.1253 43.4006 36.1461Z" fill="#18788E"/>
<path d="M27.6004 22.969C27.3524 22.7503 27.0941 22.5315 26.8254 22.3023C27.1664 21.9898 27.4661 21.7294 27.7244 21.4898C28.4271 22.1982 29.1815 22.9586 29.9048 23.6773C29.1918 24.4065 28.4478 25.1669 27.6831 25.9482C27.4351 25.6773 27.1664 25.3961 26.8151 25.0315C27.0528 24.8544 27.3214 24.6669 27.5798 24.4794C27.5488 24.4273 27.5178 24.3857 27.4868 24.3336C25.141 24.2086 22.8986 24.6148 20.7286 25.5523C18.5688 26.4898 16.7501 27.8857 15.2207 29.7086C14.9004 29.4482 14.6111 29.1982 14.2597 28.8961C17.8042 24.8232 22.2166 22.9065 27.6004 22.969Z" fill="#18788E"/>
<path d="M46.511 19.1773C46.759 17.9273 46.9967 16.7086 47.255 15.4377C48.495 15.6877 49.7041 15.9273 50.9544 16.1773C50.8718 16.594 50.7994 16.9794 50.7168 17.3961C50.1898 17.2919 49.7041 17.1982 49.1667 17.094C50.9028 21.1252 50.4894 24.8752 47.937 28.4377C47.7407 28.2815 47.5753 28.1669 47.4203 28.0315C47.2653 27.9065 47.1207 27.7919 46.9657 27.6565C49.1977 24.594 49.5697 21.3232 48.0507 17.844C47.9474 18.344 47.844 18.8544 47.72 19.4065C47.317 19.3336 46.9347 19.2607 46.511 19.1773Z" fill="#18788E"/>
</svg>
