<svg width="67" height="67" viewBox="0 0 67 67" fill="none" xmlns="http://www.w3.org/2000/svg">
<rect width="67" height="67" rx="8" fill="#E7F6FF"/>
<path d="M42.7631 36.3294C41.928 37.3603 40.9693 38.1334 39.9487 38.8242C39.1961 39.3396 38.6807 40.0303 38.4436 40.9066C38.3302 41.3086 38.2889 41.7416 38.2786 42.1643C38.2477 42.9272 38.2786 43.69 38.2683 44.4529C38.2374 45.7106 37.4848 46.5353 36.2477 46.5559C34.5055 46.5869 32.7736 46.5972 31.0314 46.5559C29.7943 46.525 29.052 45.7106 29.0314 44.4426C29.0108 43.5045 29.0417 42.5663 28.9902 41.6282C28.9283 40.4839 28.3819 39.5767 27.4644 38.9066C26.4438 38.1747 25.4542 37.4221 24.6397 36.4634C23.2068 34.7727 22.2583 32.8552 21.9491 30.6594C21.2687 25.845 22.9181 21.9482 26.8046 19.0514C28.8046 17.5669 31.1138 16.8762 33.6189 16.8762C33.7426 16.8762 33.856 16.8865 34.0416 16.9071C33.9385 16.9999 33.8767 17.0617 33.8148 17.1133C33.4231 17.4535 33.3715 17.773 33.6808 18.1957C34.1241 18.804 34.5777 19.4019 35.0313 19.9998C35.2375 20.2678 35.4024 20.5462 35.1962 20.8864C34.99 21.2369 34.6601 21.2472 34.3096 21.1957C33.5777 21.0926 32.8457 20.9792 32.1241 20.8761C31.5984 20.8039 31.2994 20.9895 31.2169 21.5152C31.021 22.7729 30.8458 24.041 30.6705 25.2987C30.6087 25.7213 30.8561 26.01 31.2994 26.0822C32.0004 26.1956 32.7117 26.2883 33.4127 26.3914C33.5261 26.412 33.6395 26.4223 33.7426 26.443C34.0416 26.4945 34.2581 26.6491 34.3199 26.9481C34.3818 27.2471 34.2684 27.4842 34.0313 27.6697C33.4231 28.1337 32.8148 28.5873 32.1963 29.0409C31.6705 29.4326 31.619 29.7522 32.0107 30.2676C32.722 31.2161 33.4334 32.1645 34.155 33.1129C34.5158 33.5975 34.8457 33.6387 35.3302 33.2779C35.9282 32.8346 36.5158 32.3913 37.1034 31.948C37.3714 31.7521 37.6395 31.6078 37.9694 31.7934C38.3095 31.9789 38.3405 32.2985 38.2889 32.6387C38.1858 33.3913 38.0724 34.1438 37.9694 34.9067C37.9075 35.3809 38.0931 35.6902 38.5363 35.7624C39.8456 35.9685 41.1549 36.1438 42.4744 36.3294C42.5363 36.3603 42.6187 36.3397 42.7631 36.3294ZM32.9798 41.2571C33.4437 41.2571 33.8663 41.2571 34.289 41.2571C34.2581 39.9891 33.8767 38.886 33.1138 37.8963C32.3922 36.9582 31.4128 36.4221 30.3613 35.9582C25.4542 33.7727 24.1552 27.2574 27.8562 23.3709C28.3201 22.8863 28.8561 22.474 29.3819 22.0101C29.1757 21.6802 28.9489 21.3297 28.7324 20.9792C28.6603 20.9998 28.6397 20.9998 28.6087 21.0204C28.5572 21.0513 28.5056 21.0823 28.4541 21.1235C26.1346 22.742 24.7634 24.9482 24.4748 27.7728C24.1552 30.8965 25.217 33.515 27.5057 35.649C28.4025 36.484 29.485 36.9788 30.5674 37.5149C31.0932 37.7726 31.5674 38.1747 31.9798 38.5974C32.6602 39.319 32.9385 40.2468 32.9798 41.2571ZM33.0004 42.6282C33.0004 43.288 33.0004 43.9168 33.0004 44.556C33.4437 44.556 33.856 44.556 34.2787 44.556C34.2787 43.8962 34.2787 43.2674 34.2787 42.6282C33.8457 42.6282 33.4334 42.6282 33.0004 42.6282Z" fill="#18788E"/>
<path d="M34.9076 31.9584C34.3715 31.2471 33.8664 30.5667 33.3303 29.8554C33.8457 29.4636 34.3612 29.0925 34.856 28.7007C35.7323 27.9997 35.9076 26.8863 35.3096 25.9895C34.9488 25.4534 34.4231 25.206 33.7942 25.1235C33.2272 25.0513 32.6602 24.9586 32.052 24.8761C32.1757 24.0101 32.2994 23.1545 32.4231 22.2679C33.052 22.3504 33.6499 22.4328 34.2478 22.5153C35.1344 22.639 35.8457 22.3401 36.2993 21.5875C36.7529 20.8246 36.6807 20.0514 36.155 19.3401C35.7942 18.8453 35.423 18.3608 35.0416 17.8453C35.7426 17.3195 36.4333 16.8041 37.1446 16.268C37.5364 16.7938 37.9075 17.3092 38.2993 17.8041C39.2889 19.0308 41.1136 18.8144 41.7013 17.3814C41.8456 17.0206 41.8765 16.6082 41.9487 16.2165C42.0208 15.8247 42.0621 15.433 42.1239 15C42.5775 15.0619 43.0002 15.1134 43.4332 15.1753C43.8558 15.2371 44.2682 15.299 44.7321 15.3711C44.6496 15.9897 44.5672 16.5979 44.4744 17.1958C44.3507 18.0618 44.6393 18.7628 45.3816 19.2267C46.1238 19.6906 46.8867 19.6391 47.598 19.1442C48.1238 18.7834 48.6186 18.3917 49.1547 17.9896C49.6805 18.6906 50.1959 19.3814 50.732 20.0927C50.2165 20.4844 49.6908 20.8555 49.1959 21.2473C47.9692 22.237 48.1857 24.072 49.6186 24.6493C49.9897 24.8039 50.4227 24.8348 50.8248 24.8967C51.2062 24.9586 51.5876 25.0101 52 25.072C51.8763 25.9379 51.7526 26.7936 51.6289 27.6698C51.0103 27.5874 50.4227 27.5049 49.8351 27.4224C48.9588 27.2884 48.2578 27.5874 47.763 28.3193C47.3197 28.9894 47.3712 29.8554 47.8764 30.577C48.0516 30.8347 48.2475 31.0821 48.4331 31.3295C48.6186 31.577 48.8042 31.8244 49.0104 32.1027C48.3094 32.6285 47.6187 33.1439 46.9073 33.6903C46.5259 33.1852 46.1548 32.6697 45.7733 32.1852C44.7734 30.9172 42.8971 31.144 42.3404 32.6079C42.1961 32.979 42.1755 33.3811 42.1033 33.7831C42.0415 34.1645 41.9899 34.546 41.9281 34.9583C41.0518 34.8346 40.2064 34.7109 39.3199 34.5872C39.4023 33.9687 39.4848 33.3604 39.5673 32.7625C39.691 31.8862 39.4023 31.1646 38.6395 30.711C37.8972 30.2574 37.1343 30.3193 36.423 30.8244C35.9385 31.1749 35.4437 31.5564 34.9076 31.9584ZM42.0415 20.9999C39.8869 20.9999 38.0725 22.8246 38.0828 24.9689C38.0931 27.1235 39.9178 28.9378 42.0621 28.9275C44.2064 28.9069 46.0001 27.1131 46.0104 24.9689C46.0104 22.8246 44.196 20.9999 42.0415 20.9999Z" fill="#18788E"/>
<path d="M21.2481 30.7006C21.4027 31.3707 21.5676 32.0511 21.7223 32.7212C19.3512 33.5356 18.3203 34.7315 18.2997 36.6696C18.2791 38.3293 19.3409 39.8448 20.9285 40.4014C22.7016 41.0303 24.2171 40.4427 25.784 38.5149C26.4851 39.1231 27.382 39.4943 27.8871 40.3396C28.2582 40.9478 28.2685 40.9375 27.784 41.4324C27.4644 41.7622 27.1552 42.1024 26.8356 42.4426C26.3614 42.1231 25.9593 41.8344 25.5366 41.5561C24.5882 40.9169 23.5882 41.319 23.3511 42.453C23.248 42.9375 23.1449 43.422 23.0315 43.9375C22.5676 43.9375 22.114 43.9478 21.6707 43.9271C21.578 43.9271 21.4439 43.7828 21.4233 43.69C21.3099 43.2467 21.2378 42.7828 21.1244 42.3396C20.8769 41.3293 19.8976 40.9478 19.0213 41.5251C18.5883 41.8138 18.1553 42.1128 17.7327 42.4117C17.3306 41.9994 16.9492 41.6076 16.5368 41.1952C16.7945 40.8241 17.0729 40.4118 17.3615 39.9994C18.011 39.0407 17.6296 38.0613 16.5059 37.8036C16.1038 37.7108 15.7018 37.618 15.2997 37.5458C15.0832 37.5149 14.9905 37.4324 15.0008 37.2056C15.0111 36.8551 14.9905 36.5046 15.0111 36.1541C15.0214 36.051 15.1451 35.8964 15.2379 35.8655C15.6709 35.7418 16.1141 35.6696 16.5574 35.5665C17.5883 35.3294 17.9904 34.3397 17.4131 33.4531C17.1244 33.0099 16.8255 32.5872 16.5368 32.1645C16.9389 31.7625 17.3203 31.3707 17.743 30.948C18.0729 31.1748 18.444 31.381 18.7636 31.6491C19.7326 32.4841 20.9903 32.1439 21.2481 30.7006Z" fill="#18788E"/>
<path d="M36.258 49.8962C36.258 50.1848 36.2786 50.4426 36.258 50.7003C36.1962 51.3188 35.6601 51.8137 35.0106 51.8343C34.1034 51.8549 33.1859 51.8549 32.2787 51.8343C31.5674 51.8137 31.0416 51.2673 31.0107 50.556C31.0004 50.3498 31.0107 50.1333 31.0107 49.8962C32.7529 49.8962 34.4849 49.8962 36.258 49.8962Z" fill="#18788E"/>
<path d="M31.021 48.5147C31.021 48.0817 31.021 47.6694 31.021 47.2364C32.7736 47.2364 34.5055 47.2364 36.258 47.2364C36.258 47.6694 36.258 48.0714 36.258 48.5147C34.5158 48.5147 32.7839 48.5147 31.021 48.5147Z" fill="#18788E"/>
</svg>
