<svg width="67" height="67" viewBox="0 0 67 67" fill="none" xmlns="http://www.w3.org/2000/svg">
<rect width="67" height="67" rx="8" fill="#E7F6FF"/>
<g clip-path="url(#clip0_356_1511)">
<path d="M51 33.0083C51 33.699 51 34.3896 51 35.0625C50.9823 35.151 50.9469 35.2573 50.9469 35.3458C50.876 35.9302 50.8406 36.5146 50.7167 37.0813C49.9198 41.1719 47.9187 44.5542 44.6781 47.1927C44.3062 47.5115 43.899 47.7948 43.4208 48.149C43.6333 48.149 43.7396 48.149 43.8635 48.149C45.5281 48.149 47.2104 48.149 48.875 48.149C49.5833 48.149 50.2917 48.1313 51 48.1313C51 49.0875 51 50.0438 51 50.9823C44.9969 50.9823 38.9937 50.9823 33.0083 50.9823C32.9198 50.9646 32.8312 50.9292 32.7604 50.9292C30.6708 50.7875 28.6698 50.2917 26.8104 49.3708C21.5687 46.8208 18.3813 42.6771 17.2656 36.9573C17.1417 36.3021 17.0885 35.6469 17 34.9917C17 34.3188 17 33.6635 17 32.9906C17.0177 32.9021 17.0531 32.7958 17.0531 32.7073C17.2125 30.3344 17.85 28.0854 19.001 26.0135C21.6396 21.2323 25.6594 18.2927 31.0427 17.2656C31.6979 17.1417 32.3531 17.0885 33.0083 17C33.6812 17 34.3365 17 35.0094 17C35.0979 17.0177 35.1865 17.0531 35.2573 17.0531C37.3292 17.1948 39.3302 17.6906 41.1896 18.5938C46.4312 21.1615 49.6187 25.3052 50.7344 31.0427C50.8583 31.6802 50.9115 32.3531 51 33.0083ZM24.5969 26.6865C22.2417 26.6865 20.3292 28.5635 20.3115 30.8833C20.2938 33.2385 22.2062 35.1688 24.5437 35.1688C26.8812 35.1688 28.8115 33.2563 28.8115 30.9365C28.8292 28.6167 26.9344 26.7042 24.5969 26.6865ZM43.4385 26.6865C41.101 26.6688 39.1885 28.5635 39.1708 30.901C39.1531 33.2385 41.0656 35.1688 43.4208 35.1865C45.7406 35.2042 47.6531 33.274 47.6708 30.9365C47.6885 28.599 45.7937 26.7042 43.4385 26.6865ZM32.4062 42.0396C32.4062 39.6844 30.5115 37.7719 28.1917 37.7896C25.8365 37.7896 23.924 39.6844 23.924 42.0042C23.924 44.3594 25.8365 46.2896 28.174 46.2896C30.5115 46.2719 32.424 44.3771 32.4062 42.0396ZM39.8083 37.7719C37.4708 37.7719 35.5938 39.6667 35.576 42.0219C35.576 44.3594 37.4708 46.2542 39.8083 46.2719C42.1458 46.2896 44.0583 44.3594 44.0583 42.0042C44.076 39.6844 42.1812 37.7896 39.8083 37.7719ZM33.9823 19.8333C31.6448 19.851 29.75 21.7458 29.75 24.0833C29.75 26.4208 31.6625 28.3333 34 28.3333C36.3375 28.3333 38.2677 26.4031 38.25 24.0656C38.2323 21.7281 36.3198 19.8333 33.9823 19.8333ZM35.399 33.9823C35.399 33.2031 34.7615 32.5833 33.9823 32.5833C33.2031 32.5833 32.5833 33.2208 32.5833 34C32.5833 34.7792 33.2208 35.399 34 35.399C34.7969 35.399 35.4167 34.7792 35.399 33.9823Z" fill="#18788E"/>
</g>
<defs>
<clipPath id="clip0_356_1511">
<rect width="34" height="34" fill="white" transform="translate(17 17)"/>
</clipPath>
</defs>
</svg>
