<svg width="67" height="67" viewBox="0 0 67 67" fill="none" xmlns="http://www.w3.org/2000/svg">
<rect width="67" height="67" rx="8" fill="#E7F6FF"/>
<g clip-path="url(#clip0_356_1425)">
<path d="M15 49.7735C15.713 49.7735 16.4164 49.7735 17.168 49.7735C17.168 46.0031 17.168 42.2724 17.168 38.512C19.3745 38.512 21.5328 38.512 23.7393 38.512C23.7393 42.2526 23.7393 45.9932 23.7393 49.7537C24.4813 49.7537 25.1846 49.7537 25.9073 49.7537C25.9073 43.7865 25.9073 37.8292 25.9073 31.8422C28.0849 31.8422 30.224 31.8422 32.4112 31.8422C32.4112 37.8094 32.4112 43.7667 32.4112 49.7537C33.1435 49.7537 33.8372 49.7537 34.5695 49.7537C34.5695 45.2807 34.5695 40.7979 34.5695 36.2854C36.7568 36.2854 38.9055 36.2854 41.0734 36.2854C41.0734 40.7682 41.0734 45.2412 41.0734 49.7438C41.8057 49.7438 42.4995 49.7438 43.2414 49.7438C43.2414 42.3021 43.2414 34.8505 43.2414 27.3792C45.4383 27.3792 47.6063 27.3792 49.8031 27.3792C49.8031 34.8208 49.8031 42.2724 49.8031 49.7735C50.5547 49.7735 51.2774 49.7735 51.9904 49.7735C51.9904 50.5156 51.9904 51.2578 51.9904 52C39.657 52 27.3237 52 14.9904 52C15 51.2578 15 50.5156 15 49.7735Z" fill="#18788E"/>
<path d="M52 22.9062C51.287 22.9062 50.5836 22.9062 49.832 22.9062C49.832 21.224 49.832 19.5615 49.832 17.8C45.7948 21.9167 41.8346 25.974 37.8648 30.0214C34.9742 27.0526 32.1029 24.1036 29.193 21.1151C25.0594 25.3307 20.974 29.5068 16.9174 33.6432C16.4068 33.1187 15.9057 32.6141 15.4721 32.1687C19.9719 27.4682 24.5294 22.7281 29.0677 17.988C32.0065 21.0062 34.8779 23.9552 37.7878 26.9437C41.2565 23.3021 44.6674 19.7198 47.9917 16.2365C46.5656 16.2365 44.9372 16.2365 43.251 16.2365C43.251 15.4745 43.251 14.7323 43.251 14C46.1706 14 49.0805 14 52 14C52 16.9687 52 19.9375 52 22.9062Z" fill="#18788E"/>
</g>
<defs>
<clipPath id="clip0_356_1425">
<rect width="37" height="38" fill="white" transform="translate(15 14)"/>
</clipPath>
</defs>
</svg>
