<svg width="67" height="67" viewBox="0 0 67 67" fill="none" xmlns="http://www.w3.org/2000/svg">
<rect width="67" height="67" rx="8" fill="#E7F6FF"/>
<g clip-path="url(#clip0_356_1521)">
<path d="M14.4424 31.9802C14.4424 31.7663 14.4424 31.5604 14.4424 31.3465C14.733 30.6653 15.2271 30.4515 15.9029 30.4673C17.9374 30.499 19.9719 30.4832 22.0064 30.4752C22.5659 30.4752 22.9801 30.1822 23.1399 29.6752C23.4015 28.8515 22.951 28.1861 22.1009 28.1782C20.3207 28.1703 18.5405 28.1782 16.7603 28.1703C16.0264 28.1782 15.5323 27.695 15.5323 26.9822C15.5323 26.2851 16.0336 25.802 16.7675 25.802C17.1526 25.802 17.5305 25.802 17.9301 25.802C17.9301 24.9624 17.9301 24.1861 17.9301 23.4099C17.9301 22.4515 18.3443 22 19.2162 22C25.6104 22 31.9974 22 38.3916 22C38.5224 22 38.6459 22 38.7913 22C38.7913 24.3446 38.7913 26.6257 38.7913 28.9069C38.7913 29.8653 39.2054 30.3168 40.0701 30.3168C42.7077 30.3168 45.3453 30.3168 47.9902 30.3168C49.8358 30.3168 51.1365 31.4099 51.6088 33.3505C51.616 33.3743 51.6378 33.3901 51.6524 33.4059C51.6524 36.099 51.6524 38.7921 51.6524 41.4851C51.3617 42.1743 50.8676 42.4119 50.1919 42.3644C49.6905 42.3248 49.1819 42.3564 48.695 42.3564C47.8812 44.7644 46.5661 45.9446 44.7059 46C43.834 46.0238 43.0274 45.7782 42.3008 45.2634C41.3344 44.5743 40.7459 43.5921 40.477 42.3802C36.7785 42.3802 33.1019 42.3802 29.4397 42.3802C28.6477 44.7406 27.3398 45.9366 25.4942 45.9921C24.6222 46.0238 23.8157 45.7861 23.0818 45.2792C22.0718 44.5901 21.476 43.6 21.1999 42.3564C20.466 42.3564 19.7539 42.3644 19.0418 42.3564C18.4751 42.3485 18.0318 41.9446 17.9446 41.3505C17.9228 41.2079 17.9301 41.0574 17.9301 40.9149C17.9301 39.8218 17.9301 38.7287 17.9301 37.604C17.2326 37.604 16.5641 37.5723 15.9101 37.6119C15.2271 37.6515 14.733 37.4139 14.4424 36.7327C14.4424 36.5188 14.4424 36.3129 14.4424 36.099C14.733 35.4099 15.2271 35.2119 15.9029 35.2198C18.9982 35.2436 22.1009 35.2277 25.1963 35.2356C25.7049 35.2356 26.0973 35.0535 26.3225 34.5386C26.6858 33.7149 26.1263 32.8594 25.2326 32.8594C22.1227 32.8594 19.0128 32.8436 15.9029 32.8673C15.2271 32.8673 14.733 32.6614 14.4424 31.9802ZM25.3416 39.2673C24.2226 39.2594 23.3143 40.2257 23.3071 41.4218C23.2998 42.6257 24.1935 43.6079 25.3053 43.6158C26.3879 43.6238 27.2962 42.6495 27.3035 41.4614C27.3107 40.2733 26.4243 39.2752 25.3416 39.2673ZM42.5624 41.4297C42.5551 42.6337 43.4489 43.6158 44.5606 43.6238C45.6433 43.6317 46.5443 42.6574 46.5588 41.4693C46.5661 40.2733 45.6796 39.2832 44.5969 39.2752C43.4779 39.2594 42.5697 40.2257 42.5624 41.4297Z" fill="#18788E"/>
<path d="M40.9929 22.2693C43.9793 22.895 45.5706 25.2317 46.9366 27.9089C44.9457 27.9089 42.9838 27.9089 40.9929 27.9089C40.9929 26.0396 40.9929 24.1624 40.9929 22.2693Z" fill="#18788E"/>
</g>
<defs>
<clipPath id="clip0_356_1521">
<rect width="37.2028" height="24" fill="white" transform="translate(14.4424 22)"/>
</clipPath>
</defs>
</svg>
