<svg width="67" height="67" viewBox="0 0 67 67" fill="none" xmlns="http://www.w3.org/2000/svg">
<rect width="67" height="67" rx="8" fill="#E7F6FF"/>
<g clip-path="url(#clip0_356_1508)">
<path d="M17.1785 50.2639C17.2938 48.7155 17.9162 47.39 18.2851 45.9941C18.4464 45.3607 18.6424 44.7272 18.8614 44.1055C19.1611 43.2258 19.3455 42.3343 19.2879 41.3959C19.2418 40.7038 19.5991 40.3871 20.2907 40.3753C21.1436 40.3636 21.9851 40.3636 22.838 40.3753C23.6449 40.3871 24.0137 40.8797 23.7717 41.6891C23.1262 43.9179 22.4576 46.1466 21.8352 48.3871C21.6738 48.9618 21.6969 49.5835 21.6277 50.2287C22.1234 50.2287 22.5153 50.2287 22.9187 50.2287C22.9418 50.1701 22.9763 50.1349 22.9648 50.0997C22.7919 48.6451 23.3106 47.3313 23.714 45.9941C24.5324 43.2962 25.3738 40.5982 26.1461 37.8885C26.296 37.3607 26.2383 36.7624 26.2614 36.1877C26.2729 35.8123 26.2499 35.4252 26.2729 35.0498C26.296 34.5572 26.6072 34.217 27.1028 34.217C28.9701 34.2052 30.8489 34.2052 32.7162 34.217C33.3732 34.217 33.7075 34.7683 33.4885 35.4604C33.0966 36.7038 32.6816 37.9355 32.2782 39.1671C31.4944 41.5718 30.6991 43.9648 29.9268 46.3695C29.8461 46.6158 29.8231 46.8856 29.8115 47.1437C29.8 48.1525 29.8115 49.1613 29.8115 50.2052C30.2957 50.2052 30.7682 50.2052 31.2754 50.2052C31.2754 49.6774 31.2754 49.1495 31.2754 48.5865C31.4944 48.5865 31.6673 48.5865 31.8287 48.5865C35.4826 48.5865 39.148 48.5865 42.8019 48.5865C42.9748 48.5865 43.1477 48.5865 43.3206 48.563C43.7816 48.5044 44.0813 48.1525 44.0813 47.7067C44.0813 47.261 43.7701 46.9091 43.309 46.8621C43.1477 46.8504 42.9978 46.8504 42.8365 46.8504C39.2517 46.8504 35.667 46.8504 32.0707 46.8504C31.8978 46.8504 31.7365 46.8504 31.5175 46.8504C31.5636 46.6393 31.5981 46.4868 31.6442 46.3343C32.8661 42.3108 34.0879 38.2756 35.2866 34.2404C35.3904 33.8768 35.5633 33.7712 35.9206 33.783C37.5804 33.8064 39.2287 33.7947 40.8885 33.7947C41.4648 33.7947 41.8106 33.4897 41.8452 32.997C41.8798 32.434 41.5224 32.0704 40.8885 32.0704C39.3439 32.0586 37.8109 32.0704 36.2664 32.0704C36.1165 32.0704 35.9552 32.0704 35.7707 32.0704C35.7707 31.2844 35.7246 30.5454 35.7938 29.8064C35.8168 29.5835 36.1165 29.3607 36.3355 29.2082C36.4738 29.1143 36.6928 29.1378 36.8773 29.1378C39.3785 29.1378 41.8913 29.1378 44.3925 29.1378C45.2916 29.1378 45.6143 29.4193 45.5452 30.3108C45.4184 32.0821 45.8103 33.7478 46.3405 35.4252C47.5738 39.3431 48.738 43.2844 49.9137 47.214C49.9829 47.4604 50.0175 47.7302 50.0175 47.9882C50.029 48.7155 50.0175 49.4545 50.0175 50.2522C50.3287 50.2522 50.6053 50.2522 50.8935 50.2522C51.5735 50.2639 51.9654 50.5806 51.9654 51.1319C51.9654 51.6833 51.5735 52 50.8935 52C41.5455 52 32.1975 52 22.838 52C20.5442 52 18.262 52 15.9682 52C15.5994 52 15.2882 51.9061 15.0807 51.566C14.7464 51.0029 15.1153 50.3108 15.7953 50.2639C16.2795 50.2404 16.729 50.2639 17.1785 50.2639ZM40.8193 43.9061C42.1449 43.9061 43.2168 42.8152 43.2168 41.478C43.2053 40.1642 42.1333 39.0733 40.8424 39.0616C39.5514 39.0498 38.4679 40.129 38.4564 41.4545C38.4449 42.8269 39.4823 43.9061 40.8193 43.9061Z" fill="#18788E"/>
<path d="M41.7991 26.8739C38.8022 24.8328 38.295 22.2991 40.0586 19.9296C41.0268 18.6276 42.2717 17.6774 43.6664 16.8915C44.139 16.6334 44.5885 16.8563 44.6115 17.3724C44.6576 18.2053 44.9689 18.9325 45.3492 19.6481C45.8103 20.5279 46.3059 21.3842 46.4788 22.3812C46.8131 24.4106 45.257 26.7566 43.2745 27.1671C43.2168 27.1789 43.1592 27.1789 43.067 27.1789C43.09 27.085 43.1016 27.0264 43.1246 26.9677C43.8623 25.2669 44.0583 23.4721 44.0122 21.6422C44.0006 21.1613 43.7586 20.9032 43.3782 20.915C42.9978 20.9267 42.7904 21.1847 42.8019 21.6774C42.8365 23.2493 42.6981 24.7859 42.1103 26.2522C42.0066 26.4633 41.9028 26.6628 41.7991 26.8739Z" fill="#18788E"/>
<path d="M34.6988 26.5924C33.062 26.5454 31.9094 25.783 31.1601 24.3636C30.4109 22.9443 30.215 21.3959 30.2034 19.8123C30.2034 19.261 30.6415 18.9443 31.0679 19.1906C31.9324 19.7185 32.8891 19.7771 33.8458 19.871C35.0791 20 36.1626 20.3988 36.958 21.4428C37.8686 22.6393 37.8916 23.9883 36.958 25.1495C36.6122 25.5718 36.1972 25.9589 35.7477 26.2639C35.4595 26.4633 35.0561 26.4868 34.6988 26.5924Z" fill="#18788E"/>
<path d="M26.4227 27.6364C24.9243 27.5894 23.5757 27.1085 22.5268 25.912C22.1118 25.4311 22.1349 25.1613 22.596 24.7273C24.6477 22.8152 28.2094 22.8974 30.0882 24.9149C30.676 25.5484 30.6645 25.8299 29.996 26.3812C28.9701 27.2258 27.7713 27.6012 26.4227 27.6364Z" fill="#18788E"/>
<path d="M21.6738 17.3255C21.6508 16.0235 22.0773 15.7185 23.2414 16.2464C24.809 16.9502 25.881 18.0997 26.1461 19.8827C26.2268 20.3988 26.2614 20.9854 25.8118 21.349C25.3738 21.7126 24.8897 21.3724 24.4863 21.173C22.9763 20.434 21.9159 19.3079 21.6854 17.5484C21.6738 17.478 21.6738 17.4076 21.6738 17.3255Z" fill="#18788E"/>
</g>
<defs>
<clipPath id="clip0_356_1508">
<rect width="37" height="36" fill="white" transform="translate(15 16)"/>
</clipPath>
</defs>
</svg>
