<svg width="146" height="1974" viewBox="0 0 146 1974" fill="none" xmlns="http://www.w3.org/2000/svg">
<path d="M144 91.1014L103 64V118L144 91.1014Z" fill="#18788E"/>
<path d="M2 265.579L40.7399 294L46 240L2 265.579Z" fill="#8DDAAF"/>
<path d="M2 617.039L40.7399 645L46 592L2 617.039Z" fill="#8DDAAF"/>
<path d="M2 968.511L40.7399 997L46 943L2 968.511Z" fill="#8DDAAF"/>
<path d="M2 1337.51L40.7399 1366L46 1312L2 1337.51Z" fill="#8DDAAF"/>
<path d="M0 1698.51L38.6774 1727L44 1673L0 1698.51Z" fill="#8DDAAF"/>
<path d="M146 437.135L105 410V464L146 437.135Z" fill="#18788E"/>
<path d="M143 789.101L101 762V816L143 789.101Z" fill="#18788E"/>
<path d="M146 1160.14L105 1133V1187L146 1160.14Z" fill="#18788E"/>
<path d="M146 1517.1L105 1490V1544L146 1517.1Z" fill="#18788E"/>
<path d="M143 1882.13L101 1855V1909L143 1882.13Z" fill="#18788E"/>
<path d="M35 183V25.67C35 11.4839 47.0679 0 61.9753 0H77.0247C91.9321 0 104 11.4839 104 25.67V183H35Z" fill="#18788E"/>
<path d="M105 358L105 175H35L35 358H105Z" fill="#8DDAAF"/>
<path d="M105 537L105 354H35L35 537H105Z" fill="#18788E"/>
<path d="M105 710L105 527H35L35 710H105Z" fill="#8DDAAF"/>
<path d="M105 892L105 709H35L35 892H105Z" fill="#18788E"/>
<path d="M105 1068L105 885H35L35 1068H105Z" fill="#8DDAAF"/>
<path d="M105 1253L105 1068H35L35 1253H105Z" fill="#18788E"/>
<path d="M105 1435L105 1252H35L35 1435H105Z" fill="#8DDAAF"/>
<path d="M105 1608L105 1425H35L35 1608H105Z" fill="#18788E"/>
<path d="M105 1791L105 1608H35L35 1791H105Z" fill="#8DDAAF"/>
<path d="M35 1948.33V1791H105V1948.33C105 1962.52 92.7698 1974 77.6619 1974H62.3381C47.2302 1974 35 1962.52 35 1948.33Z" fill="#18788E"/>
<path d="M63.5004 99.48C62.007 99.48 60.6737 99.144 59.5004 98.472C58.3377 97.7893 57.415 96.8667 56.7324 95.704C56.0604 94.5307 55.7244 93.1973 55.7244 91.704V83.256C55.7244 81.7627 56.0604 80.4293 56.7324 79.256C57.415 78.0827 58.3377 77.16 59.5004 76.488C60.6737 75.816 62.007 75.48 63.5004 75.48C64.9937 75.48 66.327 75.816 67.5004 76.488C68.6737 77.16 69.5964 78.0827 70.2684 79.256C70.9404 80.4293 71.2764 81.7627 71.2764 83.256V91.704C71.2764 93.1973 70.9404 94.5307 70.2684 95.704C69.5964 96.8667 68.6737 97.7893 67.5004 98.472C66.327 99.144 64.9937 99.48 63.5004 99.48ZM63.5004 96.744C64.407 96.744 65.2284 96.5253 65.9644 96.088C66.7004 95.6507 67.287 95.064 67.7244 94.328C68.1617 93.5813 68.3804 92.76 68.3804 91.864V83.08C68.3804 82.1733 68.1617 81.352 67.7244 80.616C67.287 79.88 66.7004 79.2933 65.9644 78.856C65.2284 78.4187 64.407 78.2 63.5004 78.2C62.6044 78.2 61.783 78.4187 61.0364 78.856C60.3004 79.2933 59.7137 79.88 59.2764 80.616C58.839 81.352 58.6204 82.1733 58.6204 83.08V91.864C58.6204 92.76 58.839 93.5813 59.2764 94.328C59.7137 95.064 60.3004 95.6507 61.0364 96.088C61.783 96.5253 62.6044 96.744 63.5004 96.744ZM79.7716 99V79.112L75.4356 81.736V78.552L79.7716 75.96H82.6676V99H79.7716Z" fill="white"/>
<path d="M60.7504 276.48C59.257 276.48 57.9237 276.144 56.7504 275.472C55.5877 274.789 54.665 273.867 53.9824 272.704C53.3104 271.531 52.9744 270.197 52.9744 268.704V260.256C52.9744 258.763 53.3104 257.429 53.9824 256.256C54.665 255.083 55.5877 254.16 56.7504 253.488C57.9237 252.816 59.257 252.48 60.7504 252.48C62.2437 252.48 63.577 252.816 64.7504 253.488C65.9237 254.16 66.8464 255.083 67.5184 256.256C68.1904 257.429 68.5264 258.763 68.5264 260.256V268.704C68.5264 270.197 68.1904 271.531 67.5184 272.704C66.8464 273.867 65.9237 274.789 64.7504 275.472C63.577 276.144 62.2437 276.48 60.7504 276.48ZM60.7504 273.744C61.657 273.744 62.4784 273.525 63.2144 273.088C63.9504 272.651 64.537 272.064 64.9744 271.328C65.4117 270.581 65.6304 269.76 65.6304 268.864V260.08C65.6304 259.173 65.4117 258.352 64.9744 257.616C64.537 256.88 63.9504 256.293 63.2144 255.856C62.4784 255.419 61.657 255.2 60.7504 255.2C59.8544 255.2 59.033 255.419 58.2864 255.856C57.5504 256.293 56.9637 256.88 56.5264 257.616C56.089 258.352 55.8704 259.173 55.8704 260.08V268.864C55.8704 269.76 56.089 270.581 56.5264 271.328C56.9637 272.064 57.5504 272.651 58.2864 273.088C59.033 273.525 59.8544 273.744 60.7504 273.744ZM72.3656 275.984L72.3816 273.424L82.6056 264.224C83.459 263.456 84.0296 262.731 84.3176 262.048C84.6163 261.355 84.7656 260.645 84.7656 259.92C84.7656 259.035 84.563 258.235 84.1576 257.52C83.7523 256.805 83.1976 256.24 82.4936 255.824C81.8003 255.408 81.011 255.2 80.1256 255.2C79.2083 255.2 78.3923 255.419 77.6776 255.856C76.963 256.283 76.3976 256.853 75.9816 257.568C75.5763 258.283 75.379 259.061 75.3896 259.904H72.4776C72.4776 258.453 72.8136 257.173 73.4856 256.064C74.1576 254.944 75.0696 254.069 76.2216 253.44C77.3843 252.8 78.7016 252.48 80.1736 252.48C81.603 252.48 82.883 252.811 84.0136 253.472C85.1443 254.123 86.035 255.013 86.6856 256.144C87.347 257.264 87.6776 258.533 87.6776 259.952C87.6776 260.955 87.5496 261.824 87.2936 262.56C87.0483 263.296 86.6643 263.979 86.1416 264.608C85.619 265.227 84.963 265.888 84.1736 266.592L75.6776 274.224L75.3096 273.264H87.6776V275.984H72.3656Z" fill="#18788E"/>
<path d="M61.0004 452.48C59.507 452.48 58.1737 452.144 57.0004 451.472C55.8377 450.789 54.915 449.867 54.2324 448.704C53.5604 447.531 53.2244 446.197 53.2244 444.704V436.256C53.2244 434.763 53.5604 433.429 54.2324 432.256C54.915 431.083 55.8377 430.16 57.0004 429.488C58.1737 428.816 59.507 428.48 61.0004 428.48C62.4937 428.48 63.827 428.816 65.0004 429.488C66.1737 430.16 67.0964 431.083 67.7684 432.256C68.4404 433.429 68.7764 434.763 68.7764 436.256V444.704C68.7764 446.197 68.4404 447.531 67.7684 448.704C67.0964 449.867 66.1737 450.789 65.0004 451.472C63.827 452.144 62.4937 452.48 61.0004 452.48ZM61.0004 449.744C61.907 449.744 62.7284 449.525 63.4644 449.088C64.2004 448.651 64.787 448.064 65.2244 447.328C65.6617 446.581 65.8804 445.76 65.8804 444.864V436.08C65.8804 435.173 65.6617 434.352 65.2244 433.616C64.787 432.88 64.2004 432.293 63.4644 431.856C62.7284 431.419 61.907 431.2 61.0004 431.2C60.1044 431.2 59.283 431.419 58.5364 431.856C57.8004 432.293 57.2137 432.88 56.7764 433.616C56.339 434.352 56.1204 435.173 56.1204 436.08V444.864C56.1204 445.76 56.339 446.581 56.7764 447.328C57.2137 448.064 57.8004 448.651 58.5364 449.088C59.283 449.525 60.1044 449.744 61.0004 449.744ZM79.5756 452.448C78.4343 452.448 77.373 452.24 76.3916 451.824C75.4103 451.397 74.5623 450.8 73.8476 450.032C73.1436 449.253 72.6263 448.331 72.2956 447.264L75.0316 446.48C75.3836 447.547 75.9703 448.357 76.7916 448.912C77.613 449.467 78.5356 449.739 79.5596 449.728C80.4983 449.707 81.309 449.493 81.9916 449.088C82.685 448.672 83.2183 448.107 83.5916 447.392C83.9756 446.677 84.1676 445.851 84.1676 444.912C84.1676 443.483 83.741 442.325 82.8876 441.44C82.0343 440.544 80.9143 440.096 79.5276 440.096C79.1436 440.096 78.7383 440.149 78.3116 440.256C77.8956 440.363 77.5063 440.512 77.1436 440.704L75.7676 438.448L84.3116 430.72L84.6796 431.68H73.2076V428.96H86.7916V431.696L79.5116 438.672L79.4796 437.664C81.005 437.557 82.3383 437.808 83.4796 438.416C84.621 439.024 85.5063 439.893 86.1356 441.024C86.7756 442.155 87.0956 443.451 87.0956 444.912C87.0956 446.384 86.765 447.685 86.1036 448.816C85.4423 449.947 84.5463 450.837 83.4156 451.488C82.285 452.128 81.005 452.448 79.5756 452.448Z" fill="white"/>
<path d="M60.4691 629.48C58.9758 629.48 57.6425 629.144 56.4691 628.472C55.3065 627.789 54.3838 626.867 53.7011 625.704C53.0291 624.531 52.6931 623.197 52.6931 621.704V613.256C52.6931 611.763 53.0291 610.429 53.7011 609.256C54.3838 608.083 55.3065 607.16 56.4691 606.488C57.6425 605.816 58.9758 605.48 60.4691 605.48C61.9625 605.48 63.2958 605.816 64.4691 606.488C65.6425 607.16 66.5651 608.083 67.2371 609.256C67.9091 610.429 68.2451 611.763 68.2451 613.256V621.704C68.2451 623.197 67.9091 624.531 67.2371 625.704C66.5651 626.867 65.6425 627.789 64.4691 628.472C63.2958 629.144 61.9625 629.48 60.4691 629.48ZM60.4691 626.744C61.3758 626.744 62.1971 626.525 62.9331 626.088C63.6691 625.651 64.2558 625.064 64.6931 624.328C65.1305 623.581 65.3491 622.76 65.3491 621.864V613.08C65.3491 612.173 65.1305 611.352 64.6931 610.616C64.2558 609.88 63.6691 609.293 62.9331 608.856C62.1971 608.419 61.3758 608.2 60.4691 608.2C59.5731 608.2 58.7518 608.419 58.0051 608.856C57.2691 609.293 56.6825 609.88 56.2451 610.616C55.8078 611.352 55.5891 612.173 55.5891 613.08V621.864C55.5891 622.76 55.8078 623.581 56.2451 624.328C56.6825 625.064 57.2691 625.651 58.0051 626.088C58.7518 626.525 59.5731 626.744 60.4691 626.744ZM82.6764 629V624.76H72.0844V622.056L79.6844 605.96H82.9164L75.3164 622.056H82.6764V615.576H85.5564V622.056H87.9564V624.76H85.5564V629H82.6764Z" fill="#18788E"/>
<path d="M60.7191 803.48C59.2258 803.48 57.8925 803.144 56.7191 802.472C55.5565 801.789 54.6338 800.867 53.9511 799.704C53.2791 798.531 52.9431 797.197 52.9431 795.704V787.256C52.9431 785.763 53.2791 784.429 53.9511 783.256C54.6338 782.083 55.5565 781.16 56.7191 780.488C57.8925 779.816 59.2258 779.48 60.7191 779.48C62.2125 779.48 63.5458 779.816 64.7191 780.488C65.8925 781.16 66.8151 782.083 67.4871 783.256C68.1591 784.429 68.4951 785.763 68.4951 787.256V795.704C68.4951 797.197 68.1591 798.531 67.4871 799.704C66.8151 800.867 65.8925 801.789 64.7191 802.472C63.5458 803.144 62.2125 803.48 60.7191 803.48ZM60.7191 800.744C61.6258 800.744 62.4471 800.525 63.1831 800.088C63.9191 799.651 64.5058 799.064 64.9431 798.328C65.3805 797.581 65.5991 796.76 65.5991 795.864V787.08C65.5991 786.173 65.3805 785.352 64.9431 784.616C64.5058 783.88 63.9191 783.293 63.1831 782.856C62.4471 782.419 61.6258 782.2 60.7191 782.2C59.8231 782.2 59.0018 782.419 58.2551 782.856C57.5191 783.293 56.9325 783.88 56.4951 784.616C56.0578 785.352 55.8391 786.173 55.8391 787.08V795.864C55.8391 796.76 56.0578 797.581 56.4951 798.328C56.9325 799.064 57.5191 799.651 58.2551 800.088C59.0018 800.525 59.8231 800.744 60.7191 800.744ZM79.7904 803.48C78.6064 803.48 77.5024 803.235 76.4784 802.744C75.465 802.253 74.5957 801.581 73.8704 800.728C73.1557 799.864 72.6437 798.872 72.3344 797.752L75.0704 797.016C75.2624 797.773 75.6037 798.429 76.0944 798.984C76.585 799.528 77.1557 799.955 77.8064 800.264C78.4677 800.563 79.1557 800.712 79.8704 800.712C80.809 800.712 81.6517 800.488 82.3984 800.04C83.1557 799.581 83.753 798.979 84.1904 798.232C84.6277 797.475 84.8464 796.648 84.8464 795.752C84.8464 794.824 84.617 793.987 84.1584 793.24C83.7104 792.483 83.1077 791.885 82.3504 791.448C81.593 791.011 80.7664 790.792 79.8704 790.792C78.857 790.792 77.9877 791.005 77.2624 791.432C76.5477 791.848 75.9824 792.36 75.5664 792.968L73.0384 792.008L73.7424 779.96H86.1104V782.664H75.1184L76.3824 781.48L75.7904 791.128L75.1664 790.312C75.8064 789.629 76.569 789.101 77.4544 788.728C78.3504 788.355 79.2624 788.168 80.1904 788.168C81.6197 788.168 82.8997 788.504 84.0304 789.176C85.161 789.837 86.057 790.744 86.7184 791.896C87.3797 793.037 87.7104 794.323 87.7104 795.752C87.7104 797.171 87.3477 798.467 86.6224 799.64C85.897 800.803 84.9317 801.736 83.7264 802.44C82.5317 803.133 81.2197 803.48 79.7904 803.48Z" fill="white"/>
<path d="M60.0629 982.48C58.5695 982.48 57.2362 982.144 56.0629 981.472C54.9002 980.789 53.9775 979.867 53.2949 978.704C52.6229 977.531 52.2869 976.197 52.2869 974.704V966.256C52.2869 964.763 52.6229 963.429 53.2949 962.256C53.9775 961.083 54.9002 960.16 56.0629 959.488C57.2362 958.816 58.5695 958.48 60.0629 958.48C61.5562 958.48 62.8895 958.816 64.0629 959.488C65.2362 960.16 66.1589 961.083 66.8309 962.256C67.5029 963.429 67.8389 964.763 67.8389 966.256V974.704C67.8389 976.197 67.5029 977.531 66.8309 978.704C66.1589 979.867 65.2362 980.789 64.0629 981.472C62.8895 982.144 61.5562 982.48 60.0629 982.48ZM60.0629 979.744C60.9695 979.744 61.7909 979.525 62.5269 979.088C63.2629 978.651 63.8495 978.064 64.2869 977.328C64.7242 976.581 64.9429 975.76 64.9429 974.864V966.08C64.9429 965.173 64.7242 964.352 64.2869 963.616C63.8495 962.88 63.2629 962.293 62.5269 961.856C61.7909 961.419 60.9695 961.2 60.0629 961.2C59.1669 961.2 58.3455 961.419 57.5989 961.856C56.8629 962.293 56.2762 962.88 55.8389 963.616C55.4015 964.352 55.1829 965.173 55.1829 966.08V974.864C55.1829 975.76 55.4015 976.581 55.8389 977.328C56.2762 978.064 56.8629 978.651 57.5989 979.088C58.3455 979.525 59.1669 979.744 60.0629 979.744ZM80.1741 982.48C78.7128 982.48 77.3848 982.128 76.1901 981.424C75.0061 980.72 74.0621 979.76 73.3581 978.544C72.6648 977.317 72.3181 975.936 72.3181 974.4V966.736C72.3181 965.125 72.6648 963.701 73.3581 962.464C74.0621 961.216 75.0221 960.245 76.2381 959.552C77.4648 958.848 78.8621 958.496 80.4301 958.496C81.6995 958.496 82.8781 958.757 83.9661 959.28C85.0648 959.792 85.9875 960.533 86.7341 961.504L84.6061 963.392C84.1475 962.72 83.5501 962.187 82.8141 961.792C82.0781 961.397 81.2835 961.2 80.4301 961.2C79.4168 961.2 78.5155 961.445 77.7261 961.936C76.9475 962.416 76.3341 963.056 75.8861 963.856C75.4381 964.645 75.2141 965.499 75.2141 966.416V971.04L74.5901 970.336C75.2621 969.376 76.1155 968.608 77.1501 968.032C78.1848 967.456 79.3048 967.168 80.5101 967.168C81.9395 967.168 83.2195 967.504 84.3501 968.176C85.4915 968.848 86.3875 969.76 87.0381 970.912C87.6995 972.053 88.0301 973.339 88.0301 974.768C88.0301 976.197 87.6728 977.493 86.9581 978.656C86.2435 979.819 85.2888 980.747 84.0941 981.44C82.9101 982.133 81.6035 982.48 80.1741 982.48ZM80.1741 979.728C81.0915 979.728 81.9288 979.509 82.6861 979.072C83.4435 978.624 84.0408 978.027 84.4781 977.28C84.9261 976.523 85.1501 975.685 85.1501 974.768C85.1501 973.851 84.9261 973.013 84.4781 972.256C84.0408 971.499 83.4435 970.901 82.6861 970.464C81.9395 970.016 81.1075 969.792 80.1901 969.792C79.2728 969.792 78.4355 970.016 77.6781 970.464C76.9315 970.901 76.3341 971.499 75.8861 972.256C75.4381 973.013 75.2141 973.851 75.2141 974.768C75.2141 975.675 75.4328 976.507 75.8701 977.264C76.3181 978.011 76.9155 978.608 77.6621 979.056C78.4195 979.504 79.2568 979.728 80.1741 979.728Z" fill="#18788E"/>
<path d="M60.5473 1351.48C59.0539 1351.48 57.7206 1351.14 56.5473 1350.47C55.3846 1349.79 54.4619 1348.87 53.7793 1347.7C53.1073 1346.53 52.7713 1345.2 52.7713 1343.7V1335.26C52.7713 1333.76 53.1073 1332.43 53.7793 1331.26C54.4619 1330.08 55.3846 1329.16 56.5473 1328.49C57.7206 1327.82 59.0539 1327.48 60.5473 1327.48C62.0406 1327.48 63.3739 1327.82 64.5473 1328.49C65.7206 1329.16 66.6433 1330.08 67.3153 1331.26C67.9873 1332.43 68.3233 1333.76 68.3233 1335.26V1343.7C68.3233 1345.2 67.9873 1346.53 67.3153 1347.7C66.6433 1348.87 65.7206 1349.79 64.5473 1350.47C63.3739 1351.14 62.0406 1351.48 60.5473 1351.48ZM60.5473 1348.74C61.4539 1348.74 62.2753 1348.53 63.0113 1348.09C63.7473 1347.65 64.3339 1347.06 64.7713 1346.33C65.2086 1345.58 65.4273 1344.76 65.4273 1343.86V1335.08C65.4273 1334.17 65.2086 1333.35 64.7713 1332.62C64.3339 1331.88 63.7473 1331.29 63.0113 1330.86C62.2753 1330.42 61.4539 1330.2 60.5473 1330.2C59.6513 1330.2 58.8299 1330.42 58.0833 1330.86C57.3473 1331.29 56.7606 1331.88 56.3233 1332.62C55.8859 1333.35 55.6673 1334.17 55.6673 1335.08V1343.86C55.6673 1344.76 55.8859 1345.58 56.3233 1346.33C56.7606 1347.06 57.3473 1347.65 58.0833 1348.09C58.8299 1348.53 59.6513 1348.74 60.5473 1348.74ZM80.0025 1351.48C78.5305 1351.48 77.2292 1351.19 76.0985 1350.6C74.9678 1350 74.0825 1349.18 73.4425 1348.12C72.8025 1347.06 72.4825 1345.83 72.4825 1344.42C72.4825 1343.05 72.8078 1341.81 73.4585 1340.7C74.1198 1339.59 75.1118 1338.73 76.4345 1338.14L76.3865 1339.18C75.3092 1338.65 74.4825 1337.92 73.9065 1336.97C73.3305 1336.01 73.0425 1334.95 73.0425 1333.78C73.0425 1332.48 73.3412 1331.36 73.9385 1330.42C74.5358 1329.49 75.3572 1328.76 76.4025 1328.25C77.4478 1327.74 78.6478 1327.48 80.0025 1327.48C81.3572 1327.48 82.5572 1327.74 83.6025 1328.25C84.6478 1328.76 85.4692 1329.49 86.0665 1330.42C86.6638 1331.36 86.9625 1332.48 86.9625 1333.78C86.9625 1334.95 86.6905 1336 86.1465 1336.95C85.6025 1337.89 84.7652 1338.63 83.6345 1339.18L83.5705 1338.15C84.8932 1338.73 85.8852 1339.58 86.5465 1340.7C87.2185 1341.81 87.5545 1343.05 87.5545 1344.42C87.5545 1345.83 87.2292 1347.06 86.5785 1348.12C85.9385 1349.18 85.0478 1350 83.9065 1350.6C82.7758 1351.19 81.4745 1351.48 80.0025 1351.48ZM80.0025 1348.76C81.3465 1348.76 82.4345 1348.39 83.2665 1347.66C84.1092 1346.91 84.5305 1345.83 84.5305 1344.42C84.5305 1343.01 84.1145 1341.93 83.2825 1341.19C82.4612 1340.45 81.3678 1340.07 80.0025 1340.07C78.6478 1340.07 77.5545 1340.45 76.7225 1341.19C75.9012 1341.93 75.4905 1343.01 75.4905 1344.42C75.4905 1345.83 75.9065 1346.91 76.7385 1347.66C77.5705 1348.39 78.6585 1348.76 80.0025 1348.76ZM80.0025 1337.34C81.1758 1337.34 82.1252 1337.04 82.8505 1336.46C83.5758 1335.86 83.9385 1334.97 83.9385 1333.78C83.9385 1332.6 83.5758 1331.71 82.8505 1331.13C82.1252 1330.53 81.1758 1330.23 80.0025 1330.23C78.8398 1330.23 77.8905 1330.53 77.1545 1331.13C76.4292 1331.71 76.0665 1332.6 76.0665 1333.78C76.0665 1334.97 76.4292 1335.86 77.1545 1336.46C77.8905 1337.04 78.8398 1337.34 80.0025 1337.34Z" fill="#18788E"/>
<path d="M60.0629 1529.48C58.5695 1529.48 57.2362 1529.14 56.0629 1528.47C54.9002 1527.79 53.9775 1526.87 53.2949 1525.7C52.6229 1524.53 52.2869 1523.2 52.2869 1521.7V1513.26C52.2869 1511.76 52.6229 1510.43 53.2949 1509.26C53.9775 1508.08 54.9002 1507.16 56.0629 1506.49C57.2362 1505.82 58.5695 1505.48 60.0629 1505.48C61.5562 1505.48 62.8895 1505.82 64.0629 1506.49C65.2362 1507.16 66.1589 1508.08 66.8309 1509.26C67.5029 1510.43 67.8389 1511.76 67.8389 1513.26V1521.7C67.8389 1523.2 67.5029 1524.53 66.8309 1525.7C66.1589 1526.87 65.2362 1527.79 64.0629 1528.47C62.8895 1529.14 61.5562 1529.48 60.0629 1529.48ZM60.0629 1526.74C60.9695 1526.74 61.7909 1526.53 62.5269 1526.09C63.2629 1525.65 63.8495 1525.06 64.2869 1524.33C64.7242 1523.58 64.9429 1522.76 64.9429 1521.86V1513.08C64.9429 1512.17 64.7242 1511.35 64.2869 1510.62C63.8495 1509.88 63.2629 1509.29 62.5269 1508.86C61.7909 1508.42 60.9695 1508.2 60.0629 1508.2C59.1669 1508.2 58.3455 1508.42 57.5989 1508.86C56.8629 1509.29 56.2762 1509.88 55.8389 1510.62C55.4015 1511.35 55.1829 1512.17 55.1829 1513.08V1521.86C55.1829 1522.76 55.4015 1523.58 55.8389 1524.33C56.2762 1525.06 56.8629 1525.65 57.5989 1526.09C58.3455 1526.53 59.1669 1526.74 60.0629 1526.74ZM79.8541 1505.5C81.3261 1505.5 82.6541 1505.85 83.8381 1506.55C85.0221 1507.26 85.9608 1508.22 86.6541 1509.43C87.3581 1510.65 87.7101 1512.03 87.7101 1513.58V1521.24C87.7101 1522.85 87.3635 1524.27 86.6701 1525.51C85.9768 1526.75 85.0168 1527.72 83.7901 1528.42C82.5741 1529.13 81.1768 1529.48 79.5981 1529.48C78.3395 1529.48 77.1608 1529.22 76.0621 1528.7C74.9741 1528.17 74.0515 1527.43 73.2941 1526.47L75.4221 1524.58C75.8915 1525.25 76.4941 1525.78 77.2301 1526.18C77.9661 1526.58 78.7555 1526.78 79.5981 1526.78C80.6221 1526.78 81.5235 1526.53 82.3021 1526.04C83.0915 1525.55 83.7048 1524.91 84.1421 1524.12C84.5901 1523.33 84.8141 1522.48 84.8141 1521.56V1516.94L85.4381 1517.64C84.7768 1518.6 83.9288 1519.37 82.8941 1519.94C81.8595 1520.52 80.7341 1520.81 79.5181 1520.81C78.0888 1520.81 76.8088 1520.47 75.6781 1519.8C74.5475 1519.13 73.6515 1518.22 72.9901 1517.08C72.3288 1515.93 71.9981 1514.64 71.9981 1513.21C71.9981 1511.78 72.3555 1510.48 73.0701 1509.32C73.7848 1508.15 74.7341 1507.22 75.9181 1506.54C77.1128 1505.84 78.4248 1505.5 79.8541 1505.5ZM79.8541 1508.25C78.9368 1508.25 78.0995 1508.47 77.3421 1508.92C76.5955 1509.36 75.9981 1509.95 75.5501 1510.71C75.1021 1511.46 74.8781 1512.29 74.8781 1513.21C74.8781 1514.13 75.0968 1514.96 75.5341 1515.72C75.9821 1516.47 76.5795 1517.06 77.3261 1517.51C78.0835 1517.96 78.9208 1518.18 79.8381 1518.18C80.7555 1518.18 81.5928 1517.96 82.3501 1517.51C83.1075 1517.06 83.7048 1516.47 84.1421 1515.72C84.5901 1514.96 84.8141 1514.13 84.8141 1513.21C84.8141 1512.3 84.5901 1511.47 84.1421 1510.73C83.7048 1509.97 83.1075 1509.37 82.3501 1508.92C81.6035 1508.47 80.7715 1508.25 79.8541 1508.25Z" fill="white"/>
<path d="M59.7404 1712V1692.11L55.4044 1694.74V1691.55L59.7404 1688.96H62.6364V1712H59.7404ZM76.5004 1712.48C75.007 1712.48 73.6737 1712.14 72.5004 1711.47C71.3377 1710.79 70.415 1709.87 69.7324 1708.7C69.0604 1707.53 68.7244 1706.2 68.7244 1704.7V1696.26C68.7244 1694.76 69.0604 1693.43 69.7324 1692.26C70.415 1691.08 71.3377 1690.16 72.5004 1689.49C73.6737 1688.82 75.007 1688.48 76.5004 1688.48C77.9937 1688.48 79.327 1688.82 80.5004 1689.49C81.6737 1690.16 82.5964 1691.08 83.2684 1692.26C83.9404 1693.43 84.2764 1694.76 84.2764 1696.26V1704.7C84.2764 1706.2 83.9404 1707.53 83.2684 1708.7C82.5964 1709.87 81.6737 1710.79 80.5004 1711.47C79.327 1712.14 77.9937 1712.48 76.5004 1712.48ZM76.5004 1709.74C77.407 1709.74 78.2284 1709.53 78.9644 1709.09C79.7004 1708.65 80.287 1708.06 80.7244 1707.33C81.1617 1706.58 81.3804 1705.76 81.3804 1704.86V1696.08C81.3804 1695.17 81.1617 1694.35 80.7244 1693.62C80.287 1692.88 79.7004 1692.29 78.9644 1691.86C78.2284 1691.42 77.407 1691.2 76.5004 1691.2C75.6044 1691.2 74.783 1691.42 74.0364 1691.86C73.3004 1692.29 72.7137 1692.88 72.2764 1693.62C71.839 1694.35 71.6204 1695.17 71.6204 1696.08V1704.86C71.6204 1705.76 71.839 1706.58 72.2764 1707.33C72.7137 1708.06 73.3004 1708.65 74.0364 1709.09C74.783 1709.53 75.6044 1709.74 76.5004 1709.74Z" fill="#18788E"/>
<path d="M63.256 1894V1874.11L58.92 1876.74V1873.55L63.256 1870.96H66.152V1894H63.256ZM76.256 1894V1874.11L71.92 1876.74V1873.55L76.256 1870.96H79.152V1894H76.256Z" fill="white"/>
<path d="M61.7973 1172.48C60.3039 1172.48 58.9706 1172.14 57.7973 1171.47C56.6346 1170.79 55.7119 1169.87 55.0293 1168.7C54.3573 1167.53 54.0213 1166.2 54.0213 1164.7V1156.26C54.0213 1154.76 54.3573 1153.43 55.0293 1152.26C55.7119 1151.08 56.6346 1150.16 57.7973 1149.49C58.9706 1148.82 60.3039 1148.48 61.7973 1148.48C63.2906 1148.48 64.6239 1148.82 65.7973 1149.49C66.9706 1150.16 67.8933 1151.08 68.5653 1152.26C69.2373 1153.43 69.5733 1154.76 69.5733 1156.26V1164.7C69.5733 1166.2 69.2373 1167.53 68.5653 1168.7C67.8933 1169.87 66.9706 1170.79 65.7973 1171.47C64.6239 1172.14 63.2906 1172.48 61.7973 1172.48ZM61.7973 1169.74C62.7039 1169.74 63.5253 1169.53 64.2613 1169.09C64.9973 1168.65 65.5839 1168.06 66.0213 1167.33C66.4586 1166.58 66.6773 1165.76 66.6773 1164.86V1156.08C66.6773 1155.17 66.4586 1154.35 66.0213 1153.62C65.5839 1152.88 64.9973 1152.29 64.2613 1151.86C63.5253 1151.42 62.7039 1151.2 61.7973 1151.2C60.9013 1151.2 60.0799 1151.42 59.3333 1151.86C58.5973 1152.29 58.0106 1152.88 57.5733 1153.62C57.1359 1154.35 56.9173 1155.17 56.9173 1156.08V1164.86C56.9173 1165.76 57.1359 1166.58 57.5733 1167.33C58.0106 1168.06 58.5973 1168.65 59.3333 1169.09C60.0799 1169.53 60.9013 1169.74 61.7973 1169.74ZM75.2685 1172L83.5565 1151.7H73.0925V1148.96H86.6125V1151.7L78.3405 1172H75.2685Z" fill="white"/>
</svg>
