<svg width="67" height="67" viewBox="0 0 67 67" fill="none" xmlns="http://www.w3.org/2000/svg">
<rect width="67" height="67" rx="8" fill="#E7F6FF"/>
<g clip-path="url(#clip0_356_1507)">
<path d="M49.4786 47.7422C50.0569 47.7422 50.5889 47.7422 51.121 47.7422C51.734 47.7544 51.9884 48.0106 51.9884 48.6572C52 49.7673 51.9884 50.8774 51.9884 51.9997C51.9884 52.756 51.7571 53 51.0169 53C45.6502 53 40.2951 53 34.9284 53C28.6364 53 22.356 53 16.0641 53C15.1619 53 14.9769 52.8048 14.9769 51.8411C14.9769 50.853 14.9769 49.8648 14.9769 48.8645C14.9769 47.913 15.1504 47.73 16.0756 47.73C16.5267 47.73 16.9662 47.73 17.4983 47.73C17.4983 47.4373 17.4983 47.1689 17.4983 46.9005C17.4983 46.2418 17.4867 45.5952 17.4983 44.9365C17.5098 44.3265 17.7643 44.0582 18.3542 44.0338C18.4351 44.0338 18.5277 44.0338 18.6086 44.0338C28.5208 44.0338 38.4329 44.0338 48.3567 44.0338C48.4608 44.0338 48.5649 44.0338 48.6574 44.0338C49.1894 44.0703 49.4439 44.3387 49.4555 44.8999C49.467 45.6562 49.4555 46.4247 49.4555 47.1811C49.4786 47.3641 49.4786 47.5226 49.4786 47.7422Z" fill="#18788E"/>
<path d="M33.448 29.0169C28.2548 29.0169 23.0732 29.0169 17.88 29.0169C17.0472 29.0169 16.839 28.7851 16.8275 27.9068C16.8275 27.1138 16.8506 26.3209 16.8159 25.528C16.7928 24.9912 16.9778 24.6496 17.4173 24.3691C22.2173 21.2339 27.0056 18.0866 31.8056 14.9393C32.1757 14.6953 32.5458 14.4757 32.9044 14.2074C33.2976 13.9146 33.6562 13.939 34.061 14.2074C37.4961 16.4764 40.9428 18.7332 44.3895 21.0022C46.1013 22.1245 47.8131 23.259 49.548 24.3691C49.9759 24.6496 50.1726 24.9912 50.1494 25.528C50.1147 26.3453 50.1379 27.1748 50.1379 27.9922C50.1379 28.7485 49.895 29.0047 49.1779 29.0169C43.95 29.0169 38.699 29.0169 33.448 29.0169ZM36.5592 22.9418C36.5939 21.1486 35.2523 19.6847 33.5636 19.6603C31.8518 19.6359 30.4755 21.0144 30.4408 22.8076C30.4061 24.6131 31.7362 26.0891 33.4595 26.1257C35.1366 26.1623 36.5245 24.735 36.5592 22.9418Z" fill="#18788E"/>
<path d="M36.2123 30.6149C36.2123 34.5552 36.2123 38.4954 36.2123 42.4601C34.3964 42.4601 32.6036 42.4601 30.7762 42.4601C30.7762 38.5076 30.7762 34.5796 30.7762 30.6149C32.5921 30.6149 34.3848 30.6149 36.2123 30.6149Z" fill="#18788E"/>
<path d="M25.6524 42.4601C23.8481 42.4601 22.0669 42.4601 20.251 42.4601C20.251 38.5076 20.251 34.5674 20.251 30.6027C22.0438 30.6027 23.8365 30.6027 25.6524 30.6027C25.6524 34.5308 25.6524 38.471 25.6524 42.4601Z" fill="#18788E"/>
<path d="M46.7374 42.4601C44.9331 42.4601 43.1519 42.4601 41.336 42.4601C41.336 38.5076 41.336 34.5674 41.336 30.6027C43.1288 30.6027 44.9215 30.6027 46.7374 30.6027C46.7374 34.5308 46.7374 38.471 46.7374 42.4601Z" fill="#18788E"/>
</g>
<defs>
<clipPath id="clip0_356_1507">
<rect width="37" height="39" fill="white" transform="translate(15 14)"/>
</clipPath>
</defs>
</svg>
