<svg width="67" height="67" viewBox="0 0 67 67" fill="none" xmlns="http://www.w3.org/2000/svg">
<rect width="67" height="67" rx="8" fill="#E7F6FF"/>
<g clip-path="url(#clip0_356_1510)">
<path d="M51.1788 49.7258C51.1788 50.5283 51.1788 51.3308 51.1788 52.1333C37.801 52.1333 24.4232 52.1333 11.0455 52.1333C11.0455 51.3308 11.0455 50.5283 11.0455 49.7258C12.3832 49.7258 13.721 49.7258 15.0902 49.7258C15.0902 49.5011 15.0902 49.3299 15.0902 49.148C15.0902 41.7006 15.0902 34.2532 15.0902 26.8059C15.0902 24.5588 15.0902 22.3118 15.0902 20.0647C15.0902 19.7865 15.1215 19.6474 15.4455 19.5939C19.6156 18.8984 23.7857 18.1708 27.9558 17.4646C28.6038 17.3576 29.2518 17.2506 29.952 17.1329C29.952 28.0257 29.952 38.865 29.952 49.6937C30.7568 49.6937 31.5197 49.6937 32.314 49.6937C32.314 40.7055 32.314 31.7601 32.314 22.804C37.268 22.804 42.1801 22.804 47.1446 22.804C47.1446 31.7922 47.1446 40.7483 47.1446 49.7258C48.5137 49.7258 49.8515 49.7258 51.1788 49.7258ZM24.2247 46.291C24.2247 47.4573 24.2247 48.5809 24.2247 49.7044C25.019 49.7044 25.7715 49.7044 26.5344 49.7044C26.5344 47.7569 26.5344 45.8202 26.5344 43.8834C23.838 43.8834 21.1729 43.8834 18.5078 43.8834C18.5078 45.8416 18.5078 47.7676 18.5078 49.7044C19.2916 49.7044 20.0337 49.7044 20.8384 49.7044C20.8384 48.5595 20.8384 47.4252 20.8384 46.291C21.9672 46.291 23.0646 46.291 24.2247 46.291ZM26.6076 20.3964C25.7715 20.3964 24.9667 20.3964 24.1515 20.3964C24.1515 21.199 24.1515 21.9587 24.1515 22.7398C24.9772 22.7398 25.7924 22.7398 26.6076 22.7398C26.6076 21.948 26.6076 21.1776 26.6076 20.3964ZM26.6076 40.3845C26.6076 39.5713 26.6076 38.8008 26.6076 38.0304C25.7715 38.0304 24.9563 38.0304 24.1515 38.0304C24.1515 38.8329 24.1515 39.6034 24.1515 40.3845C24.9772 40.3845 25.7819 40.3845 26.6076 40.3845ZM38.0728 40.3845C38.0728 39.582 38.0728 38.8115 38.0728 38.0304C37.2366 38.0304 36.4319 38.0304 35.6271 38.0304C35.6271 38.8329 35.6271 39.6034 35.6271 40.3845C36.4423 40.3845 37.2471 40.3845 38.0728 40.3845ZM38.0728 43.8834C37.2262 43.8834 36.4214 43.8834 35.6167 43.8834C35.6167 44.686 35.6167 45.4671 35.6167 46.2375C36.4528 46.2375 37.2575 46.2375 38.0728 46.2375C38.0728 45.4457 38.0728 44.6753 38.0728 43.8834ZM41.344 46.2375C42.1801 46.2375 42.9849 46.2375 43.8001 46.2375C43.8001 45.435 43.8001 44.6646 43.8001 43.8941C42.964 43.8941 42.1592 43.8941 41.344 43.8941C41.344 44.6967 41.344 45.4671 41.344 46.2375ZM20.8802 26.2602C20.0337 26.2602 19.2394 26.2602 18.4346 26.2602C18.4346 27.0627 18.4346 27.8438 18.4346 28.6142C19.2707 28.6142 20.065 28.6142 20.8802 28.6142C20.8802 27.8224 20.8802 27.0627 20.8802 26.2602ZM24.1515 28.6142C24.9876 28.6142 25.7924 28.6142 26.5971 28.6142C26.5971 27.8117 26.5971 27.0413 26.5971 26.2709C25.761 26.2709 24.9563 26.2709 24.1515 26.2709C24.1515 27.0627 24.1515 27.8331 24.1515 28.6142ZM35.6167 26.2602C35.6167 27.0734 35.6167 27.8438 35.6167 28.6249C36.4423 28.6249 37.2471 28.6249 38.0623 28.6249C38.0623 27.8224 38.0623 27.052 38.0623 26.2602C37.2366 26.2602 36.4423 26.2602 35.6167 26.2602ZM41.3545 26.2602C41.3545 27.0734 41.3545 27.8438 41.3545 28.6142C42.1906 28.6142 42.9849 28.6142 43.8001 28.6142C43.8001 27.8224 43.8001 27.052 43.8001 26.2602C42.9849 26.2602 42.1802 26.2602 41.3545 26.2602ZM20.9011 32.156C20.0337 32.156 19.2394 32.156 18.4241 32.156C18.4241 32.9478 18.4241 33.7182 18.4241 34.5314C19.1976 34.5314 19.9501 34.5421 20.7026 34.5207C20.7653 34.5207 20.8907 34.3816 20.8907 34.296C20.9116 33.5898 20.9011 32.8836 20.9011 32.156ZM26.6076 34.51C26.6076 33.6968 26.6076 32.9264 26.6076 32.1453C25.7819 32.1453 24.9772 32.1453 24.162 32.1453C24.162 32.9478 24.162 33.7182 24.162 34.51C24.9876 34.51 25.7819 34.51 26.6076 34.51ZM38.0728 32.156C37.2262 32.156 36.4214 32.156 35.6167 32.156C35.6167 32.9585 35.6167 33.7182 35.6167 34.51C36.4528 34.51 37.2471 34.51 38.0728 34.51C38.0728 33.7182 38.0728 32.9478 38.0728 32.156ZM43.8001 32.156C42.964 32.156 42.1592 32.156 41.3545 32.156C41.3545 32.9585 41.3545 33.7182 41.3545 34.51C42.1802 34.51 42.9849 34.51 43.8001 34.51C43.8001 33.7182 43.8001 32.9478 43.8001 32.156ZM18.4137 40.3738C19.2394 40.3738 20.0441 40.3738 20.8802 40.3738C20.8802 39.582 20.8802 38.8115 20.8802 38.0304C20.0441 38.0304 19.2394 38.0304 18.4137 38.0304C18.4137 38.8222 18.4137 39.582 18.4137 40.3738ZM43.8001 38.0304C42.9536 38.0304 42.1488 38.0304 41.3545 38.0304C41.3545 38.8329 41.3545 39.6034 41.3545 40.3738C42.1906 40.3738 42.9849 40.3738 43.8001 40.3738C43.8001 39.582 43.8001 38.8115 43.8001 38.0304Z" fill="#18788E"/>
<path d="M27.0361 11.0444C27.0465 12.3499 27.057 13.6553 27.0465 14.9714C27.0465 15.057 26.8689 15.2068 26.7539 15.2282C25.0712 15.5278 23.3886 15.8167 21.7059 16.1056C20.4726 16.3196 19.2394 16.523 17.9329 16.7477C17.9329 14.8323 17.9329 12.9384 17.9329 11.0551C20.9743 11.0444 24.0052 11.0444 27.0361 11.0444Z" fill="#18788E"/>
</g>
<defs>
<clipPath id="clip0_356_1510">
<rect width="42" height="43" fill="white" transform="translate(12 12)"/>
</clipPath>
</defs>
</svg>
